P1
# CREATOR: GIMP PNM Filter Version 1.1
110 164
0000000000000000000000000000000000000000000000000000000000000000000000
0000000000000000000000000000000000000000000001011011011101010000000000
0000000000000000000000000000000000000000000000000000000000000000000000
0000000000000111111111111111111100000000000000000000000000000000000000
0000000000000000000000000000000010111111111101000000001111111111111111
1110000000000000000000000000000000000000000000000000000000000000000000
0111111111111111110000111101101011011110111000000000000000000000000000
0000000000000000000000000000000000000011111111011111111111010011111111
1111111111111101000000000000000000000000000000000000000000000000000000
0000000000111011110110110111110011111111111111111101100000000000000000
0000000000000000000000000000000000000000000000011111111111111111111111
0011111111111111111111110100000000000000000000000000000000000000000000
0000000000000000001111111111111111111011011111111111111111111110000000
0000000000000000000000000000000000000000000000000000000010111111111111
1111111111001111111111111111111111010000000000000000000000000000000000
0000000000000000000000000001011111111111111111111101111111111111111111
1110000000000000000000000000000000000000000000000000000000000000010011
1111111111111111111001111111111111111111111101000000000000000000000000
0000000000000000000000000000000000000101111111111111111111110111111111
1111111111111000000000000000000000000000000000000000000000000000000000
0000000011111111111111111111110011111111111111111111101000000000000000
0000000000000000000000000000000000000000000000101111111111111111111111
0111111111111111111111100100000000000000000000000000000000000000000000
0000000000000000011111111111111111111110011111111111111111111111000000
0000000000000000000000000000000000000000000000000000000000111111111111
1111111111011111111111111111111110010000000000000000000000000000000000
0000000000000000000000000101111111111111111111111101111111111111111111
1111000000000000000000000000000000000000000000000000000000000000000011
1111111111111111111101111111111111111111110001000000000000000000000000
0000000000000000000000000000000000000011111111111111111111100111111111
1111111111111000000000000000000000000000000000000000000000000000000000
0000010011111111111111111111110111111111111111111111110000000000000000
0000000000000000000000000000000000000000000000011111111111111111111111
0111111111111111111111101000000000000000000000000000000000000000000000
0000000000000000001111111111111111111111011111111111111111111100000000
0000000000000000000000000000000000000000000000000000000001111111111111
1111111110011111111111111111111111010000000000000000000000000000000000
0000000000000000000000001000111111111111111111111101111111111111111111
1110000000000000000000000000000000000000000000000000000000000000000111
1111111111111111111101111111111111111111111000000000000000000000000000
0000000000000000000000000000000000000011111111111111111111110111111111
1111111111111001000000000000000000000000000000000000000000000000000000
0000010111111111111111111111100111111111111111111111100000000000000000
0000000000000000000000000000000000000000000000001111111111111111111111
0111111111111111111111100000000000000000000000000000000000000000000000
0000000000000000011111111111111111111111011111111111111111111110100000
0000000000000000000000000000000000000000000000000000000000111111111111
1111111111011111111111111111111100000000000000000000000000000000000000
0000000000000000000000000101111111111111111111111001111111111111111111
1110100000000000000000000000000000000000000000000000000000000000000011
1111111111111111111101111111111111111111111000000000000000000000000000
0000000000000000000000000000000000000111111111111111111111100111111111
1111111111111010000000000000000000000000000000000000000000000000000000
0000000011111111111111111111110111111111111111111111000000000000000000
0000000000000000000000000000000000000000000001011111111111111111111111
0111111111111111111111110000000000000000000000000000000000000000000000
0000000000000000001111111111111111111111011111111111111111111100010000
0000000000000000000000000000000000000000000000000000000001111111111111
1111111110111111111111111111111110000000000000000000000000000000000000
0000000000000000000000000001111111111111111111111101111111111111111111
1110000000000000000000000000000000000000000000000000000000000000000111
1111111111111111111001111111111111111111111010000000000000000000000000
0000000000000000000000000000000000000111111111111111111111110111111111
1111111111110000000000000000000000000000000000000000000000000000000000
0000000111111111111111111111100111111111111111111111100000000000000000
0000000000000000000000000000000000000000000000001111111111111111111111
0111111111111111111111001000000000000000000000000000000000000000000000
0000000000000000011111111111111111111110011111111111111111111110000000
0000000000000000000000000000000000000000000000000000000001111111111111
1111111111011111111111111111111110000000000000000000000000000000000000
0000000000000000000000000101111111111111111111111001111111111111111111
1110100000000000000000000000000000000000000000000000000000000000000011
1111111111111111111101111111111111111111110000000000000000000000000000
0000000000000000000000000000000000000111111111111111111111100111111111
1111111111110100000000000000000000000000000000000000000000000000000000
0000000111111111111111111111110111111111111111111111100100000000000000
0000000000000000000000000000000000000000000000011111111111111111111110
0111111111111111111111100000000000000000000000000000000000000000000000
0000000000000000011111111111111111111111011111111111111111111100000000
0000000000000000000000000000000000000000000000000000000001111111111111
1111111110011111111111111111111101000000000000000000000000000000000000
0000000000000000000000000001111111111111111111111101111111111111111111
1100000000000000000000000000000000000000000000000000000000000000000111
1111111111111111111011111111111111111111111010000000000000000000000000
0000000000000000000000000000000000000111111111111111111111110111111111
1111111111110000000000000000000000000000000000000000000000000000000000
0000000111111111111111111111101111111111111111111111101000000000000000
0000000000000000000000000000000000000000000010011111111111111111111111
0111111111111111111111000000000000000000000000000000000000000000000000
0000000000000000011111111111111111111110111111111111111111111110000000
0000000000000000000000000000000000000000000000000000000001111111111111
1111111111011111111111111111111100100000000000000000000000000000000000
0000000000000000000000000001111111111111111111110101111111111111111111
1100000000000000000000000000000000000000000000000000000000000000100111
1111111111111111111001111111111111111111110010000000000000000000000000
0000000000000000000000000000000000000111111111111111111111111111111111
1111111111110000000000000000000000000000000000000000000000000000000000
0000000111111111111111111111100111111111111111111111001000000000000000
0000000000000000000000000000000000000000000000011111111111111111111111
0111111111111111111111000000000000000000000000000000000000000000000000
0000000000000000011111111111111111111110011111111111111111111100100000
0000000000000000000000000000000000000000000000000000000101111111111111
1111111110111111111111111111111100000000000000000000000000000000000000
0000000000000000000000000001111111111111111111111101111111111111111111
1100000000000000000000000000000000000000000000000000000000000000000111
1111111111111111110001111111111111111111111000000000000000000000000000
0000000000000000000000000000000000001111111111111111111111111111111111
1111111111111000001000000000000000000000000000000000000000000000000000
0010010111111111111111111111100111111111111111111111111000000000000000
0000000000000000000000000000000000000000000001111111111111111111111111
0111111111111111111111110100000000000000010010010001000000001000000000
0000000000000011111111111111111111111100111111111111111111111111111111
1111111111011111111111111111101111111111111010101001010111111111111111
1111111111011111111111111111111111111111111111111111101111110111111111
1101111011011111111111111111111111111111111111111011111111111111111111
1111111111111111111111111111111111111111111101111111011101111111111111
1111111111111111111001111111111111111111111111111111111111111111111111
1111111111111111111111111111111111111111111111111111111111101111111111
1111111111111111111111111111111111111111111111111111111111111111111111
1111111111111111111111111111100111111111111111111111111111111111111111
1111111111111111111111111111111111111111111111111111111111111111111111
1111111111111111111111111111111111111111111111111111111111111111111111
1111111111111111111111111111111111111110011111111111111111111111111111
1111111111111111111111111111111111111111111111111111111111111111111111
1111111110111111111111111111111111111111111111111111111111111111111111
1111111111111111111111111111111111111111111111111001111111111111111111
1111111111111111111111111111111111111111111111111111111111111111111111
1111111111111111111011111111111111111111111111111111111111111111111111
1111111111111111111111111111111111111111111111111111111111100111111111
1111111111111111111111111111111111111111111111111111111111111111111111
1111111111111111111111111111101111111111111111111111111111111111111111
1111111111111111111111111111111111111111111111111111111111111111111110
0111111111111111111111111111111111111111111111111111111111111111111111
1111111111111111111111111111111111111110111111111111111111111111111111
1111111111111111111111111111111111111111111111111111111111111111111111
1111111110111111111111111111111111111111111111111111111111111111111111
1111111111111111111111111111111111111111111111111011111111111111111111
1111111111111111111111111111111111111111111111111111111111111111111111
1111111111111111111001111111111111111111111111111111111111111111111111
1111111111111111111111111111111111111111111111111111111111011111111111
1111111111111111111111111111111111111111111111111111111111111111111111
1111111111111111111111111111100111111111111111111111111111111111111111
1111111111111111111111111111111111111111111111111111111111111111111101
1111111111111111111111111111111111111111111111111111111111111111111111
1111111111111111111111111111111111111110111111111111111111111111111111
1111111111111111111111111111111111111111111111111111111111111111111111
1111111100111111111111111111111111111111101111111111111111111111111111
1111111111111111111111111111111111111111111111111001111111111111111111
1110100000000000000000100000000000010101001010100101010101001011111111
1111111111111111110111111111111111111111110010000000000000000000000000
0000000000000000000000000000000000011111111111111111111111100111111111
1111111111110000000000000000000000000000000000000000000000000000000000
0001011111111111111111111111001111111111111111111111001000000000000000
0000000000000000000000000000000000000000000000111111111111111111111110
1111111111111111111110000000000000000000000000000000000000000000000000
0000000000000001011111111111111111111110111111111111111111111100000000
0000000000000000000000000000000000000000000000000000000011111111111111
1111111110011111111111111111111000100000000000000000000000000000000000
0000000000000000000000000011111111111111111111101011111111111111111111
1100000000000000000000000000000000000000000000000000000000000000000111
1111111111111111111011111111111111111111100000000000000000000000000000
0000000000000000000000000000000000001111111111111111111111001111111111
1111111111110000000000000000000000000000000000000000000000000000000000
0000001111111111111111111111101111111111111111111110000000000000000000
0000000000000000000000000000000000000000000010011111111111111111111110
1111111111111111111111000000000000000000000000000000000000000000000000
0000000000000000111111111111111111111110111111111111111111111000000000
0000000000000000000000000000000000000000000000000000000011111111111111
1111111010111111111111111111111100000000000000000000000000000000000000
0000000000000000000000000001111111111111111111111011111111111111111111
1000000000000000000000000000000000000000000000000000000000000000001111
1111111111111111110011111111111111111111110000000000000000000000000000
0000000000000000000000000000000000001111111111111111111111101111111111
1111111111000100000000000000000000000000000000000000000000000000000000
0000001111111111111111111111001111111111111111111110000000000000000000
0000000000000000000000000000000000000000000000011111111111111111111110
1111111111111111111110000000000000000000000000000000000000000000000000
0000000000000000111111111111111111111100111111111111111111111100000000
0000000000000000000000000000000000000000000000000000000011111111111111
1111111110111111111111111111111000000000000000000000000000000000000000
0000000000000000000000000011111111111111111111110011111111111111111111
1100000000000000000000000000000000000000000000000000000000000000001111
1111111111111111111011111111111111111111000000000000000000000000000000
0000000000000000000000000000000000001111111111111111111110101111111111
1111111111110000000000000000000000000000000000000000000000000000000000
0000000111111111111111111111101111111111111111111110000000000000000000
0000000000000000000000000000000000000000000000111111111111111111111000
1111111111111111111110000000000000000000000000000000000000000000000000
0000000000000000111111111111111111111110111111111111111111111000000000
0000000000000000000000000000000000000000000000000000000011111111111111
1111111100111111111111111111111100000000000000000000000000000000000000
0000000000000000000000000001111111111111111111111011111111111111111111
1000000000000000000000000000000000000000000000000000000000000000001111
1111111111111111110011111111111111111111100000000000000000000000000000
0000000000000000000000000000000000001111111111111111111111101111111111
1111111111100000000000000000000000000000000000000000000000000000000000
0000001111111111111111111110001111111111111111111111000000000000000000
0000000000000000000000000000000000000000000000111111111111111111111110
1111111111111111111100000000000000000000000000000000000000000000000000
0000000000000000111111111111111111111100111111111111111111111100000000
0000000000000000000000000000000000000000000000000000000011111111111111
1111111010111111111111111111110000000000000000000000000000000000000000
0000000000000000000000000011111111111111111111110011111111111111111111
1000000000000000000000000000000000000000000000000000000000000000000111
1111111111111111110011111111111111111111100000000000000000000000000000
0000000000000000000000000000000000001111111111111111111111001111111111
1111111111100000000000000000000000000000000000000000000000000000000000
0000001111111111111111111111101111111111111111111101000000000000000000
0000000000000000000000000000000000000000000000111111111111111111111000
1111111111111111111110000000000000000000000000000000000000000000000000
0000000000000000111111111111111111111110111111111111111111110100000000
0000000000000000000000000000000000000000000000000000000011111111111111
1111111000111111111111111111111000000000000000000000000000000000000000
0000000000000000000000000011111111111111111111110011111111111111111111
0000000000000000000000000000000000000000000000000000000000000000001111
1111111111111111110011111111111111111111110000000000000000000000000000
0000000000000000000000000000000000001111111111111111111111001111111111
1111111111000000000000000000000000000000000000000000000000000000000000
0000001111111111111111111111001111111111111111111110000000000000000000
0000000000000000000000000000000000000000000000011111111111111111111010
1111111111111111111101000000000000000000000000000000000000000000000000
0000000000000001111111111111111111111100111111111111111111111000000000
0000000000000000000000000000000000000000000000000000000011111111111111
1111111100111111111111111111110000000000000000000000000000000000000000
0000000000000000000000000011111111111111111110101011111111111111111111
0100000000000000000000000000000000000000000000000000000000000000000111
1111111111111111110011111111111111111111000000000000000000000000000000
0000000000000000000000000000000000011111111111111111111110001111111111
1111111111010000000000000000000000000000000000000000000000000000000000
0000000111111111111111111111001111111111111110111110000000000000000000
0000000000000000000000000000000000000000000001111111111111111111111100
1111111111111111111110000000000000000000000000000000000000000000000000
0000000000000001011111111111111111111100111111111111111111100000000000
0000000000000000000000000000000000000000000000000000000011111111111111
1111111000111111111111111111110100000000000000000000000000000000000000
0000000000000000000000000101111111111111111111110011111111111111111111
1000000000000000000000000000000000000000000000000000000000000000001111
1111111111111111101011111111111111111110100000000000000000000000000000
0000000000000000000000000000000000010111111111111111111110001111111111
1111111111000100000000000000000000000000000000000000000000000000000000
0000001111111111111111111111001111111111111111111110000000000000000000
0000000000000000000000000000000000000000000000110111111111111111111100
1111111111111111111000000000000000000000000000000000000000000000000000
0000000000000001111111111111111111110000111111111111111111111000000000
0000000000000000000000000000000000000000000000000000000001111111111111
1011111100111111111111111111110000000000000000000000000000000000000000
0000000000000000000000000111111111111111111111100011111111111111011111
1000000000000000000000000000000000000000000000000000000000000000001111
0111111111111111110011111111111111111110000000000000000000000000000000
0000000000000000000000000000000000001111111111111111111110000111111111
1111111110000000000000000000000000000000000000000000000000000000000000
0000001111111111111111111111000010111111111111100000000000000000000000
0000000000000000000000000000000000000000000000011111111111111111110000
0000000000001010110000000000000000000000000000000000000000000000000000
0000000000000000001111111111111111101000000000000010000000000000000000
0000000000000000000000000000000000000000000000000000000000010101010100
0000000000000000000000000000000000000000000000000000000000000000000000
00000000000000000000000000000000000000000000000000