P1
# CREATOR: GIMP PNM Filter Version 1.1
127 190
0000000000000000000000000000000000000000000000000000000000000000000000
0000000000000000000000000000000000000000000000000000000000000000010101
1011011011101101010101010100101010101000100000000000000000000000000000
0000000000000000000000000000000000000000000000000101010101101101101011
0111101110110111011010101101011101011011010000000000000000000000000000
0000000000000000000000000000000000100101101101101111111111101111111011
0111011011111011010110101010110110110000000000000000000000000000000000
0000000000000000000000101011110110111111111011011011111011101111110111
1101111011110101010101010000000000000000000000000000000000000000000000
0000000101011011111111101101111111011110111011110110110111111011110111
0101101101011110000000000000000000000000000000000000000000000000010110
1111111101111111111111111111111111111111111011011111111111110111011101
0101001000000000000000000000000000000000000000000000100111111011111111
1111111101111111111011111011111111111011111011110110101101111100111000
0000000000000000000000000000000000000010111111111111111111111111111111
1111111111111111011111111111111111111111111110101111011101000000000000
0000000000000000000000000101110111111111111111111111111111111111111111
1111111111111011111111111111011111110110101101000000000000000000000000
0000000000000110111111111111111110111111111111111111111110111111111111
1111011111111111111111111111101110100000000000000000000000000000000000
1111111111111111111111111111111111111101111111111111111111111111111111
1111011011011011111101000000000000000000000000000000000010111111111111
1110111111111111111111110111111101111111111111111111101111011111111111
1111011110100000000000000000000000000000000010111111111111111111111111
1111111111111111111111111111111111111111111111111111111111111111111010
0000000000000000000000000000001110111111111111111111111111111111111111
1111111111111111111111111111111111111011101111111110101101000000000000
0000000000000000000111011111111111111111111111111111111111111111111111
1111111111111011111110111111111011111111111100000000000000000000000000
0000111111111111111111111111111111111111111111111111111111111101110111
1110111111111111111111111110101011000000000000000000000000000100110111
1111111111111111111111111111111111111111111111111111111111111111111111
1111111111011111011010100000000000000000000000000111111111111111111111
1111111111111111111111111111111111111111111111111111011011110110111111
1111011101000000000000000000000000100110101111111111111111111111111111
1111011111101111101110111111101111110111111111111111111111111011101010
0000000000000000000000011111111111111111111111111111111010101111110111
0101111111011101111110111101101111011110111111111111111000000000000000
0000000000101111111111111111111111111110111111110101111011101100101010
1101101110101111111111111111011011111111110100000000000000000000001011
1111111111111111111111111101010100101010101010100100101010010101010101
0101010110111111111111101111100000000000000000000000101101111111111111
1111111110101011010011010111010101001001000001000100101101111010111101
1111111111111111111100000000000000000000010111111111111111111110111010
1000100000010010000000000010001000101010100100101101011111011110111111
1111110100000000000000000000011011111111111111111110101000000000010000
0000000100000000000000000000001010010101010111111111111111111111010000
0000000000000011011111111111111111111010000000000000000000000000000000
0000000000000000000000010101010101011111111111111111000000000000000000
0001011111111111111111010000000000000000000000000000000000000000000000
0000000000000010010101011111111111111111100000000000000000010111111111
1111111011000000000000000000000000000000000000000000000000000000000000
0010000010101011111111111110000000000000000000010111111111111111010000
0000000000000000000000000000000000000000000000000000000000000010010011
1111111111111111000000000000000000011111111111111111000100000000000000
0000000000000000000000000000000000000000000000000000001010111111111111
1010000000000000000100011111111111111101000000000000000000000000000000
0000000000000000000000000000000000000000001010101111111011111100000000
0000000011011111111111101000000000000000000000000000000000000000000000
0000000000000000000000000000001011111111111111100000000000000000000111
1111111111110100000000000000000000000000000000000000000000000000000000
0000000000000010000101111111111111111000000000000000111111111111111000
0000000000000000000000000000000000000000000000000000000000000000000000
0000011111111111111111010000000000000000001111111111111100000000000000
0000000000000000000000000000000000000000000000000000000000000001010111
1111111111010000000000000011111111111111100100000000000000000000000000
0000000000000000000000000000000000000000000000000001111111111111110100
0000000000000001011111110111110000000000000000000000000000000000000000
0000000000000000000000000000000000000001101111111111111100000000000000
1011111111111101001000000000000000000000000000000000000000000000000000
0000000000000000000000000101111111111111010000000000000001011111111111
1110000000000000000000000000000000000000000000000000000000000000000000
0000000000000001011111111111110000000000000001101111111110110100000000
0000000000000000000000000000000000000000000000000000000000000000000000
1011110111111110100000000000001001111111111111101000000000000000000000
0000000000000000000000000000000000000000000000000000000000010111111111
1110100000000000001011111111111100100000000000000000000000000000000000
0000000000000000000000000000000000000000000001011111111111111000000000
0000010111111111111101100000000000000000000000000000000000000000000000
0000000000000000000000000000000000011111111110111000000000000001011111
1111111000000000000000000000000000000000000000000000000000000000000000
0000000000000000000011111111111111010000000000000001111111111111111000
0000000000000000000000000000000000000000000000000000000000000000000000
0000000001011111111111110000000000010110111111111111001000000000000000
0000000000000000000000000000000000000000000000000000000000000000010111
1111111110100000000000001111111111111111000000000000000000000000000000
0000000000000000000000000000000000000000000000000001011111111111111100
0000000000100111111111110100000000000000000000000000000000000000000000
0000000000000000000000000000000000000001011111111111100100000000000010
1011111101111110000000000000000000000000000000000000000000000000000000
0000000000000000000000000000101111111111100000000000001011111111111010
0000000000000000000000000000000000000000000000000000000000000000000000
0000000000000011111111110111010000000000001010111111111111000000000000
0000000000000000000000000000000000000000000000000000000000000000000000
0010111111110111000000000000010111111111111001000000000000000000000000
0000000000000000000000000000000000000000000000000000000001011111111111
1001000000000000011110111110111000000000000000000000000000000000000000
0000000000000000000000000000000000000000000001011011111111110000000000
0010110111111111001000000000000000000000000000000000000000000000000000
0000000000000000000000000000000101111111111110010000000000001011111111
1111100000000000000000000000000000000000000000000000000000000000000000
0000000000000000000110111111111111000000000000010101111111110000000000
0000000000000000000000000000000000000000000000000000000000000000000000
0000010111111111101101000000000100001111111111111000000000000000000000
0000000000000000000000000000000000000000000000000000000000000000101111
1111111100000000000010111111111101100000000000000000000000000000000000
0000000000000000000000000000000000000000000000000110111111111101000000
0000000010011111111111110000000000000000000000000000000000000000000000
0000000000000000000000000000000000000111111111111110100000000000010111
1111111101000000000000000000000000000000000000000000000000000000000000
0000000000000000000000101111111111111010000000000000010111111111101100
0000000000000000000000000000000000000000000000000000000000000000000000
0000000000010111111111111010000000000010111111111111100000000000000000
0000000000000000000000000000000000000000000000000000000000000000001111
1111111011101000000000000001011111111111110000000000000000000000000000
0000000000000000000000000000000000000000000000000000000111111111111110
0000000000001011111111111010100000000000000000000000000000000000000000
0000000000000000000000000000000000000000111111111111010010000000000001
0011111111111111000000000000000000000000000000000000000000000000000000
0000000000000000000000000001011111111111110100000000000000111111111111
0010000000000000000000000000000000000000000000000000000000000000000000
0000000000000101111111111111100000000000000010110111111111010000000000
0000000000000000000000000000000000000000000000000000000000000000000000
1111111111111111110000000000000111111111111101010000000000000000000000
0000000000000000000000000000000000000000000000000000000010111111111111
1000000000000000000101111111111101000000000000000000000000000000000000
0000000000000000000000000000000000000000000011111111111011101000000000
0000001111111111111100000000000000000000000000000000000000000000000000
0000000000000000000000000000011111111111111110100000000000001000111111
1111111110000000000000000000000000000000000000000000000000000000000000
0000000000000000101011111111111010100000000000001011111111111110000000
0000000000000000000000000000000000000000000000000000000000000000000000
0101111111111101111000000000000000000101111111111111100000000000000000
0000000000000000000000000000000000000000000000000000000000010111111111
1111010000000000000000010111111111111010000000000000000000000000000000
0000000000000000000000000000000000000000000011111111111111101010000000
0000000000010111111111111010000000000000000000000000000000000000000000
0000000000000000000000000000001011011111111011110100000000000000001011
1111111111110100000000000000000000000000000000000000000000000000000000
0000000000000000111111101111111101000000000000000000000111111111111111
1100000000000000000000000000000000000000000000000000000000000000000000
0100101111111110111111000000000000000000001111111111111110010000000000
0000000000000000000000000000000000000000000000000000000000011101111111
1111010100000000000000000010010111111111111110100000000000000000000000
0000000000000000000000000000000000000000000001011101111111101110000000
0000000000000001011111111111111101000000000000000000000000000000000000
0000000000000000000000000000010010111111111111110010000000000000000000
0011111111111111111111000000000000000000000000000000000000000000000000
0000000000000000010111011111111101110100000000000000000001001011111111
1111111111000000000000000000000000000000000000000000000000000000000000
0101111111111111111101000000000000000000000010101111111111111111111111
1000000000000000000000000000000000000000000000000000000110110110111111
1101111101010000000000000000000010111111111111111111111110110101010010
0010100100100010000000000000000010001011101110111111111111111111110000
0000000000000001010010111111111111111111111110111111111111110110110111
0111101111111111011011011010101111111111011111111011101000000000000000
0001010101111111111111111111111111101101111111110111111011111011011011
0101101101101111110111111111111111111100000000000000000000000001011111
1111111111111111111111111111111111111111111111111111111111111111101110
1011101110111111111101111010000000000000000000010101111111111111111111
1111111111111111111111111111111111111111111111111111111111111111111101
1110111111010000000000000000000000010101111111111111111111111111111111
1111111111111111111111111111101111111111111111101101011111111111111111
1000000000000000000000010111111111111111111111111111111111111111111111
1111111111111111111111011111111111111111101111111111010000000000000000
0000000000010111111111111111111111111111111111111111111111111111111111
1111111111111111011111110111101011111111101000000000000000000000000101
1111111111111111111111111111111111111111111111111111111110111110111111
0111110110111111111111111111100000000000000000000000100011111111111111
1111111111111111111111111111111111111111111111111110101111111111111111
0111111111111111010000000000000000000000010101111111111111111111111111
1111111111111111111111111111111101011111111111011111111111111011011111
0101000000000000000000000000000101111111111111111111111111111111111111
1111111111111111111111111111110111010111110111111111111111101100000000
0000000000000001010111111111111111111111111111111111111111111111111011
0110111101110110111111111111111111111111011111110010000000000000000000
0000101111111111111111111111111111111111111111111101111111111111110110
1110110101010111101111111111111111110000000000000000000000001011111111
1111111111111111111111101110111111011110111111101010110110101011010101
0101111111111111111110101000000000000000000000000011111111111111111000
0001010010101010011010111110101011010100010101000001000101010101101111
1111111111010000000000000000000000101011111111111111001001010000100100
1010101101001010001000000000000000100000000000010111111111111111111101
0000000000000000000000101111111111111110010000001000000000010000101010
1010000000010000010000000000000000100101111111111111101110100000000000
0000000000111111111111110101010000100100000000001010100000000100010000
1000000000000000000100010110111111111111110110010000000000000001000011
1111111111111010000000000100010001000000100100000000000000010000000000
0000000001010111101111111111111110000000000000000000010111111111111101
1001000000000000000000000000000000000000000000000001000000000000100010
0101111111111111111110100000000000000000101111111111111110100100000000
0000000000000000000000000000000000000000000010000000010010111011111111
1111111110000000000000000000101111111111111010000000000000000000000000
0000000000000000000000000000000000000010000010111101111111111111010100
0000000000001010111111111111110100000000000000000000000000000000000000
0000000000000000000000000000100101011111111111111111110100001011000000
0111111111111110100000000000000000000000000000000000000000000000000000
0000000000000000001010101111111111111110110111101010000000001111111111
1111011000000000000000000000000000000000000000000000000000000000000000
0000000101110111111111111111101001010110000001011111111111110100000000
0000000000000000000000000000000000000000000000000000000000001010101011
0111111111111111101101101010000101111111111111101000000000000000000000
0000000000000000000000000000000000000000000000000001010110111111111111
1111010010010000100111111111111110100000000000000000000000000000000000
0000000000000000000000000000000000000001010101001111111111111101001001
0000000111111111111101100000000000000000000000000000000000000000000000
0000000000000000000000000000001011101111111111111010001010001011111111
1111111101000000000000000000000000000000000000000000000000000000000000
0000000000000001001001111111111111111001000100000001111111111111100000
0000000000000000000000000000000000000000000000000000000000000000000000
0001001011111111111110111001000000111111111111111111010000000000000000
0000000000000000000000000000000000000000000000000000000000000010101111
1111111110101001010000001111111111111110100000000000000000000000000000
0000000000000000000000000000000000000000000000000101011011111101111010
1000000011111111111111111101000000000000000000000000000000000000000000
0000000000000000000000000000000000000011011101101111111010010000001011
1111111111111100000000000000000000000000000000000000000000000000000000
0000000000000000000000000010101111111111111010010000101111111111111110
1000000000000000000000000000000000000000000000000000000000000000000000
0000000000000000101111111111101010000000101111111111111111100000000000
0000000000000000000000000000000000000000000000000000000000000000000000
0001000111111111110101000101111111111111111010000000000000000000000000
0000000000000000000000000000000000000000000000000000000000010111111111
1111110100000001111111111111111100000000000000000000000000000000000000
0000000000000000000000000000000000000000000000010111011111110110100001
0101111111111111110100000000000000000000000000000000000000000000000000
0000000000000000000000000000000000101111111111111010010000011111111111
1111101000000000000000000000000000000000000000000000000000000000000000
0000000000000000000000101011111111111010000101111111111111111110000000
0000000000000000000000000000000000000000000000000000000000000000000000
0000000010111111111111011010000101111111111111111110000000000000000000
0000000000000000000000000000000000000000000000000000000000000000000101
1111111111011010011010111111111111110010000000000000000000000000000000
0000000000000000000000000000000000000000000000000000001110111111111100
1000011111111111111111110000000000000000000000000000000000000000000000
0000000000000000000000000000000000000000000111111111111100000010111111
1111111111010000000000000000000000000000000000000000000000000000000000
0000000000000000000000000001011111111111110100101011111111111111111100
0000000000000000000000000000000000000000000000000000000000000000000000
0000000000000000101111111111110100010111111111111111101010000000000000
0000000000000000000000000000000000000000000000000000000000000000000000
0101011111111111100010110111111111111111101000000000000000000000000000
0000000000000000000000000000000000000000000000000000000000001011111111
1101110000101111111111111111110000000000000000000000000000000000000000
0000000000000000000000000000000000000000000000101011111111110100100101
1111111111111111010000000000000000000000000000000000000000000000000000
0000000000000000000000000000000000101111111111111000010111111111111111
1001000000000000000000000000000000000000000000000000000000000000000000
0000000000000000000000111111111111111010001011111111111111101000000000
0000000000000000000000000000000000000000000000000000000000000000000000
0000001000111111111101010001010111111111111111110000000000000000000000
0000000000000000000000000000000000000000000000000000000000000000010111
1111111110000001011111111111111110110000000000000000000000000000000000
0000000000000000000000000000000000000000000000000000010111111110110100
0101111111111111110110000000000000000000000000000000000000000000000000
0000000000000000000000000000000000000000011111111110110000010111111111
1111110110000000000000000000000000000000000000000000000000000000000000
0000000000000000000000000000101111111100110000010111111111101111000000
0000000000000000000000000000000000000000000000000000000000000000000000
0000000000000010111111111100001001010111111011110111010000000000000000
0000000000000000000000000000000000000000000000000000000000000000000000
0101111111111110000101011111011101111010000000000000000000000000000000
0000000000000000000000000000000000000000000000000000000001011111111110
0100000001010111011111011111000000000000000000000000000000000000000000
0000000000000000000000000000000000000000000000101111111111010000110111
1011110111010000000000000000000000000000000000000000000000000000000000
0000000000000000000000000000010110111101010100010000100101111111011101
0000000000000000000000000000000000000000000000000000000000000000000000
0000000000000000000111111111110110000000101101101111110101000000000000
0000000000000000000000000000000000000000000000000000000000000000000000
0001010101111111101000000010101111111111101000000000000000000000000000
0000000000000000000000000000000000000000000000000000000000001011110111
1111100100010010111111111111100000000000000000000000000000000000000000
0000000000000000000000000000000000000000000000101101111111110000001001
0010111111111010100000000000000000000000000000000000000000000000000000
0000000000000000000000000000000000001111111111111010000000101111111111
1101000000000000000000000000000000000000000000000000000000000000000000
0000000000000000000111111111111111010100000100101111111111101000000000
0000000000000000000000000000000000000000000000000000000000000000000000
0000100011011111111111010000000011110111111111101000000000000000000000
0000000000000000000000000000000000000000000000000000000000000011111111
1111111110100000000001111111111111101000000000000000000000000000000000
0000000000000000000000000000000000000000000000010000111111111111110000
1000010101111111111001000000000000000000000000000000000000000000000000
0000000000000000000000000000000000011111111111111110010100000000011111
1111111110100000000000000000000000000000000000000000000000000000000000
0000000000000000000010111111111111111110100000000101111111111111001000
0000000000000000000000000000000000000000000000000000000000000000000000
0000001011111111111111110100010000000011111111111111010000000000000000
0000000000000000000000000000000000000000000000000000000000000000100111
1111111111101000000000001011111111110110000000000000000000000000000000
0000000000000000000000000000000000000000000000010111111111111111111000
0000000000010111111111101110010000000000000000000000000000000000000000
0000000000000000000000000000000000000011111111111111111101000000001001
1111111111110110000000000000000000000000000000000000000000000000000000
0000000000000000000010111111111111111111010100000000010001111111111111
1100100000000000000000000000000000000000000000000000000000000000000000
0000000101111111111111111110100001000000000111111111111111010000000000
0000000000000000000000000000000000000000000000000000000000000101011111
1111111111111010100000000000101111111111111111111000000000000000000000
0000000000000000000000000000000000000000000000000101111111111111111111
0100100100000001011111111111111111010000000000000000000000000000000000
0000000000000000000000000000000100101111111111111111111010001000000000
0001011111111111111110111010000000000000000000000000000000000000000000
0000000000000001000000101111111111111111010100000000000000001101111111
1111111111011010101001001001000000000000000000000000000000000000000010
1000010011111111111111111111010000000000000001001111111111111111111101
1011101011011001010101000000000000000000000000000000100000000001101111
1111111111110101001000000000000000111111111111111111111111110111011101
1010101101110101010100010010100010000000000000111111111111111111111111
0000000000000000010000101111111111111111111111111111011111111010110111
0110111010101000010000010001010101010111111111111111110110100000000000
0000000101011111111111111111111111111111111111111111011011101111111110
1101011100101010111011101111111111111111110010000000000000000000001111
1111111111111111111111111111111111111111111111111111011110111101111011
1101011111111111111111111110100010000000000000000010011111111111111111
1111111111111111111111111111111111111111111111101011011101111111111111
1111111111101010100000000000000000000010111111111111111111111111111111
1111111111111111111111111111111111111111111011011111111111111111110101
0000000000000000000000000010111111111111111111111111111111111111111111
1111111111111111111111110111011111111111111111111111110100100000000000
0000000000000101111111111111111111111111111111111111111111111111111111
1111111111111111111111111111111111111010100000000000000000000000000000
1011111111111111111111111111111111111111111111111111111111111111111111
1111111111111111111101111010000000000000000000000000000010111111111111
1111111111111111111111111111111111111111111111111111111111111111111111
1111111110010100001000000000000000000000000010111111111111111111111111
1111111111111111111111111111111111111111111111111111111111111111101100
0000000000000000000000000000010010111111111111111111111111111111111111
1111111111111111111111111111111111111111111111110110100000000000000000
0000000000000000001011111111111111111111111111111111111111111111111111
1111111111111111111111111111111001110100010000000000000000000000000000
0000001001111111111111111111111111111111111111111111111111111111111111
1111111111111111111000100000000000000000000000000000000000001010111111
1111111111111110111111111111111111111111111111111111111111111111110110
1010010000010000000000000000000000000000000000000100011111111111110101
0101111011110111111111111111111111111111111111111110110110100000000000
0000000000000000000000000000000001000101001101111010101000110101100111
0100100001010101101101111111110101001100010000000100000001000000000000
0000000000000000000010100001001000010101001000010000100010101001001000
1010101010101010101001000100000000000000010000000000000000000000000000
0000000000010100010100000100100100000100101001001000100100001010010000
1000000000000000000000001000000000000000000000000000000000000000100000
0100000000100000001001000000010010001000100101000000101000101000010000
00000000000000000000000000000000000000000000000000