P1
# CREATOR: GIMP PNM Filter Version 1.1
122 164
0000000000010000001000100000000000000000000000000000000000000000000000
0000000000000000000000000000000000000010010101011010000000001000000100
0000001000000000000000000000000000000000000000000000000000000000000000
0000000000000000101111111111111111000000010010110101011010001000000010
0100010010010001001001001001000100100000100010000100000000000000000001
0110110110101011000001001111111111111111000000100000000000000000000000
0000000000000000001000000000000001001000000000000001011111111111111100
0000111011101101010110100000000000000000000000100000000000000000000000
0000000001000000000000100000000110111111111111111100000101110111111111
1011001000000000100001000000000000000001001000000000000010000000000000
0000000000000011111111111111111100100111111111111111111100000000000000
0000000000001001000000000000100000000000000000000000000000000010111111
1111111111111100100011111111111111111110010000100000000000100000000001
0000000000001000100000000000000000000000000000101111111111111111110000
0111111111111111111100000100000010000000000000000000000100000000000000
0000010010000000000000000010111111111111111111110010001111111111111111
1111000000000000001000001000000000000000100000000000000000000000010000
0000000001011111111111111111110000101111111111111111111100000000000000
0000000000000000000000000000000000100000000000000000000000010111111111
1111111111110000001111111111111111111110000000000000000000000010000100
0000000000100000000000000000000000000000000111111111111111111111001001
1111111111111111111110000100000000000000000000000000000000100000000000
0000000000000000000000101111111111111111111111000000111101111111111111
1111000000000000000000000000000000000000000000000000000000000000000000
0000101111111111111111111111001001111111111111111111111100000000000000
0001000000000000000000000000000000000001000000000000000001111111111111
1111111111000000111111111111111111111110001000001000000000000010000010
0000000000000000000000000000000000000101111111111111111111111100000111
1111111111111111111111000000000000000000000000010000000000000000000000
0000000000000000000011111111111111111111111100100011111110111111111111
1111000000000000000000000000000000000000000000000000000000000000000000
0101111111111111111111111100000011111111111111111111111110000000000000
0000000000000000000000010000000000000000000000000001011111111111111111
1111111100000011111111111111111111111110000000000000000000000000000000
0000000000000000000000000000000000011111111111111111111111110001001111
1111111111111111111111000000000000000000000000000000000000000000000000
0000000000000010111111111111111111111111110000001111111111111111111111
1111000000000000000000000000000000000000000000000000000000000000001011
1111111111111111111111110000001111111111111111111110111110000000000000
0000000000000000000000000000000000000000000000000111111111111111111111
1111110100001111111111111111111111111111000000000000000000000000000000
0000000000000000000000000000010110111111111111111111111111000001111111
1111111111111111111110000000000000000000000000000000000000000000000000
0000000000011111111111111111111111111110000001111101111101111111111111
1111000000000000000000000000000000000000000000000000000000000101111111
1111111111111111111110000001111111111111111111111111111100000000000000
0000000000000000000000000000000000000000000011111111111111111111111111
1111000001111111111111111111111111111110000000000000000000000000000000
0000000000000000000000000111111111111111111111111111111000000111111111
1111111111111111111111000000000000000000000000000000000000000000000000
0000001011111111111111111111111111111000000111111111111111111111111111
1111000000000000000000000000000000000000000000000000000000111111111111
1111111111111111111000000111111111111101111111111111111110000000000000
0000000000000000000000000000000000000001111111111111111111111111111111
1100000011111111111111111111111111111110000000000000000000000000000000
0000000000000000000000111111111111111111111111111111100000011111111111
1111111111111111111111000000000000000000000000000000000000000000000000
0011111111111111111111111111111111110000001111011111111111111111111111
1111000000000000000000000000000000000000000000000000000111111111111111
1111111111111111100000011111111111111111111111111111111110000000000000
0000000000000000000000000000000000011111111111111111111111111111111111
0000001111111111111111111111111111111111000000000000000000000000000000
0000000000000000001111111111111111111111111111111110000001111111111111
1111111111111111111111000000000000000000000000000000000000000000000011
1111111111111111111111111111111111000000111111111111111111111111111111
1111100000000000000000000000000000000000000000000001111111111111111111
1111111111111110001001111110111111111111111111111111111110000000000000
0000000000000000000000000000000111111111111111111111111111111111111100
0000111111111111111111110111111111111111000000000000000000000000000000
0000000000000111111111111111111111111111111111111000000111111111111111
1111111111111111111111100000000000000000000000000000000000000000011111
1111111111111111111111111111111100000011111111111111111111111111111111
1111100000000000000000000000000000000000000000111111111111111111111111
1111111111111000000111111111111111111111111111111111111111000000000000
0000000000000000000000000001111111111111111111111111111111111111110000
0111111111110111111111111111111111111111000000000000000000000000000000
0000000011101111111111111111111111111111111111000000111111111111111111
1111111110111111111110000000000000000000000000000000000000011111111111
1111111111111111111111111111100000011101111111111111111111111111111111
1111100000000000000000000000000000000000011111111111111111111111111111
1111111111000000011111111111111111111111111111111111111110000000000000
0000000000000000000000111111111111111111111111111111111111111110000001
1111111111111111111111111111111111111111000000000000000000000000000000
0000111111111111111111111111111111111111111100000001111111111111111111
1111111111111111111111100000000000000000000000000000000111111111111111
1111111111111111111111111110000001111111111111111111111111111111111111
1111100000000000000000000000000000000111111111111111111111111111111111
1111111110000011111111111111111111111111111111111111111111000000000000
0000000000000000001111111111111111111111111111111111111111111000000111
0111111111111111111111111111111111111111000000000000000000000000000000
1111111111111111111111111111111111111111111000000111111111111111111111
1111111111111111110111100000000000000000000000000001111111111111111111
1111111111111111111111110000000111111111111111111111111111111111111111
1111110000000000000000000000000001111111111111111111111111111111111111
1111111000000111111111111011111111111111111111111111111111000000000000
0000000000000011111111111111111111111111111111111111111111100000011111
1111111111111111111111111111111111111111100000000000000000000000011111
1111111111111111111111111111111111111111000000011111111111111111111111
1111111111111111111101100000000000000000000000011111111111111111111111
1111111111111111111111100000011110111111111111111111111111111111111111
1111110000000000000000000000111111111111111111111111111111111111111111
1111100000011111111111111111101111111101111111111111111111000000000000
0000000000111111111111111111111111111111111111111111111110000001111111
1111111111111111111111111111111111111111100000000000000000000111111111
1111111111111111111111111111111111111110000001111111111111111111111111
1111111111011111111111110000000000000000000111111111111111111111111111
1111111111111111111110000001111110111111111111111111111111111111111111
1111110000000000000000001111111111111111111111111111111111111111111111
1110000001111111111111111111111111111111111111111111111111100000000000
0000001111111111111111111111111111111111111111111111111000001111111111
1111111111111111111111111111111111111111100000000000000011111111111111
1111111111111111111111111111111111110000001111111111111111111111111111
1111111111111111111111100000000000000011111111111111111111111111111111
1111111111111111110000001111111111111111111111111111111111111111111111
1111110000000000000111111111111111111111111111111111111111111111111111
0000000111111111111111111111111111111111111111111110111111100000000000
1111111111111111111111111111111111111111111111111111000000111111111111
1111111111111111111111111110111111111111110000000000111111111111111111
1111111111111111111111111111111111000000111111111111111111111111111111
1101111111111111111111111000000011111111111111111111111111001011111111
1111111111111111000000111111111111111111111111110111111111111111111111
1111111111010111111111111111111111111100000000111111111111111111111100
0000011111111111111111111110000000111101111111111111111111111111111111
1111111111111111111000000000011111111111111111111100000001111111011111
1111111110000000001111111111111111111111111111111111111111111111111111
0000000000001111111111111111111100000011111111111110111111100000000000
0111111111111111111111111111111111111111111111111110000101000000111111
1111111111111100000001111111111111111111110000010000001111111111110111
1011111111111111111111111111111110000000010000011111111111111111110000
0011111111111111111111000001000100001111111111111111111111111111111111
1111111111111100000000000000111111111111111111110000000111111111111111
1111000000000000000110111111111111111111111111111111111111111111100000
0000000000011111111111111111110000001111111111111111111110000000000000
0111111111111111111111111111111111111111111111100000000000000001111111
1111111111110000000111111111111111111100000000000000001111111111111111
1111111111111111111111111111100000000000000001111011111111111111000000
0111111111111111111100000000000000000111111111111111111101111111111111
1111111111000000000000000001111111111111111111000000011111111111111111
1100000000000000000111110111111110111111111111111111111111111000000000
0000000001111111111111111111000000111111111111111111111000000000000000
0011111111111111111111111111111111111111111000000000000000001111111111
1111111111100000011111111111111111110000000000000000001111101111111111
1111111111111111111111110000000000000000000111111111111111111100000011
1111111111111111100000000000000000001111111111111111111111111111111111
1111100000000000000000001111111111111111111000000011101111111111111110
0000000000000000000111111111111111111111111111111111111100000000000000
0000001111111111111111111000000011111111111111111110000000000000000000
0111111111111111111111011111111111111000000000000000000000111111111111
1111111000000111111111111111111110000000000000000000001111111111111111
1111111111111111111000000000000000000000111111111111111111100000001111
1111111111111111000000000000000000000111111111111111111111111111111111
1000000000000000000000111111111111111111100000001111111111111111111000
0000000000000000000111101111110111111111111111111111000000000000000000
0000111110111111111111100000001111111111111111111100000000000000000000
0011111111111111111111111111111110000000000000000000000011111111111111
1111110000001110111111111111111000000000000000000000001111111111111111
1111111111111110000000000000000000000011111111111111111110000001111111
1111111111111100000000000000000000000111111111111111111111111111110000
0000000000000000000011111111111111111111000000111111111111111111100000
0000000000000000000111111111111111111111111111110000000000000000000000
0011111111111111111110000000111111111111111111110000000000000000000000
0011111111111111111111111111100000000000000000000000001111111111111111
1111000000111111111111111111100000000000000000000000000110111111111111
0111111111100000000000000000000000001101111111111111111000000011111111
1111111111110000000000000000000000000111111111111111111111111100000000
0000000000000000001111111111111111111100000011111111111111111110000000
0000000000000000000011111111111111111111111100000000000000000000000000
1111111111111111111000000011111111111111111111000000000000000000000000
0011111111111111111111111000000000000000000000000000111111111111111111
1100000011111111111111111110000000000000000000000000000111011111111111
1111111000000000000000000000000000111111111111111111100000001111111111
1111111111000000000000000000000000000011111111111111111111000000000000
0000000000000000011111111111111111110000001110111111111111111000000000
0000000000000000000011111011111111111110000000000000000000000000000011
1111111111111111100000001111111111110111111100000000000000000000000000
0001111111111111111110000000000000000000000000000011111111111111111111
0000011111111111111111110000000000000000000000000000000111111111111111
1000000000000000000000000000000011011111111111111100000001111111111111
1111111000000000000000000000000000000111111111111111100000000000000000
0000000000000111111111111111111110000001111111111111111111000000000000
0000000000000000000011111111111111100000000000000000000000000000011111
1111111111111100000001111111111111111111100000000000000000000000000000
0011111111111111000000000000000000000000000000001111111111111111111000
0001110111111111111111000000000000000000000000000000000111101111111000
0000000000000000000000000000011111111111111111111000000111111111111111
1111100000000000000000000000000000000111111111110000000000000000000000
0000000000001111111111111111111000000111111111111111111110000000000000
0000000000000000000011111111110000000000000000000000000000000001111111
1111111111110000000111111111111111111110000000000000000000000000000000
0001111111110000000000000000000000000000000000111111111111111111100000
0111111111111111111100000000000000000000000000000000000111111110000000
0000000000000000000000000000111111111111111111000000011111110111111111
1110000000000000000000000000000000000011111100000000000000000000000000
0000000001111111111111111111100000011111111111111111111000000000000000
0000000000000000000011111110000000000000000000000000000000000011111111
1111111111100000011111111111111111111000000000000000000000000000000000
0001111000000000000000000000000000000000000011111111111111111110000001
1111111111111111111000000000000000000000000000000000000111100000000000
0000000000000000000000000011011111111111111100000000111111111111111111
1000000000000000000000000000000000000001000000000000000000000000000000
0000000111111111111111111110000001111111111111111111100000000000000000
0000000000000000000001000000000000000000000000000000000000001111111111
1111111110000001111111111111111111100000000000000000000000000000000000
0000000000000000000000000000000000000000001111111111111111111000000011
1111111111111111100000000000000000000000000000000000000000000000000000
0000000000000000000000011111111111111111111000000111111111111111111110
0000000000000000000000000000000000000000000000000000000000000000000000
0000001111111111111111111000000111111111111111111110000000000000000000
0000000000000000000000000000000000000000000000000000000000111111111111
1111111000000111111111111111111100000000000000000000000000000000000000
0000000000000000000000000000000000000001111111111111111111000000111111
1111111111111100000000000000000000000000000000000000000000000000000000
0000000000000000000001111111111111111111000000011111111111111111110000
0000000000000000000000000000000000000000000000000000000000000000000000
0001111111111111111111000000111111111111111111110000000000000000000000
0000000000000000000000000000000000000000000000000000000111111111111111
1111000000011111111111111111110000000000000000000000000000000000000000
0000000000000000000000000000000000000111111111111111111100000011111111
1111111111110000000000000000000000000000000000000000000000000000000000
0000000000000000000111111111111111111100000001111111111111111111000000
0000000000000000000000000000000000000000000000000000000000000000000000
0111111111111111111100000011111111111111111111000000000000000000000000
0000000000000000000000000000000000000000000000000000011111111111111111
1100000001111101111111111111000000000000000000000000000000000000000000
0000000000000000000000000000000000011111111111111111110000001111111111
1111111111000000000000000000000000000000000000000000000000000000000000
0000000000000000011111111111111111110000000111111111111111111100000000
0000000000000000000000000000000000000000000000000000000000000000000001
1111111111111111110000000111111111111111111100000000000000000000000000
0000000000000000000000000000000000000000000000000001111111111111111111
0000001111111111111111111100000000000000000000000000000000000000000000
0000000000000000000000000000000001111111111111111111000000011111111111
1111111100000000000000000000000000000000000000000000000000000000000000
0000000000000001111111111111111111000000011111111111111111110000000000
0000000000000000000000000000000000000000000000000000000000000000000111
1111111111111111000000111111111111111111110000000000000000000000000000
0000000000000000000000000000000000000000000000000111111111111111111100
0000011111111111111111110000000000000000000000000000000000000000000000
0000000000000000000000000000000111111111111111111100000001111111111111
1111110000000000000000000000000000000000000000000000000000000000000000
0000000000000111111111111111111100000001111111111111111111000000000000
0000000000000000000000000000000000000000000000000000000000000000011111
1111111111111100000111111111111111111110000000000000000000000000000000
0000000000000000000000000000000000000000000000011111111111111111110000
0011111111111111111110000000000000000000000000000000000000000000000000
0000000000000000000000000000111111111111111111100000001111111111111111
1110000000000000000000000000000000000000000000000000000000000000000000
0000000000111111111111111111100000001111111111111111111100000000000000
0000000000000000000000000000000000000000000000000000000000000011111111
1111111111110000001110111111111111111000000000000000000000000000000000
0000000000000000000000000000000000000000000011111111111111111110000000
1111111111111111111000000000000000000000000000000000000000000000000000
0000000000000000000000000001111111111111111111000000111111111111111111
1000000000000000000000000000000000000000000000000000000000000000000000
0000000011111111111111111110000000111111111111111111110000000000000000
0000000000000000000000000000000000000000000000000000000000001111111111
1111111111000000111111111111111111100000000000000000000000000000000000
0000000000000000000000000000000000000000001111111111111111111000000011
1111111111111111110000000000000000000000000000000000000000000000000000
0000000000000000000000000111111111111111111100000011111111111111111110
0000000000000000000000000000000000000000000000000000000000000000000000
0000001111111111111111111000000011111111111111111111000000000000000000
0000000000000000000000000000000000000000000000000000000000111111111111
1111111100000011111111111111111110000000000000000000000000000000000000
0000000000000000000000000000000000000000111111111111111111100000001111
1111111111111111000000000000000000000000000000000000000000000000000000
0000000000000000000000011111111111111111110000001111111111111111111000
0000000000000000000000000000000000000000000000000000000000000000000000
0000111111111111111111110000001111111111111111111100000000000000000000
0000000000000000000000000000000000000000000000000000000011111111111111
1111110000001111111111111111111000000000000000000000000000000000000000
0000000000000000000000000000000000000011111111111111111110000000111111
1111111111111100000000000000000000000000000000000000000000000000000000
0000000000000000000011111111111111111111000000111111111111111111100000
0000000000000000000000000000000000000000000000000000000000000000000000
0011111111111111111111000001111111111111111111100000000000000000000000
0000000000000000000000000000000000000000000000000000001111111111111111
1110000001111111111111111111100000000000000000000000000000000000000000
0000000000000000000000000000000000011111111111111111110000000111111111
1111111111100000000000000000000000000000000000000000000000000000000000
0000000000000000000111101101011010100000000111111111111111111100000000
0000000000000000000000000000000000000000000000000000000000000000000000
0000000000000000000000000011111111111111110100000000000000000000000000
0000000000000000000000000000000000000000000000000000000000000000000100
0000000010101000000000000000000000000000000000000000000000000000000000
0000000000000000000000000000000000000000100001000010000000