P1
# CREATOR: GIMP PNM Filter Version 1.1
70 87
0000000000000000000000000000000000000000000000000000000000101000000000
0000000000000000000000000000000000000000000000000000000111111110000000
0000000000000000000000000000000000000000000000000000011101111101000000
0000010110000000000000000000000000000000000000000000101111111111000000
0011111111110000000000000000000000000000000000000000111111111111000000
0111111111111000000000000000000000000000000000000000111111111111100000
0111111111111000000000000000000000000000000000000001111111111111100000
0111111111111100000000000000000000000000000000000001111111111111100000
0111111111111110000000000000000000000000000000000011111111011111000000
0011111111111110000000000000000000000000000000000011111111111111100000
0111111111111111000000000000000000000000000000000111111111111111000000
0111111111111111000000000000000000000000000000000111111111111111100000
0111111111111111100000000000000000000000000000001111111111111111100000
0011111111111111100000000000000000000000000000001111111111111111100000
0011111111111111110000000000000000000000000000011111111111111111100000
0011011111111111111000000000000000000000000000011011111111111111100000
0011111111111111111100000000000000000000000000011111111111111111100000
0011111111111111111100000000000000000000000000111111111111111111100000
0011111111111111111110000000000000000000000000111111111111111111100000
0011111111111111111111000000000000000000000001111111111111111111100000
0011111111111111111111000000000000000000000001111111111111111111100000
0011111111111111111111100000000000000000000011111111111111111111110000
0011111111111111111111100000000000000000000011111111111111111111100000
0011111111111111111111110000000000000000000111111111111111111111100000
0011111111111111111111111000000000000000001111111111111111111111110000
0011111111111111111111111000000000000000001111111111111111111111110000
0111111111111111111111111100000000000000011111111111111111111111100000
0011111111111111111111111100000000000000011111111111111111111111110000
0011111111111111111111111110000000000000111111111111111111111111111000
0011111111111111111111111110000000000000111111111111111111111111110000
0011111111111111111111111111000000000001111111111111111111111111110000
0011111111111111111111111111100000000001111111111111111111111111110000
0011111111111111111111111111100000000011111111111111111111111111100000
0011111111111111011111111111110000000111111111111111011111111111110000
0011111111111100011111111111110000000111111111111110011111111111110000
0011111111111100001111111111111000000111111111111010001111111111110000
0111111111111100000111111111111100011111111111111100000111111111100000
0011111111111100000111111111111111011111111111111000001111111111111000
0011111111111000000011111111111110111111111111111000000111111111110000
0011111111111100000001111111111111111111111111111000001111111111110000
0011111111111100000001111111111111111111111111100000000111111111111000
0011111111111000000000111111111111111111111111110000000111111111111100
0011111111111100000000111111111111111111111111000000000111111111110001
0011111111111100000000011111111111111111111111000000000111111111111000
0011111111111100000000001111111111111111111111000000000111111111110000
0011111111111100000000001111111111111111111110000000000111111111111000
0011111111111100000000000111111111111111111110000000000111111111110000
0011111111111100000000000011111111111111111110000000000111111111111100
0011111111111100000000000011111111111111111000000000000011111111111000
0011111111111100000000000001111111111111111100000000000111111111111000
0011111111111100000000000001111111111111110000000000000011111111111000
0011111111111100000000000000111111111111110000000000000111111111111000
0011111111111100000000000000111111111111110000000000000011111111111000
0011111111111100000000000000011111111111110000000000000111111111111100
0011111111111100000000000000011111111111000000000000000011111111111000
0011111111111100000000000000001111111111100000000000000011111111111000
0011111111111110000000000000000111111110000000000000000011111111111000
0011111111111100000000000000000001111010000000000000000011111111111100
0011111111111100000000000000000000000000000000000000000011111111111000
0011111111111100000000000000000000000000000000000000000011111111111000
0011111111111110000000000000000000000000000000000000000011111111111010
0111111111111100000000000000000000000000000000000000000011111111111000
0111111111111100000000000000000000000000000000000000000011111111111000
0011111111111100000000000000000000000000000000000000000011111111111100
0111111111111110000000000000000000000000000000000000000011111111111000
0011111111111100000000000000000000000000000000000000000011111111111100
0011111111111110000000000000000000000000000000000000000011111111111100
0011111011111110000000000000000000000000000000000000000011111111111100
0011111111111110000000000000000000000000000000000000000011111111111100
0011111111111110000000000000000000000000000000000000000011111111111100
0110111111111110000000000000000000000000000000000000000011111111111100
0111111111111110000000000000000000000000000000000000000011111111111110
0111111111111110000000000000000000000000000000000000000011111111111100
0101111111111110000000000000000000000000000000000000000011111111111100
0111101111111110000000000000000000000000000000000000000011111111111100
0011111111111111000000000000000000000000000000000000000011111111111100
0111111111111110000000000000000000000000000000000000000001111111111100
0111111111111111000000000000000000000000000000000000000011111111111110
0111111111111111000000000000000000000000000000000000000001111111111100
0011111111111111000000000000000000000000000000000000000011111111111110
0111111111111111100000000000000000000000000000000000000001111111111100
0011111111111111000000000000000000000000000000000000000001111111111110
0011111111111111100000000000000000000000000000000000000001111111111100
0000111111111111000000000000000000000000000000000000000001111111111110
0000111111111110000000000000000000000000000000000000000000111111111100
0000011111111111000000000000000000000000000000000000000000011111110100
0000000000000100000000000000000000000000000000000000000000000000000000