P1
# CREATOR: GIMP PNM Filter Version 1.1
119 160
0000000000000000000000000000000000000000010100101010101010101101101101
1011010100000000000000000000000000000000000000000000000000000000000000
0000110110111111111111111111111111111111111111111111111111110000000000
0000000000000000000000000000000000000001010111111111110111110110111011
1110111111111111111111111111111111111111100000000000000000000000000000
0000000000001111101110101101011111101111111111111111111111111111111111
1111111111111111101111100000000000000000000000000000000000001011111111
1111111111111111111111111111111111111111111111111111111111111111111111
1111000000000000000000000000000000000001111111111111111111111111111111
1111111111111111111111111111111111111111111111111111111000000000000000
0000000000000000001111111111111111111111111111111111111111111111111111
1111111111111111111111111111111111100000000000000000000000000000000011
1111111111111111111111111111111111111111111111111111111111111111111111
1111111111111111000000000000000000000000000000111111111111111111111111
1111111111111111111111111111111111111111111111111111111111111111110000
0000000000000000000000000111111111111111111111111111111111111111111111
1111111111111111111111111111111111111111111111100000000000000000000000
0000111111111111111111111111111111111111111111111111111111111111111111
1111111111111111111111111100000000000000000000000000001111111111111111
1111111111111111111111111111111111111111111111111111111111111111111111
1111111000000000000000000000000011111111111111111111111111111111111111
1111111111111111111111111111111111111111111111111111111110000000000000
0000000000011111111111111111111111111111111111111111111111111111111111
1111111111111111111111111111111111111000000000000000000000001111111111
1111111111111111111111111111111111111111111111111111111111111111111111
1111111111111111100000000000000000000001111111111111111111111111111111
1111111111111111111111111111111111111111111111111111111111111111111000
0100000000000000001111111111111111111111111111111111111111111111111111
1111111111111111111111111111111111111111111111000000000000000000000111
1111111111111111111111111111111111111111111111111111111111111111111111
1111111111111111111111111100001000000000000000111111111111111111111111
1111111111111111111111111111111111111111111111111111111111111111111111
1111110000000000000000001111111111111111111111111111111111111111111111
1111111111111111111111111111111111111111111111111111111000010000000000
1101111111111111111111111111111111111111111111111111111111111111111111
1111111111111111111111111111111111100000000000000010111111111111111111
1111111111111111111111111111111111111111110111111111111111111111111111
1111111111111110001000000000101011111111111111111111111111111111111111
1111111111111111111111101111111111111111111111111111111111111110000000
0000000101011111111111111111111111111111111111111101101101101111010111
0110101010111111111111111111111111111111111100010000000000011111111111
1111111111111111111110110101011011010110101111011010110110110111111111
1111111111111111111111010000000000000001111111111111111111111110101011
1010101010101101010100001010101010101011010111111111111111111111111111
1100001000000000001111111111111111111111110111100010101001010001001000
1010000010100001010101011111111111111111111111111110000000000000000111
1111111111111111111100100101000000000001000000000000101001011010000101
0100111111111111111111111111111100100000000001111111111111111111111101
0110100010000000000000000000000000000100000101010101011111111111111111
1111111111000000000000000111111111111111111111100001001000000000000000
0000000000010000000000000000101000111111111111111111111111110010000000
0001111111111111111111111101110100010000000000000000000000000010100001
0100000010101011111111111111111111111100000000000000001111111111111111
1111100001010000010000000000000000000000000100000001000000110001111111
1111111111111111110010000000001111111111111111111111110010100000000000
0000000000000000000000000000000001000101001111111111111111111111111000
0100000000101111111111111111111111001010100000000000000000000000000000
0000000000000000001000111111111111111111111111010000000000001111111111
1111111111110000100000000000000000000000100000000000000000000000001000
1111111111111111111111111001000000000001111111111111111111111010010100
0000000000000000000000000000000000000000000000100001111111111111111111
1111001000000000001111111111111111111111000100000000000000000000000000
0000000000000000000000001000011111111111111111111111100010000000000111
1111111111111111111100010000000000000000000000100000000000000000000000
0000100001111111111111111111111110000000000000111111111111111111111100
1000000000000000000000000000000000000000000000000010100001111111111111
1111111111100100000000000111111111111111111111100101000000000000000000
0000000000000000000000000000000000000111111111111111111111111010000000
0001111111111111111111111100001000000000000010000000000000000000000000
0000000010100001111111111111111111111110001000000000011111111111111111
1111110100000000000000011100000000000000000000001000000000000000011111
1111111111111111111000000000000011111111111111111111110001000000000000
0100000000000000000000000000000000000100000111111111111111111111111010
1000000000011111111111111111111110000100000000000011110000000000000000
0000000000000000000000011111111111111111111111100100000000001111111111
1111111111110010100000000000010000000000000000010000000000000000000000
0111111111111111111111111010000000000001111111111111111111111101000000
0000000101100000000000000000000000000000001000000011111111111111111111
1110101000000000011111111111111111111111000100000000000001000000000000
0000000000000000000000000000111111111111111111111111101000000000000111
1111111111111111111100100000000000000100000000000000000000000000000000
0000000011111111111111111111111010100000000000111111111111111111111000
0010000000000001000000000000000000000000000000000000000111111111111111
1111111111101000000000001111111111111111111111110100000000000000000000
0000000000000000000000000000000000111111111111111111111111110100000000
0000111111111111111111111100010100000000000000000000000000000000000000
0000000000011111111111111111111111111010100000000000011111111111111111
1111110000000000000000000000000000000000000000000000000000010111111111
1111111111111111010000000000000111111111111111111111110001000000000000
0000000000000000000000000000000000000011111111111111111111111111110100
0000000000011111111111111111111110000100001000000000000000000000000000
0000000000000000111111111111111111111111110110100000000000011111111111
1111111111110000000000000000000000000000000000000000000000000001111111
1111111111111111111111101000000000000001111111111111111111111000000000
0000000000000000000000000000000000000000010111111111111111111111111111
0101000000000000011111111111111111111111000000000000000000000000000000
0000000000000000011111111111111111111111111111111101000000000000001111
1111111111111111111100000000000000000000000000000000000000000000010111
1111111111111111111111111101101000000000000000111111111111111111111111
1000000000000000000000000000000000010101111111111111111111111111111111
1111110100000000000000001111111111111111111111111101010010010010101010
1101111111111111110111111111111111111111111111111111111011000000000000
0001111111111111111111111111111111101111111111111111111111111110111111
1111111111111111111111111111111110100000000000000000011111111111111111
1111111111111111111111111111111111111111111111111111111111111111111111
1111111111110110000000000000000111111111111111111111111111111111111111
1111111111111111111111111111111111111111111111111111111111110100000000
0000000000111111111111111111111111111111111111111111111111111111111111
1111111111111111111111111111111111111101010000000000000000011111111111
1111111111111111111111111111111111111111111111111111111111111111111111
1111111111111111000100000000000000000001111111111111111111111111111111
1111111111111111111111111111111111111111111111111111111111111111110001
0000000000000000011111111111111111111111111111111111111111111111111111
1111111111111111111111111111111111111111111100000000000000000000001111
1111111111111111111111111111111111111111111111111111111111111111111111
1111111111111111111111110001000000000000000001111111111111111111111111
1111111111111111111111111111111111111111111111111111111111111111111111
1110000000000000000000001111111111111111111111111111111111111111111111
1111111111111111111111111111111111111111111111111111100000000000000000
0001111111111111111111111111111111111111111111111111111111111111111111
1111111111111111111111111111111100000000000000000000111111111111111111
1111111111111111111111111111111111111111111111111111111111111111111111
1111111111110000000000000000000111111111111111111111111111111111111111
1111111111111111111111111111111111111111111111111111111111111100000000
0000000000111111111111111111111111111111111111111111111111111111111111
1111111111111111111111111111111111111111110000000000000000011111111111
1111111111111111111111111111111111111111111111111111111111111111111111
1111111111111111111110000000000000000011111111111111111111111111111111
1111111111111111111111111111111111111111111111111111111111111111111111
1000000000000000011111111111111111111111111111111111111111111111111111
1111111111111111111111111111111111111111111111111110000000000000001111
1111111111111111111111111111111111111111111111111111111111111111111111
1111111111111111111111111111111000000000000011111111111111111111111111
1111111111111111111111111111111111111111111111111111111111111111111111
1111111111100000000000001111111111111111111111111111111111111111111111
1111111111111111111111111111111111111111111111111111111111111000000000
0001111111111111111111111111111111111111111111111111111111111111111111
1111111111111111111111111111111111111111100000000000111111111111111111
1111111111111111111111111111111111111111011111101011111111111111111111
1111111111111111111100000000000111111111111111111111111111111111110101
0101010101010101011010101011010101111111111111111111111111111111111110
0000000000111111111111111111111111101010101011010101101010100010100101
0101001010101010111111111111111111111111111111111000000000111111111111
1111111111111010110100100101010010000000000000000000010000010101101111
1111111111111111111111111111100000000011111111111111111111111101101000
0000000001001000000000000000000000100000001010011111111111111111111111
1111111100000000111111111111111111111111010110000000000000000000000000
0010000000000000010000101100111111111111111111111111111110000000000111
1111111111111111111001010000000000000000000000000000000000100000000000
0001010101111111111111111111111111111100000011111111111111111111111010
1010000000000000000000000000000000000000000000000100010101011111111111
1111111111111111000000001111111111111111111111100100000000000000000000
0001000000000000000000000000000000101011111111111111111111111111111000
0111111111111111111111111001010000000000000000000000000000000000000000
0000000000000010101111111111111111111111111100000000111111111111111111
1111100010000000000000000000000000000000000000000101000000000000100011
1111111111111111111111111000001111111111111111111111100100000000000000
0000000000000000000000000000000000000000000101010111111111111111111111
1111000001111111111111111111111110101000010000000000000000000000000000
0000000000000000000000001001111111111111111111111111100000101111111111
1111111111100001000000000000000000000000000000000000000000000000000000
0001000111111111111111111111111110000111111111111111111111111010000000
0000000000000000000000000000000000000000000000000000010011111111111111
1111111111110000111111111111111111111110001000000000000000000000000000
0000000000000000000000000000000010001111111111111111111111111000001111
1111111111111111111000100000000000000000000000000000000000000000000000
0000000000001001111111111111111111111111100011111111111111111111111001
0000000000000000000000000000000000000000000000000000000000001000111111
1111111111111111111000011111111111111111111111001010000000000000000000
0000000000000000000000000000000000000000100011111111111111111111111110
0011111111111111111111111100000000000000000000000000000000000000000000
0000000000000000001010011111111111111111111111101001111111111111111111
1111010100000000000000000000000000000000000000000000000000000000000000
0001111111111111111111111110001111111111111111111111100100000000000000
0000000000000000000000000000000000000000000000010001111111111111111111
1111101000111111111111111111111110010000000000000000000000000000000000
0000000000000100000000000001000111111111111111111111111000111111111111
1111111111100100000000000000000000000000000000000000000000000000000000
0000000000111111111111111111111110100011111111111111111111110001000000
0100000000000000000000000000000000000000000000000000001000011111111111
1111111111111001111111111111111111111111000100000000000000000000000000
0000000000000000000000000000000000000011111111111111111111111000011111
1111111111111111101000000000010000000000000000000000000000000000000000
0000000000001000011111111111111111111111100011111111111111111111111001
0100000000000000000000000000000000000000000000000000000000000000001111
1111111111111111111010011111111111111111111111100000000000000000000000
0000000000000000000000000000000000000000000001111111111111111111111110
0011111111111111111111111001010000000000000000000000000000000100000000
0000000000000000001000001111111111111111111111100001111111111111111111
1111000000000000000000000000000000000100000000000000000000000000000000
0001111111111111111111111110001111111111111111111111100101000000000000
0000000000000000010100000000000000000000000000100001111111111111111111
1111100001111111111111111111111110000000000000000000000000000001001010
0000000000000000000000000000001111111111111111111111111001111111111111
1111111111100010000000000000000000000000000101101000000000000000000000
0000000011111111111111111111111110000111111111111111111111111000100000
0000000000000000000000010111100000000000000000000000000000111111111111
1111111111111001111111111111111111111100010000000000000000000000000000
1011011010000000000000000000000000001111111111111111111111111000011111
1111111111111111111000100000000000000000000000000000010111110000000000
0000000000000001111111111111111111111111100011111111111111111111111001
0000000000000000000000000000000101101010100000000000000000000001111111
1111111111111111100100011111111111111111111111100100000000000000000000
0000000000000101110100000000000000000000001111111111111111111111111101
0111111111111111111111111001000000000000000000000000000000000101010111
0100000000000000000011111111111111111111111110101001111111111111111111
1111100100000000000000000000000000000000000010101101000000000000000001
1111111111111111111111111010001111111111111111111111100100000000000000
0000000000000010000000000010110100000000000000111111111111111111111111
1101010001111111111111111111111110010000000000000000000000000000000000
0000001011000000000000000111111111111111111111111111110101111111111111
1111111111100100000000000000000000000000100000100000000010100000000000
0001111111111111111111111111110010100111111111111111111111111001000000
0000000000000000000000000000000000000100000000000010111111111111111111
1111111111101001011111111111111111111110010000000000000000000000000000
1000000000000010000000000000011111111111111111111111111110010100111111
1111111111111111110001000000000000000000000000000000000000000000000000
0000000101111111111111111111111111110101000011111111111111111111111000
0000000000000000000000000000000000000000100000000000000111111111111111
1111111111111010100000011111111111111111111111100010000000000000000000
0000000000000000000000000000000010111111111111111111111111111110101000
0111111111111111111111111000000000000000000000000000000000000000000000
0000000000111111111111111111111111111111101100000001111111111111111111
1111110000000000000000000000000000000000000000000000000001101111111111
1111111111111111111101010000001111111111111111111111110000000000000000
0000000000000000000000000000000000101111111111111111111111111111111010
1000000001111111111111111111111111000000000000000000000000000000000000
0000000000011111111111111111111111111111111111101010000001111111111111
1111111111111100000000000000000000000000000000000000000101111111111111
1111111111111111111111110101000000000111111111111111111111111111110000
0000000100010010101010101111111111111110111111111111111111111111111111
1110101000000001111111111111111111111111111111111111111101111111111111
1111101110111111111111111111111111111111111111111111101000000000111111
1111111111111111111111111111101111111011101101111111111111111111111111
1111111111111111111111111111110100000000000111111111111111111111111111
1111111111111111111111111111111111111111111111111111111111111111111111
1111111010100000000000111111111111111111111111111111111111111111111111
1111111111111111111111111111111111111111111111111111111011010000000000
0011111111111111111111111111111111111111111111111111111111111111111111
1111111111111111111111111111111110110000000000000011111111111111111111
1111111111111111111111111111111111111111111111111111111111111111111111
1111111111111011000000000000011111111111111111111111111111111111111111
1111111111111111111111111111111111111111111111111111111111101010000000
0000000011111111111111111111111111111111111111111111111111111111111111
1111111111111111111111111111111111111110101000000000000001111111111111
1111111111111111111111111111111111111111111111111111111111111111111111
1111111111111110101000000000000000001111111111111111111111111111111111
1111111111111111111111111111111111111111111111111111111111111111110100
0000000000000001111111111111111111111111111111111111111111111111111111
1111111111111111111111111111111111111111010001000000000000000000111111
1111111111111111111111111111111111111111111111111111111111111111111111
1111111111111111111111100000000000000000000111111111111111111111111111
1111111111111111111111111111111111111111111111111111111111111111110100
0000000000000000000000011111111111111111111111111111111111111111111111
1111111111111111111111111111111111111111111110110001000000000000000000
0111111111111111111111111111111111111111111111111111111111111111111111
1111111111111111111101011000000000000000000000000011111111111111111111
1111111111111111111111111111111111111111111111111111111111111111111111
0101000010000000000000000000011111111111111111111111111111111111111111
1111111111111111111111111111111111111111111101010100000000000000000000
0000000011111111111111111111111111111111111111111111111111111111111111
1111111111111111111111111010010000100000000000000000000001111111111111
1111111111111111111111111111111111111111111111111111111111111111111101
0100000000000000000000000000000000000111111111111111111111111111111111
1111111111111111111111111111111111111111111101111010100000000000000000
0000000000000011111111111111111111111111111111111111111111111111111111
1111111111111111111010110000100000000000000000000000000000000000011111
1111111111111111111111111111111111111111111111111111111111111111110111
0101010000000000000000000000000000000000001111111111111111111111111111
1111111111111111111111111111010101010101000101000100000000000000000000
0000000000000000000000101111111111111111111111111111101101010111010101
0101001101101010101101001010000000000000000000000000000000000000000000