P1
# CREATOR: GIMP PNM Filter Version 1.1
110 149
0001001010010001000000000000000000000000000100001000101010101101011010
1011010101101011011010101011011010101100010110111101111111111111111101
1111111111111111101111111111111111111111111111111111111111111111111111
1111111110011111111111111111111111111111111111111111111111111111111111
1111111111111111111111111111111111111111111111110000111111111111111111
1111111111111111111111111111111111111111111111111111111111111111111111
1111111111111111111011111111111111111111111111111111111111111111111111
1111111111111111111111111111111111111111111111111111111111100011111111
1111111111111111111111111111111111111111111111111111111111111111111111
1111111111111111111111111111100111111111111111111111111111111111111111
1111111111111111111111111111111111111111111111111111111111111111111100
0011111111111111111111111111111111111111111111111111111111111111111111
1111111111111111111111111111111111111110011111111111111101111111111111
1111111111111111111111111111111111111111111111111111111111111111111111
1111111100001111111111111111111111111111111111111111111111111111111111
1111111111111111111111111111111111111111111111111001111111111111111111
1111111111111111111111111111111111111111111111111111111111111111111111
1111111111111111110000111111111111111111111111111111111111111111111111
1111111111111111111111111111111111111111111111111111110111100011111111
1111111111111111111111111111111111111111111111111111111111111111111111
1111111111111111111111111101000011111111111111111111111111111111111111
1111111111111111111111111111111111111111111111111111111111111111111100
0011111111111110111111111111111111111111111111111111111111111111111111
1111111111111111111111101111111111111100000011111111111111111111111111
1111111111111111111111111111111111111111111111111111111101001011010101
0101101100000110110101010101101111111111111111111111111111111111111111
1111111111111101010000000000000000101000010010000100000001000000000000
0000000000010101011111111111111111111111111111111100000000001000000000
1000000010000010100001001000010101010100001001010100101010010111111111
1111111111111111000010101010100010010000001010100101000101010010010100
0100010010100101010101001011011010111111111111111111111101010101010101
0101001010101001010010110010101010101011010110101010101010111011010110
1100011111111111111111110010110101010101011011010100101010101001010101
0110101010101010110101011010101010110011011001111111111111111111001011
0101010101001001010101010010010100100100000000000000000000000000010000
1001001001010000111111111111111110000100100000000000000000000000000000
0000000000001001000000000000001000000000000000000010100011111111111111
1110000010000000000000000000000000000000000000000000000000000000000000
0000000000000000000100000011111111111111110100101000000000000000000000
0000000000000000000000000000000000000000000000000000000000010010000111
1111111111111000100000000000000000000000000000000000000000000000000000
0000000000000000000000000000000000000111111111111111000001000000000000
0000000000000000000000000000000000000000000000000000000000000000000000
1001000111111111111111010001000000000000000000000000000000000000000000
0000000000000000000000000000000000000000000000011111111111111110001000
0000000000000000000000000000000000000000000000000000000000000000000000
0000000001001000011111111111111100000100000000000000000000000000000000
0000000000000000000000000000000000000000000000000000000010111111111111
1101000001000000000000000000000000000000000000000000000000000000000000
0000000000000000000000100001111111111111110000100000000000000000000000
0000000000000000000000000000000000000000000000000000000000000000000111
1111111111111000010000000000000000000000000000000000000000000000000000
0000000000000000000000000000010010100011111111111111100000100000000000
0000000000000000000000000000000000000000000000000000000000000000000000
0000000111111111111110000100000000000000000000000000000000000000000000
0000000000000000000000000000000000000000001000000111111111111110000100
0000000000000000000000000000000000000000000000000000000000000000000000
0000000000000010011111111111111100000010000000000000000000000000000000
0000000000000000000000000000000000000000000000000010000001111111111111
1110010000000000000000000000000000000000000000000000000000000000000000
0000000000000000000000100010111111111111100000010000000000000000000000
0000000000000000000000000000000000000000000000000000000000000000000111
1111111111110000010000000000000000000000000000000000000000000000000000
0000000000000000000000000000001000001111111111111111000001000000000000
0000000000000000000000000000000000000000000000000000000000000000000000
0101000111111111111111100001000000000000000000000000000000000000000000
0000000000000000000000000000000000000000000000111111111111111100000010
0000000000000000000000000000000000000000000000000000000000000000000000
0000000000010000011111111111111100000000000000000000000000000000000000
0000000000000000000000000000000000000000000000000010000001111111111111
1010000100000000000000000000000000000000000000000000000000000000000000
0000000000000000000000100000111111111111110000000000000000000000000000
0000000000000000000000000000000000000000000000000000000000000000000011
1111111111110000101000000000000000000000000000000000000000000000000000
0000000000000000000000000000001001000001111111111110100000000000000000
0000000000000000000000000000000000000000000000000000000000000000000000
0000000111111111111111000000000000000000000000000000000000000000000000
0000000000000000000000000000000000000000100000000111111111111100000100
0000000000000000000000000000000000000000000000000000000000000000000000
0000000000001000011111111111110100001000000000000000000000000000000000
0000000000000000000000000000000000000000000000000000010000111111111111
1100000000000000000000000000000000000000000000000000000000000000000000
0000000000000000000100000001101111111101010000010000000000000000000000
0000000000000000000000000000000000000000000000000000000000001000000011
1111011111101000010000000000000000000000000000000000000000000000000000
0000000000000000000000000000000010001111011111111111000000100000000000
0000000000000000000000000000000000000000000000000000000000000000000000
0000000011111111111111100000000000000000000000000000000000000000000000
0000000000000000000000000000000000000000000000011111111011011000010100
0000000000000000000000000000000000000000000000000000000000000000000000
0000000000101000000110111111111100000100000000000000000000000000000000
0000000000000000000000000000000000000000000000000000000101111111111111
1100000010000000000000000000000000000000000000000000000000000000000000
0000000000000000000000100001111111111111110000000000000000000000000000
0000000000000000000000000000000000000000000000000000000000010000010111
1111111111110000101000000000000000000000000000000000000000000000000000
0000000000000000000000000000000000000111111111111111000000000000000000
0000000000000000000000000000000000000000000000000000000000000000000000
1000001011111111111111000101000000000000000000000000000000000000000000
0000000000000000000000000000000000000000001000010111111111111100000100
0000000000000000000000000000000000000000000000000000000000000000000000
0000000000000000101111111111111000000010000000000000000000000000000000
0000000000000000000000000000000000000000000000000001000001111111111111
1110000000000000000000000000000000000000000000000000000000000000000000
0000000000000000000000000011111111111111110000100000000000000000000000
0000000000000000000000000000000000000000000000000000000000010010000111
1111111111110000010000000000000000000000000000000000000000000000000000
0000000000000000000000000000000000001011111111111111000000100000000000
0000000000000000000000000000000000000000000000000000000000000000000000
0000000111111111111111100010000000000000000000000000000000000000000000
0000000000000000000000000000000000000000100000011111111111111000010010
0000000000000000000000000000000000000000000000000000000000000000000000
0000000000010000001111111111111110000000000000000000000000000000000000
0000000000000000000000000000000000000000000000000000000011111111111111
1100101010000000000000000000000000000000000000000000000000000000000000
0000000000000000000000100000111111111111110000000000000000000000000000
0000000000000000000000000000000000000000000000000000000000010000000111
1111111111110010101000000000000000000000000000000000000000000000000000
0000000000000000000000000000010000000111111111111111100010000000000000
0000000000000000000000000000000000000000000000000000000000000000000000
0000000111111111111110001000100000000000000000000000000000000000000000
0000000000000000000000000000000000000000010000011111111111111110010000
0000000000000000000000000000000000000000000000000000000000000000000000
0000000000000000011111111111111100000100000000000000000000000000000000
0000000000000000000000000000000000000000000000000100100000111111111111
1110100000000000000000000000000000000000000000000000000000000000000000
0000000000000000000000000011111111111111110010100000000000000000000000
0000000000000000000000000000000000000000000000000000000000001000000011
1111111111111000010000000000000000000000000000000000000000000000000000
0000000000000000000000000000000000000111111111111110001010000000000000
0000000000000000000000000000000000000000000000000000000000000000000000
0100000111111111111111100000000000000000000000000000000000000000000000
0000000000000000000000000000000000000000000001011111111111111100101000
0000000000000000000000000000000000000000000000000000000000000000000000
0000000000010000011111111111111010000100000000000000000000000000000000
0000000000000000000000000000000000000000000000000000000010111111111111
1100101000000000000000000000000000000000000000000000000000000000000000
0000000000000000000001000010111111111111110000000000000000000000000000
0000000000000000000000000000000000000000000000000000000000000000000111
1111111111110010100000000000000000000000000000000000000000000000000000
0000000000000000000000000000000000000011111111111111100001000000000000
0000000000000000000000000000000000000000000000000000000000000000000000
1000000111111111111111000100000000000000000000000000000000000000000000
0000000000000000000000000000000000000000000000001111111111111100010100
0000000000000000000000000000000000000000000000000000000000000000000000
0000000000100000111111111111111100000000000000000000000000000000000000
0000000000000000000000000000000000000000000000000000000000111111111111
1100010100000000000000000000000000000000000000000000000000000000000000
0000000000000000000001000010111111111111110000000000000000000000000000
0000000000000000000000000000000000000000000000000000000000000000001011
1111111111110101010000000000000000000000000000000000000000000000000000
0000000000000000000000000000000000000111111111111111000010000000000000
0000000000000000000000000000000000000100000000000000000000000000000001
0000000111111111111111010010000000000000000000000000000000000000000000
0000000000000000000000000000000000000000001000101111111111111101010000
0000000000000000000000000000000000000010000000000000000000000000000000
0000000000000000011111111111111110010100000000000000000000000000000000
0000000000000000000000000000000000000000000000000000000011111111111111
1011001000000000000000000000000000000000000000000000000000000000000000
0000000000000000000010000001111111111111110110010000000000000000000000
0000000000000000000000000000000000000000000000000000000000000000001111
1111111111010100100000000000000000000000000000000000000000000000000000
0000000000000000000000000000000000000111111111111101011001000000000000
0000000000000000000000000000000000000000000000000000000000000000000000
0100000111111111111101101010000000000000000000000000000000000000000000
0000000000000000000000000000000000000000000000011111111111110101110100
0000000000000000000000000000000000000000000000000000000000000000000000
0000000000000000111111110011101010010000000000000000000000000000000000
0000000000000000000000000000000000000000000000000000000001111010100111
0101001000000000000000000000000000000000000000000000000000000000000000
0000000000000000000010000011111101011111101010000000000000000000000000
0000000000000000000000000000000000000000000000000000000000000000000111
0100101111101010100000000000000000000000000000000000000000000000000000
0000000000000000000000000000000000000111101001111110000000000000000000
0000000000000000000000000000000000000000000000000000000000000000000000
1000000111110101011111101000000000000000000000000000000000000000000000
0000000000000000000000000000000000000000000000111111001111101000001000
0000000000000000000000000000000000000000000000000000000000000000000000
0000000000000000001111110111111100000000000000000000000000000000000000
0000000000000000000000000000000000000000000000000000100011111111111111
1000010100000000000000000000000000000000000000000000000000000000000000
0000000000000000000000000001111111101101110000000000000000000000000000
0000000000000000000000000000000000000000000000000000000000000000001111
1111111111100010100000000000000000000000000000000000000000000000000000
0000000000000000000000000000000000000111111111111111000000000000000000
0000000000000000000000000000000000000000000000000000000000000000000000
0000000111111111111110000101000000000000000000000000000000000000000000
0000000000000000000000000000000000000000000000101111111111111100000000
0000000000000000000000000000000000000000000000000000000000000000000000
0000000000000000011111111111111000101000000000000000000000000000000000
0000000000000000000000000000000000000000000000000010000001111111111111
1100000000000000000000000000000000000000000000000000000000000000000000
0000000000000000000000000011111111101111100001010000000000000000000000
0000000000000000010000000000000000000000000000000000000000010000000011
1111111111110000000000000000000000000000000000000000000000000000000000
0000000000000000000000000000000000001111111111111110001010000000000000
0000000000000000000000000000000000000000000000000000000000000000000000
0000000111111111111111000010000000000000000000000000000000000000000000
0000000000000000000000000000000000000000000000101111111111111000000100
0000000000000000000000000000000000000000000000000000000000000000000000
0000000000100000011111111111111000010000000000000000000000000000000000
0000000000000000000000000000000000000000000000000000000011011011111111
1000001000000000000000000000000000000000000001000000000000000000000000
0000000000000000000010000001111111111111110000010000000000000000000000
0000000000000000100000000000000000000000000000000000000000000000000111
1111111111100010100000000000000000000000000000000000000000000000000000
0000000000000000000000000000100100000011101111111111000010000000000000
0000000000000000000000010010000000000000000000000000000000000000000000
0000001111111111111110000100100000000000000000000000000000000000000000
0000000000000000000000000000000000000001000000001111111101111100001000
0000000000000000000000000000000000100000000000000000000000000000000000
0000000000000000011111111111111000000000000000000000000000000000000000
0000001000000000000000000000000000000000000000000010000010111111111111
1100101000000000000000000000000000000000000000000000000000000000000000
0000000000000000000000000001110111111111100000100000000000000000000000
0000000000000000100000000000000000000000000000000000000000001000000111
1111111111110000000000000000000000000000000000000000000000000000000000
0000000000000000000000000000000000000111111111111110001010000000000000
0000000000000000000000000000000000000000000000000000000000000000000000
0100000011111111111111000010000000000000000000000000000000000000000000
0000000000000000000000000000000000000000000000111111111111111000100000
0000000000000000000000000000000000000000000000000000000000000000000000
0000000000001000001101111111111100101000000000000000000000000000000000
0000100000000000000000000000000000000000000000000010000011111111111111
1000001000000000000000000000000000000000000000000000000000000000000000
0000000000000000000001000000111110111111110000000000000000000000000000
0000000000000000000000000000000000000000000000000000000000000001000101
0111010101001010100000000000000000000000000000000000000000000000000000
0000000000000000000000000000101000000001000100010100000000000000000000
0000000000000000000000000000000000000000000000000000000000000000000000
0010100100100010100010100100000000000000000000000000000000000000000000
0000000000000000000000000000000000000000001001001010101001101001000000
0000000000000000000000000000000000000000000000000000000000000000000000
0000000000000100110101010101010100010000000000000000000000000000000000
0000000000