P1
# CREATOR: GIMP PNM Filter Version 1.1
22 33
0000000001000100000000000000111111111100000000000111111111111000000000
1111111111111100000001111111111111111100000111111110001111111000111111
0000000011111001111111000000000101110111111000000000001010011111000000
0000000100011111100000000000000011111000000000000000001111100000000000
0000001111100000000000000000111110000000000000000011110000000000000000
0001111000000000000000000111000000000000000000111100000000000000000001
1100000000000000000001111000000000000000000111100000000000000000011111
0000000000000000001111000000000000000000111100000000000001000001111000
0000000011110000111100000000111110000011111100001011111100001111111111
1111110000000111111111111111100000000111111111110000000000001111111111
00000000000001111010000000