P1
# CREATOR: GIMP PNM Filter Version 1.1
94 184
0000000000000000000000010010100010101011111111111111111111101010000000
0100100000000000000000000000000000100100100101001000010010111111111111
1111111111111111111110100100010101010000000000000001001010000000001000
1001010101111111111111111111111101111111110101001001001000000100100000
0010000000000101010001010100000110101111111111111111111111111111111111
1001001000101000000000100000000000100000001000100011111111111111111111
1111111111111111111111011101000101000010010000000000001000000001001010
1010010111111111111111111111111111111111111111111111110000010000001000
1000010000000000000100000101101111111111111111111111111111111111111111
1111101010100010100000100000000000000100100010100101111111111111111111
1111111111111111111111111111111101010000001000001000000001000000001000
0110111111111111111111111111111111111111111111111111111111010101000010
0000000100000010010001000011111111111111111111111111111111111111111111
1111111111111100001010000010000000000000100100011111111111111111111111
1111111111111111111111111111111111111010100000101000000000000100100000
0011110111111111111111111111111111111111111111111111111111111110100100
0000010001000100000100011111111111111111111111111111111111111111111111
1111111111111111110100000100000000100000100100001111111111111111111111
1111111111111111111111111111111111111111111100000001010000001010001001
1111111111111111111111111111111111111111111111111111111111111111111010
0001000000000000101000001111111111111111111111111111111111111111111111
1111111111111111111111111000000100000010000010111111111111111111111111
1111111111111111111111111111111111111111111111100000010000000001010001
0111111111111111111111111111111111111111111111111111111111111111111111
1111000000000000001000101111111111111111111111111111111111111111111111
1111111111111111111111111110100001000001000100111111111111111111111111
1111111111111111111111111111111111111111111111111111010000000000010001
1111111111111111111111111111111111111111111111111111111111111111111111
1111111000000010010000101111111111111111111111111111111111111111111111
1111111111111111111111111111111110000000000101011111111111111111111111
1111111111111111111111111111111111111111111111111111111100001000100001
1111111111111111111111111111111111111011111111111111111111111111111111
1111111111110000000000101111111111111111111111111111111111100100000101
1111111111111111111111111111111111010000010100111111111111111111111111
1111111111001000000000000001111111111111111111111111111111110100000000
1111111111111111111111111111111000000000010010000010111111111111111111
1111111111111110001001001111111111111111111111111111110100100010000000
0100000001111111111111111111111111111111000000111111111111111111111111
1111110000000010010101010000100000111111111111111111111111111110001000
0111111111111111111111111111101001010000000000000100010100001111111111
1111111111111111110000001111111111111111111111111110100000001001001000
0000010000010010111111111111111111111111110001000111111111111111111111
1111100001010000000000010000000010000000111111111111111111111111111000
0111111111111111111111111110010000000010000000000010000000100100111111
1111111111111111111101100111111111111111111111111110000000010000000010
0000000010000000000011111111111111111111111110001011111111111111111111
1111000101010000010000000000001000010010000011111111111111111111111110
0011111111111111111111111110100000000000000000000000000000000000100001
1111111111111111111111110011111111111111111111111110000000100100000000
0100000000000001000000001111111111111111111111100011111111111111111111
1111100001000000000010000001000000100000100100001111111111111111111111
1101111111111111111111111111000100000000100000000000000000000000000001
0011111111111111111111111100111111111111111111111101000000000000000000
0000000000000000000001000001111111111111111111111101111111111111111111
1111100001001000000000000000000000000100010000010000111111111111111111
1111011111111111111111111111010000000000000000000000000010000000000100
0000001111111111111111111111011111111111111111111111000010010000000000
0000000000000000000000001000010111111111111111111111011111111111111111
1111111000000000010000000000000000000000000000000010001111111111111111
1111110111111111111111111111100000100100000000000000000000000001000010
0100000001111111111111111111111111111111111111111111110000000100000000
0000000000000000000000000010100001111111111111111111110111111111111111
1111111000100000000100000000000000000000000000000000001001111111111111
1111111101111111111111111111111100010100000000000000000000000000001000
0000100000011111111111111111111101111111111111111111110000000000000000
0000000000000000000000010000001000101111111111111111111111111111111111
1111111111000001010000000000000000000000000000001001000100011111111111
1111111111011111111111111111111110000000000000000000000000000000000000
0000000100000111111111111111111111011111111111111111111110000100100100
0000000000000000000000000000000001000011111111111111111111111111111111
1111111111010000000000000000000000000000000000000000001000001111111111
1111111111110111111111111111111111100001001000000000000000000000000000
0000000001000000111111111111111111110111111111111111111111100000000010
0000000000000000000000000000100000000001111111111111111111110111111111
1111111111111100000100000000000000000000000000000000001000100001111111
1111111111111101111111111111111111110000000000001000000000000000000000
0000000000100001011111111111111111111101111111111111111111111100000010
0000000000000000000000000000000000000001011111111111111111111100111111
1111111111111111000000000000000000000000000000000000000001010000111111
1111111111111111001111111111111111111111000000000000000000000000000000
0000000000000000001111111111111111111111011111111111111111111111100000
0000000000000000000000000000000000010000011111111111111111111111001111
1111111111111111111000000100000000000000000000000000000000000000001111
1111111111111111110011111111111111111111111000000000000000000000000000
0000000010000000001111111111111111111111100001111111111111111111111110
0000100000000000000000000000000000010000000111111111111111111111110011
1111111111111111111111010000000000000000000000000000000000000000111111
1111111111111111111000011111111111111111111111110100000000000000000000
0000000000000000000011111111111111111111111100001111111111111111111111
0100000010000000000000000000001010010000001111111111111111111111111000
1011111111111111111111111111000000010000000000000000000000000000001111
1111111111111111111110000011111111111111111111111101000000000000000000
0000010000000000000111111111111111111111111101000001111111111111111111
1111110100000100000000000010000100000000001111111111111111111111111110
0000111111111111111111111111111010000000100000100000100000000000111111
1111111111111111111111000000001111111111111111111111111110100000000000
0001000000000000000111011111111111111111111111100000001111111111111111
1111111111110101000001001000000000000000111111111111111111111111111110
0000000001111111111111111111111111111010010000000000000000000101111011
1111111111111111111111110000000010111111111111110111110111111110100100
0000000000000101111111111111111111111111111111110000000001011111111111
1111111111011111111101010101001001010110110111111111111111111111111111
1100000000001111111111111111111111111011111111101101010111011111111111
1111111111111111111111111000000000000011111111111111111111111111111101
1111111110111111110111111111111111111111111111111100000000000110111111
1111111111111111101111111011101111110111111111111111111111111111111111
1100000000000000111111111111111111111111111111111111111101111101111111
1111111111111111111111111110000000000000101111111111111111111111111011
0111111111111111111101111111111111111111111111111100000000010000011111
1111111111111111011111111110111111111111111111111111111111111111111111
1110100000000000000011111111111111111111111111111111111111111111111111
1111111111111111111111111111000000000000000000111111111111111111111111
1111110111110111111111111111111111111111111111111111000000000000000001
1111111111111111111111111111111111111111111111111111111111111111111111
1111100010000000000000000111111111111111111111111111111111111111111111
1111111111111111111111111111100000000000000000000011111111111111111111
1111111111111111111111111111111111111111111111111111000000000000000000
0000011111111111111111111111111111111111111111111111111111111111111111
1111111001000000000000000000101111111111111111111111111111111111111111
1111111111111111111111111111110000000000000000000000000111111111111111
1111111111111111111111111111111111111111111111111111111000000000000000
0000000010111111111111111111111111111111111111111111111111111111111111
1111111000000000000000000010000000011111111111111111111111111111111111
1111111111111111111111111111111000000000000000000000010000000111111111
1111111111111111111111111111111111111111111111111111111000000000000000
0000000000000000111111111111111111111111111111111111111111111111111111
1111111110000100000000000000000001000000001111111111111111111111111111
1111111111111111111111111111111100000000000000000000000000100000000001
1111111111111111111111111111111111111111111111111111111010000000000000
0000000000000000000000000111111111111111111111111111111111111111111111
1111111110000010000000000000000000000001000000000000111111111111111111
1111111111111111111111111111111111000001000000000000000000000000000000
0000100011111111111111111111111111111111111111111111111100000000000000
0000000000000000000010000000000000000101101111011111111111111111111111
1111111111110000000000000000000000000000000000000000000000000000000000
0000111111111111111111111111111111000001000000000000000000000000000000
0100000000000000000000000000011111111111111111111111111111000000000000
0000000000000000000000000000000000000000000000000000000111111111111111
1111111111100000010000000000000000000000000000000000000000000000000000
0000000001111111111111111111111111110000000000000000000000000000000000
0000000000000010000001010000000001111111111111111111111111000001001000
0000000000000000000000000000000000000000010000010000000000111111111111
1111111111101000000000000000000000000000000000000000000000000000000010
0001000000001111111111111111111111110000010000000000000000000000000000
0000000000000000000000001000000000001111111111111111111111110000000000
0000000000000000000000000000000000000000000000000010000000001111111111
1111111111111000001000000000000000000000000000000000000000000000000000
0100010000000001111111111111111111111000000100000000000000000000000000
0000000000000000000001000000000000000111111111111111111111110000000000
0000000000000000000000000000000000000000000000000001000000000011111111
1111111111111100000000000000000000000000000000000000000000000000000000
0000000100000011111111111111111111111000000000000000000000000000000000
0000000000000000000000000000000000000001111111111111111111111000010010
0000000000000000000000000000000000000000000000000100000000000111111111
1111111111111100000000000000000000000000000000000000000000000000000000
0000010000000010111111111111111111111010000000000000000000000000000000
0000000000000000000000000000000000000001110111111111111111111000000100
1000000000000000000000000000000000000000000000000000000000000010111111
1111111111111111000000000000000000000000000000000000000000000000000000
0000001000000000111110111011111111111100000000000000000000000000000000
0000000000000000000000000000000000000010111111111111111111111110000101
0000000000000000000000000000000000000000000000000000000000000001110111
1111111111111111000000000000000000000000000000000000000000000000000000
0000000000000000111111111111111111111110000000000000000000000000000000
0000000000000000000000000000000000000001111111111111111111111101000001
0000000000000000000000000000000000000000000000000000000000000000110101
0111111111111111000000000000000000000000000000000000000000000000000000
0000000000000000111111111111111111111110000010000000000000000000000000
0000000000000000000000000000000000000001011011110111111111111110000000
0100000000000000000000000000000000000000000000000000000000000001111111
1111111111111111000000100000000000000000000000000000000000000000000000
0000000000000000101101101110111111111111100000000000000000000000000000
0000000000000000000000000000000000000000111111111111111111111110000001
0100000000000000000000000000000000000000000000000000000000000010110111
1111111111111111100000000000000000000000000000000000000000000000000000
0000000000000000011111011111111111111110100000010000000000000000000000
0000000000000000000000000000000000000000110111111111111111111111000000
0000000000000000000000000000000000000000000000000000000000000001111111
1011111111111111100000010000000000000000000000000000000000000000000000
0000000000000000110111111110111011111111100000000000000000000000000000
0000000000000000000000000000000000000000111101111111111111111110000000
0010000000000000000000000000000000000000000000000000000000000001111111
1111111111111111110000000000000000000000000000000000000000000000000000
0000000000000000010111110111111111111111000000010000000000000000000000
0000000000000000000000000000000000000001111101111111111111111111100000
0000000000000000000000000000000000000000000000000000000000000001111111
1111111111111111100000000100000000000000000000000000000000000000000000
0000000000000000010101111111111111111111100000000000000000000000000000
0000000000000000000000000000000000000001111111011101111111111110000000
1000000000000000000000000000000000000000000000000000000000000000111111
1111111111111111110000000100000000000000000000000000000000000000000000
0000000000000000111101111111111111111111000000000000000000000000000000
0000000000000000000000000000000000000001111111111111111111111111100000
0000000000000000000000000000000000000000000000000000000000000011011101
1011111111111111010000001000000000000000000000000000000000000000000000
0000000000000000111111111111111111111111100000000000000000000000000000
0000000000000000000000000000000000000001101111101111111111110110000000
0010000000000000000000000000000000000000000000000000000000000011111011
1110111111111111110000000000000000000000000000000000000000000000000000
0000000000000001110111111111111111111111000000001000000000000000000000
0000000000000000000000000000000000000010111111111111111111111111000000
0001000000000000000000000000000000000000000000000000000000000011101110
1111111111111111100000000000000000000000000000000000000000000000000000
0000000000000011111111111111111111111111100000000000000000000000000000
0000000000000000000000000000000000000011011111111111111111011101000000
0100000000000000000000000000000000000000000000000000000000001011111101
1111111111111111100000000000000000000000000000000000000000000000000000
0000000000000011111011111111111111111110000000000000000000000000000000
0000000000000000000000000000000000001010111111110111111111111111000000
0000000000000000000000000000000000000000000000000000000000001101111110
1111111111111111000000001000000000000000000000000000000000000000000000
0000000000001011111011111111111111111111000000000000000000000000000000
0000000000000000000000000000000000001111111111111111111111111101000000
0000000000000000000000000000000000000000000000000000000000011101011111
1111111111111111000000001000000000000000000000000000000000000000000000
0000000000011101111111111111111111111110000000000000000000000000000000
0000000000000000000000000000000000101111111110111111111111111110000000
0000000000000000000000000000000000000000000000000000000000111011011011
1111111111111110000000000000000000000000000000000000000000000000000000
0000000000010111111111111111111111111110000000000000000000000000000000
0000000000000000000000000000000001111111111111111111111111111000000000
0000000000000000000000000000000000000000000000000000000010111101111111
1111111111111111000000000000000000000000000000000000000000000000000000
0000000001011101111111101111111111111100000000000000000000000000000000
0000000000000000000000000000000011101111011011111111111111110100000001
0000000000000000000000000000000000000000000000000000000111111111111111
1111111111111110000000000000000000000000000000000000000000000000000000
0000000111111011111111111111111111111000000000000000000000000000000000
0000000000000000000000000000001011111111111111111111111111110000000010
0000000000000000000000000000000000000000000000000000011111011111101111
1111111111111110000000000000000000000000000000000000000000000000000000
0000011011011110111111111111111111110000000000000000000000000000000000
0000000000000000000000000000011111111111111111111111111111110000010000
0000000000000000000000000000000000000000000000000001110111111111111111
1111111111110000000000000000000000000000000000000000000000000000000000
0001101101111111111111111111111111101000000000000000000000000000000000
0000000000000000000000000010111111111111111111111111111111000000000000
0000000000000000000000000000000000000000000000000111110111111111111111
1111111111111000000000000000000000000000000000000000000000000000000000
0011010111011011111111111111111111000000000000000000000000000000000000
0000000000000000000000000011111111111111111111111111111111100000001000
0000000000000000000000000000000000000000000000000011111111111111111111
1111111111000000000000000000000000000000000000000000000000000000000000
0000010111111111111111111111111111100000000000000000000000000000000000
0000000000000000000000000000111111111111111111111111111100000000000000
0000000000000000000000000000000000000000000000000000001011011101111111
1111111101000000001000000000000000000000000000000000000000000000000000
000000