P1
# CREATOR: GIMP PNM Filter Version 1.1
109 163
0000000000000000000000000000000000000000000000000000000000000000000000
0001000000000000000000000000000000000000000010010100010010001001000100
0100001001001010101010101101110110100100000001000000000000000100000000
0000000000000000001010101011101111111111111111111111111111111111111111
1111111110100000000000000000000001001001001000000000101111111111111111
1111101110111101101101011011011010101010101101111111100100100000001000
0000000000000100000010111110110101010101010110111101111111111111111111
1111111111111110111111110000010000000000000000000000000000010110111111
1111111111111111111111111111111111111111111111111111111111010111100001
0000000100000010010000000010111111111111111111111111111111111111111111
1111111111111111111111111111111011110000000000000100000000000000000011
1111111111111111111111111111111111111111111111111111111111111111111111
1101111100000000000000000000100000011111111111111111111111111111111111
1111111111111111111111111111111111111111111101111000000000000000000000
0000011111111111111111111111111111111111111111111111111111111111111111
1111111111111110111000000000010001000000000011111111111111111111111111
1111111111111111111111111111111111111111111111111111111101110000000000
0000000000000111111111111111111111111111111111111111111111111111111111
1111111111111111111111111110110000000000000010000000111111111111111111
1111111111111111111111111111111111111111111111111111111111111111111101
0000000000000000000000111111111111111111111111111111111111111111111111
1111111111111111111111111111111111111111000000000000000000001111111111
1111111111111111111111111111111111111111111111111111111111111111111111
1111111111000000000000000010011111111111111111111111111111111111111111
1111111111111111111111111111111111111111111111101110000000000000000011
1111111111111111111111111111111111111111111111111111111111111111111111
1111111111111111110010000000000000000011111111111111111111111111111111
1111111111111111111111111111111111111111111111111111111111010000000000
0000001111111111111111111111111111111111111111111111111111111111111111
1111111111111111111111111111101000000000000001111111111111111111111111
1111111111111111111111111111111111111111111111111111111111111111111101
0000000000000011111111111111111111111111111111111111111111111111111111
1111111111111111111111111111111111111100000000000010011111111111111111
1111111111111111111111111111111111111111111111111111111111111111111111
1111111010000000000001111111111111111111111111111111111111111111011110
1111010101111111111111111111111111111111111111110000000000000111111111
1111111111111111010000000000000000000000000000000000001111111111111111
1111111111111111110000000000011111111111111111111111100000100100101001
0100010010010101000010000011111111111111111111111111111101000000000001
1111111111111111111111001001001010001000101001001001001011001010000111
1111111111111111111111111110000000000111111111111111111111100000100100
1001001000100100100001000001001001000011111111111111111111111111110000
0000000111111111111111111111001001001000000000100000000010000001000001
0010100001111111111111111111111111110000000000111111111111111111110000
0000000000100000000000000000000000000000001001000111111111111111111111
1111110000000001111111111111111111100000000000000000000001000000000000
0000000000001001000111111111111111111111111111000000001111111111111111
1111000100000000000000000000000000000000000000000000010000001111111111
1111111111111100000000011111111111111111111000000000000000000000000000
0000000000000000000000001010001111111111111111111111111000000011111111
1111111111110000000000000000000000000000000000000000000000000000100100
1111111111111111111111100000001111111111111111111100000000000000000000
0000000000000000010000000000000000100011111111111111111111111110000011
1111111111111111111000000000000000000000000000000000000000000000000000
0000000011111111111111111111111100000011111111111111111111000000000000
0000000000000000000100000000000000000000000010001111111111111111111111
1000000111111111111111111110000100000000000000000000010000000000000000
0000000000000000001111111111111111111111100000111111111111111111110000
0000000000000000000000000000000000000000000000000000101001111111111111
1111111111000001111111111111111111100000000000010000000000000000000000
0000000000000000000000000001111111111111111111111000001111111111111111
1111000000000000000000000000000000000000000000000000000000000100001111
1111111111111111110000001111111111111111111000000000000000000000000000
0000000000000000000000000000000000001111111111111111111111000011111111
1111111111110000000000000000000000000000000000000000000000000000000000
0100011111111111111111111110000111111111111111111110000000000000000000
0000000000000000000000000000000000000000000001111111111111111111110000
0111111111111111111100000000000000000000000000000000000000000000000000
0000000000000011111111111111111111100001111111111111111111100000000000
0000000000000000000000000000000000000000000000000000011111111111111111
1111000001101111111111111111000000000000000000000000000000000000000000
0000000000000000001000011111111111111111111000011111111111111111111000
0000000000000000000000000000000000000000000000000000000000000111111111
1111111111110000111111111111111111110000000000000000000000000000000000
0000000000000000000000000000000111111111111111111110000011111111111111
1111100000000000000000000000000000000000000000000000000000000000000000
1111111111111111111100000111111111111111111110000000000000000000000000
0000000000000000000000000000000000000001111111111111111111100001111111
1111111111111000000000000000000000000000000000000000000000000000000000
0000000001111111111111111111000001111111111111111111100000000000000000
0000000000000000000000000000000000000000000000001111111111111111111000
0111111111111111111110000000000000000000000000000000000000000000000000
0000000000000000111111111111111111110000011111111111111111111000000000
0000000000000000000000000000000000000000000000000000000011111111111111
1111100000111111111111111111100000000000000000000000000000000000000000
0000000000000000000000001111111111111111111100000111111111111111111100
0000000000000000000000000000000000000000000000000000000000000000111111
1111111111111000001111111111111111111100000000000000000000000000000000
0000000000000000000000000000000011111111111111111111000001101111111111
1111110000000000000000000000000000000000000000000000000000000000000000
0011111111111111111110000011111111111111111110000000000000000000000000
0000000000000000000000000000000000000000111111111111111111110000011111
1111111111111110000000000000000000000000000000000000000000000000000000
0000000001111111111111111111100001111111111111111111100000000000000000
0000000000000000000000000000000000000000000000001111111111111111111100
0011111111111111111110000000000000000000000000000000000000000000000000
0000000000000000111111111111111111111000011111111111111111110000000000
0000000000000000000000000000000000000000000000000000001111111111111111
1111100000111111111111111111100000000000000000000000000000000000000000
0000000000000000000000011111111111111111111100000111111111111111111110
0000000000000000000000000000000000000000000000000000000000000011111111
1111111111110000001101111111111111111000000000000000000000000000000000
0000000000000000000000000000001111111111111111111110000001111111011111
1111110000000000000000000000000000000000000000000000000000000000000011
1111111111111111111100000011111111111111111110000000000000000000000000
0000000000000000000000000000000000000111111111111111111111100000011111
1111111111111110000000000000000000000000000000000000000000000000000000
0000001111111111111111111110000000011111111111111111100000000000000000
0000000000000000000000000000000000000000000011111111111111111111110000
0001111111111111111111000000000000000000000000000000000000000000000000
0000000000001111111111111111111111000000001111111111111111111000000000
0000000000000000000000000000000000000000000000000011111111111111111111
1110000000001111111111111111111000000000000000000000000000000000000000
0000000000000000000111111111111111111111100000000011111111111111111110
0000000000000000000000000000000000000000000000000000000011111111111111
1111111111100000000011111111111111111110000000000000000000000000000000
0000000000000000000000000111111101111111111111110000000000111111111111
1111111100000000000000000000000000000000000000000000000000000011111111
1111111111111111100000000000111111111111111111100000000000000000000000
0000000000000000000000000000001111111111111111111111111000000000000111
0111111111111111000000000000000000000000000000000000000000000000000011
1111111111111111111111110000000000111111111111111111111000000000000000
0000000000000000000000000000000000111111111111111111111111111000000000
0000111111111111111111110000000000000000000000000000000000000000000000
0011111111111111111101111111100000000000000111111111111111111111000000
0000000000000000000000000000000000000011111111111111111111111111111000
0000000000001111111111111111111111000000000000000000000000000000000000
0000011111111111111111111111111111101000000000000001111111111111111111
1111000000000000000000000000000000000010111111111111111111111111111111
1111000000000000000011111111111111111111111111010010101010110101111111
1111111111111111111111111111111111111111111000000000000000011111111111
1111111111111111111111111111111111111111111111111111111111011111111111
1111111111000000000000000000111011111111111111111111111111111111111111
1111111111111111111111111111111111110111111111110000000000000000000111
1111111111111111111111111111111111111111111111111111111111111111111111
1111111110111111000000000000000000001111111111111111111111111111111111
1111111111110111111111111111111111111111111111111111111100000000000000
0000011111111111111111111111111111111111111111111111111111111111111111
1111111111111111111111000001000000000000000011111111111111111111111111
1111111111111111111111111111111111111111111111111111111111110000000000
0000000000001111111111111111111111111111111111111111111111111111111111
1110111111111011111111111110000000000000000000000001111111111111111111
1111111111111111111111111111111111111111111111111111111111111111100000
0000000000000000000011111111111111111111111111111111111111111111111111
1111101111111101111111111011111100000100000000000000000000001111111111
1111111111111111111011111111111111111011111111111111111111111111111111
0000000000000000000000000000111111111111111111111111111111111111111101
1111111111111111111111111111111111111000010000000000000000000000000111
1111111111111111111111111111111011111111111111111111111111111111111111
1111101000000000000000000000000000001111111111111111111111111111111111
1111111111111111111111111111111101111111100000000000000000000000000000
0000011101111111111111111111111111111111111111111111111111111111111011
1111111110100000010000000000000000000000000001111111111111111111111111
1111111111111111111111111111111111111111111110000000100000000000000000
0000000000000111111111111111111111111111111111111111111111111111011111
1111111111110000000000000000000000000000000000000000111111111111111111
1111111111111111111111111111111111111111111111100000010010000000000000
0000000000000000000000111111111111111111111111111111111111111111111111
1111111111110000000000000000000000000000000000000000000000001111111111
1111111111111111110111010101000100010001000000000000001001001001000000
0000000000000000000000000000001110111111111111111111100000000000000000
0000000000000000000010000000000000000000000000000000000000000000000011
1111111111111111111100000000000000010001000100010010000000000100100000
0000000000000000000000000000000000000011111111111111111111000000010101
0100010001000100000000101010000000000000000000000000000000000000000000
0000001111111111111111111110000010000000000000000000000100100000000000
0000000000000000000000000000000000000000000000111111111111111111100000
0000000000000000000000000000000000000000000000000000000000000000000000
0000000000000001111111111111111111000000000000000000000000000000000000
0000000000000000000000000000000000000000000000000000011111111111111111
1110000000000000000000000000000000000000000000000000000000000000000000
0000000000000000000000011111111111111111100000000000000000000000000000
0000000000000000000000000000000000000000000000000000000000000011111111
1111111111100000000000000000000000000000000000000000000000000000000000
0000000000000000000000000000001111111111111111111000000000000000000000
0000000000000000000000000000000000000000000000000000000000000000000000
1111111111111111110000000000000000000000000000000000000000000000000000
0000000000000000000000000000000000000001111111111111111111000000000000
0000000000000000000000000000000000000000000000000000000000000000000000
0000000011111111111111111100000000000000000000000000000000000000000000
0000000000000000000000000000000000000000000000011111111111111111110000
0000000000000000000000000000000000000000000000000000000000000000000000
0000000000000000111011111111111111000000000000000000000000000000000000
0000000000000000000000000000000000000000000000000000000111111111111111
1111000000000000000000000000000000000000000000000000000000000000000000
0000000000000000000000011111111111111111110000000000000000000000000000
0000000000000000000000000000000000000000000000000000000000000011111111
1111111111100000000000000000000000000000000000000000000000000000000000
0000000000000000000000000000000111111111111111111100000000000000000000
0000000000000000000000000000000000000000000000000000000000000000000000
1111111111111111111000000000000000000000000000000000000000000000000000
0000000000000000000000000000000000000001111111111111111111000000000000
0000000000000000000000000000000000000000000000000000000000000000000000
0000000011111111111111111110000000000000000000000000000000000000000000
0000000000000000000000000000000000000000000000011111111111111111110000
0000000000000000000000000000000000000000000000000000000000000000000000
0000000000000000111111111111111111100000000000000000000000000000000000
0000000000000000000000000000000000000000000000000000000111111111111111
1111000000000000000000000000000000000000000000000000000000000000000000
0000000000000000000000001111111111111111111000000000000000000000000000
0000000000000000000000000000000000000000000000000000000000000001111111
1111111111110000000000000000000000000000000000000000000000000000000000
0000000000000000000000000000000011111111111111111110000000000000000000
0000000000000000000000000000000000000000000000000000000000000000000000
0011111111111111111100000000000000000000000000000000000000000000000000
0000000000000000000000000000000000000000111111111111111111100000000000
0000000000000000000000000000000000000000000000000000000000000000000000
0000000000111111111111111111000000000000000000000000000000000000000000
0000000000000000000000000000000000000000000000001111111111111111111000
0000000000000000000000000000000000000000000000000000000000000000000000
0000000000000000111111111111111111100000000000000000000000000000000000
0000000000000000000000000000000000000000000000000000000011111111111111
1111000000000000000000000000000000000000000000000000000000000000000000
0000000000000000000000001111111111111111111000000000000000000000000000
0000000000000000000000000000000000000000000000000000000000000000111111
1111111111110000000000000000000000000000000000000000000000000000000000
0000000000000000000000000000000001111111111111111110000000000000000000
0000000000000000000000000000000000000000000000000000000000000000000000
0111111111111111111110000000000000000000000000000000000000000000000000
0000000000000000000000000000000000000000011111111111111111100000000000
0000000000000000000000000000000000000000000000000000000000000000000000
0000000000111111111111111111000000000000000000000000000000000000000000
0000000000000000000000000000000000000000000000000111111111111111111000
0000000000000000000000000000000000000000000000000000000000000000000000
0000000000000000011111111111111111111000000000000000000000000000000000
0000000000000000000000000000000000000000000000000000000001111111111111
1111100000000000000000000000000000000000000000000000000000000000000000
0000000000000000000000000111111111111111111110000000000000000000000000
0000000000000000000000000000000000000000000000000000000000000000111111
1111111111110000000000000000000000000000000000000000000000000000000000
0000000000000000000000000000000001111111111111111111000000000000000000
0000000000000000000000000000000000000000000000000000000000000000000000
0011111111111111111110000000000000000000000000000000000000000000000000
0000000000000000000000000000000000000000011111111111111111110000000000
0000000000000000000000000000000000000000000000000000000000000000000000
0000000000111111111111111111000000000000000000000000000000000000000000
0000000000000000000000000000000000000000000000000111111111111111111100
0000000000000000000000000000000000000000000000000000000000000000000000
0000000000000000001111111111111111111000000000000000000000000000000000
0000000000000000000000000000000000000000000000000000000001111111111111
1111110000000000000000000000000000000000000000000000000000000000000000
0000000000000000000000000011111111111111111110000000000000000000000000
0000000000000000000000000000000000000000000000000000000000000000011111
1111111111111100000000000000000000000000000000000000000000000000000000
0000000000000000000000000000000000111111111111111111100000000000000000
0000000000000000000000000000000000000000000000000000000000000000000000
0001111111111111111111000000000000000000000000000000000000000000000000
0000000000000000000000000000000000000000001101111111111111111000000000
0000000000000000000000000000000000000000000000000000000000000000000000
0000000000011111111111111111110000000000000000000000000000000000000000
0000000000000000000000000000000000000000000000000001111111111111111100
0000000000000000000000000000000000000000000000000000000000000000000000
0000000000000000000000000000000000000000000000000000000000000000000000
000000000000000000000000000000000000000000000000000000000