P1
# CREATOR: GIMP PNM Filter Version 1.1
119 159
0000000000000000000000000000000000000000000000000000000000000000000000
0000000000000000000000000000000000000000000000000000000000000000000000
0000000000000000000000000000000000000000001000000000000000000000000000
0000000000000000000000000000000000000000000000000000000000000000000000
0000000000001011111111111110100000000000000000000000000000000000000000
0000000000000000000000000000000000000000000000000000000010111111111111
1111111111101000000000000000000000000000000000000000000000000000000000
0000000000000000000000000000000001011111111111111111111111111111000000
0000000000000000000000000000000000000000000000000000000000000000000000
0000000001011111111111111111111111111111111111000000000000000000000000
0000000000000000000000000000000000000000000000000000000001111111111111
1111111111111111111111111100000000000000000000000000000000000000000000
0000000000010000000000000000000000111111111111111111111111111111111111
1111111100000000000000000000000000000000000000000000000000101000000000
0000000000111111111111111111111111111111111111111111111110100000000000
0000000000000000000000000000000000000101000000000000000000011111111111
1111111111111111111111111111111111111110000000000000000000000000000000
0000000000000000010000000000000000011111111111111111111111111111111111
1111111111111111111000000000000000000000000000000000000000000000000100
0000000000000011111111111111111111111111111111111111111111111111111111
0000000000000000000000000000000000000000000001000000000000000111111111
1111111111111111111111111111111111111111111111111100000000000000000000
0000000000000000000000000100000000000001111111111111111111111111111111
1111111111111111111111111111110000000000000000000000000000000000000000
0001000000000000111111111111111111111111111111111111111111111111111111
1111111111000000000000000000000000000000000000000000000000000000011111
1111111111111111111111111111111111111111111111111111111111110000001000
0000000000000000000000000000000100000000001111111111111111111111111111
1111111111111111111111111111111111111111000000000000000000000000000000
0000000000000000000001111111111111111111111111111111111111111111111111
1111111111111111111000000000000000000000000000000000000000001000000011
1111111111111111111111111111111111111111111111111111111111111111111111
0000000000000000000000000000000000000000000000101111111111111111111111
1111111111111111111111111111111111111111111111111000000000000000000000
0000000000000000000000000111111111111111111111111111111111111111111111
1111111111111111111111111111100000000000000000000000000000000000000000
0001111111111111111111111111111111111111111111111111111111111111111111
1111111110000000000000000000000000000000000000000001111111111111111111
1111111111111111111111111111111111111111111111111111111111100000000000
0000000000000000000000000000001111111111111111111111111111111111111111
1111111111111111111111111111111111111100000000000000000000000000000000
0000000111111111111111111111111111111111111110111011111111111111111111
1111111111111111110000000000000000000000000000000000000011111111111111
1111111111111111111101010101010010111111111111111111111111111111111100
0000000000000000000000000000000000111111111111111111111111111111110101
0101010101101010111111111111111111111111111111100000010000000000000000
0000000000000111111111111111111111111111111101101101010010101101101111
1111111111111111111111111110000000000000000000000000000000000111111111
1111111111111111111010110100010000000010110101011111111111111111111111
1111111000001000000000000000000000000000111111111111111111111111111101
0010100000000000000010110101111111111111111111111111111100000010000000
0000000000000000011111111111111111111111111110101010000000000000000000
0101011111111111111111111111111111110000000101010000000000000000001111
1111111111111111111111010101010000000000000000000001010001111111111111
1111111111111111000100000000000000000000000011111111111111111111111111
1101010000000000000000000000000101101011111111111111111111111111000000
0101010000000000000000011111111111111111111111111010101000000000000000
0000000000001010111111111111111111111111111110000000000000000000000000
0111111111111111111111111110101000000000000000000000000000000010101111
1111111111111111111111110000001000000000000000000011111111111111111111
1111110101100000000000000000000000000000000100111111111111111111111111
1111000000010000000000000000111111111111111111111111101001000000000000
0000000000000000000001010101111111111111111111111111000000100000000000
0000001111111111111111111111111101010100000000000000000000000000000000
0101011111111111111111111111111100000000000000000000000111111111111111
1111111111010100100000000000000000100000000000000001010111111111111111
1111111111110000010000000000000000111111111111111111111111101001000000
0000000000000100000000000010000010001111111111111111111111111000000000
0000000000011111111111111111111111111001010000000000000000000000000000
0000000001010101111111111111111111111111100001000000000100000111111111
1111111111111111010000000000000000000000000000000000001010001010111111
1111111111111111111100000100000000000011111111111111111111111110010101
0000000000000000000000000000000101010101010111111111111111111111111111
0000000000000000011111111111111111111111111001000000000000000000000000
0000000100000100000101011111111111111111111111111000010000000000001111
1111111111111111111110010000000000000000000000000000000000010000001011
0101111111111111111111111111000000000000000001111111111111111111111110
1001000000000000000000000000000000000001010000001010111111111111111111
1111111100000000001000011111111111111111111111100101000000000000000000
0000000000000000000000000010101011111111111111111111111101001000000000
0011111111111111111111111110000000000000000000000000000000000000001001
0000010101011111111111111111111111101000000000000010111111111111111111
1111001010000000000000000000000000000000000000100000000010100111111111
1111111111111111000010000000011111111111111111111111110001000000000000
0000000000000000000000100000010000010100111111111111111111111111100000
0000000011111111111111111111111001010000000000000000000000000000000000
0001001000000001010011111111111111111111111100001000000001111111111111
1111111111101001000000000000000000000000000000000000000000000000001001
1111111111111111111111110000001000111111111111111111111111000101000000
0000000000000000000000000000000100000000000101010111111111111111111111
1110001000000011111111111111111111111110000000000000000000000000000000
0000000000001000000000001001111111111111111111111111100000000011111111
1111111111111110001010000000000000000000000000000000000000000000001000
0000100111111111111111111111111000000100001111111111111111111111110010
0000000000000000000000000000000000000101000000000001011011111111111111
1111111111110000000111111111111111111111111001000000000000000000000000
0000000000000000000000000000000010001111111111111111111111100000000001
1111111111111111111111101010000000000000000000000000000000000000000000
0000000000010101111111111111111111111111000000111111111111111111111111
0010100000000000000000000000000000000000001000000000000000101001011111
1111111111111111110001000011111111111111111111111010100000000000000000
0000000000000000000000000000000100000000100111111111111111111111111100
0000111111111111111111111111001010000000000000000000000000000000000000
0000000000000000000101011111111111111111111111100100011111111111111111
1111111010000000000000000000000000000000000000000000000000000000000000
0011111111111111111111111110000011111111111111111111111010101000000000
0000000000000000100000000000000000000000000000101010111111111111111111
1111000000011111111111111111111110100100000000000000000000000000000000
0000000000000000000000000101000111111111111111111111111000101111111111
1111111111111001000000000000000000000000010000000000000000000000000000
0000001010111111111111111111111110000011111111111111111111111010010000
0000000000000000000000000000000000000000000000000000000101011111111111
1111111111111000101111111111111111111111001000000000000000000000000010
1000000000000000000000000000000010100111111111111111111111111000001111
1111111111111111111100010000000000000000000000000000000000000000000000
0000000000000010011111111111111111111111100011111111111111111111111100
1000000000000000000000000001000000000000000000000000000000000101001111
1111111111111111111000011111111111111111111111100000000000000000000000
0000000000000000000000000000000000000000000100111111111111111111111110
0011111111111111111111111010100000000000000000000000000000000000000000
0000000000000000000101001111111111111111111111100001111111111111111111
1111100100000000000000000000000000000000000000000000000000000000000001
0101111111111111111111111110001111111111111111111111000001000000000000
0000000000000100000000000000000000000000000000000100011111111111111111
1111110001111111111111111111111101000000000000000000000000000000000000
0000000000000000000000000000101011111111111111111111111101111111111111
1111111111101010000000000000000000000001000000000000000000000000000000
0000000000111111111111111111111110000111111111111111111111110001000000
0000000000000000000000000000000000000000000000000000001010001111111111
1111111111111001111111111111111111111101000000000000000000000000000000
0000000000000000000000000000000000010001111111111111111111111110011111
1111111111111111100001000000000000000000000000000000000000000000000000
0000000000000001001111111111111111111111100111111111111111111111111000
0000000000000000000000000000000000000000000000000000000000000101001011
1111111111111111111110111111111111111111111110100100000000000000000000
0000000000000000000000000000000000000000000000111111111111111111111110
0111111111111111111111111001000000000000000000000000000000000000000000
0000000000000000000010101111111111111111111111110011111111111111111111
1101000100000000000000000000000000000000000000010000000000000000000000
0000111111111111111111111110011111111111111111111111000100100000000000
0000000000000000000000000000000000000000000000010101011111111111111111
1111110011111111111111111111111100000000000000000000000000000000000000
0000000000000000000000000000000111111111111111111111111001111111111111
1111111111000101000000000000000000000000000000000000000000000000000000
0000010100111111111111111111111110101111111111111111111111110000000000
0000000000000000000000000000000000000000000000000000000010011111111111
1111111111111001111111111111111111111100010100000000000000000000000000
0000000000000000000000000000000000001011111111111111111111111010011111
1111111111111111110000000000000000000000000000000000000000000000000000
0000000000000100001111111111111111111111100111111111111111111111110000
1000000000000000000000000000000000000000000000000000000000000001011111
1111111111111111111000111111111111111111111111000000000000000000000000
0000000000000000000000000000000000000001000001111111111111111111111110
0111111111111111111111110001010000000000000000000000000000000000000000
0000000000000000000010101111111111111111111111000011111111111111111111
1111000000000000000000000000000000000000000000000000000000000000000010
0011111111111111111111111110011111111111111111111111100001000000000000
0000000000000000000000000000000000000000000000100101111111111111111111
1111010011111111111111111111111100000000000000000000000000000000000000
0000000000000000000000000010001111111111111111111111101001111111111111
1111111111100001000000000000000000000000000000000000000000000000000000
0000000101111111111111111111111110100111111111111111111111111000000000
0000000000000000000000000000000000000000000000000000010000111111111111
1111111111010001111111111111111111111100000100000000000000000000000000
0000000000000000000000000000000000011111111111111111111111110010011111
1111111111111111111000000000000000000000000000000000000000000000000000
0000000000000001111111111111111111111101000111111111111111111111111000
0000000000000000000000000000000000000000000000000000000000001000111111
1111111111111111100100011111111111111111111111100100000000000000000000
0000000000000000000000000000000000000000000111111111111111111111111010
0101111111111111111111111100000000000000000000000000000000000000000000
0000000000000000000101111111111111111111111100001001111111111111111111
1111110000000000000000000000000000000000000000000000000000000000010000
1111111111111111111111111100010111111111111111111111110000000000000000
0000000000000000000000000000000000000000000000001011111111111111111111
1100010001111111111111111111111111000000000000000000000000010000000000
0000000000000000000000000001111111111111111111111110101000101111111111
1111111111111000000000000000000000000001000000000000000000000000000000
0010000111111111111111111111110010010011111111111111111111111110000000
0000000100100000000000000000000000000000000000000000001111111111111111
1111111010001001011111111111111111111111110010000000000000000000000000
0000000000000000000000000000000000111111111111111111111110101001001111
1111111111111111111111000000000000000000000000000000000000000000000000
0000001000001111111111111111111111101000000100111111111111111111111111
0000100000000000000000000000000000000000000000000000000000000111111111
1111111111111100101010010111111111111111111111111100000000000000000000
0000000000000000000000000000000000000001111111111111111111111111001000
0100011111111111111111111111000000100000000000000000000000000000000000
0000000000000100010111111111111111111111100010010001011111111111111111
1111111110000000000000000000000000000000000000000000000000000000001111
1111111111111111111101001000000010111111111111111111111111000000000000
0000000000000000000000000000000000000000000001111111111111111111111110
0100000001011111111111111111111111111100000000000000000000000000000000
0000000000000000000000011111111111111111111111101010100001000111111111
1111111111111111010000000000000000000000000000000000000000000000000000
0111111111111111111111111010001000001010011111111111111111111111111000
0000000000000000000000000000000000000000000000000001111111111111111111
1111000101000000010011111111111111111111111101000000000000000000000000
0000000000000000000000000000111111111111111111111111101000000000010101
1111111111111111111111111100000000000000000000000000000000000000000000
0000000011111111111111111111111101010100000001001111111111111111111111
1111000000000000000000000000000000000000000000000000000111111111111111
1111111111100100000000001000111111111111111111111111110000000000000000
0000000000000100000000000000000000011111111111111111111110101001000000
0000101011111111111111111111111111000000000000000000000000000000000000
0000000000001111111111111111111111111000100000000000010001111111111111
1111111111111000000101000000000000000000000000000000000000000111111111
1111111111111111100010100000000001001111111111111111111111111110000010
1010000000000000000000000000000000000001111111111111111111111111000101
0000000000010100111111111111111111111111111000000101000000000000000000
0000000000000000001111111111111111111111110100100000000000000010101111
1111111111111111111111000000100100000000000000000000000000000000011111
1111111111111111111110101010000000000000010011111111111111111111111111
1100000100010000000000000000000000000000000001111111111111111111111111
1001010000000000000001001111111111111111111111111111000000100000000000
0000000000000000000000111111111111111111111111110010100000000000000000
1100111111111111111111111111111000000001000000000000000000000000000000
0111111111111111111111111111010101000000000000000010111111111111111111
1111111111110001000000000000000000000000000000000111111111111111111111
1111000101000000000000000000101001111111111111111111111111111100000000
0000000000000000000000000001111111111111111111111111111000101010000000
0000000001011111111111111111111111111111100000000000000000000000000000
0000011111111111111111111111111010101000000010000000000000100011111111
1111111111111111111110000000000000000000000000000000011111111111111111
1111111111100100100100000000000000000101011111111111111111111111111111
1100000000000000000000000000001111111111111111111111111111001010100000
0000000000000000101001111111111111111111111111111110000000000000000000
0000000101111111111111111111111111111010100000000000000000000000000101
0111111111111111111111111111111100000000000000000000000111111111111111
1111111111111110100100010000000000010000000000010111111111111111111111
1111111111110100000000000000000010111111111111111111111111111111101001
0000000000000000000000000101011111111111111111111111111111111111100000
0000001011111111111111111111111111111111100010100000000000000011000000
0000001001111111111111111111111111111111111111111111111111111111111111
1111111111111111111111001000000000000000000000000000000010111111111111
1111111111111111111111111111111111111111111111111111111111111111111100
0101000000000000000001000000000000010001111111111111111111111111111111
1111111111111111111111111111111111111111111111111010000000000000000000
0000000001000011101111111111111111111111111111111111111111111111111111
1111111111111111111111111000100100000000000000000000000000000000010011
1111111111111111111111111111111111111111111111111111111111111111111111
1101110100000000000000000000000000010000000110101111111111111111111111
1111111111111111111111111111111111111111111111111111000100000000000000
0000000000000000000000010101111111111111111111111111111111111111111111
1111111111111111111111111111010110010000000000000000000000000001000000
0001010111111111111111111111111111111111111111111111111111111111111111
1111111101001000000000000000000000000000000000000001010101111111111111
1111111111111111111111111111111111111111111111111111111111010000000000
0000000000000000000000000000000010101111111111111111111111111111111111
1111111111111111111111111111111110101010000000000000000000000000000000
0000000010010100011111111111111111111111111111111111111111111111111111
1111111111101010100000000000000000000000000000000000000000000101110111
1111111111111111111111111111111111111111111111111111111111101010100000
0000000000000000000000000000000000000000000010101111111111111111111111
1111111111111111111111111111111111110111010000000000000000000000000000
0000000000000001000001011011111111111111111111111111111111111111111111
1111111111111111001000100000000000000000000000000000000000000000010000
0001100011111111111111111111111111111111111111111111111111111110101010
0000000000000000000000000000000000000000000000000000101110111111111111
1111111111111111111111111111111111111110101100100000000000000000000000
0000000000000000000000000000000000010101111111111111111111111111111111
1111111111111111101101010000000000000000000000000000000000000000000000
0000000010001010110111111111111111111111111111111111111111111111011010
0000000000000000000000000000000000000000000000000000000000000001001010
1111111111111111111111111111111111111110101101010100000000000000000000
0000000000000000000000000000000000001000000010110101111111111111111111
1111111111111111111010101000000000000000000000000000000000000000000000
0000000000000000100000000010110101111111111111111111111111111111010101
0100100000000000000000000000000000000000000000000000000000000100000001
0001011010101011111111111111111111111110101101010100000000000000000000
000000000000000000000