P1
# CREATOR: GIMP PNM Filter Version 1.1
92 164
0000000000000000100100100100100000100100001000100100010010001001000010
0010000100000100000000000000000000001011011111011011111011011101011011
0110101011101010110101010110101011001000000000000000000001011111101111
1111011111110111111111111111111011111111111111101101111011001000000000
0000000001111111111111111111111111111111111101111111111111111110111111
1111111111110000000000000000010111111111111111111111111111111111111111
1111111101111111111111111111111110100000000000000000101111111111111111
1111111111111111111111111111111111111111111111111111111101000000000000
0001011111111111111111111111111111111111111111111111111111111111111111
1111111101000000000000000101111111111111111111111111111111111111111111
1111111111111111111111111111110100000000000000001111111111111111111111
1111111111111111111111111111111111111111111111111111001000000000000000
0111111111111111111111111111111111111111111111111111111111111111111111
1111010000000000000001011111111111111111111111111111111111111111111111
1111111111111111111111111100100000000000000101111111111111111111111111
1111111111111111111111111111111111111111111111110100000000000000001111
1111111111111111111111111111111111111111111111111111111111111111111111
0010000000000000000111111111111111111111111111111111111111111111111111
1111111111111111111111100000000000000001111111111111111111111111111111
1111111111111111111111111111111111111111111001000000000000000001111111
1111111111111111111111111111111111111111111111111111111111111111110100
0000000000000111111111111111111111111111111111111111111111111111111111
1111111111111111110010000000000000001111111111111111111111111111111111
1111111111111111111111111111111111111111010000000000000000111111111111
1111111111111111111111111111111111111111111111111111111111111100000000
0000000000111111111111111111111111111111111111111111111111111111111111
1111111111111101000000000000000011111111111111111111111111111111111111
1111111111111111111111111111111111101000000000000000001111111111111111
1111111111111111111111111111111111111111111111111111111111010000000000
0000001111111111111111111111111111111111111111111111111111111111111111
1111111111000000000000000000111111111111111111111111111111111111111111
1111111111111111111111111111111101000000000000000011111111111111111111
1111111111111111111111111111111111111111111111111111110000000000000000
0011111111111111111111111111111111111111111111111111111111111111111111
1111010000000000000000001111111111111111111111111111111111111111111111
1111111111111111111110110100000000000000000000111111111111111111111111
1110100000100000010001000100100101010101001010101000000000000000000011
1111111111111111111111100100001000000000000000000000000000000000000000
0000000000000000000011111111111111111111111110011000001000000000000000
0000000000000000000000000000000000000000010111111111111111111111111000
0000000000000000000000000000000000000000000000000000000000000000111111
1111111111111111111001010000000000000000000000000000000000000000000000
0000000000000001011111111111111111111111100010001000000000000000000000
0000000000000000000000000000000000000011111111111111111111111111000010
0100000000000000000000000000000000000000000000000000000000011111111111
1111111111111110010100100000000000000000000000000000000000000000000000
0000000000001111111111111111111111111001001001000000000000000000000000
0000000000000000000000000000000000111111111111111111111111100101001000
0000000000000000000000000000000000000000000000000000000011111111111111
1111111111100000000000000000000000000000000000000000000000000000000000
0000000111111111111111111111111110100000000000000000000000000000000000
0000000000000000000000000000001111111111111111111111111001000000000000
0000000000000000000000000000000000000000000000000000111111111111111111
1111111010000000000000000000000000000000000000000000000000000000000000
0000111111111111111111111111101000000000000000000000000000000000000000
0000000000000000000000000011111111111111111111111110000000000000000000
0000000000000000000000000000000000000000000000001111111111111111111111
1111010000000000000000000000000000000000000000000000000000000000000000
1111111111111111111111111000000000000000000000000000000000000000000000
0000000000000000000000111111111111111111111111110100000000000000000000
0000000000000000000000000000000000000000000011111111111111111111111110
0100000000000000000000000000000000000000000000000000000000000000001111
1111111111111111111110000000000000000000000000000000000000000000000000
0000000000000000001111111111111111111111111010000000000000000000000000
0000000000000000000000000000000000000000111111111111111111111111100100
0000000000000000000000000000000000000000000000000000000000000011111111
1111111111111111101000000000000000000000000000000000000000000000000000
0000000000000011111111111111111111111110101000000000000000000000000000
0000000000000000000000000000000000010111111111111111111111111000001000
0000000000000000000000000000000000000000000000000000000000111111111111
1111111111111110000000000000000000000000000000000000000000000000000000
0000000001111111111111111111111111110100000100000000000000000000000000
0000000000000000000000000000000011111111111111111111111111111011010110
1000000000000000000000000000000000000000000000000000001111111111111111
1111111111111111111111111101000000000000000000000000000000000000000000
0000001111111111111111111111111111111111111101111110100000000000000000
0000000000000000000000000000111111111111111111111111111111111111111111
1111110100000000000000000000000000000000000000000011111111111111111111
1111111111111111111111111111110100000000000000000000000000000000000000
0011111111111111111111111111111111111111111111111111110100000000000000
0000000000000000000000001111111111111111111111111111111111111111111111
1111111110000000000000000000000000000000000000111111111111111111111111
1111111111111111111111111111011010000000000000000000000000000000000011
1111111111111111111111111111111111111111111111111111111110000000000000
0000000000000000000011111111111111111111111111111111111111111111111111
1111110100000000000000000000000000000000001111111111111111111111111111
1111111111111111111111111111111101000000000000000000000000000000111111
1111111111111111111111111111111111111111111111111111111000000000000000
0000000000000000111111111111111111111111111111111111111111111111111111
1111111110000000000000000000000000000011111111111111111111111111111111
1111111111111111111111111111110100000000000000000000000000001111111111
1111111111111111111111111111111111111111111111111111111000000000000000
0000000000001111111111111111111111111111111111111111111111111111111111
1111110100000000000000000000000000111111111111111111111111111111111111
1111111111111111111111111111110000000000000000000000000011111111111111
1111111111111111111111111111111111111111111111111111100000000000000000
0000000011111111111111111111111111111111111111111111111111111111111111
1111111000000000000000000000001111111111111111111111111111111111111111
1111111111111111111111111111000000000000000000000000011111111111111111
1111111111111111111111111111111111111111111111111111000000000000000000
0001111111111111111111111111111111111111111111111111111111111111111111
1111000000000000000000000001111111111111111111111111111111111111111111
1111111111111111111111111110000000000000000000000011111111111111111111
1111111111111111111111111111111111111111111111111000000000000000000000
0000010101010101011010101011111111111111111111111111111111111111111111
1110000000000000000000000000000000000000000001000000000010111111111111
1111111111111111111111110000000000000000000000000000000000000000000000
0000000000000111111111111111111111111111111111100000000000000000000000
0000000000000000000000000000000000000111111111111111111111111111111110
0000000000000000000000000000000000000000000000000000000000000111111111
1111111111111111111111000000000000000000000000000000000000000000000000
0000000000000001111111111111111111111111111100100000000000000000000000
0000000000000000000000000000000000000011111111111111111111111111110000
0000000000000000000000000000000000000000000000000000000000001011111111
1111111111111111111000000000000000000000000000000000000000000000000000
0000000000001011111111111111111111111111100000000000000000000000000000
0000000000000000000000000000000000001011111111111111111111111111001000
0000000000000000000000000000000000000000000000000000000000011111111111
1111111111111111000000000000000000000000000000000000000000000000000000
0000000000010111111111111111111111111000000000000000000000000000000000
0000000000000000000000000000000000111111111111111111111111111000000000
0000000000000000000000000000000000000000000000000000000001111111111111
1111111111110010000000000000000000000000000000000000000000000000000000
0000000000111111111111111111111111000000000000000000000000000000000000
0000000000000000000000000000000011111111111111111111111110000000000000
0000000000000000000000000000000000000000000000000000000111111111111111
1111111110000000000000000000000000000000000000000000000000000000000000
0000010111111111111111111111111001000000000000000000000000000000000000
0000000000000000000000000000011111111111111111111111100000000000000000
0000000000000000000000000000000000000000000000000010111111111111111111
1111100000000000000000000000000000000000000000000000000000000000000000
0001111111111111111111111111000000000010000000000000000000000000000000
0000000000000000000000000111111111111111111111111000000000000000000000
0000000000000000000000000000000000000000000000001111111111111111111111
1100000000000000000000000000000000000000000000000000000000000000000001
1111111111111111111111100000000000000000000000000000000000000000000000
0000000000000000000000111111111111111111111111000000000000000000000000
0000000000000000000000000000000000000000000011111111111111111111111000
0000000000000000000000000000000000000000000000000000000000000000001111
1111111111111111111100000000000000000000000000000000000000000000000000
0000000000000000001111111111111111111111100000000000000000000000000000
0000000000000000000000000000000000000000111111111111111111111111000000
0000000000000000000000000000000000000000000000000000000000001011111111
1111111111111110010000000000000000000000000000000000000000000000000000
0000000000000011111111111111111111111100000000000000000000000000000000
0000000000000000000000000000000000011111111111111111111111100100000000
0000000000000000000000000000000000000000000000000000000000111111111111
1111111111110000000000000000000000000000000000000000000000000000000000
0000000000111111111111111111111110000000000000000000000000000000000000
0000000000000000000000000000001011111111111111111111111100000000000000
0000000000000000000000000000000000000000000000000000001111111111111111
1111111001000000000000000000000000000000000000000000000000000000000000
0000101111111111111111111111110000000000000000000000000000000000000000
0000000000000000000000000001111111111111111111111110000000000000000000
0000000000000000000000000000000000000000000000000011111111111111111111
1111000000000000000000000000000000000000000000000000000000000000000000
1111111111111111111111110010000000000000000000000000000000000000000000
0000000000000000000000001111111111111111111111100000000000000000000000
0000000000000000000000000000000000000000000001111111111111111111111110
1000000000000000000000000000000000000000000000000000000000000000000111
1111111111111111111110000000000000000000000000000000000000000000000000
0000000000000000001111111111111111111111110100000000000000000001010000
0000000000000000000000000000000000000000011111111111111111111111100000
0000000000000111110000000000000000000000000000000000000000001011111111
1111111111111111001000000000000101011111110000000000000000000000000000
0000000000000011111111111111111111111110000000000000101111111110000000
0000000000000000000000000000000000011111111111111111111111110000000000
0101111111011111000000000000000000000000000000000000000001111111111111
1111111111110100000010111111101111111110000000000000000000000000000000
0000000011111111111111111111111110100000101101111111111111111100000000
0000000000000000000000000010001111111111111111111111111100001011111111
1111111111111000000000000000000000000000000000000011111111111111111111
1111111000001110111111111111111111111100000000000000000000000000000000
0001111111111111111111111111101000111111101111111111111111100000000000
0000000000000000000000111111111111111111111111111010000001111111111111
1111111111111100000000000000000000000000000011111111111111111111111111
1101000011111111111111111111111111110000000000000000000000000000111111
1111111111111111111111101000000110111110111111111111111111110000000000
0000000000000010101111111111111111111111111111000000111111111111111111
1111111111111100000000000000000000101111111111111111111111111111110010
0000001111111111111111111111111111111110000000000000000011111111111111
1111111111111111110100000001111011111111111111111111111111101110010000
0001111111111111111111111111111111111111000000000001111111111111111111
1111111111111111111111111011111111111111111111111111111111110110000000
0011111111111111111111111111111111111110111101111111111111111111111111
1111111111111000000000000011101111111111111111111111111111111111111111
1111111111111111111111111111111101010000000000011111111111111111111111
1111111111111111111111111111111111111111111111111111111010000000000000
0111111111111111111111111111111111111111111111111111111111111111111111
1111111000000000000000010110111111111111111111111111111111111111111111
1111111111111111111111111110100000000000000000111111111111111111111111
1111111111111111111111111111111111111111111111111110000000000000000001
1111111111111111111111111111111111111111111111111111111111111111111110
0000000000000000000000111111111111111111111111111111111111111111111111
1111111111111111111111100000000000000000000001111111111111111111111111
1111111111111111111111111111111111111111101000000000000000000000000001
1111111111111111111111111111111111111111111111111111111111111110100000
0000000000000000000101111111111111111111111111111111111111111111111111
1111111111111010000000000000000000000000000010111111111111111111111111
1111111111111111111111111111111111110100000000000000000000000000001110
1111111111111111111111111111111111111111111111111111110100000000000000
0000000000000000000011111111111111111111111111111111111111111111111111
1111111010000000000000000000000000000000000101111111111111111111111111
1111111111111111111111111101000000000000000000000000000000000000001011
1111111111111111111111111111111111111111111111101010000000000000000000
0000000000000000000010111111111111111111111111111111111111111111111101
0000000000000000000000000000000000000000000010111111111111111111111111
1111111111111111110100000000000000000000000000000000000000000000000010
1111111111111111111111111111111111111101000000000000000000000000000000
0000000000000000000000010111111111111111111111111111111111010000000000
0000000000000000000000000000000000000000000000010111111111111111111111
1111111101000000000000000000000000000000000000000000000000000000000000
0000010111111111111111111101000000000000000000000000000000000000000000
0000000000000000000000000010101010110111011010000000000000000000000000
0000000000000000000000000000000000000000000000000000000000000000000000
00000000000000000000000000000000000000