P1
# CREATOR: GIMP PNM Filter Version 1.1
84 161
0000000000000000000000000000000000000000001001000000000000000000000000
0000000000000000000000000000000000000000000000000010101010101111010100
0000000000000000000000000000000000000000000000000000000000001011011111
1111101110101010000000000000000000000000000000000000000000000000000000
0101010111011111111111111111010100000000000000000000000000000000000000
0000000000000101111111111111101111111111111110101000000000000000000000
0000000000000000000000000101101111111111111111111111111111111010100000
0000000000000000000000000000000000000101111111111111111111111111111111
0111111010100000000000000000000000000000000000000101010111111111111111
1111111111111111111111010000000000000000000000000000000000000010111111
1111111111111111111111111111111111111110100000000000000000000000000000
0000101011111111111111111111111111111111111111111111111010000000000000
0000000000000000010111111111111111111111111111111111111111111111111010
0010000000000000000000000000001011111111111111111111111111111111111111
1111111111111110000000000000000000000000000101111111111111111111111111
1111111111111111111111111111110100000000000000000000000001111011111111
1111111111111111111111111111111111111111111110100000000000000000000001
1101111111111111111111111111111111111111111111111111111111110010000000
0000000000010011111111111111111111111111111111111111111111111111111111
1111100000000000000000000011111111111111111111111111111111111111111111
1111111111111111111110000000000000000010111111111111111111111111111111
1111111111111111111111111111111111101000000000000000111111111111111111
1111111111111111111111111111111111111111111111111100100000000000010101
1111111111111111111111111111111111111111111111111111111111111111100000
0000000010111111111111111111111111111111111111111111111111111111111111
1111111110100000000000111111111111111111111111111111111111111111111111
1111111111111111111111110000000000010111111111111111111111111111111111
1111111111111111111111111111111111111110100000000111111111111111111111
1111111111111111111111111111111111111111111111111111110000000011111111
1111111111111111111111111111111111111111111111111111111111111111110100
0000000111111111111111111111111111111111111111111111111111111111111111
1111111111111000000111111111111111111111111111111111111111111111111111
1111111111111111111111111100000001111111111111111111111111111111111111
0010111111111111111111111111111111111111100000111111111111111111111111
1111111101000000000000111111111111111111111111111111111100001011111111
1111111111111111111110101000000000000001111111111111111111111111111111
0000111111111111111111111111111111010000000000000000001111111111111111
1111111111111100001111111111111111111111111111010000000000000000000000
1111111111111111111111111111000111111111111111111111111111010000000000
0000000000000001111111111111111111111111110001111111111111111111111111
1100100000000000000000000000001111111111111111111111111100111111111111
1111111111111110100000000000000000000000000011111111111111111111111111
0001111111111111111111111111101000000000000000000000000000001111111111
1111111111111100111111111111111111111111110000000000000000000000000000
0000111111111111111111111111001111111111111111111111111010000000000000
0000000000000000001111111111111111111111110101111111111111111111111110
0100000000000000000000000000000001111111111111111111111101111111111111
1111111111111000000000000000000000000000000000011111111111111111111111
0011111111111111111111111101000000000000000000000000000000000011111111
1111111111111100111111111111111111111111010000000000000000000000000000
0000001111111111111111111111011111111111111111111111110000000000000000
0000000000000000000011111111111111111111110111111111111111111111111100
0000000000000000000000000000000000011111111111111111111101111111111111
1111111111100100000000000000000000000000000000001111111111111111111111
0011111111111111111111111100000000000000000000000000000000000001111111
1111111111111101111111111111111111111110010000000000000000000000000000
0000001111111111111111111111011111111111111111111111110000000000000000
0000000000000000000001111111111111111111110111111111111111111111111001
0000000000000000000000000000000000011111111111111111111101111111111111
1111111111110000000000000000000000000000000000000111111111111111111111
0111111111111111111111111000000000000000000000000000000000000011111111
1111111111111100111111111111111111111111000000000000000000000000000000
0000000111111111111111111111011111111111111111111111100100000000000000
0000000000000000000011111111111111111111110111111111111111111111111100
0000000000000000000000000000000000011111111111111111111101111111111111
1111111111100000000000000000000000000000000000001111111111111111111111
0111111111111111111111111100000000000000000000000000000000000001111111
1111111111111101111111111111111111111110000000000000000000000000000000
0000001111111111111111111111011111111111111111111111110000000000000000
0000000000000000000001111111111111111111110111111111111111111111111001
0000000000000000000000000000000000011111111111111111111101111111111111
1111111111100000000000000000000000000000000000010111111111111111111111
0111111111111111111111111000000000000000000000000000000000000011111111
1111111111111101111111111111111111111111000000000000000000000000000000
0000000111111111111111111111011111111111111111111111100100000000000000
0000000000000000000011111111111111111111110111111111111111111111111000
0000000000000000000000000000000000011111111111111111111101111111111111
1111111111110000000000000000000000000000000000001111111111111111111111
0111111111111111111111110100000000000000000000000000000000000001111111
1111111111111101111111111111111111111110000000000000000000000000000000
0000001111111111111111111111011111111111111111111111110000000000000000
0000000000000000000001111111111111111111110111111111111111111111111000
0000000000000000000000000000000000111111111111111111111101111111111111
1111111111100000000000000000000000000000000000000111111111111111111111
0111111111111111111111111001000000000000000000000000000000000011111111
1111111111111101111111111111111111111110000000000000000000000000000000
0000000111111111111111111111111111111111111111111111100000000000000000
0000000000000000000011111111111111111111110111111111111111111111111100
0000000000000000000000000000000000011111111111111111111101111111111111
1111111111100000000000000000000000000000000000001111111111111111111111
0111111111111111111111111000000000000000000000000000000000000011111111
1111111111111101111111111111111111111110100000000000000000000000000000
0000001111111111111111111111011111111111111111111111100000000000000000
0000000000000000000001111111111111111111111111111111111111111111110010
0000000000000000000000000000000000111111111111111111111101111111111111
1111111111100000000000000000000000000000000000000111111111111111111111
0111111111111111111111111000000000000000000000000000000000000111111111
1111111111111110111111111111111111111110000000000000000000000000000000
0000000111111111111111111111011111111111111111111111100000000000000000
0000000000000000000111111111111111111111110111111111111111111111111000
0000000000000000000000000000000000011111111111111111111111111111111111
1111111111100000000000000000000000000000000000011111111111111111111111
0111111111111111111111111100000000000000000000000000000000000001111111
1111111111111101111111111111111111111100000000000000000000000000000000
0000001111111111111111111111011111111111111111111111100000000000000000
0000000000000000000011111111111111111111110111111111111111111111110010
0000000000000000000000000000000000111111111111111111111101111111111111
1111111111100000000000000000000000000000000000000111111111111111111111
0111111111111111111111111000000000000000000000000000000000000011111111
1111111111111101111111111111111111111110000000000000000000000000000000
0000001111111111111111111111111111111111111111111111001000000000000000
0000000000000000000011111111111111111111110111111111111111111111111000
0000000000000000000000000000000000011111111111111111111101111111111111
1111111111000000000000000000000000000000000000011111111111111111111111
0111111111111111111111111000000000000000000000000000000000000001111111
1111111111111111111111111111111111111100100000000000000000000000000000
0000011111111111111111111111011111111111111111111111000000000000000000
0000000000000000000001111111111111111111110111111111111111111111111000
0000000000000000000000000000000001111111111111111111111101111111111111
1111111111000000000000000000000000000000000000001111111111111111111111
1111111111111111111111110000000000000000000000000000000000000011111111
1111111111111101111111111111111111111110000000000000000000000000000000
0000001111111111111111111111111111111111111111111111001000000000000000
0000000000000000000011111111111111111111110111111111111111111111111000
0000000000000000000000000000000000111111111111111111111111111111111111
1111111111000000000000000000000000000000000000101111111111111111111111
0111111111111111111111111000000000000000000000000000000000000011111111
1111111111111101111111111111111111111100000000000000000000000000000000
0000001111111111111111111111011111111111111111111111000000000000000000
0000000000000000000011111111111111111111111111111111111111111111110010
0000000000000000000000000000000001011111111111111111111101111111111111
1111111111000000000000000000000000000000000000001111111111111111111111
0111111111111111111111110000000000000000000000000000000000000111111111
1111111111111101111111111111111111111100000000000000000000000000000000
0000001111111111111111111111111111111111111111111111001000000000000000
0000000000000000000011111111111111111111110111111111111111111111110000
0000000000000000000000000000000000111111111111111111111111111111111111
1111111111000000000000000000000000000000000000011111111111111111111111
0111111111111111111111110000000000000000000000000000000000000011111111
1111111111111111111111111111111111111000100000000000000000000000000000
0000011111111111111111111111011111111111111111111111000000000000000000
0000000000000000000001111111111111111111111111111111111111111111110000
0000000000000000000000000000000001111111111111111111111101111111111111
1111111111000000000000000000000000000000000000001111111111111111111111
1111111111111111111111100010000000000000000000000000000000000111111111
1111111111111101111111111111111111111100000000000000000000000000000000
0000001111111111111111111111111111111111111111111111000000000000000000
0000000000000000000111111111111111111111110011111111111111111111110000
0000000000000000000000000000000000111111111111111111111111111111111111
1111111111100000000000000000000000000000000000011111111111111111111111
0111111111111111111111111000000000000000000000000000000000000111111111
1111111111111101111111111111111111111100000000000000000000000000000000
0000111111111111111111111111010111111111111111111111110000000000000000
0000000000000000001111111111111111111111110111111111111111111111111000
0000000000000000000000000000000111111111111111111111111101011111111111
1111111111111000000000000000000000000000000000111111111111111111111111
0011111111111111111111111110000000000000000000000000000000111111111111
1111111111111000110111111111111111111111110000000000000000000000000000
0011111111111111111111111111001111111111111111111111111110000000000000
0000000000000011111111111111111111111111100001101111111111111111111111
1100000000000000000000000000011111111111111111111111111000111111111111
1111111111111111100000000000000000000000111111111111111111111111111101
0000111011111111111111111111111110000000000000000000001111111111111111
1111111111110000011111111111111111111111111111010000000000000000011111
1111111111111111111101111101000001111111111111111111111111111110100000
0000001101111111111111111111111111111111000000111011111111111111111111
1111111111101010010111111111111111111111111111111111010000000111111111
1111111111111111111111111111111111011111101111111111111111111111110100
0000001110111111111111111111111111111111111111111110111111111111111111
1111110111000000000001111111111111111111111111111111110111111111111111
1111111111111111111111111000000000111110111111111111111111111111111111
1111111111111111111111111111111111110000000000000011111111111111111111
1111111111111101110111110111111111111111111111111110000000000000101111
1111111111111111111111111111111111111111111111111111111111111110000000
0000000001110111111111111111111111111111111111111111111111111111111111
1101111010000000000000001111101111111111111111111111111111111111111111
1111111111111111111000000000000000000001111111111111111111111111111111
1111111111111111111111111111111101100000000000000000101111011111111111
1111111111111111111111111111111111111111111110100000000000000000000001
1111110111111111110111111111111111111111111111111111111111010000000000
0000000000001011110111111111111111111111111111111111111111111111110110
1010000000000000000000000000011111110111011111111111111111111111111111
1111111111111110100000000000000000000000001011111111111111111111111011
1111111011111111111110111101010000000000000000000000000000010111111111
1111111111111111111111111111111111111111010000000000000000000000000000
0010111101111101111101111111111111111111111111111110100000000000000000
0000000000000000000011101111111111111111011111111111111111101111101100
0000000000000000000000000000000000101110111101111111111111111111101111
1011111110000000000000000000000000000000000000000101111111111110111111
1111011111101111111110100000000000000000000000000000000000000000001011
1111011111111101111111111111111101000000000000000000000000000000000000
0000000000000011111111101111111111111111111011000000000000000000000000
0000000000000000000000000001001111111111111111111111111010000000000000
00000000000000