P1
# CREATOR: GIMP PNM Filter Version 1.1
115 182
0000000000000000000000000000000000000000000000000000000000000010010101
0100000000000000000000000000000000000000000000000000000000000000000000
0000000000000000000000000000000010110101111101111101100000000000000000
0000000000000000000000000000000000000000000000000000000000000000000000
0000000101111111011111011100101000000000000000000000000000000000000000
0000000000000000000000000000000000000000000000100110111111111111111111
1111111100100000000000000000000000000000000000000000000000000000000000
0000000000000000000101101111111111111111111111111111111011000000000000
0000000000000000000000000000000000000000000000000000000000000110111111
1111111111111111111111111111110111010000000000000000000000000000000000
0000000000000000000000000000000001111111111101111111111111111111111111
0111111111010000000000000000000000000000000000000000000000000000000000
0000001001011111111111111111111111111111111111111111111111100000000000
0000000000000000000000000000000000000000000000000001111111111111111111
1111111111111111111111111111111111010000000000000000000000000000000000
0000000000000000000000011011111111111111111111111111111111111111111111
1111111111110000000000000000000000000000000000000000000000000000000101
1111111111111111111111111111111111111111111111111111111011000000000000
0000000000000000000000000000000000000001011011111111111110110111111111
1111111111111111111111111111111111100000000000000000000000000000000000
0000000000000001011111111111111111111111111111111111111111111111111111
1111111101000000000000000000000000000000000000000000000000101111011111
1111111111111111111101111111111111111111111111111111111110000000000000
0000000000000000000000000000000010111111111111110111111111111111111111
1111111111111111111111111111111010000000000000000000000000000000000000
0000000111111111111111111111111011011111101111111111111111111111111111
1101111010000000000000000000000000000000000000000011011111111111111111
1101111111111111111110111111111111111111111111111111010100000000000000
0000000000000000000000010010111111111111111011111111111111111110111111
1111111111111111111111111111110000000000000000000000000000000000000001
1111111111111111111111010111011011101111101110111011111111111111111111
1110110000000000000000000000000000000000000101111111111111111111011111
0111111011101011101110111111111111011011110111111111000000000000000000
0000000000000000110111111111111011111111110001010101101111101101011101
1011110111111111111111111110100000000000000000000000000000001011111111
1111111101111110110010101011010010101010101101110111111111111111111111
1101000000000000000000000000000001011111111111111111111101101000000001
0010001000000101010100110111011101111111111111110100000000000000000000
0000000010101111111111111111111110101000010000000000001000000010110101
0110111101101111111111110100000000000000000000000000101111111101111111
1111111100000000000000000000000000000000000101011101111111101111111111
0100000000000000000000000001010111111111111111111101010010000000000000
0000000000000001000010010110101111111111111110110000000000000000000000
0010111101111111111101101100100000000000000000000000000000000000100101
0010110111111111111111001000000000000000000010011111110111111111111101
1101000000000000000000000000000000000000000001001011111111111111111100
0000000000000000000010111111111111111111011010000000000000000000000000
0000000000000000001000101011011111111111111100000000000000000000010101
1111101011101111011010100000000000000000000000000000000000000000000010
1011111111111111111000000000000000000001011110101111111111011101000000
0000000000000000000000000000000000000001000001010111111111111110100000
0000000000000101011111101111011111001010000000000000000000000000000000
0000000000000000000010101011111111111110000000000000000000101111011111
0111110101000000000000000000000000000000000000000000000000000010000101
1111111101100000000000000000000010111111110111111111101100100000000000
0000000000000000000000000000000000000000001001101111111110100000000000
0000001010111110111011010100100000000000000000000000000000000000000000
0000000000000000001011111111011010000000000000000001011111111011011110
1100000000000000000000000000000000000000000000000000000000000001000101
0110101000000000000000000001111111011110111110010000000000000000000000
0000000000000000000000000000000000000000011011010000000000000000000001
0101111111101101111010100000000000000000000000000000000000000000000000
0000000000000100010101010101000000000000000001111011011011111101000000
0000000000000000000000000000000000000000000000000000000000000000010000
0000000000000000000010111111111111111111100000000000000000000000000000
0000000000000000000000000000000000000000000100000000000000000010111111
1111111111010000000000000000000000000000000000000000000000000000000000
0000000000000000000000000000000000000000011111111111111111010000000000
0000000000000000000000000000000000000000000000000000000000000000000000
0000000000001111111111111111111010000000000000000000000000000000000000
0000000000000000000000000000000000000000000000000000000001011111111111
1111110100000000000000000000000000000000000000000000000000000000000000
0000000000000000000000000000001010111111111111111010100000000000000000
0000000000000000000000000000000000000000000000000000000000000000000000
0000000101111111111111110100000000000000000000000000000000000000000000
0000000000000000000000000000000000000000000000000010111111111111111111
0010000000000000000000000000000000000000000000000000000000000000000000
0000000000000000000000000011111111111111111010000000000000000000000000
0000000000000000000000000000000000000000000000000000000000000000000010
1101111111111111110100000000000000000000000000000000000000000000000000
0000000000000000000000000000000000000000000001111111111111111111000000
0000000000000000000000000000000000000000000000000000000000000000000000
0000000000000000000011111111111111110100000000000000000000000000000000
0000000000000000000000000000000000000000000000000000000000000001011111
1111111111101100000000000000000000000000000000000000000000000000000000
0000000000000000000000000000000000000100111111111111111110000000000000
0000000000000000000000000000000000000000000000000000000000000000000000
0000000000000101111111111111111101000000000000000000000000000000000000
0000000000000000000000000000000000000000000000000000010000111111111111
1111101000000000000000000000000000000000000000000000000000000000000000
0000000000000000000000000000001000111111111111111101000000000000000000
0000000000000000000000000000000000000000000000000000000000000000000000
0000000101111111111111111000000000000000000000000000000000000000000000
0000000000000000000000000000000000000000000000000000101111111111111111
1100000000000000000000000000000000000000000000000000000000000000000000
0000000000000000000000000001011111111111111100010000000000000000000000
0000000000000000000000000000000000000000000000000000000000000000000000
1001111111111111110110000000000000000000000000000000000000000000000000
0000000000000000000000000000000000000000000000101111111111111111001000
0000000000000000000000000000000000000000000000000000000000000000000000
0000000000000000100000011111111111111111000000000000000000000000000000
0000000000000000000000000000000000000000000000000000000000000000010111
1111111111101001000000000000000000000000000000000000000000000000000000
0000000000000000000000000000000000000000100111111111111111100000000000
0000000000000000000000000000000000000000000000000000000000000000000000
0000000000010000101011111111111101010000000000000000000000000000000000
0000000000000000000000000000000000000000000000000000000001000101111111
1111111010000000000000000000000000000000000000000000000000000000000000
0000000000000000000000000000000000000111111111111111100000000000000000
0000000000000000000000000000000000000000000000000000000000000000000000
0000000000101111111111111010100000000000000000000000000000000000000000
0000000000000000000000000000000000000000000000000000100110111111111111
1101000000000000000000000000000000000000000000000000000000000000000000
0000000000000000000000000000000111111111111111010000000000000000000000
0000000000000000001001000000000000000000000000000000000000000000000000
0001010111111111111101010000000000000000000000000000000000000000000010
0000000000000000000000000000000000000000000000001011111111111111110100
0000000000000000000000000000000000000010100000000000000000000000000000
0000000000000000000000000101111111111110100000000000000000000000000000
0000000001010000010010010000000000000000000000000000000000000000000001
0111111111111111100000000000000000000000000000000000100101010010000000
0000000000000000000000000000000000000000001001111111111111101000000000
0000000000000000000000101000100101010010100100000000000000000000000000
0000000000000000001001111111111011101000000000000000000000000000000001
0100101010110101000100000000000000000000000000000000000000000001011111
1111111110100000000000000000000000000001011001011010101011010100001001
0000000000000000000000000000000000000010111111111111110110000000000000
0000000000000100001010101010111011101111010000000000000000000000000000
0000000000000010111111111110110000000000000000000000000010010110101101
1110101101101001010101000000000000000000000000000000000000011111111111
1110101000000000000000000000000010101011101101010101010101101010100000
0000000000000000000000000000000100111111111111111100000000000000000000
0001010001010101100101010101010101011010100000000000000000000000000000
0000001001111111111111010100000000000000000000000001010101010110000000
0001010110110101000000000000000000000000000000000000101111111111111110
0000000000000000000001010101010110101000010010010101011011010000000000
0000000000000000000000000001011111111111111111000000000000000000000101
0101010101001000000100000000101010100000000000000000000000000000000000
0001111111111111101000000000000000000000000100101101010100001000001001
0101011101000000000000000000000000000000000000100111111111111110110000
0000000000000010100101010110100100000001000001001001110000000000000000
0000000000000000000000111111111111111110000000000000000000000010101010
1010100000001001010100001010110000000000000000000000000000000000000001
1111111111111111000000000000000000001010010101100000000000100010101001
0101010000000000000000000000000000000000011111111111111110100000000000
0000000001001010101010110100101000101010010101101010000000000000000000
0000000000000000001111111111111111110000000000000000000100101010111010
1000000010110101000010110100000000000000000000000000000000001111111111
1111111110100000000000000000000010101010101001010101010101010010101011
0000000000000000000000000000000000001011111111111111111000000000000000
0000010000011011110100000001010101010010101010100000000000000000000000
0000000000011111111111111111100000000000000000000100101101101101010101
0100101010010011110100000000000000000000000000000000000001111111111111
1111100000000000000000000001001001101101010000100101001001000110101000
0000000000000000000000000000001111111111111111110100000000000000000000
0001001010110110101000100101001010110100000000000000000000000000000000
0000000111111111111111111000000000000000000001000101010111010101010010
0010010100101010000000000000000000000000000000000011111111111111111101
0000000000000000000001010001010101110101010101001001011010000100000000
0000000000000000000000000101111111111111111010000000000000000000010010
1001011010101101010010101101010101000000000000000000000000000000000000
0111111111111111111010000000000000000000010010100101101110101010101010
1101101000000000000000000000000000000000000001001111111111111111100000
0000000000000100010000010010100101101011011010101100000000000000000000
0000000000000000000001111111111111111100100000000000000000001001010000
0101110101010101011011010010000000000000000000000000000000000000001111
1111111111111110000000000000000000001000000100100101010111111101010101
0000000000000000000000000000000000000000011111111111111111100000000000
0000000000000101000100101010101000010110101000000000000000000000000000
0000000000000001011111111111111111100000000000000000000100000000000001
0001001110110101000000000000000000000000000000000000000000000111111111
1111111100100000000000000000000001001001010100100101001010100010000000
0000000000000000000000000000000000000111111111111111111000000000000000
0000000000000000001001000001010101100000000000000000000000000000000000
0000000000111111111111111111101000000000000000000000000000000000000010
0100101000000000000000000000000000000000000000000000000010111111111111
1110100000000000000000000000000000000001000100000000101010000000000000
0000000000000000000000000000000011111111111111111010000000000000000000
0000000000000000000010010000000000000000000000000000000000000000000000
0000001011111111111111110100000000000000000000000000000000001000000001
0101000100000000000000000000000000000000000000000001111111111111111111
0000000000000000000000000000000000000000000000000000000000000000000000
0000000000000000000000000001011111111111111101100000000000000000000000
0000000000000000000000000000000000000000000000000000000000000000000000
0101111111111111111100000000000000000000000000000000000000000000000001
0000000000000000000000000000000000000000000000010111111111111111111000
0000000000000000000000000000000000000000000000000000000000000000000000
0000000000000000000001111111111111111111010000000000000000000000000000
0000000000000000000000000000000000000000000000000000000000000000000011
1111111111111111010000000000000000000000000000000000000000000000000000
0000000000000000000000000000000000000000010111111111111111111010000000
0000000000000000000000000000000000000000000000000000000000000000000000
0000000000000000000111111111111111111000000000000000000000000000000000
0000000000000000000000000000000000000000000000000000000000000101101111
1111111111101000000000000000000000000000000000000000000000000000000000
0000000000000000000000000000000000000001111111111111111111100000000000
0000000000000000000000000000000000000000000000000000000000000000000000
0000000000001001011111111111111110100000000000000000000000000000000000
0000000000000000000000000000000000000000000000000000000001001011111111
1111111110000000000000000000000000000000000000000000000000000000000000
0000000000000000000000000000000000010111111111111111110000000000000000
0000000000000000000000000000000000000000000000000000000000000000000000
0000000010010111111111111111111000000000000000000000000000000000000000
0000000000000000000000000000000000000000000000000000000101111111111111
1111100000000000000000000000000000000000000000000000000000000000000000
0000000000000000000000000000001001111111111111111111000000000000000000
0000000000000000000000000000000000000000000000000000000000000000000000
0001001010111111111111111000000000000000000000000000000000000000000000
0000000000000000000000000000000000000000000000000001011111111111111111
1110000000000000000000000000000000000000000000000000000000000000000000
0000000000000000000000000001011111111111111111000000000000000000000000
0000000000000000000000000000000000000000000000000000000000000000000001
0000001111111111111111100000000000000000000000000000000000000000000000
0000000000000000000000000000000000000000010000010111111111111111111010
0000000000000000000000000000000000000000000000000000000000000000000000
0000000000000000000000100001111111111111111000000000000000000000000000
0000000000000000000000000000000000000000000000000000000000000000000001
1111111111111110001000000000000000000000000000000000000000000000000000
0000000000000000000000000000000000000000000000011111111111111100000000
0000000000000000000000000000000000000000000000000000000000000000000000
0000000000000000000101011111111111110101000000000000000000000000000000
0000000000000000000000000000000000000000000000000000000000000000000000
0111111111111000000000000000000000000000000000000000000000000000000000
0000000000000000000000000000000000000000000110111111111101100000000000
0000000000000000000000000000000000000000000000000000000000000000000000
0000000000000000000110111111111101100000000000000000000000000000000000
0000000000000000000000000000000000000000000000000000000000100101101111
1111111100000000000000000000000000000000000000000000000000000000000000
0000000000000000000000000000000000001011111111111111111010000000000000
0000000000000000000000000000000000000000000000000000000000000000000000
0000000000101101011011111111101000000000000000000000000000000000000000
0000000000000000000000000000000000000000000000000000000000101101111111
1111111000000000000000000000000000000000000000000000000000000000000000
0000000000000000000000000000010101010111111111111010010000000000000000
0000000000000000000000000000000000000000000000000000000000000000000000
0000001010111011111111111110000000000000000000000000000000000000000000
0000000000000000000000000000000000000000000000000000010101111111111111
1010100000000000000000000000000000000000000000000000000000000000000000
0000000000000000000000000100101111111111111111110000000000000000000000
0000000000000000000000000000000000000000000000001001000000000000000000
0010011010111111111111010000000000000000000000000000000000000000000000
0000000000000000000000001101010110100000000000001001111111111111111101
0000000000000000000000000000000000000000000000000000000000000000000100
1111100100000000000000001011111111111111110100000000000000000000000000
0000000000000000000000000000000000000000101010101010101000000000000000
0101111111111111110110000000000000000000000000000000000000000000000000
0000000000000001011111111011000000000000001000110111111111111111001000
0000000000000000000000000000000000000000000000000000000000001011111111
1101000000000000000100010111111110111111011100000000000000000000000000
0000000000000000000000000000000001011111111111111000000000000000001101
1011111111111111100100000000000000000000000000000000000000000000000000
0000000001101111111111111000000000000000000101111111111111110110110000
0000000000000000000000000000000000000000000000000000101111111111111011
0000000000000000101111011111111111111111010000000000000000000000000000
0000000000000000000000000010111111111111111110000000000000000000011111
1111111111011111010000000000000000000000000000000000000000000000000001
0010111111111111110100000000000000001011011101111111111111101100000000
0000000000000000000000000000000000000000000010111111111111111111000000
0000000000000010111111111111111011111110000000000000000000000000000000
0000000000000000000101111111111111111111000000000000000000001010111101
1110111111111101000000000000000000000000000000000000000000000101011111
1111111111100000000000000000000010001010111111110111011111101000000000
0000000000000000000000000000000000000111111111111111111111000000000000
0000000000000101111011111111111111110000000000000000000000000000000000
0000000001011111111111111111100000100000000000000000001000001011111110
1111111111111010000000000000000000000000000000000000010101111111111111
1111111000000000000000000000000010101101111111111111111111110000000000
0000000000000001000100001011011111111111111111110000000000000000000000
0000000000001111111111111111111110110101000000000000000001001010011001
1011111111111111111111110100000000000000000000000000001010101111111111
1111111111110101100000000000000001010101001111111111111111111111111110
0010000000000000000000000000000101111111111111111111111111110101110101
0010110101101111111011111111111111111111111111000000000000000000000000
0000000101010111111111111111111111111110101111011010111011111101111111
1111111111111111101100000000000000000000000000000000010101010111111111
1111111111111111110110111110111111111111111111111111111111111110101000
0000000000000000000000000100010101101111111111111111111111111111111111
1111111111111111111111111111111111111101000000000000000000000000000000
0100010101111111111111111111111111111111111111111111111111111111111111
1111111111010101010000000000000000000000000000000001010111111111111111
1111111111111111111111111111111111111111111111111111110101010000000000
0000000000000000000000001000101111111111111111111111111111111111111111
1111111111111111111111111110100101000000000000000000000000000000000000
1000101111111111111111111111111111111111111111111111111111111111111111
1010010000000000000000000000000000000000000000100000111111111111111111
1111111111111111111111111111111111111111111101010000000000000000000000
0000000000000000000000010101011111111111111111111111111111111111111111
1111111111111111101000000000000000000000000000000000000000000001001000
0010101111111111111111111111111111111111111111111111111111111010100000
0000000000000000000000000000000000000000000100100000101011111111111111
1111111111111111111111111111111111010000000000000000000000000000000000
0000000000000000000000000100101101111111111111111111111111111111111111
1111110101010000000000000000000000000000000000000000000000000100100101
0000101010110111111111111111111111111111111111110110100000000000000000
0000000000000000000000000000000000000000000000100001010010101111111111
1111111111111111111101100101010000000000000000000000000000000000000000
0000000000000000000000010000100101010111111111111111111111111101000000
0000000000000000000000000000000000000000000000000000000000000000000000
1001000010101010111110111101111111011101010100100000000000000000000000