P1
# CREATOR: GIMP PNM Filter Version 1.1
147 198
0000000000000000000000000000000000000000000000000000000000000000000000
0000000000000010000000000000000000000000000000000000000000000000000000
0000000000000000000000000000000000000000000000000000000000000000000000
0000000101010111111010101101010000000000000000000000000000000000000000
0000000000000000000000000000000000000000000000000000000000000000000000
0000000000101010111101001011011010101101010000000000000000000000000000
0000000000000000000000000000000000000000000000000000000000000000000000
0000000000000101010101101011111101110111110110110101000000000000000000
0000000000000000000000000000000000000000000000000000000000000000000000
0000000000000000011101101111011111011111111110111111101101010100000000
0000000000000000000000000000000000000000000000000000000000000000000000
0000000000000000000001010011011111111111111111101111111101110111111101
0100000000000000000000000000000000000000000000000000000000000000000000
0000000000000000000000000010101111011011111111111111111111111111111111
0101011010100000000000000000000000000000000000000000000000000000000000
0000000000000000000000000000000101010101111111111101111111111111111111
1111111111111111011100000000000000000000000000000000000000000000000000
0000000000000000000000000000000000001010111111111111111111111111111111
1111111111111111111111111011010000000000000000000000000000000000000000
0000000000000000000000000000000000000000010101110111111111111111111111
1111111111111111111111111111111110110100000000000000000000000000000000
0000000000000000000000000000000000000000000000010111101111111111111111
1111111111111111111111111111111111111111110110100000000000000000000000
0000000000000000000000000000000000000000000000000000101010111111111111
1111111111111111111111111111111111111111111111111111111000000000000000
0000000000000000000000000000000000000000000000000000000001011111111111
1111111111111111111111111111111111111111111111111111111111010110100000
0000000000000000000000000000000000000000000000000000000000000001010101
1111111111111111111111111111111111111111111111111111111111111111111111
1010000000000000000000000000000000000000000000000000000000000000000010
1101111111111111111111111111111111111111111111111111111111111111111111
1111101110100000000000000000000000000000000000000000000000000000100000
0000010111111111111111111111111111111111111111111111111111111111111111
1111111111111011110100000000000000000000000000000000000000000000000000
0000000001101011111111111111111111111111111111111111111111111111111111
1111111111111111111111101101000000000000000000000000000000000000000000
0000000001000010001101101111111111111111111111111111111111111111111111
1111111111111111111111111111111110100000000000000000000000000000000000
0000000000010000001010111111111111111111111111111111111111111111111111
1111111111111111111111111111111111111111111010000000000000000000000000
0000000000000000000000000000100101111111111111111111111111111111111111
1111111111111111111111111111111111111111111111111101000000000000000000
0000000000000000000000000100000010101111111111111111111111111111111111
1111111111111111111111111111111111111111111111111111111111110000000000
0000000000000000000000000000010000000001011011111111111111111111111111
1111111111111111111111111111111111111111111111111111111111111111111110
0000000000000000000000000000000000000000000101010111111111111111111111
1111111111111111111111111111111111111111111111111111111111111111111111
1101010000000000000000000000000000000000000001000000101111111111111111
1111111111111111111111111111111111111111111111111111111111111111111111
1111111111111110000000000000000000000000000000000000000100101111111111
1111111111111111111111111111111111111111111111111111111111111111111111
1111111111111111111010000000000000000000000000000000000010000000101101
1111111111111111111111111111111111111111111111111111111111111111111111
1111111111111111111111111111110000000000000000000000000000000000000001
0101111111111111111111111111111111111111111111111111111111111111111111
1111111111111111111111111111111111110100000000000000000000000000000010
0001000010111111111111111111111111111111111111111111111111111111111111
1111111111111111111111111111111111111111111111000000000000000000000000
0000000010001111111111111111111111111111111111111111111111111111111111
1111111111111111111111111111111111111111111111111111010000000000000000
0000000000100000000001011111111111111111111111111111111111111111111110
1010100101011011111111111111111111111111111111111111111111111000000000
0000000000000000000000010111011111111111111111111111111111111111111111
1010101010101010101010101111111111111111111111111111111111111111111110
0000000000000000000000010010001000111111111111111111111111111111111111
1111110110101010001001010101010101011111111111111111111111111111111111
1111111100000000000000000000000000000011111111111111111111111111111111
1111111110101010101001000000000000100101011011111111111111111111111111
1111111111111000000000000000000000000100010100101111111111111111111111
1111111111111011010100100100000001000000010000010101011111111111111111
1111111111111111111111010000000000000000001000000011111111111111111111
1111111111111111111110110101001000000000000000000001010101010111111111
1111111111111111111111111111110000000000000000000000000000001111111111
1111111111111111111111111010101010100000000000000000000000000001010101
0111111111111111111111111111111111111110000000000000001010101011111111
1111111111111111111111111111110101010100000000000000000000000000000010
0101010110111111111111111111111111111111111101000000000001000000000000
0101111111111111111111111111111111101110101000001000000000000000000000
0000000000010101101111111111111111111111111111111111110000000000000100
1001010111111111111111111111111111111111111001010001000000000000000000
0000000000000000100101010111111111111111111111111111111111101000000000
0000000000100101111111111111111111111111111111110110100100000000000000
0000000000000000000000000001010100111111111111111111111111111111111110
0000000000100001001011111111111111111111111111111111101010100100000000
0000000000000000000000000000000010001011011111111111111111111111111111
1111010000000000001000010010111111111111111111111111111111111010101000
0000000000000000000000000000000000000000100101010011111111111111111111
1111111111110100000000000001000110111111111111111111111111111111101010
1000000000000000000000000000000000000000000000000001010110111111111111
1111111111111111111110000000010100010010111111111111111111111111111111
1101010010100000000000000000000000000000000000000000000100001010101111
1111111111111111111111111111000000000000100101101111111111111111111111
1111111101000100000000000000000000000000000000000000000000000000010101
0101011111111111111111111111111111000000001010000000011111111111111111
1111111111111111011001000000000000000000000000000000000000000000000000
0000001010111111111111111111111111111111110000000000001011111111111111
1111111111111111111100100010000000000000000000000000000000000000000000
0000000000010010100111111111111111111111111111111000000010100000010111
1111111111111111111111111111101010000000000000000000000000000000000000
0000000000000000000001010101111111111111111111111111111100000010000010
1011111111111111111111111111111110001000000000000000000000000000000000
0000000000000000000000000000010101101111111111111111111111111110000000
0010001010111111111111111111111111111111101010100000000000000000000000
0000000000000000000000000000000000000101011111111111111111111111110111
0000001000010101111111111111111111111111111110101001000000000000000000
0000000000000000000000000000000000000000001010101011111111111111111111
1111111000000001000101011111111111111111111111111111101010000000000000
0000000000000000000000000000000000000000000000000001010101111111111111
1111111111111100000100001001111111111111111111111111111111100100000000
0000000000000000000000000000000000000000000000000000000000001011011111
1111111111111111111110000000100010101111111111111111111111111111101011
0100000000000000000000000000000000000000000000000000000000000000000001
0101011111111111111111011011000010000100101111111111111111111111111111
1101000100000000000000000000000000000000000000000000000000000000000000
0001010101011010111111011011011011000001010001010111111111111111111111
1111111011011000000000000000000000000000000000000000000000000000000000
0000000000000000101010100010101101101101110000000010010111111111111111
1111111111111110010010000000000000000000000000000000000000000000000000
0000000000000000000010100010101101010101010101000000101000101101111111
1111111111111111111111010100000000000000000000000000000000000000000000
0000000000000000000000000000000100000000001001010100101000000001001011
1111111111111111111111111110100100100000000000000000000000000000000000
0000000000000000000000000000000000000000010000100000000000100000010100
0101011111111111111111111111111111101010000000000000000000000000000000
0000000000000000000000000000000000000000000000000000000000000000000000
0000010001011111111111111111111111111110101000100000000000000000000000
0000000000000000000000000000000000000000000000000000000000000000000000
0000000001001001010111111111111111111111111111110101000000000000000000
0000000000000000000000000000000000000000000000000000000000000000000000
0000000000000000000001010111111111111111111111111111100100100000000000
0000000000000000000000000000000000000000000000000000000000000000000000
0000000000000000000000000100010111111111111111111111111111110101001000
0000000000000000000000000000000000000000000000000000000000000000000000
0000000000000000000000000000010000101011111111111111111111111111110101
0010000000000000000000010000000000000000000000000000000000000000000000
0000000000000000000000000000000000000010000110111111111111111111111111
1111001000000000000000000000000000000000000000000000000000000000000000
0000000000000000000000000000000000000000000010010101111111111111111111
1111111110101001000000000000000001000010000100000000000000000000000000
0000000000000000000000000000000000000000000000000000000010111111111111
1111111111111111010010000000000000000000000000000000000000000000000000
0000000000000000000000000000000000000000000000000000000001010101011111
1111111111111111111111101010000000000000000000000000001000000000000000
0000000000000000000000000000000000000000000000000000000000000000000010
1011111111111111111111111111110100100000000000000000000000000000000000
0000000000000000000000000000000000000000000000000000000000000000000000
0101001011111111111111111111111111100101000000000000000000000000000000
0000000000000000000000000000000000000000000000000000000000000000000000
0000000000010110111111111111111111111111111100101000000000000000000000
0000000000000000000000000000000000000000000000000000000000000000000000
0000000000000001000101111111111111111111111111111001000000000000000000
0000000000000000000000000000000000000000000000000000000000000000000000
0000000000000000000000010001011111111111111111111111111101010100000000
0000000000000000000000000000000000000000000000000000000000000000000000
0000000000000000000000000000010010111111111111111111111111111111010100
0000000000000000000000000000000000000000000000000000000000000000000000
0000000000000000000000000000000000000010010111111111111111111111111111
0100101000000000000000000000000000000000000000000000000000000000000000
0000000000000000000000000000000000000000000100101111111111111111111111
1111110101000000000000000000000000000000000000000000000000000000000000
0000000000000000000000000000000000000000000000000000000101111111111111
1111111111111100101000000000000000000000000000000000000000000000000000
1000000000000000000000000000000000000000000000000000000001011011111111
1111111111111111111101000100000000000000000000000000000000000000000000
0000000001000000000000000000000000000000000000000000000000000000000101
1111111111111111111111111110101000000000000000000000000000000000000000
0000000000000000000000000000000000000000000000000000000000000000000000
0101011111111111111111111111111110100010000000000000000000000000000000
0000000000000000000000000000000000000000000000000000000000000000000000
0000000000100111111111111111111111111111101000100000000000000000000000
0000000000000000000000000000000000000000000000000000000000000000000000
0000000000000000001101111111111111111111111111101001000000000000000000
0000000000000000000000000000000000000000000000000000000000000000000000
0000000000000000000000101011111111111111111111111111111010010000000000
0000000000000000000000000000000000000000000000000000000000000000000000
0000000000000000000000000000000101111111111111111111111111110100010000
0000000000000000000000000000000000000000000000000000000000000000000000
0000000000000000000000000000000000010010111111111111111111111111111101
1000000000000000000000000000000000000000000000000000000000000000000000
0000000000000000000000000000000000000000000010111111111111111111111111
1111010010100000000000000000000000000000000000000000000000000000000000
0000000000000000000000000000000000000000000000000100010111111111111111
1111111111110100000000000000000000000000000000000000000000000000000000
0000000000000000000000000000000000000000000000000000000000110111111111
1111111111111111101001010000000000000000000000000000000000000000000000
0000000000000000000000000000000000000000000000000000000000000000010111
1111111111111111111111111010000000000000000000000000000000000000000000
0000000000000000000000000000000000000000000000000000000000000000000000
0101011111111111111111111111111100101010000000000000000000000000000000
0000000000000000000000000000000000000000000000000000000000000000000000
0000000000101111111111111111111111111111000000000000000000000000000000
0000000000000000000000000000000000000000000000000000000000000000000000
0000000000000001101111111111111111111111111110101001000000000000000000
0000000000000000000000000000000000000000000000000000000000000000000000
0000000000000000000000001011111111111111111111111111010000000000000000
0000000000000000000000000000000000000000000000000000000000000000000000
0000000000000000000000000000011010111111111111111111111111110010010000
0000000000000000000000000000000000000000000000000000000000000000000000
0000000000000000000000000000000000000101111111111111111111111111111100
0000000000000000000000000000000000000000000000000000000000000000000000
0000000000000000000000000000000000000000000101011111111111111111111111
1101000101000000000000000000000000000000000000000000000000000000000000
0000000000000000000000000000000000000000000000000001101111111111111111
1111111111110000000000000000000000000000000000000000000000000000000000
0000000000000000000000000000000000000000000000000000000001011111111111
1111111111111111100000101000000000000000000000000000000000000000000000
0000000000000000000000000000000000000000000000000000000000000000000011
1111111111111111111111111010000000000000000000000000000000000000000000
0000000000000000000000000000000000000000000000000000000000000000000000
1011111111111111111111111111111010010010000000000000000000000000000000
0000000000000000000000000000000000000000000000000000000000000000000000
0000000010001111111111111111111111111110100000000000000000000000000000
0000000000000000000000000000000000000000000000000000000000000000000000
0000000000000001011111111111111111111111111110100100000000000000000000
0000000000000000000000000000000000000000000000000000000000000000000000
0000000000000000000001010011111111111111111111111111010000100000000000
0000000000000000000000000000000000000000000000000000000000000000000000
0000000000000000000000000000010111111111111111111111111111101000000000
0000000000000000000000000000000000000000000000000000000000000000000000
0000000000000000000000000000000000000100111111111111111111111111110101
0001000000000000000000000000000000000000000000000000000000000000000000
0000000000000000000000000000000000000000001010111111111111111111111111
1110100000000000000000000000000000000000000000000000000000000000000000
0000000000000000000000000000000000000000000000000100101111111111111111
1111111111100010010000000000000000000000000000000000000000000000000000
0000000000000000000000000000000000000000000000000000000001010111111111
1111111111111111010000000000000000000000000000000000000000000000000000
0000000000000000000000000000000000000000000000000000000000000000101011
1111111111111111111111110100000100000000000000000000000000000000000000
0000000000000000000000000000000000000000000000000000000000000000000000
0101011111111111111111111111111100100000100000000000000000000000000000
0000000000000000000000000000000000000000000000000000000000000000000000
0000000001010111111111111111111111111111000000000000000000000000000000
0000000000000000000000000000000000000000000000000000000000000000000000
0000000000000010101111111111111111111111111111001001000000000000000000
0000000000000000000000000000000000000000000000000000000000000000000000
0000000000000000000000010101111111111111111111111111110000001000000000
0000000000000000000000000000000000000000000000000000000000000000000000
0000000000000000000000000000100101111111111111111111111111110100000000
0000000000000000000000000000000000000000000000000000000000000000000000
0000000000000000000000000000000000010101011111111111111111111111111010
1000010000000000000000000000000000000000000000000000000000000000000000
0000000000000000000000000000000000000000000101011111111111111111111111
1111100000100010000000000000000000000000000000000000000000000000000000
0000000000000000000000000000000000000000000000000001010111111111111111
1111111111110100000000000000000000000000000000000000000000000000000000
0000000000000000000000000000000000000000000000000000000010101011111111
1111111111111111111001000100100000000000000000000000000000000000000000
0000000000000000000000000000000000000000000000000000000000000000100101
1111111111111111111111111101000000000000000000000000000000000000000000
0000000000000000000000000000000000000000000000000000000000000000000000
0101010111111111111111111111111111010001001000000000000000000000000000
0000000000000000000000000000000000000000000000000000000000000000000000
0000000100101011111111111111111111111111101000000100000000000000000000
0000000000000000000000000000000000000000000000000000000000000000000000
0000000000000001001011111111111111111111111111110100000000000000000000
0000000000000000000000000000000000000000000000000000000000000000000000
0000000000000000000000101010111111111111111111111111111010000100100000
0000000000000000000000000000000000000000000000000000000000000000000000
0000000000000000000000000000000100101111111111111111111111111110010000
0000000000000000000000000000000000000000000000000000000000000000000000
0000000000000000000000000000000000001001011111111111111111111111111111
1000000001000000000000000000000000000000000000000000000000000000000000
0000000000000000000000000000000000000000000010100101111111111111111111
1111111010000010000000000000000000000000000000000000000000000000000000
0000000000000000000000000000000000000000000000000001001011111111111111
1111111111111110100000010000000001000000000000000000000000000000000000
0000000000000000000000000000000000000000000000000000000000010101011111
1111111111111111111111000000000000000010000000000000000000000000000000
0000000000000000000000000000000000000000000000000000000000000000000010
1011111111111111111111111111111000000010000000000000000000000000000000
0000000000000000000000000000000000000000000000000000000000010000000000
0010100111111111111111111111111111110010000000000000001000000000000000
0000000000000000000000000000000000000000000000000000000000000000000000
0000000000001000111111111111111111111111111110100000010000000000000000
0000000000000000000000000000000000000000000000000000000000000000000000
0000000000000000101011011111111111111111111111111111000000000000000000
0000000000000000000000000000000000000000000000000000000000000000000000
0000000000000000000000000000010111111111111111111111111111111010000010
0000000000000000000000000000000000000000000000000000000000000000000000
0000000000000000000000000000000101101011111111111111111111111111110000
0000000000000000000000000000000000000000000000000000000000000000000000
0000000000000000000000000000000000000000001010111111111111111111111111
1111010100000000000000000000000000000000000000000000000000000000000000
0000000000000000000000000000000000000000000000101010111111111111111111
1111111111110000000000000000000000000000000000000000000000000000000000
0000000000000000000000000000000000000000000000000000000101010111111111
1111111111111111111101000000000000000000000000000000000000000000000000
0000000000000000000000000000000000000000000000000000000000000010101011
1111111111111111111111111110100000000000000000000000000000000000000000
0000000000000000000000000000000000000000000000000000000000000000000000
0101101111111111111111111111111111010000000000000000000000000000000000
0000000000000000000000000000000000000000000000000000000000000000000000
0000001010101111111111111111111111111111110100000100000000000000000000
0000000000000000000000000000000000000000000000000000000000000000000000
0000000000000100101011111111111111111111111111111101000000000000000000
0000000000000000000000000000000000000000000000000000000000000000000000
0000000000000000000001010101111111111111111111111111111101000000001000
0000000000000000000000000000000000000000000000000000000000000000000000
0000000000000000000000000000100101011111111111111111111111111111111000
0000000000000000000000000000000000000000000000000000000000000000100100
0000000000000000000000000000000000001010101111111111111111111111111111
1000000000000000000000000000000000000000000000000000000000000000000000
0000000000000010010101101010101010000001000100101011111111111111111111
1111111111010000000000000000000000000000000000000000000000000000000000
0000010010101010101101010101010101010101010000000001010101111111111111
1111111111111111110000000100000000000000000000000000000000000000000000
0000000000000000000010101011111111110111111101110010001000001010101111
1111111111111111111111111110000000000000000000000000000000000000000000
0000000000000000000001000100010110101011011110110111011100000000010010
1011111111111111111111111111111010000000000000000000000000000000000000
0000000000000000000000000100001001110111111111111111111111111010001000
0001001010111111111111111111111111111111110000000000000000000000000000
0000000000000000000000000000000000000000001101111111111111111111111111
0000000000010010101111111111111111111111111111101010000000000000000000
0000000000000000000000000000000000000000000001011111111101111111111111
1011111001000000000100101111111111111111111111111111111110100000000000
0000000000000000000000000000000000000000000100100000101011111111111111
1111111111111100000000000101010101111111111111111111111111111101000000
0000000000000000000000000000000000000000000000000000000001001111111111
1111111111111111110110000000000000101010111111111111111111111111111111
1110000000000000000000000000000000000000000000000000000000000000010101
1111111111111111111111111101000000000000001001101111111111111111111111
1111111110100000000000000000000000000000000000000000000000000000000010
0101111111111111111111111111111111101000000000000010010111111111111111
1111111111111111101000000000000010000000000000000000000000000000000100
0000000011011111111111111111111111111111010000000000000101010101111111
1111111111111111111111111010000000000000001001000000000000000000000000
0000000000001010111111111111111111111111111111110000000000000000001010
1111111111111111111111111111111101000000000000000000000000000000000000
0000000000000000000101011111111111111111111111111111111100100000000000
0100101011111111111111111111111111111111110000000000000000000000000000
0000000000000000000000001010111111111111111111111111111111110000000000
0000000001010101011111111111111111111111111111111110100000000000000000
0000000000010010000000000000000001111111111111111111111111111111111110
0000100000000000000101011111111111111111111111111111111010100000000000
0000000000000000000000000000000000001111011111111111111111111111111111
1111010000000000000000010010101011111111111111111111111111111111101100
0000000000000000000000000000000000000000000010111111111111111111111111
1111111111111000000000000000000001010111111111111111111111111111111111
1110101000000000000000000000000000000000000000001010111111111111111111
1111111111111110100010000000000000000000010100011111111111111111111111
1111111111111010000000000000000000000000000000000000101011111111111111
1111111111111111111111101100000000000000000000100101110111111111111111
1111111111111111110111010000000000000000000000000000000000101110111111
1111111111111111111111111111110001000000000000000000001001001111111111
1111111111111111111111111111111101000000000000000000000000000010101011
1011111111111111111111111111111111101110100000000000000000000001010101
0111111111111111111111111111111111110111011000000000000000000000001001
0111111111111111111111111111111111111111111000000000000000000000000000
0010101111111111111111111111111111111111111101110111101010000000001001
0101011010101111111111111111111111111111111111110111010000000000000000
0000001010010101111111111111111111111111111111111111111110101010110101
0100110101111111111111111111111111111111111111111111111100100000000000
0000000000000000101010011111111111111111111111111111111111111111111111
0101101111010110101011111111111111111111111111111111111111110110101000
0000000000000000000000000101101111111111111111111111111111111111111111
1111011111111101111111111111111111111111111111111111111111111111111101
0000000000000000000000000000000000101011111111111111111111111111111111
1111111111111111110111111111111111111111111111111111111111111111111111
1110101101000000000000000000000000000010101010111111111111111111111111
1111111111111111111111111111111111111111111111111111111111111111111111
1111111111101000000000000000000000000000000000010010101111111111111111
1111111111111111111111111111111111111111111111111111111111111111111111
1111111111111111010101000000000000000000000000000000000010101011111111
1111111111111111111111111111111111111111111111111111111111111111111111
1111111111111111111110101001000000000000000000000000000000000001010101
0111111111111111111111111111111111111111111111111111111111111111111111
1111111111111111111111111111101010000000000000000000000000000000000000
0101010110111111111111111111111111111111111111111111111111111111111111
1111111111111111111111111111111110101010100000000000000000000000000000
0000000001010101111111111111111111111111111111111111111111111111111111
1111111111111111111111111111111111111111011010010000000000000000000000
0000000000000000001010101111111111111111111111111111111111111111111111
1111111111111111111111111111111111111111111110110101000000000000000000
0000000000000000000000000001010101111111111111111111111111111111111111
1111111111111111111111111111111111111111111111111111010101010000000000
0000000000000000000000000000000101010101011111111111111111111111111111
1111111111111111111111111111111111111111111111111111111110110101010000
0000000000000000000000000000000000000000001010110111111111111111111111
1111111111111111111111111111111111111111111111111111111111111111101010
1010100000000000000000000000000000000000000000000001010101011111111111
1111111111111111111111111111111111111111111111111111111111111111111101
0101010100000000000000000000000000000000000000000000000100010101101111
1111111111111111111111111111111111111111111111111111111111111111111111
1111101010101011010100000000000000000000000000000000000000000000000101
0101011111111111111111111111111111111111111111111111111111111111111111
1111111111011010101010010000000000000000000000000000000000000000000000
0000000010110111111111111111111111111111111111111111111111111111111111
1111111111111111110101010001000101000000000000000000000000000000000000
0000000000001010101101111111111111111111111111111111111111111111111111
1111111111111111111101010101010010001000000000000000000000000000000000
0000000000000000000000010010101011111111111111111111111111111111111111
1111111111111111111111111111101010100000000010000000000000000000000000
0000000000000000000000000000100101010111111111111111111111111111111111
1111111111111111111111111111111010010100000000000000000000000000000000
0000000000000000000000000000000000000000101100101111111111111111111111
1111111111111111111111111111111111111101101010100000000000100000000000
0000000000000000000000000000000000000000000000000101010101111111111111
1111111111111111111111111111111111111111110101010000000000000000000000
0000000000000000000000000000000000000000000000000000000000010101010101
1111111111111111111111111111111111111111111111101101010101000000000000
0100000000000000000000000000000000000000000000000000000000000001010010
1010101011111111111111111111111111111111111111111010010101010100000000
0000000000000000000000000000000000000000000000000000000000000000000000
0000001001010110101111111111111111111111111111111111101011101010101001
0100100000000001000000000000000000000000000000000000000000000000000000
0000000000000001010101011010110111111111111111111111101010101101011010
1000100000000000000000000000000000000000000000000000000000000000000000
0000000000000000000000000000010010101010101101111111111101011101010101
0100100001000100000000001000100000000000000000000000000000000000000000
0000000000000000000000000000000000000000000000000000000000000000000000
0000000000000000000000000000000000000000000000000000000000000000000000
0000000000000000000000000000000000000000000000000000000000000000000000
00000000000000000000000000000000000000000000000000000000