P1
# CREATOR: GIMP PNM Filter Version 1.1
119 162
0000000000000000100000000000000000000000000000000000000000000000000000
0000000000000000000000000000000000000000000000000000000000000000010100
0000000000000000000000000000000000000000000000000000000000000000000000
0000010000000000000000000000000000001000010100000000000000000000000000
0000000000000000000000001001010100000000000000000000000000000000000000
0000000000000000010000000000000000000000000000000000000000000000010111
1111111111111110100000000000000000000000000000000000000000000000000000
0100000000000000000000000000000000000000111111111111111111111111111110
0000000000000000000000000000000000000100000000000000000000000000000000
0000000000000000110111111111111111111111111111111111000000000000000000
0000000000000000000000000000000000000000000000000000000000000011111111
1111111111111111111111111111111110000000000000000000000000000000000000
0000000000000000000000000000000000000101111111111111111111111111111111
1111111111111110000000000000000000000000000000000000000000000000000000
0000000000000000111111111111111111111111111111111111111111111111100000
0000000000000000000000000000000000000000000000000000000000000001111111
1111111111111111111111111111111111111111111111100000000000000000000000
0000000000000000000000000000000000000000111111111111111111111111111111
1111111111111111111111111110000000000000000000000000000000000000000000
0000000000000000010111111111111111111111111111111111111111111111111111
1111111100000000000000000000000000000000000000000000000000000000011111
1111111111111111111111111111111111111111111111111111111111000000000000
0000000000000000000000000000000000000000001011111111111111111111111111
1111111111111111111111111111111111111110000000000000000000000000000000
0000000000000000000011111111111111111111111111111111111111111111111111
1111111111111111111000000000000000000000000000000000000000000000000011
1111111111111111111111111111111111111111111111111111111111111111111110
0000000000000000000000000000000000000000000001111111111111111111111111
1111111111111111111111111111111111111111111111111000000000000000000000
0000000000000000000000010111111111111111111111111111111111111111111111
1111111111111111111111111111100000000000000000000000000000000000000000
0111111111111111111111111111111111111111111111111111111111111111111111
1111111110000000000000000000000000000000000000000101111111111111111111
1111111111111111111111111111111111111111111111111111111111100000000000
0000000000000000000000000001111111111111111111111111111111111111111111
1111111111111111111111111111111111111110000000010000000000000000000000
0000101111111111111111111111111111111111111111111111111111111111111111
1111111111111111111000000010000000000000000000000000001111111111111111
1111111111111111111111111111111111111111111111111111111111111111111100
0000001000000000000000000000000111111111111111111111111111111111111111
1111111111111111111111111111111111111111111111110000000000000000000000
0000000001111111111111111111111111111111111111111111111111111111111111
1111111111111111111111111111000000100000000000000000000000011111111111
1111111111111111111111111111111111111111111111111111111111111111111111
1111111100000000000000000000000000001111111111111111111111111111111111
1111101101010111111111111111111111111111111111111111111111000000000000
0000000000000011111111111111111111111111111111111111011010101010101011
1111111111111111111111111111111111111000000000000000000000000011111111
1111111111111111111111111111011101010010001010110111111111111111111111
1111111111111111100000000000000000000000001111111111111111111111111111
1111101101010100000000001010001011111111111111111111111111111111110000
0000000000000000000111111111111111111111111111111110101101010100000000
0101000100101011111111111111111111111111111111000000000000000000000111
1111111111111111111111111110101101010010100000000001010000010110111111
1111111111111111111111111000000000000000000001111111111111111111111111
1111111110100101010000000000000000100000101111111111111111111111111111
1111100000000000000000001111111111111111111111111111100101101000010000
0000000000100000100000101111111111111111111111111111111000000000000010
0011111111111111111111111111110011010010101001000000000000000110100101
0101011111111111111111111111111110000000000000000001111111111111111111
1111111110101010000101000000000000000000000100000000101111111111111111
1111111111111000000000000000111111111111111111111111111110110100001010
0100000000000000000110001001010010111111111111111111111111111110000000
0010000011111111111111111111111111101010100000101000000000000000000000
1001000010010101111111111111111111111111110000000000000011111111111111
1111111111111101110000000010100000010000000000010100000000010010111111
1111111111111111111110000000000000111111111111111111111111111010101000
0000001000000000000000000000010100000000011011111111111111111111111111
0000000000000111111111111111111111111111010101000000101000000100000000
0000001000000000000001111111111111111111111111111000000100000111111111
1111111111111111101010100000000000000000000000000000000000000000000010
0011111111111111111111111111000000000001111111111111111111111111111001
0000000000010000000000000000000000000000000000000110111111111111111111
1111101000000000000111111111111111111111111110101010000001000000000000
0000000000000000000000000000000101111111111111111111110100000100001111
1111111111111111111111101011000000000010001000000000000000000000000000
0000000010101011101110110101001010100000101000111111111111111111111111
1101010100000000000000000000000000000000000000000000000000010101011011
1011101101010000000101011111111111111111111111111000101000000000000000
0010000000000000000000000000000000000010000100101010001000000000000011
0101111111111111111111111111100101001000000000000000000000000000000000
0000000000000000001000010001001000001000000001100101111111111111111111
1111110101010000000000000000000000000000000000000000000000000000000000
0000100000000000000000000110011111111111111111111111111001010000000000
0000000000000000000000000000000000000000000000000000000100000000000000
0001010111111111111111111111111110101010000000000000000000000000000000
0000000000000000000000000000000000000000000000000000010001111111111111
1111111111101001000000000000000000000000000000000000000000000000000000
0000000100000000000000000000000100111111111111111111111111111010100000
0000000000000000000000000000000000000000000000000000000000000010000000
0000000000000011111111111111111111111110010100000000000000000000000000
0000000000000000000000000000000000000000000000000000000000101011111111
1111111111111111110101000000000000000000000100000000000000000000000000
0000000000001000000100000000000000000000001111111111111111111111111001
0100000000000000000000000000000000000000000000000000000000000010000010
0000000000000000101011111111111111111111111100101000000000000000000000
0100000000000000000000000000000000000000000000000000000000000000000011
1111111111111111111111110001100000000000000000000000000000000101000000
0000000000000000000000001011000000000000000100101111111111111111111111
1101010000000000000000000000000000000000010000000000000000000000000000
0000100010000000000000100011111111111111111111111110010100000000000000
0000000000000000000010000000000000000000000000100000001000000000000000
0001011111111111111111111111100100100000000000000000000000000000000000
0000000000000000000000000001001000000000000000000010011111111111111111
1111111110010000000000000000000000000000000000000000000000000000000000
0010101000000001000000000000001011111111111111111111111100101010000000
0000000000000000000000000000000000000000000010111101010010000000000000
0000000001011111111111111111111111110010000010000000000000000000000000
0000000000000000000000010101101011001000100000000000000000011111111111
1111111111111101001000000000000000000000000000000000000000000000000000
0111010101000100000000000001000000010001111111111111111111111110010100
0000000000000000000000000000000000000000000000000000101010000000000000
0000000000000000111111111111111111111111101001000000000000000000000000
0000000000000000000000000000010100001000000000000000000001000000001111
1111111111111111111101001010000000000000000000000000000000000000000000
0000000000010000000000000000000000000000000011111111111111111111111110
0101000000000000000000000000000000000000000000000000000000000000000000
0000000000000000000000001111111111111111111111111001010000000000000000
0000000000000000000000000000000000000000010000000000000000000000000000
0111111111111111111111111100010100000000000000000000000000000000000000
0000000000000000000000000000010000000000000000000001111111111111111111
1111110000100000000000000000000000000000000000000000000000000000000000
0000000000000000000000000000001111111111111111111111111001010000000000
0010100000000000000000000000000000000000000000000000000000000000000000
0000000001111111111111111111111101001000000000001010111000000000000000
0000000000000000000000000000000000000000000000010000000001111111111111
1111111111110000100000000010101100000000000000000000000000000000000000
0000000000000000000000000000000000000111111111111111111111111010010000
0000000001010000000000000000000000000000000000000000010000000000000000
0000000000000001111111111111111111111111000101000000000101000000000000
0000000000000000000000000000000000001000000000000000000000000000011111
1111111111111111110100000000000000000000000000000000000000000000000000
0000000000000000000000000000000001000000000111111111111111111111111100
1010000000000000010100000000000000000000000000000000000000000000000000
0000000000000000000000111111111111111111111111100001000000000000000000
0000000000000000000000000000000000000000000000000000000000000001000000
0111111111111111111111111000100000000000000000100000000000000000000000
0000000000000000000000000000000000000000000000000011111111111111111111
1111100101000000000000000010000000000000000000000000000000000000000000
0000000000000000000000000000011111111111111111111111100000100000000000
0000000000000000000000000000000000000000000000000000000000000000000000
0000000001111111111111111111111101000100000000000000000000000100000000
0000000000000000000000000000000000000000000000000000000001111111111111
1111111111110010000000000000000000000000000000000000000000000000000000
0000000000000000000000000000000000001111111111111111111111110000101000
0000001000000000000000000000000000000000000000000000000000000000000000
0000000000000001111111111111111111111110000100000000000000000000000000
0000000000000000000000000000000000000000000000000000000000000000111111
1111111111111111111000101000000000010101010000000000000000000000000000
0000000000000000000000000000000000000000000111111111111111111111111000
0010000000000001011110100000000000000000000000000000000000000000000000
0000000000000000000000111111111111111111111111100100000000000000010111
1000000000000000000000000000000000000000010000000000000000000000000000
0111111111111111111111111000010100000000000111111010000000000000000000
0000000000000000001000000000000000000000000000000011111111111111111111
1111110000000000000001011111010110100000000000000000000000000000000010
0000000000000000000000000000011111111111111111111111100001010000000000
1111110101000000000000000000000000000000000000000000000000000000000000
0000000101111111111111111111111111000000000000000011011100110100000000
0000000000000000000000000000000000000000000000000000000001111111111111
1111111111110000100000000001011100001010000000000000000000000000000000
0000000000000000000000000000000000000111111111111111111111111000010000
0000000101101000101000000000000000000000000000000000000000000000000000
0000000000000011111111111111111111111111000000100000000001000000000000
0000000000000000000000000000000000000000000000000000000000000000011111
1111111111111111111100000000000000100000010000000000000000000000000000
0000000000000000000000000000000000000000001111111111111111111111111100
0010101000000000000000000000000000000000000000000000000000000000000000
0000000000000000000000011111111111111111111111110000000000000000000000
0000000000000000000000000000000000000000000000000000000000000000000000
1011111111111111111111111110000010000000000000000000000000000000000000
0000000000000000000000000000000000000000000000000101111111111111111111
1111111000010000000000000000000000000000000000000000000000000000000000
0000000000000000000000000000010111111111111111111111111000000000000000
0000000000000000000000000000000000000000000000000000000000000000000000
0000000101111111111111111111111111110000100000000000000000000000000000
0000000000000000000000000000000000000000000000000000000001011111111111
1111111111111100000001000000000000000000000000000000000000000000000000
0000000000000000000000000000000000001011111111111111111111111111000000
0000000000000000000000000000000000000000000000000000000000000000000000
0000000000000001011111111111111111111111111000001000000000000000000000
0000000000000000000000000000000000000000000000000000000000000000100111
1111111111111111111111000000000000000000000000000000000000000000000000
0000000000000000000000000000000000000000000011111111111111111111111111
1100000100000000000000000000000000000000000000000000000000000000000000
0000000000000000000001000111111111111111111111111110000000000000000000
0000000000000000000000000000000000000000000000000000000000000000000000
0010111111111111111111111111110000000000000000000000000000000000000000
0000000000000000000000000000000000000000000000000001001111111111111111
1111111111000000000000000000000000000000000000000000000000000000000000
0000000000000000000000000000000111111111111111111111111111100000000000
0000000000000000000000000000000000000000000000000000000000000000000000
0000000000001111111111111111111111111110000000000000000000000000000000
0000000000000000000000000000000000000000000000000000000000110111111111
1111111111111111110000001000000000000000000000000000000000000000000000
0000000000000000000000000000000000000001011111111111111111111111111100
0000000000000000000000000000000000000000000100000000000000000000000000
0000000000000000010111111111111111111111111111110000000000000000000000
0000000000000000000000100000000000000000010111101111111111111000000010
1111111111111111111111111110000000000000000000000000000000000000000000
0000000000000000001111101111011111111111100000101111111111111111111111
1111110000000000000000000000000000000000000000000000000000000000011111
1111111111111111111000000010011111111111111111111111111100000000000000
0000000000000000000000000000000000000100000011111111111111111111111110
0000101101111111111111111111111111100000000000000000000000000000000000
0000000000000000000001111111111111111111111111010000010011111111111111
1111111111111110000000000000000000000000000000000000000000000000000000
0111111111111111111111111110000000101111111111111111111111111111100000
0000000000000000000000000000000000000000000000000111111111111111111111
1111001000000010111111111111111111111111111100000000000000000000000000
0000000000000000000000000001111111111111111111111111110000000001011111
1111111111111111111111110000000000000000000000000000000000000000000000
0000011111111111111111111111111010100000000101111111111111111111111111
1111000000000000000000000000000000000000001000000000000111111111111111
1111111111010000000000101111111111111111111111111111110000000000000000
0000000000000000000000010000000011111111111111111111111111100110000000
0010111111111111111111111111111111000000000000000000000000000000000000
0000000000111111111111111111111111111010000000000001011111111111111111
1111111111111010000000000000000000000000000000000000000000111111111111
1111111111111111101010000000000101111111111111111111111111111110000000
0000010000000000000000000000000000000111111111111111111111111111101010
0000000010101011111111111111111111111111111100000000000000000000000000
0000000000000011111111111111111111111111110101010000000000010111111111
1111111111111111111111110000000000000000000000000000000000000011111111
1111111111111111111111001010000000000010101111111111111111111111111111
1111000000000000000000000000000000000001111111111111111111111111111111
0101001000000100001011111111111111111111111111111111111000000000000000
0000000000000001011111111111111111111111111111111010100000000000000010
1011111111111111111111111111111111100000000000000000000000000001011111
1111111111111111111111111101010010000000000000000111111111111111111111
1111111111111111100000000000000000000000011111111111111111111111111111
1111110101000000000000000010101111111111111111111111111111111111111110
0000000000000001111111111111111111111111111111111111101010000000000000
0000000100111111111111111111111111111111111111111111101001010110111111
1111111111111111111111111111111110101000000000000000000001101111111111
1111111111111111111111111111110111111111111111111111111111111111111111
1111111111001010000000000000000000000101111111111111111111111111111111
1111111111111111111111111111111111111111111111111111111111111010101000
0000000000000000110111111111111111111111111111111111111111111111111111
1111111111111111111111111111111111110101010000000000000000000000001101
1111111111111111111111111111111111111111111111111111111111111111111111
1111111111111110110101001000000000000000000000111111111111111111111111
1111111111111111111111111111111111111111111111111111111111111111101100
0000000000000000000000000000111111111111111111111111111111111111111111
1111111111111111111111111111111111111111101110111010000000000000000000
0001011011111111111111111111111111111111111111111111111111111111111111
1111111111111111110111011000000010000000000000000000000101111111111111
1111111111111111111111111111111111111111111111111111111111111111111101
1010101000000000000000000000000010101011111111111111111111111111111111
1111111111111111111111111111111111111111111101010100000000000000000000
0000000000000010101111111111111111111111111111111111111111111111111111
1111111111111111111111101110101010100000000000000000000000000000010101
1111111111111111111111111111111111111111111111111111111111111111111111
0110101000000000000000000000000000000000000001010111111111111111111111
1111111111111111111111111111111111111111111111111101100010010000000000
0000000000000000001000000101101111111111111111111111111111111111111111
1111111111111111111111111010101000000000000000000000000000000000000000
0000000111111111111111111111111111111111111111111111111111111111111111
1111110100010010100000000000000000000000000000000001001000101111111111
1111111111111111111111111111111111111111111111111101001001000000000100
0000000000000000000000001000000000001011111111111111111111111111111111
1111111111111111111111111111011101000000000100010000000000000000000000
0000000000000000101011111111111111111111111111111111111111111111111111
1111101100000010000100000000000000000000000000000000000000000000010101
0111111111111111111111111111111111111111111111111111010101100001000000
1010000000000000000000000000000000000000000000000101111111111111111111
1111111111111111111111111111010110100000000010000000000000000000000000
0000000000000000000010101000000001111111111111111111111111111111111111
1111111110010010010010000000000100000000000000000000000000000000000000
0000000001010111111111111111111111111111111111111110101001000000000000
0010000000000000000000000000000000000000000001000000000000000000010101
1111111111111111111111111111011101101010000000000000000000000000000000
0000000000000000000000000000000000000000010101010111111111111111111111
0110101100100000000000000010000000000000000000000000000000000000000000
0000000010000000000000000010001001010101011010011010101001001010010000
0000000000000000000000000000