P1
# CREATOR: GIMP PNM Filter Version 1.1
129 190
0000000000000000000000000000000000000000000000000000000000001010101010
1010101010101010101001001000000000000000000000000000000000000000000000
0000000000000000000000000000000000000010101010100101011101111111111111
1110110110110101001000000000000000000000000000000000000000000000000000
0000000000000000000000010000000100010111111111111111111111111111111111
1110100000010000000000000100000000000000000000000000000000000000000000
0000000001000000101010100101111111111111111111111111111111111110101000
0001000000000000000000000000000000000000000000000000000000000000000000
0100001001001011111111111111111111111111111111111111100001001000000010
0000010000000000000000000000000000000000000000000000000000000010001001
0011111111111111111111111111111111111111110100000000010000000000000000
0000000000000000000000000000000000000000000000000000010010010111111111
1111111111111111111111111111111100101010000000000000000100010000000000
0000000000000000000000000000010000100010000000101011111111111111111111
1111111111111111111111000000100000000100000000000000000000000000000000
0000000000000000000000000000001010100011111111111111111111111111111111
1111111110000101001001000000000000000000000000000000000000000000000000
0000000000000000000010010101111111111111111111111111111111111111111111
0000010000010000000000000000000000000000000000000000000000000000000000
0000100000100101111111111111111111111111111111111111111111010100010100
0000000000000010000000000000000000000000000000000000000000000000001000
1001011111111111111111111111111111111111111111100010100000010010000010
0000100000000000000000000000000000000000000000010000000001010001111111
1111111111111111111111111111111111111000001000000000000000000000000000
0000000000000000000000000000000000000000000100010010111111111111111111
1111111111111111111111111100100101000000000000000000000000000000000000
0000000000000000000000000000000000100100111111111111111111111111111111
1111111111111100000100001000000000000000001000000000000000000000000000
0000000010000000000000010010011111111111111111111111111111111111111111
1111100000100010001000000000000000000000000000000000000000000000000000
0000010001000100101111111111111111111111111111111111111111111110010100
0000000000000000000000000000000000000000000000000000000000000000000001
0010001111111111111111111111111111111111111111111111000000100100000000
0100000000000000000000000000000000000000000000000000000000010010101111
1111111111111111111111111111111111111111110010000000100010000000001000
0000000000000000000000000000000000000000000000000100001111111111111111
1111111111111111111111111111111000010100000000000000000000000000000000
0000000000000000000000000000000100010001010111111111111111111111111111
1111111111111111111000000000010000000000000000000000000000000000000000
0000000000000000000000000010000111111111111111111111111111111111111111
1111111110001000000001000000100000000000000000000000000000000000000000
0000010000000100100101111111111111111111111111111111111111111111111100
0001000000000100000000000000000000000000000000000000000000000000000000
0010010011111111111111111111111111111111111111111111111111000000001000
0000000000000000000000000000000000000000000000000000000010000010000011
1111111111111111111111111111111111111111111111000001000000100000000000
0000000000000000000000000000000000000000000000001000101011111111111111
1111111111111111111111111111111111110000000100000000100001000000000000
0000000000000000000000000000000000000010100010111111111111111111111111
1111111111111111111111110000010000000000000000000000000000000000000000
0000000000000000000000010001001001111111111111111111111111111111111111
1111111111111110000100000000000000000000000000000000000000000000000000
0000000000000000010001011111111111111111111111111111111111111111111111
1100000000100000000000000000000000000000000000000000000000000000000000
0001001010011111111111111111111111111111111111111111111111111110001000
0010000000000000000000000000000000000000000000000000000000000000100001
1111111111111111111111111111111111111111111111111110000001000000000001
0000000000000000000000000000000000000000000000010010000100111111111111
1111111111111111111111111111111111111110100000010000000000000000000000
0000000000000000000000000000000010000000010100101111111111111111111111
1111111111111111111111111111100001010000001000000000000000000000000000
0000000000000000000000000000100010011111111111111111111111111111111111
1111111111111111111000000000000000000000000000000000000000000000000000
0000000000000000000100001111111111111111111111111111111111111111111111
1111111100000100000000000000000000000000000000000000000000000000000000
0000001000100111111111111111111111111111111111111111111111111111111000
0000100000000010000000000000000000000000000000000000000000000000000100
0101111111111111111111111111111111111111111111111111111100010000001001
0000000000000000010000000000000000000000000000000010010001001111111111
1111111111111111111111111111111111111111111111000101000000000000000000
0000000000000000000000000000000000000000000010000111111111111111111111
1111111111111111111111111111111111000000000000000000000000000000000000
0000000000000000000001000000001000010011111111111111111111111111111111
1111111111111111111111110000101000000000000000000000000000000000000000
0000000000000000000001000101111111111111111111111111111111111111111111
1111111111111000000001000000000000000000000000000000000000000000000000
0000000000010001111111111111111111111111111111111111111111111111111111
1000000100000000000000000000000000000000000000000000000000000000000010
0001011111111111111111111111111111111111111111111111111111111000000000
1000000000000000000000000000000000000000000000000000000000010011111111
1111111111111111111111111111111111111111111111111100100010000000000000
0000000000000000000000000000000000000000000000100001111111111111111111
1111111111111111111111111111111111111111000000000000000000000000000000
0000000000000000000000000000000010000000111111111111111111111111111111
1111111111111111111111111111000000100000000000000000000000000000000000
0000000000000000000000010100111111111111111111111111111110101111111111
1111111111111111110001000010000000000000000000000000000000000000000000
0000000000000000001111111111111111111111111100000001111111111111111111
1111111100000000000000000000000000000000000000000000000000000000100000
1010011111111111111111111111111100000000011111111111111111111111110000
1000000000000000000000000000000000000000000000000000000000000000011111
1111111111111111111010010010010111111111111111111111111100001001000000
0000000000000000000000000000000000000000000100101010011111111111111111
1111111110000100100011111111111111111111111100000000000000000000000000
0000000000000000000000000000000000001000001111111111111111111111111101
0101001001111111111111111111111111000000100000000000000000000000000000
0000000000000000000000000010000111111111111111111111111000000101000011
1111111111111111111111000000000000000000000000000000000000000000000000
0000000000000000001011111111111111111111111111010100101000111111111111
1111111111110000100100000000000000000000000000000000000000000000000000
0101001011111111111111111111111110000101001001011111111111111111111111
1000000000000000000000000000000000000000000000000000000000000000000111
1111111111111111111110101000010010001111111111111111111111110000000000
0000000000000000000000000000000000000000000000000010000101111111111111
1111111111100010100010001011111111111111111111111100000100000000000000
0000000000000000000000000000000000001000000011111111111111111111111110
1001001001010001111111111111111111111010000000000000000000000000000000
0000000000000000000000000001000010111111111111111111111111000101001000
1010111111111111111111111111000001000000000000000000000000000000000000
0000000000000000010001111111111111111111111111101000010001000001111111
1111111111111111100000010000000000000000000000000000000000000000000000
0000000000111111111111111111111111100010100101001010111111111111111111
1111100000100000000000000000000000000000000000000000000000000000000001
1111111111111111111111111000001000010000011111111111111111111111110000
0000000000000000000000000000000000000000000000000000100000111111111111
1111111111110001010001000010000111111111111111111111110000000000000000
0000000000000000000000000000000000000000001000011111111111111111111111
1100000100100100100111111111111111111111111100000100000000000000000000
0000000000000000000000000000000000111111111111111111111111110010100000
0100100001111111111111111111111100000000000000000000000000000000000000
0000000000000000000000001111111111111111111111110100000101000000010011
1111111111111111111111000010000000000000000000000000000000000000000000
0000000100001111111111111111111111111000101000001010100001111111111111
1111111111100000000000000000000000000000000000000000000000000000000000
0111111111111111111111111110000010000000000100011111111111111111111111
0000010000000000000000000000000000000000000000000000000100011111111111
1111111111111100010000010010010000101111111111111111111111100000000000
0000000000000000000000000000000000000000000000000111111111111111111111
1111000101000000000010001111111111111111111111111000001000000000000000
0000000000000000000000000000000000001011111111111111111111111100000000
1010100000000011111111111111111111111000000000000000000000000000000000
0000000000000000000100000011111111111111111111111110101010000000001001
0001111111111111111111111110000000000000000000000000000000000000000000
0000000000000101111111111111111111111110000000010010100000001011111111
1111111111111110000100000000000000000000000000000000000000000000000000
0001111111111111111111111111100101000000001001000001111111111111111111
1111100000000000000000000000000000000000000000000000000000000111111111
1111111111111111100000010010000000000000011111111111111111111111000000
0000000000000000000000000000000000000000000010000001111111111111111111
1111110001000000100010001010011111111111111111111111100000000000000000
0000000000000000000000000000000000000001111111111111111111111111000000
1000000000010000000111111111111111111111110000000000000000000000000000
0000000000000000000000000000111111111111111111111111101010000000000000
0000010011111111111111111111111100000000000000000000000000000000000000
0000000000100001011111111111111111111111100000010010001001001010000111
1111111111111111111100000000000000000000000000000000000000000000000000
1000011111111111111111111111111001000000000000000000000011111111111111
1111111111000000000000000000000000000000000000000000000000000000111111
1111111111111111111000001000010000010010010001111111111111111111111110
0000000000000000000000000000000000000000000000100100011111111111111111
1111111100100001000000000000000000111111111111111111111111000000000000
0000000000000000000000000000000000000000101111111111111111111111110000
0100000000000010010100001111111111111111111111100000000000000000000000
0000000000000000000000001000001111111111111111111111111101000001001001
0000000000000111111111111111111111111000000000000000000000000000000000
0000000000000000000111111111111111111111111000001010000000000001000100
0111111111111111111111111000000000000000000000000000000000000000000000
0100000011111111111111111111111110010000000000000000000000000111111111
1111111111111110000000000000000000000000000000000000000000000000001111
1111111111111111111110000001000000000000000100100011111111111111111111
1111000000000000000000000000000000000000000000000100010011111111111111
1111111111000100000000000000000000000000111111111111111111111110000000
0000000000000000000000000000000000000000000111111111111111111111111100
0000001000010000000000100000111111111111111111111110100000000000000000
0000000000000000000000000000100001111111111111111111111110100010000000
0000000000000000001111111111111111111111100000000000000000000000000000
0000000000000000000011111111111111111111111111000000001000000000000000
0010001111111111111111111111110000000000000000000000000000000000000000
0000000000111111111111111111111111000100100000000000000000000000001111
1111111111111111111000000000000000000000000000000000000000000000000011
1111111111111111111111100000000000000000000000010010000111111111111111
1111111110000000000000000000000000000000000000000000000000111111111111
1111111111101000010010000000000000000000000011111111111111111111111100
0000000000000000000000000000000000000000010001111111111111111111111111
0001000000000000000000000001000000111111111111111111111110000000000000
0000000000000000000000000000000000011111111111111111111111100010101000
0000000000000000001000011111111111111111111111000000000000000000000000
0000000000000000000000011111111111111111111111110000000000100000000000
0000100000101111111111111111111111100000000000000000000000000000000000
0000000000001111111111111111111111101001010100000000000000000000001000
0111111111111111111111110000000000000000000000000000000000000000000000
0111111111111111111111111000000000100000000000000000100000001111111111
1111111111111100000000000000000000000000000000000000000000001111111111
1111111111111100101010000000000000000010000010000111111111111111111111
1110000000000000000000000000000000000000000000011111111111111111111111
1100000000000000000000000000000100000001111111111111111111111000000000
0000000000000000000000000000000000000111111111111111111111111000001101
0000000000000000000000010000111111111111111111111110000000000000000000
0000000000000000000000000111111111111111111111111000101000000000000000
0000001001000010011111111111111111111111000000000000000000000000000000
0000000000000011111111111111111111111110000010100001000000000000000001
0000001111111111111111111111110000000000000000000000000000000000000000
0001111111111111111111111110000000000100000000000000100100001000011111
1111111111111111110000000000000000000000000000000000000000000011111111
1111111111111111000010000000000000000000000000100000001111111111111111
1111111100000000000000000000000000000000000000000011111111111111111111
1111000000010001010100000010010010000101000111111111111111111111110000
0000000000000000000000000000000000000010111111111111111111111111000000
0100000001001000000000010000000011111111111111111111111100000000000000
0000000000000000000000000000111111111111111111111111101000000000000000
0000000010010001000001111111111111111111111110000000000000000000000000
0000000000000000111111111111111111111111111000100100100000000010000000
0100100000111111111111111111111111000000000000000000000000000000000000
0000111111111111111111111111111011000000000000000000000000000000000011
1111111111111111111111100000000000000000000000000000000000000000111111
1111111111111111111111101000000000000000000000000000000001111111111111
1111111111110000000000000000000000000000000000000000111111111111111111
1111111111111011101010101000000000000000001011111111111111111111111111
1100000000000000000000000000000000000000001111111111111111111111111111
1111011101010111111101110101010101111111111111111111111111110000000000
0000000000000000000000000000011111111111111111111111111111111111111111
1111101111101010110111111111111111111111111111111100000000000000000000
0000000000000000000111111111111111111111111111111111110111111111111111
1111111111111111111111111111111111111110000000000000000000000000000000
0000000111111111111111111111111111111111111111110111111111111111111111
1111111111111111111111111111000000000000000000000000000000000000010111
1111111111111111111111111111111111111111111111111110111111111111111111
1111111111111111100000000000000000000000000000000000001111111111111111
1111111111111111111111111111111111110111111111111111111111111111111111
1111111000000000000000000000000000000000000111111111111111111111111111
1111111111111111111111111111111111111111111111111111111111111111100000
0000000000000000000000000000000101111111111111111111111111111111111111
1111111111111111111111111111111111111111111111111111111000000000000000
0000000000000000000011111111111111111111111111111111111111111111111111
1111111111111111111111111111111111111111111100000000000000000000000000
0000000001111111111111111111111111111111111111111111111111111111111111
1111111111111111111111111111111111000000000000000000000000000000000001
1111111111111111111111111111111111111111111111111111111111111111111111
1111111111111111111111000000000000000000000000000000000011111111111111
1111111111111111111111111111111111111111111111111111111111111111111111
1111111111110000000000000000000000000000000001111111111111111111111111
1111111111111111111111111111111111111111111111111111111111111111111111
1000000000000000000000000000000000111111111111111111111111111111111111
1111111111111111111111111111111111111111111111111111111111110000000000
0000000000000000000000011111111111111111111111111111111111111111111111
1111111111111111111111111111111111111111111111111000000000000000000000
0000000000011111111111111111111111111111111111111111111111111111111111
1111111111111111111111111111111111111100000000000000000000000000000000
0111111111111111111111111111111111111111111111111111111111111111111111
1111111111111111111111111111000000000000000000000000000000111111111111
1111111111111111111111111111111111111111111111111111111111111111111111
1111111111111111000000000000000000000000000000001111111111111111111111
1111111111111111111111111111111111111111111111111111111111111111111111
1111110000000000000000000000000000011111111111111111111111111111111111
1111111111111111111111111111111111111111111111111111111111111111100000
0000000000000000000000000110111111111111111111111111111111111111111111
1111111111111111111111111111111111111111111111111111111000000000000000
0000000000001111111111111111111111111111111111111111111111111111111111
1111111111111111111111111111111111111111111000000000000000000000001000
0011111111111111111111111111111111111111111111111111111111111111111111
1111111111111111111111111111111110000000000000000000000000001111111111
1111111111111111111111111111111111111111111111111111111111111111111111
1111111111111111111111000000000000000000000000000011111111111111111111
1111110000000101101111111111111111111111111111111111111111111111111111
1111111111100000000000000000000000000111111111111111111111111111000000
1000000000000101011011111111111111111111111111111111111111111111111110
0000000000000000000000000001111111111111111111111110000001000101010010
0000000000000000000010101111111111111111111111111111111111100000000000
0000000001000011111011111111111111111111000101001000000000100100100100
0100010100000000000000111111111111111111111111110000000000000000000000
0000011111111111111111111111010000101010101010010010010001000100000010
1010010000001111111111111111111111111000000000000000000000000011111111
1111111111111111000010001000000000000000000010001000101000000010010100
0011111111111111111111111110000000000000000000000001111111111111111111
1111110001010001001001000100000000000000000010101000100010100011111111
1111111111111110000000000000000000000001101111111111111111111111000000
0010000000000000000000000000000000000001000100000010111111111111111111
1111100000000000000000000000011111111111111111111111010000100000000000
0000000000000000100000000000000000010000011111111111111111111111000000
0000000000000000011111111111111111111111110001000000000000000000000000
0000000000000000000000100000011111111111111111111111100000000000000000
0000000111111111111111111111110000001000000000000000000000000000000000
0000000000001000000011111111111111111111110000000000000000000000111111
1111111111111111111000101000000000000000000000000000000000000000000000
0000000011111111111111111111111100000000000000000000001111111111111111
1111111010000000000000000000000000000000000000000000000000000100000011
1111111111111111111100000000000000000000011111111111111111111111110000
0101000000000000000000000000000000000000000000000000000011111111111111
1111111111000000000000000000000011111111111111111111111000100000000000
0000000000000000000000000000000000000000000000111111111111111111111110
0000000000000000000111111111111111111111111000001010000000000000000000
0000000000000000000000000000010000101111111111111111111111000000000000
0000000010111111111111111111111110000000000000000000000000000000000000
0000000000000000000000001111111111111111111111100000000000000000001111
1111111111111111111110000101000000000000000000000000000000000000000000
0000000000000111111111111111111111111000000000000000000101111111111111
1111111111000000000000000000000000000000000000000000000000000000000000
0001111111111111111111111000000000000000000011111111111111111111111100
0001000000000000000000000000000000000000000000000000000000000111111111
1111111111111110000000000000000010111111111111111111111111000010000000
0000000000000000000000000000000000000000000000000001111111111111111111
1111000000000000000001111111111111111111111110000000000000000000000000
0000000000000000000000000000000000000001111111111111111111111110000000
0000000000011011111111111111111110100001000000000000000000000000000000
0000000000000000000000000000001111111111111111111111000000000000000011
1111111111111111111111100000000000000000000000000000000000000000000000
0000000000000000011111111111111111111111110000000000000000111111111111
1111111111110000000000000000000000000000000000000000000000000000000000
0000000011111111111111111111110000000000000000111111111111111111111111
0000100000000000000000000000000000000000000000000000000000000000011101
1111111111111111111100000000000000101111111111111111111111100000000000
0000000000000000000000000000000000000000000000000000000011111111111111
1111111110000000000000001111011111111111111111110000000000000000000000
0000000000000000000000000000000000000000000011111111111111111111111100
0000000000010111111111111111111111111000100000000000000000000000000000
0000000000000000000000000000000000010111111111111111111110000000000000
0111111111111111111111111000000000000000000000000000000000000000000000
0000000000000000000000111111111111111111111111100000000000010111111111
1111111111111100000000000000000000000000000000000000000000000000000000
0000000000001011111111111111111111110000000000001111111111111111111111
1100001000000000000000000000000000000000000000000000000000000000000000
0111111111111111111111110000000000001011111111111111111111111100000000
0000000000000000000000000000000000000000000000000000000000000111111111
1111111111111100000000000011101111111111111111111000000000000000000000
0000000000000000000000000000000000000000000000000111111111111111111111
1110000000000011111111111111111111111110010000000000000000000000000000
0000000000000000000000000000000000000000111111111111111111111100000000
0001111111111111111111111110000000000000000000000000000000000000000000
0000000000000000000000000001111011111111111111111110000000000101111111
1111111111111111000100000000000000000000000000000000000000000000000000
0000000000000000001111111111111111111111100000000011111111111111111111
1111000000000000000000000000000000000000000000000000000000000000000000
0000001111111111111111111111100000000001110111111111111111111111000000
0000000000000000000000000000000000000000000000000000000000000000010111
1111111111111111111000000001111111111111111111111111000100000000000000
0000000000000000000000000000000000000000000000000000001111111111111111
1111111100000000011111111111111111111111100000000000000000000000000000
0000000000000000000000000000000000000000000010111111111111111111111000
0000011111111111111111111111100000000000000000000000000000000000000000
0000000000000000000000000000000001111111111111111111111100000000111111
1111111111111111111000000000000000000000000000000000000000000000000000
0000000000000000000000111111111111111111111111000000101111111111111111
1111110000100000000000000000000000000000000000000000000000000000000000
0000000000011111111111111111111111000000001111111111111111111111110000
0000000000000000000000000000000000000000000000000000000000000000000000
1011111111111111111111110000000011111111111111111111110000100000000000
0000000000000000000000000000000000000000000000000000000000011111111111
1111111111111000000001011111111111111111101000000000000000000000000000
0000000000000000000000000000000000000000000000000101111111111111111111
1110000000001011111111111111110000000000000000000000000000000000000000
0000000000000000000000000000000000000111111111111111111111111000000000
0000000001010101000000000000000000000000000000000000000000000000000000
0000000000000000000000000001111111111111111111111110000000000000100000
0000000000000000000000000000000000000000000000000000000000000000000000
0000000000000000111111111111111111111111000000010010001010010100101000
0000000000000000000000000000000000000000000000000000000000000000000000
0000001111111111111111111111100000000000000000000000100000000000000000
0000000000000000000000000000000000000000000000000000000000000000111111
1111111111111111100000000000000100001000000000000000000000000000000000
0000000000000000000000000000000000000000000000000000000111111111111111
1111111000