P1
# CREATOR: GIMP PNM Filter Version 1.1
24 34
0000000001111110000000000000000011111111000000000000000011111111000000
0000000000111111111000000000000001111111111000000000000001111111111000
0000000000011111111110000000000000011110011111000000000000111110001111
0000000000001111100011110000000000001111000011110000000000001111000011
1110000000000111110000011110000000000111110000011110000000000111100000
0111110000000001111000000111110000000011111000000011110000000011111000
0000111100000000111100000000111110000000111110000000111110000001111111
0111111111100000011111111111111111100000011111111111111111110000011111
1111111111111100001111111111111111111100001111100000000000111100001111
1000000000001111100011110000000000001111100111110000000000000111100111
1100000000000001111001111000000000000001111101111000000000000001111111
1110000000000000001111010100000000000000000100