P1
# CREATOR: GIMP PNM Filter Version 1.1
133 199
0000000000000010111111011101010101000010000000000000000000000000000000
0000000000000000000000000000000000000000000000000000000000000000000000
0101010111101111111111111011010000000000000000000000000000000000000000
0000000000000000000000000000000000001010110101011010101000010100000010
1111111111111111111101010000100100100100000010000000000000000000000000
0000000000000000000001001010000010010010001000000000000010100101111111
1111111111111101010000000000000001000000100100000000000000001000000000
0000000000000000000001010010010101001010100000010000101111111111111111
1111111110000010101001001000000000000000000000001000000000000000000010
0100100010101000001001001001010100100000001000001111111111111111111111
1110100000000000000010000000000000000000000000000000000000000000000010
0000001010000001001010010100001000000101011111111111111111111111101000
1001010000000000000000000001001000000000010000000000000001000001010100
0010110101010010101010001001000010111111111111111111111111010000000000
1000000000000010000000000000000000001000000100010000010010001011010111
0111111010101000000000100011111111111111111111111111000101001000000000
1000000000000000000000000000000001000000000100000010001011111111111011
1111111000001000100111111111111111111111111111000000001000100000000000
0000000000001000000000000000000100000001010010010111111111111111111111
0001000000101111111111111111111111111100000101000000000000100000000000
0000000000000000000000000010101000010101011111111111111111111110000001
0100011111111111111111111111110100000000010000100000000000000000000000
0000000000000000000000000101000101111111111111111111111100001000010011
1111111111111111111111110010010010000000000000000000000000000000000000
0000000100000101010000101111111111111111111111111100000100010111111111
1111111111111111100000000000100000000010000000000000000000000000000000
0001000000010100101111111111111111111111110000000010001111111111111111
1111111110100100100100000000000000000000000000000000000100010000000010
1010001011111111111111111111111111100100100010111111111111111111111111
1110000000000000000000000000000000000000000000000000000010000000000100
0011111111111111111111111111000000010000111111111111111111111111101000
1001001001000000000000000000000000000000000000100001001010100101111111
1111111111111111111110000000010101111111111111111111111111100000000000
0000000000000000000000000000000000000000000000000000100111111111111111
1111111111111100101001000111111111111111111111111110010001010010000100
0000000000000000000000000000000001010010101010010111111111111111111111
1111111000000000100111111111111111111111111110000000010000000100000000
0000000000100000000000000000100000100000111111111111111111111111111111
0000100100101111111111111111111111111000100100000100000000000000000000
0000000000100000000000010100101011111111111111111111111111111110100000
0000111111111111111111111111111000000000000000000000000000000000000100
0000000000000100001000010111111111111111111111111111111100001010100111
1111111111111111111111100010010100000000000000000000000000000000000000
0100000100001010111111111111111111111111111111111000000000000111111111
1111111111111111100000000100000000000000000000000000000000000000001000
1010000011111111111111111111111111111111110000010010101111111111111111
1111111100000000000000000000100000000000000000000000000000000001000101
1111111111111111111111111111111111100000000000111111111111111111111111
1101001001000010000000000000000000000100000000001000010001000010111111
1111111111111111111111111100000001001001111111111111111111111111100000
0000100000000000000000000000000000000000000010001000001111111111111111
1111111111111111111000100000010001111111111111111111111110100010100000
0000000000000000010000000000010000000001000000101111111111111111111111
1111111111010000001010001111111111111111111111111110000000000010010000
0010000000000000010000000000100001001011111111111111111111111111111111
1110000000000000001111111111111111111111111101000001000000000000000000
0000000000000000000000010000001011111111111111111111111111111111101000
0000010100011111111111111111111111110000100000000000000000000000000000
0000000001000000010000111111111111111111111111111111111110000100000000
0000111111111111111111111111110000100101010000000000000000000000000000
0000010100010000111111111111111111111111111111111100000000100101010111
1111111111111111111111000000000000000000000000000000100000000100101000
0010001111111111111111111111111111111111100000100000000000001111111111
1111111111111111001001000000010000000000000000100000000000000000000010
1111111111111111111111111111111111010000000000001001011111111111111111
1111111100000000100100000000000000000000001000000000101010000111111111
1111111111111111111111111000001010000100000000111111111111111111111111
1100001000000000000000000000000000000000010000100000001111111111111111
1111111111111111110000000000000001010011111111111111111111111111001000
1010000000000000000000000000000100001000010001111111111111111111111111
1111111111000010000000010000000011111111111111111111111110001000001000
0000000000000000000000000000000100000111111111111111111111111111111111
1100000010010000001010100111111111111111111111111100000100000010000000
0000000000000010001010100000011111111111111111111111111111111111000100
0000000000000000011111111111111111111111111000000100100000000000000000
0000000000000001001000011111111111111111111111111111111100000100000100
0000010100011111111111111111111111110000000000010000000000000000001000
1000000000000111111111111111111111111111111111100000000010000000000000
0101111111111111111111111111100001001000000000000000000000000000101001
0100001111111111111111111111111111111111010100100010000000100000001111
1111111111111111111111000000100000000000000000000000010000001000000111
1111111111111111111111111111111100000000000001000000010100001111111111
1111111111111110100000101000000000000000001000000100001000000111111111
1111111111111111111111110000001001000000000000000001111111111111111111
1111111000010000000000000000000000000000100010100001111111111111111111
1111111111111111000001000000000000000000010001111111111111111111111111
1000000010000000000000000000001000100000000001111111111111111111111111
1111111010000000100100100000001000000011111111111111111111111110000000
0000000000000000000010000000010101011111111111111111111111111111111111
0001001000000000000000000100100011111111111111111111111110010010010000
0000000000000000100100010000011111111111111111111111111111111010000000
0010010000000000000000001111111111111111111111111000000000000000000000
0000000000000010000111111111111111111111111111111111111000010001000000
0000000000000100011111111111111111111111110000010001000000000000000001
0010100000000111111111111111111111111111111111000100000000000000000000
0000100000111111111111111111111111100000000000100000000000100000000001
0000111111111111111111111111111111111100000001000000000000000000000010
0001111111111111111111111111100000010000000000000000100010010000000111
1111111111111111111111111111111000010000010000000000000000000000101111
1111111111111111111100001010000100000000000000000000010010011111111111
1111111111111111111111000000001000000000000000000000001000111111111111
1111111111111110000000000000000000100001001010000000111111111111111111
1111111111111101001000001000000000000000000000000000111111111111111111
1111110000001001000100000000010000100001001111111111111111111111111111
1111110100000100000000000000000000000000100011111111111111111111111110
1000000000000000010000001000010000001111111111111111111111111111111110
0010000010000000000000000000000000000011111111111111111111111110000000
1010000000000000000100000011111111111111111111111111111111111000000001
0000100000000000000000000010010111111111111111111111111100010000000100
0000001010000010000101111111111111111111111111111111100000010000000000
0000000000000000000000001111111111111111111111110000000000000000001000
0000101000011111111111111111111111111111111100000010000000000000000000
0000000000000000011111111111111111111111110000010010000100000100000000
0000011111111111111111111111111111111010000000000000000000000000000000
0001001001111111111111111111111111000000000001000000000010101000101111
1111111111111111111111111111100001000100100000000000000000000000000000
0011111111111111111111111110000100100000000000000000000001111111111111
1111111111111111111110100001000000000000000000000000000000001000001111
1111111111111111111100000000001001000000001010000011111111111111111111
1111111111111000000000000000000000000000000000000000000000111111111111
1111111111110100001000000000010010000000010111111111111111111111111111
1111110000000010000000000000000000000000000000100001111111111111111111
1111110000000101010100000001000000111111111111111111111111111111111000
0010000000000000000000000000000000000000100011111111111111111111111110
0100000000000000010000100010111111111111111111111111111111110000000100
0001000000000000000000000000000000001111111111111111111111111000001010
0010010010001000001111111111111111111111111111111111000001000010000000
0000000000000000000000000100001111111111111111111111111000000001000000
0000010000011111111111111111111111111111111100000000000000000000000000
0000000000000000000000011111111111111111111111110000010001010100010000
0011111111111111111111111111111111110000100100000000000000000000000000
0000000000001000111111111111111111111111100000010000000100010001011111
1111111111111111111111111110100000000010000000000000000000000000000000
0001000011111111111111111111111110000100010100100000000001111111111111
1111111111111111111100000010000000000000000000000000000000000000000000
0011111111111111111111111101000010000000001010000111111111111111111111
1111111111110000100000000000000000000000000000000000000000010000111111
1111111111111111111000001001010100100001111111111111111111111111111111
1111000000000010000000000000000000000000000000000000001000111111111111
1111111111111000000000001001000001011111111111111111111111111111110100
0100100000000000000000000000000000000000000001000011111111111111111111
1111100100101001000100100111111111111111111111111111111111000000000000
0000000000000000000000000000000000000000000111111111111111111111111110
0000000000100000101111111111111111111111111111111101000001001000000000
0000000000000000000000000000000100101111111111111111111111111000100101
0100010001111111111111111111111111111111110000010000000000000000000000
0000000000000000000000000000001111111111111111111111111000000100010000
0011111111111111111111111111111111100000001000000000000000000000000000
0000000000000000010001111111111111111111111111100001000101001010111111
1111111111111111111111111100010001000010000000000000000000000000000000
0000000000010001111111111111111111111110100001000010000011111111111111
1111111111111111111000010000000000000000000000000000000000000000000000
0000000001111111111111111111111111000001010000111111111111111111111111
1111111111100000000100000000000000000000000000000000000000000000001000
0111111111111111111111111110000000001000111111111111111111111111111111
1110100000000000000000000000000000000000000000000000000000000000111111
1111111111111111111110000000001111111111111111111111111111111111100000
0100000001000000000000000000000000000000000000000000010001111111111111
1111111111111111000101000111111111111111111111111111111101000100001000
0000000000000000000000000000000000000000000010000111111111111111111111
1111111010101011111111111111111111111111111111111000000010100000000000
0000000000000000000000000000000000000000000111111111111111111111111111
1111111111111111111111111111111111111111110000100000000000000000000000
0000000000000000000000000000001010011111111111111111111111111111101101
1111111111111111111111111111111110000000000000000000000000000000000000
0000000000000000000000000000011111111111111111111111111111111111111111
1111111111111111111111111000000100101000000000000000000000000000000000
0000000000000000001001111111111111111111111111111111111111111111111111
1111111111111111101000100000000000000000000000000000000000000000000000
0000000000000001111111111111111111111111111111111111111111111111111111
1111111111000000010000000000000000000000000000000000000000000000000000
0010000111111111111111111111111111111111111111111111111111111111111111
1000000100000000000000000000000000000000000000000000000000000000000000
0111111111111111111111111111111111111111111111111111111111111111000000
0010010000000000000000000000000000000000000000000000000000100001111111
1111111111111111111111111111111111111111111111111111111000000100000000
0000000000000000000000000000000000000000000000000000000001111111111111
1111111111111111111111111111111111111111111111111001000101000000000000
0000000000000000000000000000000000000000000010000111111111111111111111
1111111111111111111111111111111111111111000000100000000000000000000000
0000000000000000000000000000000000000000001111111111111111111111111111
1111111111111111111111111111111100000000101010000000000000000000000000
0000000000000000000000000000010100011111111111111111111111111111111111
1111111111111111111111111000001000000000000000000000000000000000000000
0000000000000000000000000000111111111111111111111111111111111111111111
1111111111111111110000000101000000000000000000000000000000000000000000
0000000000000001010001111111111111111111111111111111111111111111111111
1111111111000001000000000000000000000000000000000000000000000000000000
0000000000000011111111111111111111111111111111111111111111111111111111
1110000001010101000000000000000000000000000000000000000000000000000000
0100000111111111111111111111111111111111111111111111111111111111100000
0000000000000000000000000000000000000000000000000000000000000000010100
1111111111111111111111111111111111111111111111111111111111100000010010
0000000000000000000000000000000000000000000000000000000000000011111111
1111111111111111111111111111111111111111111111111111000000001000000000
0000000000000000000000000000000000000000000000000010000011111111111111
1111111111111111111111111111111111111111111111000000000100000000000000
0000000000000000000000000000000000000000000001000111111111111111111111
1111111111111111111111111111111111111110000000100000000000000000000000
0000000000000000000000000000000000010000001111111111111111111111111111
1111111111111111111111111111111110000000001000000000000000000000000000
0000000000000000000000000000001000111111111111111111111111111111111111
1111111111111111111111111010000000000000000000000000000000000000000000
0000000000000000000000000001111111111111111111111111111111111111111111
1111111111111111111110000010000000000000000000000000000000000000000000
0000000000000001000011111111111111111111111111111111111111111111111111
1111111111111000000000000000000000000000000000000000000000000000000000
0000000001000111111111111111111111111111111111111111111111111111111111
1111111100000000000000000000000000000000000000000000000000000000000000
0000001111111111111111111111111111111111111111111111111111111111111111
0000000000000000000000000000000000000000000000000000000000000001000001
1111111111111111111111111111111111111111111111111111111111111111100000
0000000000000000000000000000000000000000000000000000000000000011111111
1111111111111111111111111111111111111111111111111111111111000000000000
0000000000000000000000000000000000000000000000000010000111111111111111
1111111111111111111111111111111111111111111111111111000000000000000000
0000000000000000000000000000000000000000000000001111111111111111111111
1111111111111111111111111111111111111111111110000000000000000000000000
0000000000000000000000000000000000001000011111111111111111111111111111
1111111111111111111111111111111111111110000000000000000000000000000000
0000000000000000000000000000000000111111111111111111111111111111111111
1111111111111111111111111111111110000000000000000000000000000000000000
0000000000000000000000100001111111111111111111111111111111111111111111
1111111111111111111111111100000000000000000000000000000000000000000000
0000000000000000000111111111111111111111111111111111111111111111111111
1111111111111111111000000000000000000000000000000000000000000000000000
0000000001000111111111111111111111111111111111111111111111111111111111
1111111111111000000000000000000000000000000000000000000000000000000000
0000011111111111111111111111111111111111111111111111111111111111111111
1111111000000000000000000000000000000000000000000000000000000001000001
1111111111111111111111111111111111111111111111111111111111111111111111
0000000000000000000000000000000000000000000000000000000000000111111111
1111111111111111111111111111100000011111111111111111111111111111000000
0000000000000000000000000000000000000000000000000100000111111111111111
1111111111111111111110000010011111111111111111111111111110000000000000
0000000000000000000000000000000000000000000000011111111111111111111111
1111111111110000101001011111111111111111111111111111000000000000000000
0000000000000000000000000000000000000000011111111111111111111111111111
1110100000101010011111111111111111111111111110000000000000000000000000
0000000000000000000000000000000001111111111111111111111111111111111000
1000100101111111111111111111111111111110000000000000000000000000000000
0000000000000000000000100011111111111111111111111111111111000001010010
0000111111111111111111111111111100000000000000000000000000000000000000
0000000000000000001011111111111111111111111111111101000000010010100011
1111111111111111111111111100000000000000000000000000000000000000000000
0000000000001111111111111111111111111111111001010100000000100001111111
1111111111111111111100000000000000000000000000000000000000000000000000
0100011111111111111111111111111111000000000000100000001011111111111111
1111111111111000000000000000000000000000000000000000000000000000000011
1111111111111111111111111111010001010000100100000011111111111111111111
1111111000000000000000000000000000000000000000000000000000001111111111
1111111111111111111000000100000000000001001011111111111111111111111111
1000000000000000000000000000000000000000000000000000001111111111111111
1111111111100001000000000000000000000111111111111111111111111111100000
0000000000000000000000000000000000000000000000111111111111111111111111
1110000000000010000000001000100111111111111111111111111101100000000000
0000000000000000000000000000000000000000111111111111111111111111100000
0100100000000000001000001111111111111111111111111111000000000000000000
0000000000000000000000000000000011111111111111111111111111000000000000
1000100000000000001111111111111111111111111111000000000000000000000000
0000000000000000000000000011111111111111111111111110000000100000000000
0000000100011111111111111111111111111110000000000000000000000000000000
0000000000000000001111111111111111111111111000001000000000000000000000
0010011111111111111111111111111111000000000000000000000000000000000000
0000000000011111111111111111111111110000000001000000000100000100000001
1111111111111111111111111110000000000000000000000000000000000000000000
0000111111111111111111111111000000100000000000000000000001000011111111
1111111111111111111100000000000000000000000000000000000000000000000111
1111111111111111111111000000010000000000000000000001000001111111111111
1111111111111100000000000000000000000000000000000000000000001111111111
1111111111111100000010000000000000000000000000000111111111111111111111
1111111100000000000000000000000000000000000000000000001111111111111111
1111111100000000100000000000000000000001000011111111111111111111111111
1100000000000000000000000000000000000000000000111111111111111111111110
0000000000000000000000000000000000000111111111111111111111111111100000
0000000000000000000000000000000000000001111111111111111111111110000001
0000000000000000010000000010000111111111111111111111111111100000000000
0000000000000000000000000000000111111111111111111111111100000000100000
0000000000000010010000000111111111111111111111111111000000000000000000
0000000000000000000000000111111111111111111111111000000000100000000000
0000000000000100000111111111111111111111111111000000000000000000000000
0000000000000000011111111111111111111111100000001000000000000000000000
0000000010001111111111111111111111111111000000000000000000000000000000
0000000000011111111111111111111111100000000000000000000000000000000000
0010001111111111111111111111111110000000000000000000000000000000000000
0001111111111111111111111110000000010000000000000000000000000000000101
1111111111111111111111111110000000000000000000000000000000000000000111
1111111111111111111110000000000000000000000000000000100000000001111111
1111111111111111111110000000000000000000000000000000000000011111111111
1111111111111000000000100000000000000000000000000010000011111111111111
1111111111111110000000000000000000000000000000000000111111111111111111
1111110000000000000000000000000000000000000000000001111111111111111111
1111111100000000000000000000000000000000000000111111111111111111111110
0000010000000000000000000000000000000010000101111111111111111111111111
1110000000000000000000000000000000000011111111111111111111111110000000
1010010000000000000000000000000010000011111111111111111111111011110000
0000000000000000000000000000000111111111111111111111111000000000000001
0000000000000000000000000000000111111111111111111111111111100000000000
0000000000000000000000001111111111111111111111110000001000000000000000
0000000000000000000010000011111111111111111111111111100000000000000000
0000000000000000011111111111111111111111000000000000000000000000000000
0000000000000000000111111111111111111111111111100000000000000000000000
0000000000111111111111111111111111000000000000000000000000000000000000
0000000000000011111111111111111111111111100000000000000000000000000000
0001111111111111111111111100000000001000000000000000000000000000000000
0100101111111111111111111111111111100000000000000000000000000000001111
1111111111111111111100000000000000000000000000000000000000000000000000
0111111111111111111111111111000000000000000000000000000000011111111111
1111111111110000000000000000000000000000000000000000000000000001111111
1110111111111111111111000000000000000000000000000000111111111111111111
1111110000000000000000000000000000000000000000000000000000111111111111
1111111111111111000000000000000000000000000011111111111111111111111100
0000000000000000000000000000000000000000000001000001111111111111111111
1111111110000000000000000000000000000011111111111111111111111000000000
0000000000000000000000000000000000000000100001111111111111111111111110
1110000000000000000000000000001111111111111111111111110000000000000000
0000000000000000000000000000000000000001111111111111111101111111101000
0000000000000000000000001111111111111111111111110000000000000000000000
0000000000000000000000000000000001111111111111111111111111110000000000
0000000000000000111111111111111111111110000000000000000000000000000000
0000000000000000000000000101111111111111111111111111110000000000000000
0000000000111111111111111111111110000000000000000000000000000000000000
0000000000000100000101111111111111111111111111100000000000000000000000
0011111111111111111111111100000000000000000000000000000000000000000000
0000000000000111111111111111111111111111110000000000000000000000001111
1111111111111111111100000000000000000000000000000000000000000000000000
0000000101111111111111111111111111100000000000000000000000111111111111
1111111111100000000000000000000000000000000000000000000000000000000000
0111111111111111111111111111100000000000000000000001111111111111111111
1111100000000000000000000000000000000000000000000000000000000000011111
1111111111111111111111100000000000000000000011111111111111111111111100
0000000000000000000000000000000000000000000000000000000001011111111111
1111111111111111000000000000000000000011111111111111111111111000000000
0000000000000000000000000000000000000000000000000000010111111111111111
1111111111000000000000000000001111111111111111111111100000000000000000
0000000000000000000000000000000000000001000010111111111111111111111111
1111000000000000000000011111111111111111111111100000000000000000000000
0000000000000000000000000000000000000010111111111111111111111111111000
0000000000000000111111111111111111111110000000000000000000000000000000
0000000000000000000000000000000010111111111111111111111111111000000000
0000000001111111111111111111111100000000000000000000000000000000000000
0000000000000000000000000010111111101111111111111011111000000000000000
0111111111111111111111111100000000000000000000000000000000000000000000
0000000000000010000011111111111101111111111111110000000000000000011111
1111111111111111110000000000000000000000000000000000000000000000000000
0000000000000001111111111111111111111111110000000000000001111111111111
1111111111100000000000000000000000000000000000000000000000000000000000
0000001011111111111111111111111111110000000000000000111111111111111111
1111000000000000000000000000000000000000000000000000000000000000001000
0011111111111110111111011101110000000000000111111111111111111111111000
0000000000000000000000000000000000000000000000000000000000000001011111
1111111111111111111111110000000000000111111111111111111111110000000000
0000000000000000000000000000000000000000000000000000000000101111111111
1111111111111111100000000000011111111111111111111111100000000000000000
0000000000000000000000000000000000000000000000000000111110111111111111
1111111011100000000000001111111111111111111110000000000000000000000000
0000000000000000000000000000000000000000000000011111111111111111111111
1111000000000001111111111111111111111100000000000000000000000000000000
0000000000000000000000000000000000000001111111111111111111111111111110
0000000000101101111111111111101000000000000000000000000000000000000000
0000000000000000000000000010000000111111111111111111111111111100000000
0000000100010101010100000000000000000000000000000000000000000000000000
0000000000000000000000000010111111111111111111111111111100000000000000
0010000000000100000000000000000000000000000000000000000000000000000000
0000000000000000000101111111111111111111110111111100000000000100000010
0010100000000000000000000000000000000000000000000000000000000000000000
0000000000000011111111111111111111111111110100000000000000000000000000
0000000000000000000000000000000000000000000000000000000000000000000000
0000000010111111111111111111111111110000000000000000000000000100000000
0000000000000000000000000000000000000000000000000000000000000000000000
0101111111111111111111111111111000000000000000000000000000000000000000
0000000000000000000000000000000000000000000000000000000000001000010101
1111111111111111111111110000000000000000000000000000000000000000000000
0000000000000000000000000000000000000000000000000000000000000100101101
0111111111111111000000000000000000000000000000000000000000000000000000
0000000000000000000000000000000000000000000000000000000100000100000100
1010101010000000000000000000000000000000000000000000000000000000000000
0000000000000000000000000000000000000000000000000000000000000010000000
0010000