P1
# CREATOR: GIMP PNM Filter Version 1.1
82 160
0000000000000000000000000000000100101010101010101010000000000000000000
0000000000000000000000000000000000000000101011011011111111101101110100
0000000000000000000000000000000000000000000000000010101111111111011111
1111110101010000000000000000000000000000000000000000000000001010111101
1111111111111111111110110100000000000000000000000000000000000000000001
0101111111111111111111111111111111101010000000000000000000000000000000
0000000010010111110111111111111111111111111111111111010000000000000000
0000000000000000000001011111111111111111111111111111111111111101101000
0000000000000000000000000000000001111111111111111111111111111111111111
1111111101100000000000000000000000000000010111111111111111111111111111
1111111111111111111110000000000000000000000000000000010111111111111111
1111111111111111111111111111111111111000000000000000000000000010111111
1111111111111111111111111111111111111111111111101010000000000000000000
0000000111111111111111111111111111111111111111111111111111111010000000
0000000000000001011111011111111111111111111111111111111111111111111111
1111010000000000000000000001111111111111111111111111111111111111111111
1111111111111111111000000000000000000101111111111111111111111111111111
1111111111111111111111111111110100000000000000010011111111111111111111
1111111111111111111111111111111111111111111110000000010000001111111111
1111111111111111111111111111111111111111111111111111111101000000000000
0001111111111111111111111111111111111111111111111111111111111111111111
0000000100010111111111111111111111111111111111111111111111111111111111
1111111111101000000000001111111111111111111111111111111111111111111111
1111111111111111111111111100000000101111111111111111111111111111111111
1111111111111111111111111111111111111010000000011111111111111111111111
1111111111111111111111111111111111111111111111111010000000011111111111
1111111111111111111111111111111111111111111111111111111111111110000010
1111111111111111111111111111111111111111111111111111111111111111111111
1111111000011111111111111111111111111111111111111111111111111111111111
1111111111111111100010001111111111111111111111111111111111111111111111
1111111111111111111111111111111000111111111111111111111111111111111111
1010111111111111111111111111111111111111110100011111111111111111111111
1111111111000000000001011111111111111111111111111111111001111111111111
1111111111111111111010000000000000001011111111111111111111111111111101
1111111111111111111111111111110000000000000000000011111111111111111111
1111111111011111111111111111111111111111000000000000000000000101111111
1111111011111111111110011111111111111111111111111111100000000000000000
0000000111111111111111111111111111111111111111111111111111111100000000
0000000000000000001011111111111111111111111111011111111111111111111111
1101110000000000000000000000000011111111111111111111111111111111111111
1111111111111110000000000000000000000000000001111111111111111111111111
1111111111111111111111111111000000000000000000000000000000111111111111
1111111111111111111111111111111111111010000000000000000000000000000001
0111111111111111111111111111111111111111111111111010000000000000000000
0000000000001111111111111111111111111111111111111111111111110100000000
0000000000000000000000000111111111111111111111111111111111111111111111
1110100000000000000000000000000000000111111111111111111111111111111111
1111111111111001000000000000000000000000000000000111111111111111111111
1111111111111111111111111010000000000000000000000000000000000011111111
1111111111111111111111111111111111111010000000000000000000000000000000
0000111111111111111111111110111111111111111111111010000000000000000000
0000000000000000111111111111111111111111111111111111111111100000000000
0000000000000000000000000000111111111111111111111110111111111111111111
1101000000000000000000000000000000000000111111111111111111111100100101
0110101001000000000000000000000000000000000000000000111111111111111111
1111000000000000000000010000000000000000000000000000000000000000111111
1111111111111111000000000000000000000000000000000000000000000000000000
0001001111111111111111111111000000000000000000000000000000000000000000
0000000000000000011111111111111111111111000000000000000000000000000000
0000000000000000000000000000011111111111111111111111000000000000000000
0000000000000000000000000000000000000000011111111111111111111111000000
0000000000000000000000000000000000000000000000000000111111111111111111
1111110000000000000000000000000000000000000000000000000000000000011111
1111111111111111110000000000000000000000000000000000000000000000000000
0000011111111111111111111111110000000000000000000000000000000000000000
0000000000000000011111111111111111111111110000000000000000000000000000
0000000000000000000000000000111111111111111111111111110000000000000000
0000000000000000000000000000000000000001111111111111111111111111110000
0000000000000000000000000000000000000000000000000011111111111111111111
1111111000000000000000000000000000000000000000000000000000000010111111
1111111111111111111100000000000000000000000000000000000000000000000000
0001111111111111111111111111111000000000000000000000000000000000000000
0000000000000011111111111111111111111111111100000000000000000000000000
0000000000000000000000000101111111111111111111111111101000000000000000
0000000000000000000000000000000000000111111111111111111111111111101100
0000000000000000000000000000000000000000000000001111111111111111111111
1111111100000000000000000000000000000000000000000000000000001011111111
1111111111111111110110000000000000000000000000000000000000000000000000
1111111111111111111111111111111001000000000000000000000000000000000000
0000000000000111111111111111111111111111101100000000000000000000000000
0000000000000000000000011111111111111111111111111111101000000000000000
0000000000000000000000000000000000011111111111111111111111111111010000
0000000000000000000000000000000000000000000001111111111111111111111111
1111101000000000000000000000000000000000000000000000000001011111111111
1111111111111111101100000000000000000000000000000000000000000000000011
1111111111111111111111111110101000000000000000000000000000000000000000
0000000000011111111111111111111111111110100000000000000000000000000000
0000000000000000000011111111111111111111111111111101000000000000000000
0000000000000000000000000000000001111111111111111111111111111010000000
0000000000000000000000000000000000010000000111111111111111111111111111
1110100000000000000000000000000000000000000000000010000110111111111111
1111111111111110000000000000000000000000000000000000000000000100001111
1111111111111111111111110101000000000000000000000000000000000000000000
0000000011111111111111111111111111110100000000000000000000000000000000
0000000000000000001111111111111111111111111111101000000000000000000000
0000000000000000000000000000001111111111111111111111111111101000000000
0000000000000000000000000000000000000000011111111111111111111111111110
1100000000000000000000000000000000000000000000000000110111111111111111
1111111111110100000000000000000000000000000000000000000000000001011111
1111111111111111111111010000000000000000000000000000000000000000000000
0000011111111111111111111111111111010000000000000000000000000000000000
0000000000000000111111111111111111111111111110100000000000000000000000
0000000000000000000000000001011111111111111111111111111110100000000000
0000000000000000000000000000000000000001111111111111111111111111111010
0000000000000000000000000000000000000000000000000011111111111111111111
1111111111010000000000000000000000000000000000000000000000000111111111
1111111111111111111010100000000000000000000000000000000000000000000000
0010110111111111111111111111111010000000000000000000000000000000000000
0000000000000011111111111111111111111111111010000000000000000000000000
0000000000000000000000001011111111111111111111111111111010000000000000
0000000000000000000000000000000000001111111111111111111111111111101000
0000000000000000000000000000000000000000000000000111111111111111111111
1111111011000000000000000000000000000000000000000000000000011111111111
1111111111111111101000000000000000000000000000000000000000000000000000
1111111111111111111111111111111000000000000000000000000000000000000000
0000000000011111111111111111111111111111000000000000000000000000000000
0000000000000000000000101011111111111111111111111111100000000000000000
0000000000000000000000000000000000111111111111111111111111111101000000
0000000000000000000000000000000000000000000001111111111111111111111111
1111010000000000000000000000000000000000000000000000000010111111111111
1111111111111110100000000000000000000000000000000000000000000000000011
1111111111111111111111111111000000000000000000000000000000000000000000
0000000001111111111111111111111111111010000000000000000000000000000000
0000000000000000000011101111111111111111111111111010000000000000000000
0000000000000000000000000000000110111111111111111111111111111010000000
0000000000000000000000000000000000000000000111111111111111111111111111
1010000000000000000000000000000000000000000000000000001111111111111111
1111111111111000000000000000000000000000000000000000000000000000001011
1111111111111111111111101100000000000000000000000000000000000000000000
0000001111111111111111111111111111110000000000000000000000000000000000
0000000000000000000111111111111111111111111111011000000000000000000000
0000000000000000000000000000011111111111111111111111111111010000000000
0000000000000000000000000000000000000000011111111111111111111111111111
0000000000000000000000000000000000000000000000000001111111111111111111
1111111111010000000000000000000000000000000000000000000000000000111111
1111111111111111111111010000000000000000000000000000000000000000000000
0000111111111111111111111111111110100000000000000000000000000000000000
0000000000000000111011111111111111111111111110000000000000000000000000
0000000000000000000000000011111111111111111111111111111001000000000000
0000000000000000000000000000000000000001111111111111111111111111111100
0000000000000000000000000000000000000000000000000111111111111111111111
1111111000000000000000000000000000000000000000000000000000000110111111
1111111111111111111110000000000000000000000000000000000000000000000000
0111111111111111111111111111110000000000000000000000000000000000000000
0000000000000101111111111111111111111111110100000000000000000000000000
0000000000000000000000001111111111111111111111111111100000000000000000
0000000000000000000000000000000000001110111111111111111111111111010000
0000000000000000000000000000000000000000000000011011111111111111111111
1111100100000000000000000000000000000000000000000000000000111111111111
1111111111111111010000000000000000000000000000000000000000000000000001
1011111111111111111111111111001000000000000000000000000000000000000000
0000000000011111111111111111111111111111000000000000000000000000000000
0000000000000000000000111111111111111111111111111100100000000000000000
0000000000000000000000000000000000111111111111111111111111111110000000
0000000000000000000000000000000000000000000011111111111111111111111111
1110001000000000000000000000000000000000000000000000000011101111111111
1111111111111110000000000000000000000000000000000000000000000000000011
1111111111111111111111111111000000000000000000000000000000000000000000
0000000000011111111111111111111111111111000000000000000000000000000000
0000000000000000000000111111111111111111111111111111100000000000000000
0000000000000000000000000000000000111111111111111111111111111111110101
0010010010010001000100000010000000000000000000111111111111111111111111
1111111111111111111111111111111111111111111111111111111010101111111111
1111111111111111111111111111111111111111110111111011111111111101111011
1111111111111111111111111111111111111111111111111011111111111111111111
1101111111101111111111111111111111111111111111111111111111111111111111
1111101111011111110111111111111111111111111111111111111111111111111110
1111111110111111111111111111111111110111111111111111111111111111111111
1111111111111111111111111111111111111111111011111111111111111111111111
1111111111111111111111111111111111111111111111111111111111101111111111
1111111111111111111111111111111111111111111111111111110111111111111111
1111111111111111111111111111111111111111111111111111111111111111111111
1011111110111111111111111111111111111111111111111111111111111111111111
1111111111111111101111111111111111111111111111111111111111111111111111
1111111111111111111111111111111111111001111111111111111111111111111111
1111111111111111111111111111111111111111111111111111111111111111111111
1111111111111111111111111111111111111111111111111111111110111111111111
1111111111111111111111111111111111111111111111111111111111111111111111
1111111111111111111111111111111111111111111111111111111111111111111111
1111111111111110011111111111111111111111111111111111111111111111111111
1111111111111111111111111111111111111111111111111111111111111111111111
1111111111111111111111111111111111101111111111111111111111111111111111
1111111111111111111111111111111111110111101111111111101111111111111111
1111111111111111111111111111111111111111111111111111111111111010111111
1111111111111111111111111110111111111111111111111111111111111111111101
1111111111111111111111111111111111111111111111111111111111111110111011
1110111011110111110111111111111111111111111011111111110111011101111111
101111111111111111111111111111