P1
# CREATOR: GIMP PNM Filter Version 1.1
25 35
0000000000000000000100000001111111111111111111110000111111111111111111
1111000111111111111111111111100011111111111111111111100001111111111111
1111111110011111110000000000000000001111111000000000000000000011111000
0000000000000000111111100000000000000000011111110000000000000000001111
1010000000000000000001111111000000000000000000111111100000000000000000
0111111111111111111111000011111111111111111111100001111111111111111111
1110001111111111111111111110000111111111111111111111100011111111010101
0101010000011111110000000000000000001111111000000000000000000111111000
0000000000000000111111100000000000000000001111110000000000000000011111
1100000000000000000011111110000000000000000001111111000000000000000000
1111110000000000000000000111111111011011101111010011111111111111111111
1110011111111111111111111111001111111111111111111111100111111111111111
11111111000101011010110101010110100