P1
# CREATOR: GIMP PNM Filter Version 1.1
111 163
0000000000000000000000010000000000000000000000000000000000000000000000
0000000000000000100010010101010101101000000000000101001001001000000010
0101001001001001001010101010101010101101110111111111111111111111111111
1111111110000000001000010101011011011110110101111111111111111111111111
1111111111101111011111111101111110110110111010111101000000001111111111
1111111111111111101101101010111010101010101010101011110111010101011101
1011111111111111101110000000111110101011010101010101011011101110111111
0111111111111111111111111111111111111111111111111111111111111110000000
1011111101111111111111111111111111111111111111111111111111111111111111
1111111111111111111111111111111111000000011101111111111111111111111111
1111111111111111111111111111111111111111111111111111111111111111111111
1111110000001111111111111111111111111111111111111111111111111111111111
1111111111111111111111111111111111111111111111000000101111111111111111
1111111111111111111111111111111111111111111111111111111111111111111111
1111111111111111110000001111111111111111111111111111111111111111111111
1111111111111111111111111111111111111111111111111111111111100000011111
1111111111111111111111111111111111111111111111111111111111111111111111
1111111111111111111111111111100000001111111111111111111111111111111111
1111111111111111111111111111111111111111111111111111111111111111111111
1000000111111111111111111111111111111111111111111111111111111111111111
1111111111111111111111111111111111111111100000000111111111111111111111
1111111111111111111111111111111111111111111111111111111111111111111111
1111111111111000001111111111111111111111111111111111111111111111111111
1111111111111111111111111111111111111111101111111111100000000111111111
1111111111111111111111111111111111111111111111111111111111111111111111
1111111111111111111111111000000111111111111111111111111111111111111111
1111111111111111111111111111111111111111111111110111111111111111100000
0001111111111111111111111111111111111111111111111111111111111111111111
1111111111111111111111111101111111110000001111111111111111111111111111
1111111111111111111111111111011111111111111111111111011111111111111111
0111110000000011111111111111111111111111111111111111111111111011111111
1111111111111111111111111111111111111111111111100000001111111111111111
1111111111111111111111111111111111110111111111111111111111111111111111
1111111111111111100000000011111111111111111111111111111111111111111111
1111111111111111111111111111111111111111111111111111111110100000000111
1111111111111111111111111111111111111111111111111111111111111111111111
1111110110101010010100100000100100000011110111111111111111111111110111
1111111111011010110101010100100100000000000000000000000100001000010001
0000000001111111111111111111111110000000000000000000000000000000000010
0000100100000000100101010001000010100100001000000011111110111111111111
1101000010001000000000101010101010101001010100100101010100101000001001
0100010010100000000001111111111111111111111000101001001011011010001000
0100100100010001000100010000100001010001000010000000000000000011011111
1111111111111100000010010000000000100001001000000100010000000000010000
0000000000000000000000000000000001111111111111111111110010010000000100
0010000000000000000000000000000010000000000000000000000000000000000000
0000111111111111111111111000000000000000000000000000000000000000000000
0000000000000000000000000000000010000000000001111101111111111111110000
0000000000000000000000000000000000000000000000000000000000000000000000
0000000000000000011111111111111111111000000000000000000000000000000010
0000000000000000000000000000000000000000000000000000000001111111111111
1111111100000000000000000000000000000000000000000000000000000000000000
0000000000000000000000000000011111111111111111111000100000000000000000
0000000000000000000000000000000000000000000000000000000000000000000011
1111111111111111111000000000000000000000000000000000000000000000000000
0000000000000000000000000000000000000000011111111111111111111000000000
0000000000000000000000000000000000000000000000000000000000000000000000
0000000000011111111111111111111100000000000000000000000000000000000000
0000000000000000000000000000000000000000000000000000111111110111111111
1100000000000000000000000000000000000000000000000000000000000000000000
0000000000000000000000111111111111111111110000000000000000000000000000
0000000000000000000000000000000000000000000000000000000000000000111111
1111111111111100000000000000000000000000000000000000000000000000000000
0000000000000000000000000000000000111101111111111111111000000000000000
0000000000000000000000000000000000000000000000000000000000000000000000
0000001111111111111111111100000000000000000000000000000000000000000000
0000000000000000000000000000000000000000000000011111111111111111111000
0000000000000000000000000000000000000000000000000000000000000000000000
0000000000000000011111111111111111111100000000000000000000000000000000
0000000000000000000000000000000000000000000000000000000000011111111111
1111111110000000000000000000000000000000000000000000000000000000000000
0000000000000000000000000000001111111111111111111100000000000000000000
0000000000000000000000000000000000000000000000000000000000000000000000
1111111111111111111110000000000000000000000000000000000000000000000000
0000000000000000000000000000000000000000001111111101111111111100000000
0000000000000000000000000000000000000000000000000000000000000000000000
0000000000000111111111111111111110000000000000000000000000000000000000
0000000000000000000000000000000000000000000000000000001101111111111111
1111000000000000000000000000000000000000000000000000000000000000000000
0000000000000000000000000111111111111111111110000000000000000000000000
0000000000000000000000000000000000000000000000000000000000000000001111
1111111111111111000000000000000000000000000000000000000000000000000000
0000000000000000000000000000000000000111111111111111111110000000000000
0000000000000000000000000000000000000000000000000000000000000000000000
0000000011111111111111111111000000000000000000000000000000000000000000
0000000000000000000000000000000000000000000000000111111111111111111110
0000000000000000000000000000000000000000000000000000000000000000000000
0000000000000000000011111111011111111111000000000000000000000000000000
0000000000000000000000000000000000000000000000000000000000000111111111
1111111111000000000000000000000000000000000000000000000000000000000000
0000000000000000000000000000000111111111111111111110000000000000000000
0000000000000000000000000000000000000000000000000000000000000000000000
0011111111111111111111000000000000000000000000000000000000000000000000
0000000000000000000000000000000000000000000111111111111111111110000000
0000000000000000000000000000000000000000000000000000000000000000000000
0000000000000011111111111110111111100000000000000000000000000000000000
0000000000000000000000000000000000000000000000000000000110111111111111
1111110000000000000000000000000000000000000000000000000000000000000000
0000000000000000000000000001111111111111111111100000000000000000000000
0000000000000000000000000000000000000000000000000000000000000000000111
1111111111111111111000000000000000000000000000000000000000000000000000
0000000000000000000100100000000000000011111110111111111111111000000000
0000000000000000000000001000100100101010101101101111111111111110100000
0000000001111111111111111111111111100000000101011011111111111111011111
1011111111111111111110111111110111111000000000000001111111111111111111
1111111111111111111111010110110111111111111111110111111111111111111111
1111111110000000000001111111111111111111111111111111111111111111111111
1111111111111111111111111111111111111111111111111100000000000011111111
1111111111110111111111111111011111111111111111111111111111111111101101
1111111111111111111110000000000000111111111111111111111111111111111111
1111111111111111111011111111111111111111111111111111111111111100000000
0000111111111111111111111111111111111111111111111111111111111111111111
1111111111111111111111111111111110000000000000111111111111111111111111
1111111111111111111111111111111111111111111111111111110111111011111111
1111000000000000011111111111111111111111111111111111111111111111111111
1111111111111111111111111111111111111111111110000000000001111111111111
1111111111111111111111111111111111111111111111111110111111111111111111
1111111111111111000000000000011111111111111111111101111111111111111111
1111111111111111111111111111111111111111111111111111111110000000000001
1111111111111111111111111111111111111111101111101111111111111111110111
1111111111111111110111111111000000000000111111111111111111111111111111
1110111101111111111111111111111111111111111111111111111111111111011100
0000000000011111111111111111111111111111111111111111111111111111111111
1111111111111111111011111111111111111110000000000000111111111111111111
1111111111111111111111111111111111111110111111111111111111111111111111
1111111111000000000000011111111101111111111111111111111111111111111111
1110111111111111111111111111111111111111111111111110000000000001111111
1111111111111111111111111111111111111111111111111111111111111111111111
1111110111111011111111000000000000011111111111111111111111111111111111
1111111111111111111111110111111111011111111111111111111111111110000000
0000001111111111111111111111111111111111111011111111111111111111111111
1111111111111111111111111111111110000000000000011111111111111111111111
1111111111111111111111111111111111111111111111111111111111111111111111
1101000000000000001111111111111111111111111111111111111111111111111110
1011011010100101010000000000000000000000000000000000000000011011111111
1111111111110100000100000000000000000000000000000000000000000000000000
0000000000000000000000000000001111111111111111101111100000000000000000
0000000000000000000000000000001010101010100100010001010010000000000000
0111111111111111111111000000010010101001000000000001010100101010101010
0000000000000001000100001000000000000000001111111111111111111110000010
0000000001001010010010000000000000000000001000000000000000000000000000
0000000000000111111111111111111111000000010010000000000000000000000000
0000000000000000000000000000000000000000000000000000001111111111111111
1111000000000000000000000000000000000000000000000000000000000000000000
0000000000000000000000000111111111111111111100000000000000000000000000
0000000000000000000000000000000000000000000000000000000000000000001111
1111111111111111000000000000000000000000000000000000000000000000000000
0000000000000000000000000000000000000111111111111111111110000000000000
0000000000000000000000000000000000000000000000000000000000000000000000
0000000011111110111111111110000000000000000000000000000000000000000000
0000000000000000000000000000000000000000000000001110111111111111111000
0000000000000000000000000000000000000000000000000000000000000000000000
0000000000000000000111111111111111111110000000000000000000000000000000
0000000000000000000000000000000000000000000000000000000000001111111111
1111111110000000000000000000000000000000000000000000000000000000000000
0000000000000000000000000000000111111111111111111110000000000000000000
0000000000000000000000000000000000000000000000000000000000000000000000
0011111111111111111110000000000000000000000000000000000000000000000000
0000000000000000000000000000000000000000000011111111111111111110000000
0000000000000000000000000000000000000000000000000000000000000000000000
0000000000000011111111111111111110000000000000000000000000000000000000
0000000000000000000000000000000000000000000000000000000111111111111111
1111100000000000000000000000000000000000000000000000000000000000000000
0000000000000000000000000011111111111111111111000000000000000000000000
0000000000000000000000000000000000000000000000000000000000000000000011
1111111111111111000000000000000000000000000000000000000000000000000000
0000000000000000000000000000000000000011111111111111111111000000000000
0000000000000000000000000000000000000000000000000000000000000000000000
0000000000111111111111111111100000000000000000000000000000000000000000
0000000000000000000000000000000000000000000000000011111111111111111110
0000000000000000000000000000000000000000000000000000000000000000000000
0000000000000000000000111111111111111111100000000000000000000000000000
0000000000000000000000000000000000000000000000000000000000000001111011
1111111111100000000000000000000000000000000000000000000000000000000000
0000000000000000000000000000000001111111111111111111100000000000000000
0000000000000000000000000000000000000000000000000000000000000000000000
0000011111111111111111100000000000000000000000000000000000000000000000
0000000000000000000000000000000000000000000000111111111111111111100000
0000000000000000000000000000000000000000000000000000000000000000000000
0000000000000000111111111111111111110000000000000000000000000000000000
0000000000000000000000000000000000000000000000000000000001111111111111
1111110000000000000000000000000000000000000000000000000000000000000000
0000000000000000000000000000111111111111111111100000000000000000000000
0000000000000000000000000000000000000000000000000000000000000000000001
1111111111111111110000000000000000000000000000000000000000000000000000
0000000000000000000000000000000000000000111111111111111111100000000000
0000000000000000000000000000000000000000000000000000000000000000000000
0000000000011111111111111111110000000000000000000000000000000000000000
0000000000000000000000000000000000000000000000000000111011111111111111
1000000000000000000000000000000000000000000000000000000000000000000000
0000000000000000000000011111111111111111110000000000000000000000000000
0000000000000000000000000000000000000000000000000000000000000000111111
1111111111111000000000000000000000000000000000000000000000000000000000
0000000000000000000000000000000000011111111111111111110000000000000000
0000000000000000000000000000000000000000000000000000000000000000000000
0000001111111111111111111000000000000000000000000000000000000000000000
0000000000000000000000000000000000000000000000011111111111111111110000
0000000000000000000000000000000000000000000000000000000000000000000000
0000000000000000001111111111111111111000000000000000000000000000000000
0000000000000000000000000000000000000000000000000000000000011111111111
1111111100000000000000000000000000000000000000000000000000000000000000
0000000000000000000000000000001111111111111111111000000000000000000000
0000000000000000000000000000000000000000000000000000000000000000000000
0111111111111111111100000000000000000000000000000000000000000000000000
0000000000000000000000000000000000000000001111111111111111111000000000
0000000000000000000000000000000000000000000000000000000000000000000000
0000000000000011111111111111111100000000000000000000000000000000000000
0000000000000000000000000000000000000000000000000000001111111111111111
1110000000000000000000000000000000000000000000000000000000000000000000
0000000000000000000000000111111111111111111100000000000000000000000000
0000000000000000000000000000000000000000000000000000000000000000001111
1111111111111100000000000000000000000000000000000000000000000000000000
0000000000000000000000000000000000001111111111111111111000000000000000
0000000000000000000000000000000000000000000000000000000000000000000000
0000000111111111111111111100000000000000000000000000000000000000000000
0000000000000000000000000000000000000000000000000111111111111111111000
0000000000000000000000000000000000000000000000000000000000000000000000
0000000000000000000111111111111111111100000000000000000000000000000000
0000000000000000000000000000000000000000000000000000000000000111111111
1111111111000000000000000000000000000000000000000000000000000000000000
0000000000000000000000000000000111111111111111111110000000000000000000
0000000000000000000000000000000000000000000000000000000000000000000000
0001111111111111111111110000000000000000000000000000000000000000000000
0000000000000000000000000000010101010000000111111111111111111111110000
0000000000000000000000000000000000000000001001010101010111111111111111
1111111110000001111111111111111111111110000000001010101010101101111111
1111111111111111111111111111111111111111111111111110000111111111111111
1111111111111111111111111111111111111111111111111111111111111111111111
1111111111111111111111000001111111111111111111111111111111111111111111
1111111011111111111111111111111111111111101111111111111111111110000111
1111111111111111111111111111111111111111111111111111011111111111111111
1111111111111111111111111111111111000001111111111111111111111111111111
1111111111111111111111111111111111111111111111111111111111111111111111
1111100000111111111111111111111111111111111111111111111111111111111111
1111111111111111111111111111111111111111111111000011111111111111111111
1111111111111111111111111111111111111111111111111111111111111111111111
1111111111111111100000111111111111111111111111111111111111111111111111
1111111111111111111111111111111101111111111111111111111111000001111111
1111111111111111111111111111111111111111111111111111110111111011111111
1111111111111111111111111111100000111111111111111111111111111111111111
1111111111111111111111111111111111111011111111111111111111111111111111
0000111111111111111111111111111111111111111111111111111111101111111111
1111111111111111111111111111111111111111000001111111111111111111111111
1111111111111111111111111111111111111111111111111111111111111111111111
1111111111100000111111111111111111111111111111111111111111111111111111
1111111111111111111111111111111111111111111111111111000001111111111111
1111111111111111111111111111111111111111111111111111111111111111111111
1111111111111111111111100000111101111111111111111111111111111111111111
1111111111111111111111111111111111111111111111111111111111111111100001
1111111111111111111111111111111111111111111111111111111111111111111111
1111111111111111111111111111111111100000111111111111111111111111111111
1111111111111111111111111111111111111111111111111111111111111111111111
1111110000011111111111111111111111111111111111111111111111111111111111
1111111111111111111111111111111111111111111111100000111111111111111111
1111111111111111111111111111111111111111111111111111111111111111111111
1111011011101101000000011111111111111111111111111111111111111111111111
1101101110101010101001000000000000000000000000000000000000000000000000
0000000000000000000000000000000000000000000000000000000000000000000000
000000000000000000000000000000000