P1
# CREATOR: GIMP PNM Filter Version 1.1
104 196
0000000000000000000000000000000000000000000000000000000000000000000000
1000000010001001000100100010000010000000000000000000000000000000000000
0000000000000000000000000000001010101010100100100101001010101010100000
0000000000000000000000000000000000000000001000000000000000000010000000
1000001010010010100101000100101000000000000000000000000000000000001000
0000000010000000000000000010101010010101001001001001000101001000000000
0000000000000100000000000000000000100000000000000000000101000000101110
1101110110110110110101010101000000000000000000000000000000001000000000
1001000000000000000000110101011111111011111111111111111011010000000100
0000000000000010000000000000000000000001000000000100001000011111111111
1111111111111111111111101000000000010000010000000010001000000000000000
0000000000000010000101001111111111111111111111111111111111000000000000
0010000000000000000000000000000000000000000000000010000111111111111111
1111111111111111111111010000000000000000000000000000000000000000000000
0000000000001001010011111111111111111111111111111111111110000000000000
0000000000000000000000000000000000000100000000010001111111111111111111
1111111111111111111100100000000000000001000000000000000000000000000000
0000000010010100111111111111111111111111111111111111111000000000000000
0000000000000000000000000000000000000000000100001111111111111111111111
1111111111111111100000000000000000000000000000010000000000000000000000
0000100100101111111111111111111111111111111111111100010000000000000000
0000100000000000000000000010000000001001000101111111111111111111111111
1111111111110000000000000000001000000000100000000000000000000000000000
0010100111111111111111111111111111111111111101001001000000001000000000
0000000000000000000000000000000001010001011111111111111111111111111111
1111111100000000000000000000000000000000000000000000000000000000000001
0100111111111111111111111111111111111111001001010100000000000000000000
0000000000000000000000000000001010001111111111111111111111111111111111
1110000100000000000000000000010000000000000000000000000000000000000100
0111111111111111111111111111111111111000010000000000000000000000000000
0000000000000000000000000100100011111111111111111111111111111111111100
0000000100000000000000000000000000001000000000000000000000001001000111
1111111111111111111111111111111100001010000000000000000000000000100000
0000000000000000000000000100111111111111111111111111111111111111000010
0000001000000000000000000000000000000100000000000000000101000001111111
1111111111111111111111111111000001001000000000000000000000000000000000
0000000000000000000000101011111111111111111111111111111111110000100010
0000000000000000000000000000000000000000000000000000101000101111111111
1111111111111111111111110000010000000000000000000000000000000100000000
0000000000000000000001011111111111111111111111111111111100010100000100
0000000000000000000000000000000000000000000000010010100111111111111111
1111111111111111111000000000000000000000000000000000000000000100000000
0000000000000000001011111111111111111111111111111111000001000100000001
0000000000000000000000000000000000000000000000101010111111111111111111
1111111111111110000000000000100000000000000000000000000000000000000000
0000000010000011111111111111111111111111111111100000100100000000000000
0000000000000000000000000000000000000000000001000111111111111111111111
1111111111101000100000000000000000000000000000000000000000000000000000
0000001000011111111111111111111111111111111000000000000000000000000000
0000000000000000000000000000000000000100000001111111111111111111111111
1111111010010010010000000000000000000000000000000000000000000000000000
0001010111111111111111111111111111111111000000000000000000000000000000
0000000000000000000000000000000000000000001111111111111111111111111111
1110100101000000000000000000000000000000000000000000000000000000001010
1000111111111111111111111111111111100000000000000000000000000000000000
0000000000000000000000000000000000000011111111111111111111111111111111
0000010000000000000000000000000000000000000000000000000000000100001000
1111111111111111111111111111111100001000000000000000000000000000000000
0000000100000000000000000000000000011111111111111111111111111111010000
0100010000000000000000000000000000000000000000000000000000000100100011
1111111111111111111111111111100010000100000000000000000000000000000000
0000000000000000000000000000001011111111111111111111111111111100000100
0000000000000000000000000000000000000000000000000000000000001001111111
1111111111111111111111111000000000000000000000000000000000000000000000
0000000000000000000000000000111111111111111111111111111111000010010000
0000000000000000000000000000000000000000000000000000000100010111111111
1111111111111111111110000000000000000000000000000000000000000000000000
0000000000000000000000010111111111111111111111111111110100101000000000
0000000000000000000000000000000000000000000000000000010001111111111111
1111111111111111100000000000000000000000000000000000000000000000000000
0000000000000100000000111111111111111111111111111110000100000000000000
0000000000000000000000000000000000000000000000000100011111111111111111
1111111111111100000000000000000000000000000000000000000000000000000000
0000000000000000001111111111111111111111111111110001001000000000000000
0000000000000000000000000000000000000000000000010001111111111111111111
1111111111000000000000000000000000000000000000000000000000000000000000
0000000100000001111111111111111111111111111100100100000000000000000000
0000000000000000000000000000000000000000000000010111111111111111111111
1111111000000000000000000000000000000000000000000000000000000000000000
0000000010001111111111111111111111111111000001000000000000000000000000
0000000000000000000000000000000000000000000011111111111111111111111111
1110000000000000000000000000000000000000000000000000000000000000000000
0001000001111111111111111111111111111100000000000000000000000000000000
0000000000000000000000000000000000010000011111111111111111111111111111
0000010000000000000000000000000000000000000000000000000000000000000000
0000001111111111111111111111111110100000000000000000000000000000000000
0000000000000000000000000000000000010011111111111111111111111111110100
0001000000000000000000000000000000000000000000000000000000000000000000
0001111111111111111111111111110000100000000000000000000000000000000000
0000000000000000000000000000010100011111111111111111111111111110000000
0000000000000000000000000000000000000000000000000000000000000000000001
1111111111111111111111111111010010000000000000000000000000000000000000
0000000000000000000000000000000001111111111111111111111111110000000000
0000000000000000000000000000000000000000000000000000000000001000001111
1111111111111111111111110000101000000000000000000000000000000000000000
0000000000000000000000000010011111111111111111111111111100000000000000
0000000000000000000000000000000000000000000000000000000000000000111111
1111111111111111111110000100000000000000000000000000000000000000000000
0000000000000000000000000011111111111111111111111111110001000000000000
0000000000000000000000000000000000000000000000000000000010000111111111
1111111111111111100000010000000000000000000000000000000000000000000000
0000000000000000001000011111111111111111111111111110001000000000000000
0000000000000000000000000000000000000000000000000000000000111111111111
1111111111111100000000000000000000000000000000000000000000000000000000
0000000000000000000011111111111111111111111111100000100000000000000000
0000000000000000000000000000000000000000000000000000000111111111111111
1111111111100000000000000000000000000000000000000000000000000000000000
0000000000000100011111111111111111111111111110000001000000000000000000
0000000000000000000000000000000000000000000000000000111111111111111111
1111111100001000000000000000000000000000000000000000000000000000000000
0000000000001010111111111111111111111111100000000000000000000000000000
0000000000000000000000000000000000000000000100001111111111111111111111
1111100000100000000000000000000000000000000000000000000000000000000000
0000000000001111111111111111111111111100010000000000000000000000000000
0000000000000000000000000000000000000000000000111111111111111111111111
1110000001000000000000000000000000000000000000000000000000000000000000
0000010001111111111111111111111111100000100000000000000000000000000000
0000000000000000000000000000000000000000000011111111111111111111111101
0000000000000000000000000000000000000000000000000000000000000000000000
0000011111111111111111111111111100000100100000000000000000000000000000
0000000000000000000000000000000000010000111111111111111111111111111000
0000000000000000000000000000000000000000000000000000000000000000000000
0000111111111111111111111111110000001000000000000000000000000000000000
0000000000000000000000000000000000000111111111111111111111111111100000
0100000000000000000000000000000000000000000000000000000000000000001000
1011111111111111111111111110000000000000000000000000000000000000000000
0000000000000000000000000000000000111111111111111111111111111100000000
0000000000000000000000000000000000000000000000000000000000000000000011
1111111111111111111111111110000000000000000000000000000000000000000000
0000000000000000000000000000000011111111111111111111111111111100000000
0000000000000000000000000000000000000000000000000000000000000000011111
1111111111111111111111111010000000000000000000000000000000000000000000
0000000000000000000000001000001111111111111111111111111111111111010000
0000000000000000000000000000000000000000000000000000000000000011111111
1111111111111111111111111101101100000000000000000000000000000000000000
0000000000000000000000000011111111111111111111111111111111111111111111
1101000000000000000000000000000000000000000000000000000000001111111111
1111111111111111111111111011111101111111010000000000000000000000000000
0000000000000000000000001111111111111111111111111111111111111011111111
1011111000000000000000000000000000000000000000000000100001111111111111
1111111111111111111111111111111110111111111100000000000000000000000000
0000000000000000000001111111111111111111111111111111111111111111111111
1111111111000000000000000000000000000000000000000000000111111111111111
1111111111111111111111111111111111111111111110000000000000000000000000
0000000000000000000111111111111111111111111111111111111111111111111111
1111101111110000000000000000000000000000000000000001111111111111111111
1111111111111111111111111111111111111111111111110000000000000000000000
0000000000000000111111111111111111111111111111111111111111111111111111
1111111111111000000000000000000000000000000000000111111111111111111111
1111111111111111111111111111111111111111111011110000000000000000000000
0000000000000011111111111111111111111111111111111111111111111111111111
1111111111111100000000000000000000000000000000011111111111111111111111
1111111111111111111111111111111111111111111111111000000000000000000000
0000001000011111111111111111111111111111111111111111111111111111111111
1111111111111100000000000000000000000000000011111111111111111111111111
1111111111111111111111111111111111111111111111110100000000000000000000
0000000011111111111111111111111111111111111111111111111111111111111111
1111111111111100000000000000000000000000001111111111111111111111111111
1111111111111111111111111111111111111111111111111000000000000000000000
0000001111111111111111111111111111111111111111111111111111111111111111
1111111111111100000000000000000000000001111111111111111111111111111111
1111111111111111111111111111111111111111111111111000000000000000000000
0000111111111111111111111111111111111111111111111111111111111111111111
1111111111111000000000000000000000001111111111111111111111111111111111
1111111111111111111111111111111111111111111111110000000000000000000000
0111111111111111111111111111111111111111111111111111111111111111111111
1111111111111000000000000000000000111111111111111111111111111111111111
1111111111111111111111111111111111111111111111100000000000000000000011
1111111111111111111111111111111111111111111111111111111111111111111111
1111111111110000000000000000000011111111111111111111111111111111111111
1111110101111111111111111111111111111111111111100000000000000000001111
1111111111111111111111111111111111100000000000011111111111111111111111
1111111111100000000000000000001111111111111111111111111111111111100000
0001001001000011111111111111111111111111111110000000000000000000111111
1111111111111111111111111111000000100100010001000011111111111111111111
1111111111000000000000000001111111111111111111111111111111100000000100
0010100100010000111111111111111111111111111110000000000000000111111111
1111111111111111111111000000100001000000001000010001111111111111111111
1111111110000000000000000111111111111111111111111111111000010001010000
0001000010000100011111111111111111111111111100000000000000011111111111
1111111111111111110000001000000000000000000101000000111111111111111111
1111111000000000000000111111111111111111111111111110000100000000001000
0001000000101001011111111111111111111111111000000000000011111111111111
1111111111111100000010010000000000000010000000000000111111111111111111
1111110000000000000001111111111111111111111111100010010000001000001000
0000000001010010111111111111111111111111100000000000001111111111111111
1111111111100000000000000000000000000000000000000001111111111111111111
1111000000000000001111111111111111111111111100001000100000000000000000
0000000000100000111111111111111111111111000000000000111111111111111111
1111111100000000000000000000000000000000000000100011111111111111111111
1110000000000001111111111111111111111111000000100000100000000000000000
0001001000000011111111111111111111111100000000000011111111111111111111
1111100000000000001000000000000000000000000010000111111111111111111111
1100000000000111111111111111111111111000000010010000000000000000000000
0000000000000011111111111111111111111000000000011111111111111111111111
1100000000000000000000000000000000000010010010001111111111111111111111
1000000000011111111111111111111111100000000000000000000000000000000000
0000000000001111111111111111111110100000000001111111111111111111111110
0010010000000000000000000000000000000001001000011111111111111111111010
0000000001111111111111111111111100000000000000000000000000000000000000
0000000000111111111111111111101110000000000111111111111111111111111000
0010010000000000000000000000000000000101000001111111111111111111111100
0000000111111111111111111111110000000000000000000000000000000000000000
0000000001111111111111111111111000000000011111111111111111111111000010
0000000000000000000000000000000000001000000011111111111111111111110000
0000111111111111111111111110000000010000000000000000000000000000000000
0000000111111111111111111111110000000001111111111111111111111100000000
0100000000000000000000000000000000001000001111111111111111111111000000
0011111111111111111111111100000100000000000000000000000000000000000000
0000011111111111111111111111000000000111111111111111111111110000000000
0000000000000000000000000000000000000000111111111111111111111100000000
0111111111111111111111100000000000000000000000000000000000000000000000
0001111111111111111111111100000000011111111111111111111111000000001000
0000000000000000000000000000000000000011111111111111111111110000000011
1111111111111111111110000000100000000000000000000000000000000000000100
0111111111111111111111100000000001111111111111111111111100000000000000
0000000000000000000000000000000000011111111111111111111111000000000111
1111111111111111111000000000000000000000000000000000000000000100000001
1111111111111111111111000000000111111111111111111111111000001000000000
0000000000000000000000000000000001111111111111111111111100000000011111
1111111111111111110000000000000000000000000000000000000000000000001111
1111111111111111111000000000011111111111111111111111100000000000000000
0000000000000000000000000000000111111111111111111111100000000000111111
1111111111111110100000000000000000000000000000000000000000000000111111
1111111111111111100000000000111111111111111111111110000000000000000000
0000000000000000000000000001111111111111111111111110000000000011111111
1111111111111111000000000000000000000000000000000000000000000111111111
1111111111111100000000000011111111111111111111111110000010000000000000
0000000000000000000000001011111111111111111111111000100000001111111111
1111111111111101000000000000000000000000000000000000000000111111111111
1111111111110000000000000111111111111111111111111100000000000000000000
0000000000000000000000111111111111111111111111100000000000011111111111
1111111111111010000000000000000000000000000000000000000111111111111111
1111111110000000000000001111111111111111111111111000000000000000000000
0000000000000000001111111111111111111111111100000000000001111111111111
1111111101111010000000000000000000000000000000000001111111111111111111
1111110000000000000000011111111111111111111111110000000000000000000000
0000000000000001111111111111111111111111100001000000000010111111101111
1111111111111100000000000000000000000000000000001111111111111111111111
1111000000000000000001111111111111111111111111111000000000000000000000
0000000000110111111111111111111111111100000000000000000011111111111111
1111111101111100000000000000000000000000000111111011111111111111111111
1000000010000000000011111111111111111111111111111100000000000000000000
0000010110111111111111111111111111100010000000000000001111111111111111
1111111110111101000000000000000000000011111111111111111111111111111100
0000000000000000000011111111111111111111111111111110000000000000000001
0111111111111111111111111111111100000010000000000000011111111111111111
1111111110111111101000000000000111111111111111111111111111111111100001
0000000000000000000111111111111111111111111110111111111010010011111110
1111111111111111111111111111000000000000000000000000101111111111111111
1111111111111111111111111111110111111111111111111111111111111100000010
0000000000000000011111111111111111111111111111111011111111110111111111
1111111111111111111111111000000000000000000000000000111111111111111111
1111111111011111111111111111111111110111111111111111111111000000100000
0000000000000000001111111111111111111111111111111111110111111111111111
1111111111111111111111100000000000000000000000000011111111111111111111
1111111111111111111111111111111111111111111111111111110000010000000000
0000000000000000011111111111111111111111111111111111111111111111111111
1111111111111111110000000000000000000000000000000101101111111111111111
1111111111111111111111111111111111111111111111111110000010000000000000
0000000000000000111111011111111111111111111111111110111111111111111111
1111111111111010000000000000000000000000000000000010111111111111111111
1110111111111111110111111111111111111111111111100000010000000000000000
0000000000000001011111111111111111111111111111111111111111111111110111
1111111111100000000000000000000000000000000000000001111111111111111111
1111111111111111111111111111111111111111111000001000000000000000000000
0000000000000000011111111111111111111111111111111111111101111111111111
1111110000000100000000000000000000000000000000000101011111111111111111
0111111111111111111111111111111111111100000000000000000000000000000000
0000000000000000101111111111111111111111111111111111111111111111111111
1000000100000000000000000000000000000000000000000000111111111111111111
1111111111111111111111111111111111000000000000000000000000000000000000
0000000000001000001111111111111011111111111111111111111111111111110000
0010000000000000000000000000000000000000000000000010010111111111111111
1111111111111111111111111111000000000000000000000000000000000000000000
0000000000000000001010111111111111111111111111111111111111110100000000
0000000000000000000000000000000000000000000001000000010111111111111111
1111111111111111111111000000000000000000000000000000000000000000000000
0000000000000000000000011111111111111111111111111111110000000001000000
0000000000000000000000000000000000000000000000010001001010111111111111
1111111111111110000000000000000000000000000000000000000000000000000000
0000000000000000000000000101111111111111111111000000000001000000000000
0000000000000000000000000000000000000000000000000000000000000101011111
0110100000000000000000000000000000000000000000000000000000000000000000
0000000000000000000000000000000001010010000000000001000000000000000000
0000000000000000000000000000000000000000000000000000001001001010000000
0000000001001000000000000000000000000000000000000000000000000000000000
0000000000000000000000000000000010100100000000000000000000000000000000
0000000000000000000000000000000000000000000000000000000000101010000000
0001000000000000000000000000000000000000000000000000000000000000000000
0000000000000000000000000001000000100000000000000000000000000000000000
00000000000000