P1
# CREATOR: GIMP PNM Filter Version 1.1
107 165
0000000000000000000000000000000000000000000000000000000000000000000000
0000000000000000000000000000000000000000000000000000000000000000000000
0000000000000000000000000000000000000000000000000000000000000000000000
0000000000001010101010101010101010100100100101000100100100100100100000
0000000000000000000000000000000000000000000000111101101111011011011011
0111110111101110111110110110101011111010000000000000000000000000000000
0000000000001101111111111111111111111110111110111101111011111111111111
0101111101000000000000000000000000000000000000000111110111101111111111
1111111111111111111111111011101111111111110110111000000000000000000000
0000000000000011101111111111111111111111111111111111111111111111111111
1111111111111101101000000000000000000000000000000000111011111111111111
1110111111111111111111111111111111111111111111111111111101000000000000
0000000000000000001111111111111111111111111111111111111111111111111111
1111111111111111110111010100000000000000000000000000000011111111111111
1111111111111111111111111111111111111111111111111111111111111111100000
0000000000000000000001101111111111111111111111111111111111111111111111
1111111111111111111111111111111010000000000000000000000000011101111111
1111111111111111111111111111111111111111111111111111111111111111111111
1100000000000000000000000010111111111111111111111111111111111111111111
1111111111111111111111111111111111111010000000000000000000000001111111
1111111111111111111111111111111111111111111111111111111111111111111111
1111111010000000000000000000001101111111111111111111111111111111111111
1111111111111111111111111111111111111111111110000000000000000000000111
1111111111111111111111111111111111111111111111111111111111111111111111
1111111111111100000000000000000000111111111111111111111111111111111111
1111111111111111111111111111111111111111111111111111000000000000000000
0011111111111111111111111111111111111111111111111111111111111111111111
1111111111111111111010000000000000000111111111111111111111111111111111
1111111111111111111111111111111111111111111111111111111110000000000000
0000001111111111111111111111111111111111111111111111111111111111111111
1111111111111111111111111100000000000000011111111111111111111111111111
1111111111111111111111111111111111111111111111111111111111111101000000
0000000000111111111111111111111111111111111111111111111111111111111111
1111111111111111111111111111110100000000000001111111111111111111111111
1111111111111111111111111111111111111111111111111111111111111111111101
0000000000000011111111111111111111111111111111111111111111111111111111
1111111111111111111111111111111111101000000000000111111111111111111111
1111111011110111111111111111111111111111111111111111111111111111111111
1111000000000000001111111111111111111111100000000000000000000000000000
0000000111111111111111111111111111111111110000000000001111111111111111
1111111100100000000000000000000000100001010000011111111111111111111111
1111111110000000000001111111111111111111111111011010101001001001000010
0001000001010000011111111111111111111111111111100000000000111111111111
1111111111000000000000000000000000000000000000000000010111111111111111
1111111111111101000000000011111111111111111111110100000000000000000000
0000000000000000000000001111111111111111111111111111000000000111111111
1111111111111100000000000000000000000000000000000000000000000011111111
1111111111111111110100000000011111111111111111111110000000000000000000
0000000000000000000000000010001111111111111111111111111110000000001111
1111111111111111110010000000000000000000000000000000000000000000000011
1111111111111111111111100000000000111111111111111111111000000000000000
0000000000000000000000000000000000001111111111111111111111111100000001
1111111111111111111111000000000000000000000000000000000000000000000000
0100111111111111111111111111000000000011111111111111111111101000000000
0000000000000000000000000000000000000000011111111111111111111111110000
0001111111111111111111111100000000000000000000000000000000000000000000
0000000001111111111111111111111110000000001111111111111111111110000000
0000000000000000000000000000000000000000000000111111111111111111111111
1000000111111111111111111111100100000000000000000000000000000000000000
0000000000000011111111111111111111111010000000111111111111111111111000
0000000000000000000000000000000000000000000000000000111111111111111111
1111100000011111111111111111111110010000000000000000000000000000000000
0000000000000000000111111111111111111111101000000011111111111111111111
1000000000000000000000000000000000000000000000000000000001111111111111
1111111110000001111111111111111111111000000000000000000000000000000000
0000000000000000000000011111111111111111111111000000001111111111111111
1111110000000000000000000000000000000000000000000000000000000111111111
1111111111111100000111111111111111111111100000000000000000000000000000
0000000000000000000000000000111111111111111111111100000000111111111111
1111111110000000000000000000000000000000000000000000000000000000001111
1111111111111111110000011111111111111111111111000000000000000000000000
0000000000000000000000000000000011111111111111111111110000000111111111
1111111111111000000000000000000000000000000000000000000000000000000000
1111111111111111111110100000111111111111111111111100000000000000000000
0000000000000000000000000000000000001111111111111111111111100000101111
1111111111111111100000000000000000000000000000000000000000000000000000
0000111111111111111111111100000011111111111111111111100100000000000000
0000000000000000000000000000000000000000111111111111111111111100000010
1111111111111111111110000000000000000000000000000000000000000000000000
0000000011111111111111111111110000001111111111111111111110000000000000
0000000000000000000000000000000000000000000011111111111111111111110010
0010111111111111111111111000000000000000000000000000000000000000000000
0000000000001111111111111111111110000000111111111111111111111000000000
0000000000000000000000000000000000000000000000001111111111111111111111
0000000111111111111111111111100000000000000000000000000000000000000000
0000000000000001111111111111111111111100000011111111111111111111100000
0000000000000000000000000000000000000000000000000001111111111111111111
1111000000101111111111111111111110000000000000000000000000000000000000
0000000000000000000111111111111111111111100000001111111111111111111111
0000000000000000000000000000000000000000000000000000001111111111111111
1111111000000000111111111111111111111000000000000000000000000000000000
0000000000000000000000011111111111111111111110000001111111111111111111
1110000000000000000000000000000000000000000000000000000000111111111111
1111111111100000000011111111111111111111010000000000000000000000000000
0000000000000000000000001011111111111111111111101000000111111111111111
1111111000000000000000000000000000000000000000000000000000001111111111
1111111111111100000000001111111111111111111110000000000000000000000000
0000000000000000000000000001011111111111111111111110000000001111111111
1111111111100100000000000000000000000000000000000000000000000001111111
1111111111111111110100000001111111111111111111110000000000000000000000
0000000000000000000000000000001111111111111111111111110000000000110111
1111111111111110000000000000000000000000000000000000000000000000011111
1111111111111111111110000000000111111111111111111111000000000000000000
0000000000000000000000000000000011111111111111111111111110100000000011
1111111111111111111000000000000000000000000000000000000000000000001111
1111111111111111111111110000000000101111111111111111111111000000000000
0000000000000000000000000000000010111011111111111111111111110000000000
0011111111111111111111110000000000000000000000000000000000000000000110
1111111111111111111111111101010000000000111111111111111111111111000000
0000000000000000000000000000000101111101111111111111111111111110000000
0000011111111111111111111111110111111111111111011011010101010101011111
1111111111111111111111111111100100000000000011111111111111111111111111
1110111011011111111111111111111101111111111111111111111111111111110000
0000000001111111111111111111111111111111111111111111101111111111011111
1111111111111111111111111111111100000000000000010111111111111111111111
1111111111111111111111101111111111111111111111111111111111111111111100
1000000000000011111111111111111111111111111111111111111111111111111111
1111111111111111111111111111111111000000000000000010111111111111111111
1111111111111111111011111111111111111111111111111111111111111111111111
0001000000000000001111111111111111111111111111111111111111111111111111
1111111111111111111111111111111111111001000000000000001011111111111111
1111111111111111111111111111111111111111111111111111111111111111111111
1111000000000000000000111111111111111111111111111111111111111111111111
1111111111111111111111111111111111111111100000000000000000101111111111
1111111111111111111111111111111111111111111111111111111111111111111111
1111111100000000000000000011111111111111111111111111111111111111111111
1111111111111111111111111111111111111111111111000000000000000010111111
1111111111111111111111111111111111111111111111111111111111111111111111
1111111111111000000000000000001111111111111111111111111111111111111111
1111111111111111111111111111111111111111111111111100000000000000001011
1111111111111111111111111111111111111111111111111111111111111111111111
1111111111111111111000000000000000111111111111111111111111111111111111
1111111111111111111111111111111111111111111111111111111110000000000000
0111111111111111111111111111111111111111111111111111111111111111111111
1111111111111111111111111000000000000110111111111111111111111111111111
1111111111111111111111111111111111111111111111111111111111111110000000
0000011111111111111111111111111111111111111111111111111111111111111111
1111111111111111111111111111111000000000011111111111111111111111111111
1111111111111111111111111111111111111111111111111111111111111111111000
0000000000111111111111111111111111111111111111111111111111111111111111
1111111111111111111111111111111111110000000001111111111111111111111111
1101110111111111011111111111111111111111111111111111111111111111111111
1111000000001011111111111111111111110000000000000000000000000000000000
0001000111111111111111111111111111111111100000000011111111111111111111
1110000000000000000000000000000000000000000000011111111111111111111111
1111111110000000011111111111111111111110010100010010100000001000100100
1000100000000000001111111111111111111111111111100000011011111111111111
1111101000000000000000000000000000000000000010010100000001111111111111
1111111111111100000001111111111111111111100100000000000000000000000000
0000000000000000000010000111111111111111111111111110000001111111111111
1111111110000000000000000000000000000000000000000000000000000001111111
1111111111111111111000000011111111111111111110000000000000000000000000
0000000000000000000000000100000111111111111111111111111110000111111111
1111111111110000000000000000000000000000000000000000000000000000000000
1111111111111111111111100000011111111111111111111100000000000000000000
0000000000000000000000000000000000000011111111111111111111111000011111
1111111111111111000000000000000000000000000000000000000000000000000000
0000011111111111111111111111100010111111111111111111110000000000000000
0000000000000000000000000000000000000000000111111111111111111111110001
1111111111111111111100000000000000000000000000000000000000000000000000
0000000000011111111111111111111110001011111111111111111110000000000000
0000000000000000000000000000000000000000000000000111111111111111111111
0001111111111111111111110000000000000000000000000000000000000000000000
0000000000000000111111111111111111111100011111111111111111111100000000
0000000000000000000000000000000000000000000000000000010111111111111111
1111100111111111111111111111000000000000000000000000000000000000000000
0000000000000000000001111111111111111111110010111111111111111111100000
0000000000000000000000000000000000000000000000000000000000110111111111
1111111110011111111111111111111100000000000000000000000000000000000000
0000000000000000000000000011111111111111111111101011111111111111111110
0000000000000000000000000000000000000000000000000000000000000001111111
1111111111111101111111111111111111110000000000000000000000000000000000
0000000000000000000000000000001111111111111111111110101111111111111111
1110000000000000000000000000000000000000000000000000000000000000000101
1111111111111111110111111111111111111111000000000000000000000000000000
0000000000000000000000000000000000111111111111111111111001111111111111
1111111100000000000000000000000000000000000000000000000000000000000000
0011111111111111111111111011111111111111111000000000000000000000000000
0000000000000000000000000000000000000011011111111111111111101111111111
1111111111100000000000000000000000000000000000000000000000000000000000
0000001111111111111111111101111111111111111111110000000000000000000000
0000000000000000000000000000000000000000001111111111111111111110101111
1111111111111110000000000000000000000000000000000000000000000000000000
0000000001011111111111111111110111111111111111111111000000000000000000
0000000000000000000000000000000000000000000000011111111111111111111001
1111111111111111111000000000000000000000000000000000000000000000000000
0000000000000011111111111111111111111111111111111111111100000000000000
0000000000000000000000000000000000000000000000000011111111111111111111
1010111111111111111111100000000000000000000000000000000000000000000000
0000000000000000010111111111111111111101111111111111111111100000000000
0000000000000000000000000000000000000000000000000000001111111111111111
1111001011111111111111111110000000000000000000000000000000000000000000
0000000000000000000001011111111111111111111111111111111111111110000000
0000000000000000000000000000000000000000000000000000000001111111111111
1111111100101111111111111111111000000000000000000000000000000000000000
0000000000000000000000001011111111111111111110111111111111111111111000
0000000000000000000000000000000000000000000000000000000000001111111111
1111111111110010111111111111111111100000000000000000000000000000000000
0000000000000000000000000001101111111111111111111001111111111111111111
1000000000000000000000000000000000000000000000000000000000000000111111
1111111111111111001011111111111111111110000000000000000000000000000000
0000000000000000000000000000010111111111111111111111001111111111111111
1111100000000000000000000000000000000000000000000000000000000000001110
1111111111111111111000101111111111111111110000000000000000000000000000
0000000000000000000000000000000001111111111111111111111100111111111111
1111111110000000000000000000000000000000000000000000000000000000000011
1101111111111111111111000010111111111111111111000000000000000000000000
0000000000000000000000000000000000010111101111111111111111100011111111
1111111111111000000000000000000000000000000000000000000000000000000000
1111111111111111111111111001001011111111111111111100000000000000000000
0000000000000000000000000000000000000111011111111111111111111100001111
1111111111111111100000000000000000000000000000000000000000000000000000
0011101111111111111111111111101000101111111111111111111000000000000000
0000000000000000000000000000000000000111111111101111111111111111100000
1111111111111111111111100000000000000000000000000000000000000000000000
0011011111111111111111111111111100000010111111111111111111111000000000
0000000000000000000000000000000000000101111111011111111111111111111100
0000111111111111111111111111110101010101010100101000100100010000001001
0111111111111111111111111111111111000000010101111111111111111111111111
1111111111111111111111111111111101111111110110111111111111110111111111
1010000011111111111111111111111111111111111110110111111011011101111111
1101111111111111111110111111111011111000000000101111111111111111111111
1111111101111111011111111111111111111111111111111110111111111111111111
1101000000001111111111111111111111111111110111111111111111111111111110
1101111101111111111111111111111111111111000000000011011111111111111111
1111111111111111111111111111111101111111111111110111111111111111111111
1111110000000000111111111111111111111111110111111111111111110111111111
1111111111111111111111111111111111111111100010000000001011111111111111
1111111111111111111111111111111011111111111111111111111111111111101111
1111111010000000000011111111111111111111111111111111111111111111111111
1111111011111111111111111111111111111101111100000000000001010111111111
1111111111111111111111011111111111111111111111011111111101111111111111
1111111110001000000000001111111111111111111111111111111111111111111111
1111111111111111111111111111110111111111111111000000000000000101011111
1111111111111111111111111111111111111111011111111111110111111111111111
1111111111100100000000000000011111111111111111111111111111111111111111
1111111111111111111111111111101111111111011111100000000000000000001110
1111111111111111111111111111111111111111111111111111111111111111111111
1111111111101000000000000000000011011111111111111111111111111111111111
1111111111111111111111111111111111111111111111110001000000000000000000
1110101111111111111111111111111111111111111111111111111111111111111111
1111101111111001000000000000000000000111111111111111111111111111111111
1111111111111111111011111111111111111011111111101010000000000000000000
0000011111111111111111111111111111111111101111101111111111111111111111
1111111111111100000000000000000000000000000111101111111111111111111111
1011111111111111111111111111111111110111111111100000000000000000000000
0000000000001111110111111111111111111111111111111111111111111111111111
1111111111101010000000000000000000000000000000000000010100100100000010
1011101011111101111110111111011011111111111010000000000000000000000000
0000000000000000000000000000001000000000000000000000000010000000100100
0000000000001000000000000000000000000000000000000000000000000000000000
0000000000000000000000000000000000000000000000000000000000000000000000
000000000000000