P1
# CREATOR: GIMP PNM Filter Version 1.1
147 183
0000000000000000000000000000000000000000000000000001011111111111111111
1111111111111110100000000000000000000000000000000000000000000000000000
0000000000000000000000000000000000000000000000000000000000011111111111
1111111111111111111111111000000000000000000000000000000000000000000000
0000000000000000000000000000000000000000000000000000000000000000110111
1111111111111111111111111111100010000000000000000000000000000000000000
0000000000000000000000000000000000000000000000000000000000000000000000
0101011111111111111111111111111111111110000000000000000000000000000000
0000000000000000000000000000000000000000000000000000000000000000000000
0000000001111111111111111111111111111111110101000000000000000000000000
0000000000000000000000000000000000000000000000000000000000000000000000
0000000000000010111111111111111111111111111111111111100000000000000000
0000000000000000000000000000000000000000000000000000000000000000000000
0000000000000000000000101111111111111111111111111111111111010100000000
0000000000000000000000000000000000000000000000000000000000000000000000
0000000000000000000000000001011111111111111111111111111111111111111100
0000000000000000000000000000000000000000000000000000000000000000000000
0000000000000000000000000000000000001111111111111111111111111111111111
1110010000000000000000000000000000000000000000000000000000000000000000
0000000000000000000000000000000000000000001001111111111111111111111111
1111111111110100000000000000000000000000000000000000000000000000000000
0000000000000000000000000000000000000000000000010111111111111111111111
1111111111111110110100000000000000000000000000000000000000000000000000
0000000000000000000000000000000000000000000000000000000001111111111111
1111111111111111111111111011000000000000000000000000000000000000000000
0000000000000000000000000000000000000000000000000000000000000011011111
1111111111111111111111111111111110000000000000000000000000000000000000
0000000000000000000000000000000000000000000000000000000000000000000001
0111111111111111111111111111111111111111110000000000000000000000000000
0000000000000000000000000000000000000000000000000000000000000000000000
0000001011111111111111111111111111111111111111101000000000000000000000
0000000000000000000000000000000000000000000000000000000000000000000000
0000000000000101111111111111111111111111111111111111110110000000000000
0000000000000000000000000000000000000000000000000000000000000000000000
0000000000000000010010111111111111111111111111111111111111110100000000
0000000000000000000000000000000000000000000000000000000000000000000000
0000000000000000000000000010111111111111111111111111111111111111111111
1000000000000000000000000000000000000000000000000000000000000000000000
0000000000000000000000000000000000101111111111111111111111111111111111
1111110010000000000000000000000000000000000000000000000000000000000000
0000000000000000000000000000000000000010101111111111111111111111111111
1110111111111100000000000000000000000000000000000000000000000000000000
0000000000000000000000000000000000000000000000101111111111111111111111
1111111111111111110011000000000000000000000000000000000000000000000000
0000000000000000000000000000000000000000000000000000001011111111111111
1111111111111111110111111110110000000000000000000000000000000000000000
0000000000000000000000000000000000000000000000000000000000001011111111
1111111111111111111011111111011111100100000000000000000000000000000000
0000000000000000000000000000000000000000000000000000000000000000000100
1111111111111111111101111110111111111110110100000000000000000000000000
0000000000000000000000000000000000000000000000000000000000000000000000
0010111111111111111111111111111111111110111111111010000000000000000000
0000000000000000000000000000000000000000000000000000000000000000000000
0000000000000111111111111111111111111011111111111111111110100000000000
0000000000000000000000000000000000000000000000000000000000000000000000
0000000000000001011011111111111111111111111111111111110111110111010000
0000000000000000000000000000000000000000000000000000000000000000000000
0000000000000000000000000111111111111111111111101111111111111111111111
1110000000000000000000000000000000000000000000000000000000000000000000
0000000000000000000000000000001010111111111111111111111111111101110111
0111111010100000000000000000000000000000000000000000000000000000000000
0000000000000000000000000000000000000001111111111111111101111111011111
1111111110111111001000000000000000000000000000000000000000000000000000
0000000000000000000000000000000000000000001010111111111111111111110110
1111111111111110111111110000000000000000000000000000000000000000000000
0000000000000000000000000000000000000000000000000001011111111111111111
1111111110111111111111111110111100000000000000000000000000000000000000
0000000000000000000000000000000000000000000000000000000001011111111111
1111111111111111110110111111111111111010000000000000000000000000000000
0000000000000000000000000000000000000000000000000000000000000000010111
1111111111111111111101111111111111111111111111100000000000000000000000
0000000000000000000000000000000000000000000000000000000000000000000000
1011111111111111111110110111010111111101111111011010101000000000000000
0000000000000000000000000000000000000000000000000000000000000000000000
0000000100111111111111111111111100111011101111111101111111111000000000
0000000000000000000000000000000000000000000000000000000000000000000000
0000000000000001111111111111111111101010000001011111111111111111101010
0000000000000000000000000000000000000000000000000000000000000000000000
0000000000000000000000001111111111111111111100000000100010101111110111
1111110000000000000000000000000000000000000000000000000000000000000000
0000000000000000000000000001111111111111111111101000010001000010101111
1111111110101010000000000000000000000000000000000000000000000000000000
0000000000000000000000000000000000000111111111111111111110000000000000
0010110111110111111100000000000000000000000000000000000000000000000000
0000000000000000000000000000000000000000101111111111111111110100000000
0001000010111111111111111110100000000000000000000000000000000000000000
0000000000000000000000000000000000000000000000010011111111111111111110
1001001000000000000011111111111111010000000000000000000000000000000000
0000000000000000000000000000000000000000000000000000000101111111111111
1101001000000000000000100111101111111111011000000000000000000000000000
0000000000000000000000000000000000000000000000000000000000000001111111
1111111110110010000000000000000001111111111111111100000000000000000000
0000000000000000000000000000000000000000000000000000000000000000000101
1111111111111111110100000000000000001001011101110111110101000000000000
0000000000000000000000000000000000000000000000000000000000000000000000
0000010111111111111111111100000100000000000000010111111111111111010000
0000000000000000000000000000000000000000000000000000000000000000000000
0000000000010111111111111111011010000000000000010000101111011111111110
1100000000000000000000000000000000000000000000000000000000000000000000
0000000000000000000101111111111111111101010000000000000000000001110111
1111111101000000000000000000000000000000000000000000000000000000000000
0000000000000000000000010101111111111111111111000000000000000000001010
1111111110111111000000000000000000000000000000000000000000000000000000
0000000000000000000000000000000010111111111111111010101000000000000000
0000010111111011110111101000000000000000000000000000000000000000000000
0000000000000000000000000000000000000101111111111111101110101000000000
0000000010011011101111111111010010000000000000000000000000000010100000
0000000000000000000000000000000000000000000001011111111111111111110010
0000000000000000000101111110111111111100000000000000000000000000000000
0010100000000000000000000000000000000000000000000010101111111111111111
1101000000000000000000101011101111111111111101100000000000000000000000
0000000010000000000000000000000000000000000000000000000000101111111111
1111111111010000000000000000000001011011111111111111011000000000000000
0000000000000000101000000000000000000000000000000000000000000000001111
1111111111111110100000000000000000000010101111111101111111101000000000
0000000000000000000000000000000000000000000000000000000000000000000000
0100111111111111111111101000000000000000000000101011101111111111110101
0000000000000000000000000000000000000000000000000000000000000000000000
0000000101111111111111111101010000000000000000000001001011111111101111
1111010000000000000000000000000000000000000000000000000000000000000000
0000000000000000101111111111111111110110000000000000000000001010111111
1111111111111110000000000000000000000000000000000000000000000000000000
0000000000000000000010101111111111111111010100000000000000000000000010
1101111111111011111000000000000000000000000000000000000000000000000000
0000000000000000000000000000011111111111111111111110100000000000000000
0000010110111111111111011111110000000000000000000000000000000000000000
0000000000000000000000000000000000100111111111111111111000000000000000
0000000000000101111110111111111110100000000000000000000000000000000000
0000000000000000000000000000000000000000001011111111111111111111100000
0000000000000000100010110111101111111111111100000000000000000000000000
0000000000000000000000000000000000000000000000001011111111111111111111
0000000000000000000000000100111111111111111111101001000000000000000000
0000000000000000000000000000000000000000000000000000000001111111111111
1111111010000000000000000000000000001011111111111011111111000000000000
0000000000000000000000000000000000000000000000000000000000001011111111
1111111111110010000000000000000000000000101011111111111111111110010000
0000000000000000000000000000000000000000000000000000000000000000000010
0111111111111111111100100000000000000000000000000011011011011111111111
1111000000000000000000000000000000000000000000000000000000000000000000
0000001111111111111111111110000000000000000000000000001010111111111111
1111111101001001000000000000000000000000000000000000000000000000000000
0000000000000101111111111111111011100000000000000000000000000000001011
1111111111111111110100001000000000000000000000000000000000000000000000
0000000000000000001011111111111111111111000100000000000000000000000001
0111111111111111111111010000100000000000000000000000000000000000000000
0000000000000000000000000001111111111111111111110000000000000000000000
0000000001011111111111111111111110000000000000000000000000000000000000
0000000000000000000000000000000011011111111111111111100100000000000000
0000000000000000101111111111111111110110100000000000000000000000000000
0000000000000000000000000000000000000000111111111111111111111000000000
0000000000000000000000010111111111111111111110101000000000000000000000
0000000000000000000000000000000000000000000010101111111111111111110001
0000000000000000000000000000010111111111111111111111101000000000000000
0000000000000000000000000000000000000000000000000000101111111111111111
1111100000000000000000000000000000000001011111111111111111111010000000
0000000000000000000000000000000000000000000000000000000000010111111111
1111111110001000000000000000000000000000010101011111111111111111111110
0100000000000000000000000000000000000000000000000000000000000000001011
1111111111111111110000000000000000000000000000000000101111111111111111
1111011010000000000000000000000000000000000000000000000000000000000000
1001111111111111111111100100000000000000000000000000000001011111111111
1111111110110100000000000000000000000000000000000000000000000000000000
0000000000101111111111111110111000000000000000000000000000000000000101
1111111111111111111011100000000000000000000000000000000000000000000000
0000000000000001101111111111111111111010000000000000000000000000000000
0101011111111111111111111111000000000000000000000000000000000000000000
0000000000000000000000010111111111111111111100100000000000000000000000
0000000000000111111111111111111111110100000000000000000000000000000000
0000000000000000000000000001011111111111111111111101000000000000000000
0000000000000000010101111111111111111111110100000000000000000000000000
0000000000000000000000000000000000100011111111111111111011010000000000
0000000000000000000000000001111111111111111111111010100000000000000000
0000000000000000000000000000000000000000001011111111111111111111000000
0000000000000000000000000000000010011111111111111111111110100000000000
0000000000000000000000000000000000000000000000000101111111111111111111
0101000000000000000000000000000000000000010111111111111111111111110100
0000000000000000000000000000000000000000000000000000001011111111111111
1111110100000000000000000000000000000000000000010111111111111111111110
1010000000000000000000000000000000000000000000000000000000000100111111
1111111111111010100000000000000000000000000000000000000010111111111111
1111111111010000000000000000000000000000000000000000000000000000000001
1111111111111111101110000000000000000000000000000000000000000010111111
1111111111111110100000000000000000000000000000000000000000000000000000
0001000111111111111111111001000000000000000000000000000000000000000001
0011111111111111111111111010000000000000000000000000000000000000000000
0000000000001111111111111111110101000100000000000000000000000000000000
0000000101111111111111111111111101000000000000000000000000000000000000
0000000000000000000011111111111111111111010000000000000000000000000000
0000000000000010111111111111111111111110010000000000000000000000000000
0000000000000000000000001011111111111111111110110000000000000000000000
0000000000000000000000101111111111111111111101100000000000000000000000
0000000000000000000000000000000100111111111111111111111010000000000000
0000000000000000000000000000010111111111111111111111111010000000000000
0000000000000000000000000000000000000001111111111111111110101000010000
0000000000000000000000000000000000000011111111111111111111101000000000
0000000000000000000000000000000000000000000010011111111111111111111101
0000000000000000000000000000000000000000001000111111111111111111111110
1000000000000000000000000000000000000000000000000000110111111111111111
1110100000000000000000000000000000000000000000000001011111111111111111
1111110010000000000000000000000000000000000000000000000000001111111111
1111101111110100000000000000000000000000000000000000000000010111111111
1111111111111100000000000000000000000000000000000000000000000000101111
1111111111111111101000000000000000000000000000000000000000000001010111
1111111111111111110101000000000000000000000000000000000000000000000000
0001011111111111111101110101000000000000000000000000000000000000000000
0000011111111111111111111111010000000000000000000000000000000000000000
0000000011011111111111111111111000000000000000000000000000000000000000
0000100001101111111111111111111111010000000000000000000000000000000000
0000000000000000111111111111111111111111000000000000000000000000000000
0000000000000000010011111111111111111111101100000000000000000000000000
0000000000000000000010110111111111111111111000001000000000000000000000
0000000000000000000010000011111111111111111111111100000000000000000000
0000000000000000000000000000001111111111111111111111100000000000000000
0000000000000000000000000000001000011111111111111111111111100000000000
0000000000000000000000000000000000101111111111111111111111010000000000
0000000000000000000000000000001000000001011111111111111111111101000000
0000000000000000000000000000000000000000010011111111111111111111110100
0000000000000000000000000000000000000000100000010011111111111111111111
1111000000000000000000000000000000000000000000000111111111111111111110
1000000000000000000000000001011010101000000001000010000111111111111111
1111111100000000000000000000000000000000000000000000000000111111111111
1111111111010000000000000000000000101101101010010000000000010000111111
1111111111111111110000000000000000000000000000000000000000001011111111
1111111111111110010000000000000000000001011011110110100000000000000010
1011111111111111111111101000000000000000000000000000000000000000000001
0111111111111111111111100000000000000000000000000111111101101010100100
0000000011111111111111111111110101000000000000000000000000000000000000
0000001111111111111111111110100100000000000000000000010101011111101010
0000000010001010111111111111111111111100000000000000000000000000000000
0000000000100101111111111111111111110010000000000000000000000001101111
1111101010010000000001011111111111111111111111010000000000000000000000
0000000000000000000101111111111111111111100100000000000000000000000010
1111111111101010010000000000011111111111111111111111100000000000000000
0000000000000000000000000001111111111111111111111010010000000000000000
0000000010010101111010100010001001000011111111111111111111111100000000
0000000000000000000000000000000101111111111111111111110100100000000000
0000000000001010010101001001001010000000001011111111111111111111111001
0000000000000000000000000000000000000010011111111111111111111101000000
0000000000000000100001010101010100100100001000000000111111111111111111
1111110100000000000000000000000000000000000000111111111111111111111010
0100100000000000000000000010101010010100000000100001001010101111111111
1111111111110100000000000000000000000000000000000001000111111111111111
1111111010010000000000000000000000010100100001010100010000000000101111
1111111111111111111100000000000000000000000000000000000000001111111111
1111111111110101000000000000000000000010101001001010000000100001010000
1011111111111111111111011111000000000000000000000000000000000000010011
1111111111111111111010010101000000000000000000010010100100101010000100
0000100010111111111111111111111111101000000000000000000000000000000000
0001111111111111111111111111000000000000000000000010100100000100100000
0000000000000110111111111111111111111111101000000000000000000000000000
0000000001011111111111111111111110111011000000000000000000001010000000
0000000001000010100101111111111111111111111111110101000000000000000000
0000000000000001011111111111111111111111111010010010001000010000110010
1010101101011110101101011011110111111111111111111111111110000000000000
0000000000000000000000010111111111111111111111111111101101010101101011
1011101101110111101011111011101110111111111111111111111111111111110000
0000000000000000000000000000001111111111111111111111111111111110111011
1110110110111011101110111111101111111111111111111111111111111111111111
1000000000000000000000000000000000000011111111111111111111111111111111
1111111011011111111111111011111011111011101111111111111111111111111111
1111011110100000000000000000000000000000001011111111111111111111111111
1111111110111111111011110111111111111011111111111111111111111111111111
1111111111111110000100000000001000000000000000000001111111111111111111
1111111111111111111111111111111111101111111111111111111111111111111111
1111111111111111111111110000000000000000000000000000000101111111111111
1111111111111111111111111111111111111111111111111111111111111111111111
1111111111111111111111111111111000000000000000000000000000000000011111
1111111111111111111111111111111111111111111111111111111111111111111111
1111111111111111111111111111111111111101000000000000000000000000000010
1111111111111111111111111111111111111111111111111111111111111111111111
1111111111111111111111111111111111111111111011000000000000000000000000
0000000010111111111111111111111111111111111111111111111111111111111111
1111111111111111111111111111111111111111111111111111101000000000000000
0000000000010110111111111111111111111111111111111111111111111111111111
1111111111111111111111111111111111111111111111111111111111010000000000
0000000000000000000001111111111111111111111111111111111111111111111111
1111111111111111111111111111111111111111111111111111111111111011111110
0000000000000000000000000101111111111111111111111111111111111111111111
1111111111111111111111111111111111111111111111111111111111111111111111
1110100000000000000000000000000000011111111111111111111111111111111111
1111111111111111111111111111111111111111111111111111111111111111111111
1111111111111100000000000000000000000001011011111111111111111111111111
1111111111111111111111111111111111111111111111111111111111111111111111
1111111111111111110100000000000000000000000000100111111111111111111111
1111111111111111111111111111111111111111111111111111111111111111111111
1111111111111111111111111110100000000000000000000000001110111111111111
1111111111111111111111111111111111111111111111111111111111111111111111
1111111111111111111111111111111111000000000000000000000000001011111111
1111111111111111111111111111111111111111111111111111111111111111111111
1111111111111111111111111111111111111101110100000000000000000000001011
1111111111111111111111111111111111111111111111111111111111111111111111
1111111111111111111111111111111111111111111111101000000000000000000000
0000101111111111111111111111111111111111111111111111111111111111111111
1111111111111111111111111111111111111111111111111111111110100000000000
0000000000101111111111111111111111111111111111111111111111111111111111
0111111111111111111111111111111111111111111111111111111111111101000000
0000000000000000010111111111111111111111111111111111111111111111111111
1111111111111111111111111111111111111111111111111111111111111111111111
1100000000000000000000100111111111111111111111111111111111111111111111
1111111111111110111101111011111111111111111111111111111111111111111111
1111110101000000000000000000001011111111111111111111111111111111111111
1111111111111111101011101111011111110111110101010101010111111111111111
1111111111111111100000000000000000000110111111111111111111111111111111
0101010111111010101010110110011010101001001000000101001001000010111111
1111111111111111111111001000000000000000000001111111111111111111111111
1111010100110100000101010101001010100100000100100010101000000000000000
0000101111111111111111111111110100000000000000000101011111111111111111
1111110000000000000000100100000000000000000000010000000000000000000000
0000000000011010111111111111111111101001000000000000000000111111111111
1111111111101010000000000000000000010000000000000000000000000000000000
0000000100000000000011111111111111111111111111000000000000000001101111
1111111111111111101000000001000000000000000000000000000000000000000000
0000000000000000000000001001011111111111111111111010100000000000000000
0011111111111111111111110100001000001000000000000000000000000000010000
0000000000000000000000000010000000101111111111111111111111010100000000
0000001011111111111111111111110101010000000000000000000000000000000000
0000000000000000000000000000000000000000001011111111111111111111110100
0000000000000001011111111111111111111010000000100000000000000000000000
0000000000000000000000000000000000000000000000000101111111111111111111
1111110000000000000101111111111111111111111010010000000000000000000000
0000000000000000000000000000000000000000000000000000100010111111111111
1111111111101000000000000000011111111111111111111110100010000000000000
0000000000000000000000000000000000000000000000000000000000000000101111
1111111111111111111010000000000001011111111111111111111101000000000000
0000000000000000000000000000000000000000000000000000000000000000000000
0010111111111111111111011010000000000000010111111111111111111110101000
0000000000000000000000000000000000000000000000000000000000000000000000
0000000100111111111111111111111110100000000000010111111111111111111111
1000000000000000000000000000000000000000000000000000000000000000000000
0000000000000000101111111111111111111111101000000000000111111111111111
1111111110100000000000000000000000000000000000000000000000000000000000
0000000000000000000000000111111111111111111111101000000000010111111111
1111111111110101000000000000000000000000000000000000000000000000000000
0000000000000000000000000000010101111111111111111111111101000000000010
1111111111111111111110010000000000000000000000000000000000000000000000
0000000000000000000000000000000000000001111111111111111111111011000000
0000101111111111111111111101000000000000000000000000000000000000000000
0000000000000000000000000000000000000000000001011111111111111111111111
0010000000001111111111111111111111100100000000000000000000000000000000
0000000000000000000000000000000000000000000000000000001111111111111111
1111111100000000101101111111111111111111100100000000000000000000000000
0000000000000000000000000000000000000000000000000000000000010101111111
1111111111111101000000010011111111111111111111101000000000000000000000
0000000000000000000000000000000000000000000000000000000000000000000001
1111111111111111111110110000000111111111111111111111101000000000000000
0000000000000000000000000000000000000000000000000000000000000000000000
0001011111111111111111111101100000001000111111111111111111111101000000
0000000000000000000000000000000000000000000000000000000000000000000000
0000000000000011111111111111111111111010000011111111111111111111111101
0000000000000000000000000000000000000000000000000000000000000000000000
0000000000000000001011111111111111111111111101000000011111111111111111
1101100000000000000000000000000000000000000000000000000000000000000000
0000000000000000000000000000011111111111111111111110100001111111111111
1111111111101010000000000000000000000000000000000000000000000000000000
0000000000000000000000000000000000111111111111111111111101100000001111
1111111111111111110100000000000000000000000000000000000000000000000000
0000000000000000000000000000000000000000000111111111111111111111011100
0111111111111111111111110100000000000000000000000000000000000000000000
0000000000000000000000000000000000000000000000010111111111111111111111
1110000000111111111111111111111110000000000000000000000000000000000000
0000000000000000000000000000000000000000000000000000000000111111111111
1111111111110011111111111111111111110100001000000000000000000000000000
0000000000000000000000000000000000000000000000000000000000000010111111
1111111111111101110100011111111111111111111110100000000000000000000000
0000000000000000000000000000000000000000000000000000000000000000000000
0101111111111111111111011010111111111111111111111111010000000000000000
0000000000000000000000000000000000000000000000000000000000000000000000
0000000001111111111111110111111110000111111111111111111110100000000000
0000000000000000000000000000000000000000000000000000000000000000000000
0000000000000010011111111111111111111011101111111111111111111011101000
0000000000000000000000000000000000000000000000000000000000000000000000
0000000000000000000000101111111111111111111111010101111111111111111111
1101000000000000000000000000000000000000000000000000000000000000000000
0000000000000000000000000000000101111111111111111101111011111111111111
1111111101000000000000000000000000000000000000000000000000000000000000
0000000000000000000000000000000000001010111110111111110111110101111111
1111111110110111010000000000000000000000000000000000000000000000000000
0000000000000000000000000000000000000000000001001011101110111010111010
1011111111111111111101000000000000000000000000000000000000000000000000
0000000000000000000000000000000000000000000000000000001010101010101010
0001000110111111111111111111101000000000000000000000000000000000000000
0000000000000000000000000000000000000000000000000000000000100000000000
0000000100010011101101101101101010001000000000000000000000000000000000
0000000000000000000000000001000000000000000000000000000000000000000000
000000000000010000000