P1
# CREATOR: GIMP PNM Filter Version 1.1
115 177
0000000000000000000000000000000000000000000000000000000000000000000000
0000000000000000000000000000000000000000000000000000000000000000000000
0000000000000000000000000000101010110110100000000000000000000000000000
0000000000000000000000000000000000000000000000000000000000000000001001
0100101010010010100010100000000000000000000000000000000000000000000000
0000000000000000000000000000000000000000001001010101011101101011001010
1000000000000000000000000000000000000000000000000000000000000000000000
0000000000000101001010101111010101011011010101001000000000000000000000
0000000000000000000000000000000000000000000000000000000001001101101110
1011111111010110110101010100000000000000000000000000000000000000000000
0000000000000000000000000000010101101101110111110101011111101101101010
1010000000000000000000000000000000000000000000000000000000000000000000
0000010101101111111101111111011011111111101010101000000000000000000000
0000000000000000000000000000000000000000000001011011111111011110111111
1111111111110111111011010100000000000000000000000000000000000000000000
0000000000000000000000101010101111111111111111111111111111111011101110
1000000000000000000000000000000000000000000000000000000000000010110110
1111111111111111111111111111111111111111110110101000000000000000000000
0000000000000000000000000000000000000101010111011011111111111111111111
1111111111111101110110101000000000000000000000000000000000000000000000
0000000001010101111111111111111111111111111111111111111111111111101101
0000000000000000000000000000000000000000000000000000001010111011111111
1111111111111111111111111111111111111111111011100000000000000000000000
0000000000000000000000000001010110111111111111111111111111111111111111
1111111111111110111010000000000000000000000000000000000000000000000000
1010101101111111111111111111111111111111111111111111111111111111111110
0000000000000000000000000000000000000000000001011110111111111111111111
1111111111111111111111111111111111111111010010000000000000000000000000
0000000000000000000101010111111111111111111111111111111111111111111111
1111111111111111110100000000000000000000000000000000000000000001011111
1111111111111111111111111111111111111111111111111111111111111111010000
0000000000000000000000000000000000000010010101111111111111111111111111
1111111111111111111111111111111111111111010000000000000000000000000000
0000000000010011111111111111111111111111111111111111111111111111111111
1111111111111010100000000000000000000000000000000000000001010111111111
1111111111111111111111111111111111111111111111111111111111111011000000
0000000000000000000000000000001011111111111111111111111111111111111111
1111111111111111111111111111111111011001000000000000000000000000000000
0000001010111111111111111111111111111111111111111111111111111111111111
1111111111111100000000000000000000000000000000000101111111111111111111
1111111111111111111111111111111111111111111111111111111110101000000000
0000000000000000000000001010111111111111111111111111111111111111111111
1111111111111111111111111111111110100000000000000000000000000000000010
1111111111111111111111111111111111111111111111111111111111111111111111
1111111110100000000000000000000000000000000101011111111111111111111111
1111111111111111111111111111111111111111111111111111110100000000000000
0000000000000000101011111111111111111111111111111111111111111111111111
1111111111111111111111111111110100000000000000000000000000000101101111
1111111111111111111111111111111111111111111111111111111111111111111111
1111101000000000000000000000000000101011111111111111111111111111111111
1111111111111111111111111111111111111111111111111110100000000000000000
0000000000101010111111111111111111111111111111111111101111111111111111
1111111111111111111111111101000000000000000000000000101011111111111111
1111111111111111111111101001010010111111111111111111111111111111111111
1101000000000000000000000000010101111111111111111111111111111111111010
1010101010000101111111111111111111111111111111110100000000000000000000
0010101111111111111111111111111111111101001000000100000101010111111111
1111111111111111111101010000000000000000000000010101011111111111111111
1111111111101101000101000010000000101011111111111111111111111111111110
1000000000000000000001011111111111111111111111111111111110010010000000
0000000000010111111111111111111111111111110101000000000000000000000010
1011111111111111111111111111110110000000000000000000000001001111111111
1111111111111111111010000000000000000000101011111111111111111111111111
1111010000000000000000000000001001101111111111111111111111111110101000
0000000000000000011011111111111111111111111111101101000000000000000000
0000000001011111111111111111111111111111010000000000000000001010111111
1111111111111111111111101000000000000000000000000000001010111111111111
1111111111111010010000000000000000010110111111111111111111111111110101
0000000000000000000000000000000111111111111111111111111111110100000000
0000000000011011111111111111111111111111110000000000000000000000000000
0000101011111111111111111111111111101010000000000000000101111111111111
1111111111111101011000000000000000000000000000000010111111111111111111
1111111111010000000000000000010110111111111111111111111111111000000000
0000000000000000000000000010111111111111111111111111111010100000000000
0000010111111111111111111111111111011100000000000000000000000000000000
0010111111111111111111111111110100000000000000001101101111111111111111
1111111111000000000000000000000000000000000000101011111111111111111111
1111101010000000000000000101111111111111111111111111011010000000000000
0000000000000000000001011111111111111111111111111101000000000000001010
1010111111111111111111111111101000000000000000000000000000000000000010
1111111111111111111111110100100000000000000010111111111111111111111111
1111010000000000000000000000000000000000010101111111111111111111111111
1100000000000000101010111111111111111111111111101010000000000000000000
0000000000000000011101111111111111111111111101010000000000000000101011
1111111111111111111111101000000000000000000000000000000000000000111111
1111111111111111111111010000000000001101011111111111111111111111111110
1000000000000000000000000000000000000111111111111111111111111111010100
0000000000000101011111111111111111111111110100000000000000000000000000
0000000000000001111111111111111111111111101000000000000001011101111111
1111111111111111110100000000000000000000000000000000000001111111111111
1111111111111110101000000000000001001111111111111111111111111111000000
0000000000000000000000000000000001011111111111111111111111111100000000
0000000101111111111111111111111111110100000000000000000000000000000000
0000000011111111111111111111111111100100000000000000101011111111111111
1111111111111010000000000000000000000000000000000000010111111111111111
1111111111110000000000000000101111111111111111111111111101000000000000
0000000000000000000000000001011111111111111111111111110101000000000000
0010101111111111111111111111111111000000000000000000000000000000000000
0010111111111111111111111111111000000000000001010111111111111111111111
1111110100000000000000000000000000000000000000001011111111111111111111
1110101000000000000001010101111111111111111111111111010000000000000000
0000000000000000000001011111111111111111111111111010100000000000000101
1111111111111111111111111101000000000000000000000000000000000000000101
1111111111111111111111110100000000000001001010111111111111111111111111
1101000000000000000000000000000000000000001011111111111111111111111111
0100000000000000101111111111111111111111111110110000000000000000000000
0000000000000001011111111111111111111111111010100000000000000100101111
1111111111111111111110100000000000000000000000000000000000001000111111
1111111111111111111010000000000000000110111111111111111111111111110100
0000000000000000000000000000000000001111111111111111111111111111010000
0000000000100110111111111111111111111111111000000000000000000000000000
0000000000010111111111111111111111111110100000000000000010101111111111
1111111111111110010000000000000000000000000000000000001011011111111111
1111111111110101000000000000000101111111111111111111111111111010000000
0000000000000000000000000000010011111111111111111111111111010000000000
0000000101011111111111111111111111110010000000000000000000000000000000
0000011011111111111111111111111111010000000000000000011111111111111111
1111111110110000000000000000000000000000000000000010111111111111111111
1111111010000000000000000010111111111111111111111111111000000000000000
0000000000000000000000000101111111111111111111111111101000000000000000
0100111111111111111111111111111100000000000000000000000000000000000000
0101111111111111111111111111010000000000000000011011111111111111111111
1111101000000000000000000000000000000000000010110111111111111111111111
1110100000000000000000011111111111111111111111111101100000000000000000
0000000000000000000000111111111111111111111111011000000000000000001101
1111111111111111111111111100000000000000000000000000000000000000101111
1111111111111111111111100000000000000000000101111111111111111111111110
1110000000000000000000000000000000000000010111111111111111111111111110
0000000000000001101111111111111111111111111110010000000000000000000000
0000000000000010111111111111111111111111101010000000000000000010111111
1111111111111111110110100000000000000000000000000000000000010101111111
1111111111111111110000000000000000011011111111111111111111111111010000
0000000000000000000000000000000000010111111111111111111111111101000000
0000000000011011111111111111111111111110101000000000000000000000000000
0000000001011111111111111111111111111010000000000000000101111111111111
1111111111111110100000000000000000000000000000000000000101111111111111
1111111111111000000000000000001010111111111111111111111111110100000000
0000000000000000000000000000010111111111111111111111111111100000000000
0000010111111111111111111111111111101000000000000000000000000000000000
0000101111111111111111111111111100000000000000000010101111111111111111
1111111111010000000000000000000000000000000000001010111111111111111111
1111111100000000000000000101111111111111111111111111101101000000000000
0000000000000000000000001111111111111111111111111111010000000000000000
1010111111111111111111111111101000000000000000000000000000000000000000
1011111111111111111111111110000000000000000001011111111111111111111111
1110101000000000000000000000000000000000001010111111111111111111111111
1010000000000000000010101111111111111111111111111100000000000000000000
0000000000000000000101111111111111111111111111010000000000000000010111
1111111111111111111111100100000000000000000000000000000000000010111111
1111111111111111111111000000000000000000010111111111111111111111111110
1000000000000000000000000000000000000010101111111111111111111111101100
0000000000000001011111111111111111111111111010100000000000000000000000
0000000000001011111111111111111111111111100000000000000000001001111111
1111111111111111111100000000000000000000000000000000000001010111111111
1111111111111111100000000000000000010111111111111111111111111110010000
0000000000000000000000000000000001111111111111111111111111110100000000
0000000001010111111111111111111111111110100000000000000000000000000000
0000000001011111111111111111111111111000000000000000000101111111111111
1111111111111010000000000000000000000000000000000000101111111111111111
1111111111010000000000000000010101111111111111111111111111101000000000
0000000000000000000000000000101111111111111111111111111010000000000000
0000011111111111111111111111111101010000000000000000000000000000000000
0010111111111111111111111111111000000000000000000010111111111111111111
1111111110000000000000000000000000000000000000010101111111111111111111
1111101000000000000000001011111111111111111111111111010100000000000000
0000000000000000000000010111111111111111111111111100000000000000000010
1011111111111111111111111111010000000000000000000000000000000000000011
0111111111111111111111111100000000000000000010111111111111111111111111
1101000000000000000000000000000000000000011011111111111111111111111110
0000000000000000000010111111111111111111111111101100000000000000000000
0000000000000000001011111111111111111111111111000000000000000010101111
1111111111111111111111100100000000000000000000000000000000000110111111
1111111111111111111000000000000000000001011111111111111111111111111101
0000000000000000000000000000000000000010111111111111111111111111110000
0000000000001011011111111111111111111111110101000000000000000000000000
0000000000101111111111111111111111111101000000000000000001001111111111
1111111111111111111000000000000000000000000000000000000100101111111111
1111111111111101000000000000000001010111111111111111111111111010100000
0000000000000000000000000000000110111111111111111111111111100000000000
0000000001011111111111111111111111111100000000000000000000000000000000
0000000111111111111111111111111111100000000000000000101011111111111111
1111111111101010000000000000000000000000000000000011011111111111111111
1111111101000000000000000000010111111111111111111111111111000000000000
0000000000000000000000000001011111111111111111111111101000000000000000
0010111111111111111111111111111010100000000000000000000000000000000001
1011111111111111111111111111010000000000000000000101111111111111111111
1111111100000000000000000000000000000000000001010111111111111111111111
1111000000000000000000101111111111111111111111111111010000000000000000
0000000000000000000001011111111111111111111111110100000000000000000101
0111111111111111111111111111000000000000000000000000000000000000101011
1111111111111111111111101000000000000000000101111111111111111111111111
1010100000000000000000000000000000000000101111111111111111111111111110
0000000000000000101011111111111111111111111111110000000000000000000000
0000000000000010101111111111111111111111110110000000000000000011101111
1111111111111111111101010000000000000000000000000000000000010111111111
1111111111111111110100000000000000000001111111111111111111111111111100
0000000000000000000000000000000000101111111111111111111111111111000000
0000000000011111111111111111111111111111010000000000000000000000000000
0000000011101111111111111111111111110101000000000000000000101111111111
1111111111111110110000000000000000000000000000000000000111111111111111
1111111111111100000000000000000101111111111111111111111111111101000000
0000000000000000000000000001111011111111111111111111111110100000000000
0000000010111111111111111111111111101100000000000000000000000000000000
0000011111111111111111111111111111000000000000000001011111111111111111
1111111111110100000000000000000000000000000000011111111111111111111111
1111111100000000000000000000100111111111111111111111111110100000000000
0000000000000000000000001011111111111111111111111111100000000000101000
0101111111111111111111111111111010100000000000000000000000000000001110
1111111111111111111111111110100000000000001000000101111111111111111111
1111111101000000000000000000000000000000000110111111111111111111111111
1100000000000101001000101111111111111111111111111110110100000000000000
0000000000000001111011111111111111111111111111110000000000000100000001
0111111111111111111111111111010000000000000000000000000000000011111111
1111111111111111111110110000000001001010001011111111111111111111111111
1101101000000000000000000000000000111011111111111111111111111111111000
0000000000100011001010111111111111111111111111111010000000000000000000
0000000001011011111111111111111111111111011000000000000001000101011111
1111111111111111111111111011000000000000000000000001010111111111111111
1111111111111111000000000000101001001010101111111111111111111111111011
0101000000000000000000000010110111111111111111111111111111101110000000
0000000000001011111111111111111111111111111111101000000000000000000001
0101111111111111111111111111111111110000000000000010101001000101111111
1111111111111111111011111100000000000000000010101011111111111111111111
1111111110111000000000000000000001011111111111111111111111111111111010
1000000000000001110111111111111111111111111111111111111000000000010000
0010000010010111111111111111111111111111111101110000010000100010101011
1111111111111111111111111111011101000000000000000000001011111111111111
1111111111111111111101010101011101111111111111111111111111111111111111
1111000100000000000000100000001011111111111111111111111111111111111101
1010101010101011111111111111111111111111111111111010000000000000000000
0010011011111111111111111111111111111111011101101011111111111111111111
1111111111111111111111010000000000000000000000000001111111111111111111
1111111111111111111101111101110101111111111111111111111111111111111111
0000000000000000010000000101011111111111111111111111111111111111111011
1111111111111111111111111111111111111111010000000000000000000000000000
0101111111111111111111111111111111111111111111111111111111111111111111
1111111111111110101100000000000000000000000000010111111111111111111111
1111111111111111111111111111111111111111111111111111111111101010000000
0000000000000000000001010111111111111111111111111111111111111111111111
1111111111111111111111111111111111010001000000000000000000000000000011
1111111111111111111111111111111111111111111111111111111111111111111111
1111111111010100000000000000000000000000000010111111111111111111111111
1111111111111111111111111111111111111111111111111111110100000000000000
0000000000000000001011111111111111111111111111111111111111111111111111
1111111111111111111111111110100101000000000000000000000000000001000111
1111111111111111111111111111111111111111111111111111111111111111111111
1110100000000000000000000000000000000000110111111111111111111111111111
1111111111111111111111111111111111111111111110101001000000000000000000
0000000000000000101111111111111111111111111111111111111111111111111111
1111111111111111111101001001000000000000000000000000000000000010111111
1111111111111111111111111111111111111111111111111111111111111111010010
0000000000000000000000000000000000000010111111111111111111111111111111
1111111111111111111111111111111111111110100000000000000000000000000000
0000000000010010111111111111111111111111111111111111111111111111111111
1111111111101010000000000000000000000000000000000000000000001011111111
1111111111111111111111111111111111111111111111111111111110101000000000
0000000000000000000000000000000010101111111111111111111111111111111111
1111111111111111111111111111110101000000000000000000000000000000000000
0000000001000111111111111111111111111111111111111111111111111111111111
1111101000000000000000000000000000000000000000000000000011011111111111
1111111111111111111111111111111111111111111111101010000000000000000000
0000000000000000000000000000000001011111111111111111111111111111111111
1111111111111111111101101000000000000000000000000000000000000000000000
0000000000111111111111111111111111111111111111111111111111111110101000
0000000000000000000000000000000000000000000000000000000001111111111111
1111111111111111111111111111111111111101000100000000000000000000000000
0000000000000000000000000000000001011111111111111111111111111111111111
1111111111010100000000000000000000000000000000000000000000000000000000
0000000101011111111111111111111111111111111111111111111010000000000000
0000000000000000000000000000000000000000000000000000000100101111111111
1111111111111111111111111111010100000000000000000000000000000000000000
0000000000000000000000000000000100100111111111111111111111111111111010
1001000100000000000000000000000000000000000000000000000000000000000000
0000000000101011111111111111111111111101010100100000000000000000000000
0000000000000000000000000000000000000000000000000000000001001011111111
1111111110101101010100000000000000000000000000000000000000000000000000
0000000000000000000000000000000000001011111111110101010101010100001000
0000000000000000000000000000000000000000000000000000000000000000000000
0000000000000000000000101001010010000100000000000000000000000000000000
0000000000000000000000000000000000000000000000000000000000010010010000
0000000001000000001000000000000000000000000000000000000000000000000000
0000000000000000000000000000000000000000000000000000000000000000000000
0000000000000000000000000000000000000000000000000000000000000000000000
0000000000000000000000000000000000000000000000000000000000000000000000
0000000000000000000000000000000000000000000000000000000000000000000000
0000000000000000000000000000000000000000000000000000000000000000000000
0000000000000000000000000000000000000000000000000000000000000000000000
0000000000000000000000000000000000000000000000000000000000000000000000
0000000000000000000000000000000000000000000000000000000000000000000000
0000000000000000000000000000000000000000000000000000000000000000000000
0000000000000000000000000000000000000000000000000000000