P1
# CREATOR: GIMP PNM Filter Version 1.1
41 56
0010111101000000000000000000000010111111001111111110000000000000000000
0000101111110110111111000000000000000000000011111111001111111110000000
0000000000000001111111110111111111000000000000000000000011111111101111
1111100000000000000000000001111111110111111111000000000000000000000011
1111111001111111100000000000000000000001111111110111111111000000000000
0000000000111111111011111111100000000000000000000001111111110111111111
0000000000000000000001111111110011111111100000000000000000000001111111
1101111111110000000000000000000000111111110001111111100000000000000000
0000011111111101111111110000000000000000000000111111110011111111100000
0000000000000000011111111101111111110000000000000000000000111111111011
1111111000000000000000000000011111111101111111110000000000000000000000
1111111100111111111000000000000000000000011111111101111111110000000000
0000000000001111111100111111111000000000000000000000111111111101111111
1110000000000000000000001111111100111111111110000000000000010011111111
1110011111111111111111111111111111111111111110111111111111111111111111
1111111111111110011111111111111111111111111111111111111110011111111111
1111111111111111111111111111011111111111111111111111111111111111111100
1111111111111111111111111111111111111111011111111111111111111111111111
1111111111101111111111111111111111111111111111111111011111111111111111
1111111111111111111111001111111111110000000000000000001111111111011111
1111100000000000000000000111111111001111111110000000000000000000000111
1111100111111111000000000000000000000011111111001111111110000000000000
0000000001111111100111111111000000000000000000000111111111101111111110
0000000000000000000001111111100111111111000000000000000000000111111111
1011111111100000000000000000000001111111100111111111000000000000000000
0001111111111011111111100000000000000000000001111111100111111111000000
0000000000000001111111110111111111100000000000000000000001111111100111
1111110000000000000000000001111111111111111111100000000000000000000001
1111111001111111110000000000000000000001111111110111111111100000000000
0000000000111111111001111111100000000000000000000000111111110111111111
1000000000000000000000111111111011111111110000000000000000000001111111
1100111111110000000000000000000000111111111011111111110000000000000000
00000011111111100111111100000000000000000000000001101100