P1
# CREATOR: GIMP PNM Filter Version 1.1
116 164
0000000000000000000000000000000000000000000000000000000000000000000000
0000000000000000000000000000000000000000000000000000000000110101101101
0100000000000000000000000000000000000000000000000000000000000000000000
0000000000000000000000000000000111111111111111111000000000000000000000
0000000000000000000000000000000000000000000000000001111111111010000000
0000000011111110111111111110000000000000000000000000000000000000000000
0000000000000000000000001110111111111111110000000000111101101110110111
1110000000000000000000000000000000000000000000000000000000000000000001
0111101011111111101000000001011111111111111110111010000000000000000000
0000000000000000000000000000000000000000000001111111111101101111110000
0001111111111111111111101000000000000000000000000000000000000000000000
0000000000000000001111111111111111111111100000000111111111111111111111
0100000000000000000000000000000000000000000000000000000000000000001111
0111111111111101100000000111111111111111111111000000000000000000000000
0000000000000000000000000000000000000000111111111111111111111100000000
0111111111111111111111101000000000000000000000000000000000000000000000
0000000000000000101111111111111111111110000000111111111111111111111100
0000000000000000000000000000000000000000000000000000000000001001111111
1111111111111110000000111111111111111111111101000000000000000000000000
0000000000000000000000000000000000000000111111111111111111111000000001
1111111111111111111100000000000000000000000000000000000000000000000000
0000000000000011111111111111111111110000000011111111111111111111110100
0000000000000000000000000000000000000000000000000000000000000111111111
1111111111111000000011111111111111111111110000000000000000000000000000
0000000000000000000000000000000000010111111111111111111111100000000111
1111111111111111110100000000000000000000000000000000000000000000000000
0000000000001011111111111111111111100000001111111111111111111111001000
0000000000000000000000000000000000000000000000000000000000011111111111
1111111111000000001111111111111111111111000000000000000000000000000000
0000000000000000000000000000000010011111111111111111111110000000111111
1111111111111111010000000000000000000000000000000000000000000000000000
0000000000101111111111111111111110000000111111111111111111111100000000
0000000000000000000000000000000000000000000000000000000001111111111111
1111111110000000111111111111111111111100000000000000000000000000000000
0000000000000000000000000000000011111111111111111111110000000011111111
1111111111111101000000000000000000000000000000000000000000000000000000
0000000001111111111111111111111000000011111111111111111111110000000000
0000000000000000000000000000000000000000000000000000000111111111111111
1111110000000011111111111111111111110100000000000000000000000000000000
0000000000000000000000000000100111111111111111111111100000001111111111
1111111111110000000000000000000000000000000000000000000000000000000000
0000001111111111111111111111000000001111111111111111111110100000000000
0000000000000000000000000000000000000000000000000000011111111111111111
1111100000001111111111111111111111000000000000000000000000000000000000
0000000000000000000000000000011111111111111111111110000000111111111111
1111111111010000000000000000000000000000000000000000000000000000000000
0000011111111111111111111110000000111111111111111111111000000000000000
0000000000000000000000000000000000000000000000001011111111111111111111
1010000000111111111111111111111100000000000000000000000000000000000000
0000000000000000000000000001111111111111111111111000000011111111111111
1111111100100000000000000000000000000000000000000000000000000000000000
0011111111111111111111110000000011111111111111111111110000000000000000
0000000000000000000000000000000000000000000000000111111111111111111111
1000000011111111111111111111100000000000000000000000000000000000000000
0000000000000000000000001111111111111111111111000000001111111111111111
1111111000000000000000000000000000000000000000000000000000000000000000
0111111111111111111111100000001111111111111111111110000000000000000000
0000000000000000000000000000000000000000000000111111111111111111111100
0000011111111111111111111110100000000000000000000000000000000000000000
0000000000000000001000111111111111111111111100000001111111111111111111
1110000000000000000000000000000000000000000000000000000000000000000111
1111111111111111111000000001111111111111111111111000000000000000000000
0000000000000000000000000000000000000000000011111111111111111111110000
0001111111111111111111110000000000000000000000000000000000000000000000
0000000000000000000111111111111111111111100000000111111111111111111111
1010000000000000000000000000000000000000000000000000000000000000011111
1111111111111111110000000111111111111111111111000000000000000000000000
0000000000000000000000000000000000000000001111111111111111111110000000
0111111111111111111111100000000000000000000000000000000000000000000000
0000000000000000011111111111111111111111000000011111111111111111111100
0000000000000000000000000000000000000000000000000000000000000000111111
1111111111111110000000011111111111111111111111000000000000000000000000
0000000000000000000000000000000000000001111111111111111111111100000001
1111111111111111111100000000000000000000000000000000000000000000000000
0000000000000001111111111111111111111000000001111111111111111111110100
0000000000000000000000000000000000000000000000000000000000000011111111
1111111111111100000001111111111111111111111000000000000000000000000000
0000000000000000000000000000000000000111111111111111111111100000000111
1111111111111111111000000000000000000000000000000000000000000000000000
0000000000000111111111111111111111110000000111111111111111111111001000
0000000000000000000000000000000000000000000000000000000000011111111111
1111111111010000000111111111111111111111100000000000000000000000000000
0000000000000000000000000000000000001111111111111111111110000000011111
1111111111111111000000000000000000000000000000000000000000000000000000
0000000000011111111111111111111111000000011111111111111111111110000000
0000000000000000000000000000000000000000000000000000000001111111111111
1111111110000000011111111111111111111100100000000000000000000000000000
0000000000000000000000000000000001111111111111111111111100000001111111
1111111111111100000000000000000000000000000000000000000000000000000000
0000000001111111111111111111111000000001111111111111111111110000000000
0000000000000000000000000000000000000000000000000000000111111111111111
1111111000000011111111111111111111110100000000000000000000000000000000
0000000000000000000000000000000111111111111111111111110000000111111111
1111111111111000000000000000000000000000000000000000000000000000000000
0000000111111111111111111111100000000111111111111111111110100000000000
0000000000000000000000000000000000000000000000000000011111111111111111
1111110000000111111111111111111111000000000000000000000000000000000000
0000000000000000000000000000011111111111111111111010000000011111111111
1111111111010000000000000000000000000000000000000000000000000000000000
0000001111111111111111111110000000111111111111111111111100000000000000
0000000000000000000000000000000000000000000000000001111111111111111111
1110000000011111111111111111111110000000000000000000000000000000000000
0000000000000000000000000001111111111111111111111000000001111111111111
1111111000000000000000000000000000000000000000000000000000000000000000
0001111111111111111111111000000011111111111111111111100100000000000000
0000000000000000000000000000000000000000000000100111111111111111111111
1000000011111111111111111111100000000000000000000000000000000000000000
0000000000000000000000001111111111111111111111000000001111111111111111
1111100000000000000000000000000000000000000000000000000000000000000000
1111111111111111111111000000001111111111111111111110000000000000000000
0000000000000000000000000000000000000000000000111111111111111111111100
0000001111111111111111111111000000000000000000000000000000000000000000
0000000000000000000010111111111111111111111110000001111111111111111111
1111000000000000000000000000000000000000000000000000000000000000000111
1111111111111111101100000000111111111111111111111111000000000000000000
0000000000000000000000000000000000000000000111111111111111111111110000
0000111111111111111111111101000000000000000000100010000000000000000000
0000000000000000011111111111111111111111110000000011111111111111111111
1111111101111111111110111111111111111111111011101101001000100101111111
1111111111111111111000000111111111111111111111111111111110111111111111
0111111111110111011110111111111111111111111111111111111111111110000000
0011111111111111111111111111111111111011111111110111101111111111111111
0111011110111111111111111111111111111111000000001111111111111111111111
1111111111111111111111111111111111111111011111111111111111111111111111
1111111111111111000000011111111111111111111111111111111111111111111111
1111111111111111111111111111111111111111111111111111111111111100000000
1111111111111111111111111111111111111111111111111111111111111111111111
1111111111111111111111111111111111111100000001111111111111111111111111
1111111111111111111111111111111111111111111111111111111111111111111111
1111111111111100000000111111111111111111111111111111111111111111111111
1111111111111111111111111111111111111111111111111111111111110000000011
1111111111111111111111111111111111111111111111111111111111111111111111
1111111111111111111111111111111111110000000111111111111111111111111111
1111111111111111111111111111111111111111111111111111111111111111111111
1111111111110000000011111111111111111111111111111111111111111111111111
1111111111111111111111111111111111111111111111111111111111000000011111
1111111111111111111111111111111111111111111111111111111111111111111111
1111111111111111111111111111111111000000001111111111111111111111111111
1111111111111111111111111111111111111111111111111111111111111111111111
1111111111000000011111111111111111111111111111111111111111111111111111
1111111111111111111111111111111111111111111111111111111010000001111111
1111111111111111111111111111111111111111111111111111111111111111111111
1111111111111111111111111111111100000000111111111111111111111111111111
1111111111111111111111111111111111111111111111111111111111111111111111
1111111000000001111111111111111111111111111111111111111111111111111111
1111111111111111111111111111111111111111111111111111110000000011111111
1111111111111111111111111111111111111111111111111111111111111111111111
1111111111111111111111111111110000000111111111111111111111111111111111
1111111111111111111111111111111111111111111111111111111111111111111111
1111110000000011111111111111111111111111111111111111111111111111111111
1111111111111111111111111111111111111111111111111110000000011111111111
1111111111111111111111111111111111111111111111111111111111111111111111
1111111111111111111111111111000000011111111111111111111111111111111111
1111111111111111111111111111111111111111111111111111111111111111111111
1100000000111111111111111111111111101011010111111111111111111111111111
1111111111111111111111111111111111111111111111111000000001111111111111
1111111110100100000000000000000000000000000000000010100100100100001011
1111111111111111111111110000000011111111111111111111110010000000000000
0000000000000000000000000000000000000000000000111111111111111111111111
1000000001111111111111111111110000000000000000000000000000000000000000
0000000000000000000000011111111111111111111111010000001111111111111111
1111110000000000000000000000000000000000000000000000000000000000000000
1111111111111111111111100000000111111111111111111110000000000000000000
0000000000000000000000000000000000000000000000111111111111111111111100
0000001111111111111111111111000000000000000000000000000000000000000000
0000000000000000000000011111111111111111111110000000111111111111111111
1110000000000000000000000000000000000000000000000000000000000000000011
1111111111111111111100000000111111111111111111111100000000000000000000
0000000000000000000000000000000000000000000001111111111111111101111000
0000011111111111111111111000100000000000000000000000000000000000000000
0000000000000000000011111111111111111111110000000011111111111111111111
1100000000000000000000000000000000000000000000000000000000000000000111
1111111111111111111000000011111111111111111111100000000000000000000000
0000000000000000000000000000000000000000010111111111111111111111010000
0011111111111111111111100000000000000000000000000000000000000000000000
0000000000000000001111111111111111111111100000000111111111111111111110
0000000000000000000000000000000000000000000000000000000000000000011111
1111111111111110100000001111111111111111111111000000000000000000000000
0000000000000000000000000000000000000000111111111111111111111010000000
1111111111111111111110000000000000000000000000000000000000000000000000
0000000000000000011111111111111111111100000000111111111111111111111000
0000000000000000000000000000000000000000000000000000000000000011111111
1111111111111110000000111111111111111111111000000000000000000000000000
0000000000000000000000000000000000000011111111111111111111110000000011
1111111111111111111100000000000000000000000000000000000000000000000000
0000000000000001111111111111111111111000000001111111111111111111000000
0000000000000000000000000000000000000000000000000000000000001111111111
1111111111101000000011111111111111111111100000000000000000000000000000
0000000000000000000000000000000000000111111111111111111111000000001111
1111111111111111100000000000000000000000000000000000000000000000000000
0000000000001111111111111111111111000000001111111111111111111111000000
0000000000000000000000000000000000000000000000000000000000011111111111
1111111111100000001111111111111111111110000000000000000000000000000000
0000000000000000000000000000000001111111111111111111111100000000111111
1111111111111110000000000000000000000000000000000000000000000000000000
0000000000011111111111111111111110000000111111111111111111111000000000
0000000000000000000000000000000000000000000000000000000011111111111111
1111111000000000111111111111111111111000000000000000000000000000000000
0000000000000000000000000000000001111111111111111111111000000011111111
1111111110111000000000000000000000000000000000000000000000000000000000
0000000011111111111111111111110000000111111111111111111111000000000000
0000000000000000000000000000000000000000000000000000010111111111111111
1111010000000111111111111111111111000000000000000000000000000000000000
0000000000000000000000000000011111111111111111111110000000011111111111
1111111111000000000000000000000000000000000000000000000000000000000000
0000001111111111111111111111000000011111111111111111111010000000000000
0000000000000000000000000000000000000000000000000001111111111111111111
1100000000011111111111111111111100000000000000000000000000000000000000
0000000000000000000000000000111111111111110111111100000001111111111111
1111111000000000000000000000000000000000000000000000000000000000000000
0001111111111111111111110000000001111111111111101111111000000000000000
0000000000000000000000000000000000000000000000000011111111111111111111
1000000001111111111111111111100000000000000000000000000000000000000000
0000000000000000000000000111111111111111111111100000000111111111111111
1111110000000000000000000000000000000000000000000000000000000000000000
0010111111111111111111110000000111111111111111111110000000000000000000
0000000000000000000000000000000000000000000000011111111111111111111100
0000000111111111111111111111000000000000000000000000000000000000000000
0000000000000000000000011111111111111111111110000000011111111111111111
1111000000000000000000000000000000000000000000000000000000000000000001
1111111111111111101110000000011111111111111111111100000000000000000000
0000000000000000000000000000000000000000000000111111111111111111111100
0000011111111111111110111000000000000000000000000000000000000000000000
0000000000000000000001111111111111111111110000000001111111111111111111
1110000000000000000000000000000000000000000000000000000000000000000011
1111111111111111111000000001111111111111111111100000000000000000000000
0000000000000000000000000000000000000000001110111111111111111111000000
0001111111111111111111110000000000000000000000000000000000000000000000
0000000000000000000111111111111111111111100000000111111111111111111110
0000000000000000000000000000000000000000000000000000000000000000011111
1111111111101111100000000111111111111111011111000000000000000000000000
0000000000000000000000000000000000000000001110111011111111111110000000
0111111111111111111110000000000000000000000000000000000000000000000000
0000000000000000111111111111111111111101000000011111111111111111111100
0000000000000000000000000000000000000000000000000000000000000000111111
1111111111101110000000011110111111111111111000000000000000000000000000
0000000000000000000000000000000000000001111111111111111111110000000000
1111111111111111111100000000000000000000000000000000000000000000000000
0000000000000000101111111111111111111000000001111111111111111111100000
0000000000000000000000000000000000000000000000000000000000001111111111
1111111111110000000001111111111111101111110000000000000000000000000000
0000000000000000000000000000000000000111011111011111111111100000000111
1111111111111111100000000000000000000000000000000000000000000000000000
0000000000000111111111111110111111000000000111011111111111101111000000
0000000000000000000000000000000000000000000000000000000000101111111111
1111111111100000000111111111111111111101000000000000000000000000000000
0000000000000000000000000000000000011111111111111111111101000000011111
1111111111111110000000000000000000000000000000000000000000000000000000
0000000000111011111111111111111100000000111111111111111111010000000000
0000000000000000000000000000000000000000000000000000000011111111111111
1110111000000000111111111111111111111000000000000000000000000000000000
0000000000000000000000000000000011111111111111111111110000000011110111
1111101111100000000000000000000000000000000000000000000000000000000000
0000000011101111111111111111100000000011111111111111111111100000000000
0000000000000000000000000000000000000000000000000000000111111111110111
1111110000000011111110111111111111000000000000000000000000000000000000
0000000000000000000000000000011111101111111111101110000000001011111111
1111111111100000000000000000000000000000000000000000000000000000000000
0000000111111111111111111111000000001111111111110110111000000000000000
0000000000000000000000000000000000000000000000000001111111111111111111
0110000000001111111111111111111100000000000000000000000000000000000000
0000000000000000000000000000011110111111111111111100000000111111111111
1111111100000000000000000000000000000000000000000000000000000000000000
0000111111111111111111111000000000011111111111111110100000000000000000
0000000000000000000000000000000000000000000000000011111111111111111111
1000000000001011111111111111000000000000000000000000000000000000000000
0000000000000000000000000011111111111111111111000000000000000000000100
1010000000000000000000000000000000000000000000000000000000000000000000
0000011111111111110110100000000000000000000000000000000000000000000000
0000000000000000000000000000000000000000000000000010010010001000100000
0000000000000000000000000000000000000000000000000000000000000000000000
000000000000000000000000000000000000000000000000000000