P1
# CREATOR: GIMP PNM Filter Version 1.1
8 35
0000000000000000011110000011100001111100001111000011110000111100001111
0001111100001111000011110000111100011110000011110000111100001111000111
1100001111000011100001111100011110000011110001111100001111000111110000
1111100111110000111100011111000111110001111100001110000001000000000000