P1
# CREATOR: GIMP PNM Filter Version 1.1
8 39
0000000001111110011111100111111001111110011111100111111001111110011111
1001111110011111100111111001111110011111100111111001111110011111100111
1110011111100111111001111110011111100111111001111110011111100111111001
1111100111111001111110011111100111111001111110011111100111111001111110
01111110011111100111111001111110