P1
# CREATOR: GIMP PNM Filter Version 1.1
23 34
0000101111111111100000001111111111111111100000011111111111111111100000
1111111111111111111100011111111111101111111000111110000000000111111001
1110000000000001111100111100000000000001111001111100000000000011111011
1100000000000000111101111000000000000011110011110000000000000111110111
1000000000000011110011110000000000000111100111100000000000011111001111
0000000000001111000111110000000001111110001111111111111111111000011111
1111111111111000001111111111111111100000011111111111111100000000111111
1111111000000000011111000000000000000000111100000000000000000001111000
0000000000000000111100000000000000000001111000000000000000000011110000
0000000000000011111000000000000000000111110000000000000000001111100000
0000000000000011110000000000000000001111100000000000000000011111000000
000000000000