P1
# CREATOR: GIMP PNM Filter Version 1.1
23 35
0000000000000000000000011111111111111111111100111111111111111111111101
1111111111111111111110111111111111111111111001111111111111111111110011
1111100000000000000001111111000000000000000011111100000000000000000111
1111000000000000000011111110000000000000000111110100000000000000001111
1110000000000000000111111100000000000000001111111111111111111110011111
1111111111111111001111111111111111111111011111111111111111111110111111
1111111111111110011111110101010101010100111111100000000000000001111111
0000000000000000111111000000000000000001111111000000000000000011111110
0000000000000001111111000000000000000011111110000000000000000111111100
0000000000000011111010000000000000000111111110110110111011011111111111
1111111111111111111111111111111111111111111111111111111111111111111111
11111111111101010101101011010101010