P1
# CREATOR: GIMP PNM Filter Version 1.1
21 35
0000000000000000000001111111111111111111001111111111111111111101111111
1111111111111011111111111111111110011111111111111111110011111100000000
0000000111111000000000000000111111000000000000000111111000000000000000
1111110000000000000001111110000000000000001111110000000000000001111110
0000000000000011111111111111111110011111111111111111110011111111111111
1111110111111111111111111100111111111111111111110111111010101010101000
1111110000000000000001111110000000000000001111110000000000000001111110
0000000000000011111100000000000000011111100000000000000011111100000000
0000000111111000000000000000111111000000000000000111111111011011011101
1111111111111111111111111111111111111111111111111111111111111111111111
11111111111111010101010110101010101