P1
# CREATOR: GIMP PNM Filter Version 1.1
39 58
0011011111000000000000000000001010100000011111111110000000000000000011
1111111000111111111100000000000000000111111111000111111111100000000000
0000011111111111000111111111100000000000000011111111110000111111111110
0000000000001111111111100000111111111100000000000001111111111000000011
1111111000000000000111111111110000000111111111100000000000101111111100
0000001111111111000000000001111111110000000000111111111100000000011011
1111100000000001111111111100000000111111111100000000000111111111100000
0011111111100000000000001111111111100000111111111100000000000000111111
1111010001111111111000000000000001111111111000011111111110000000000000
0001111111111101111111111000000000000000000111111111111111111111000000
0000000000001111111111111111111110000000000000000000111111111111111111
1000000000000000000001111111111111111101000000000000000000000111111111
1111110100000000000000000000001111111111111101000000000000000000000000
1111111111111110000000000000000000000001111111111111100000000000000000
0000000001111111111111000000000000000000000000001111111111110000000000
0000000000000000001111111111100000000000000000000000001001111111111100
0000000000000000000000000111111111111000000000000000000000000000111111
1111110100000000000000000000000011111101011011000000000000000000000001
0111111101111011000000000000000000001010111111111111001000000000000000
0000000011111111111111101000000000011010000010011111111111111101000000
0000001000000001111111111111111010000000000100010000011111111111111111
1110000000000000000000111111111111111111010000000000000000000101111111
1111111111110000000000000000111111111111011111111110000000000000000011
1111111010011111111110000000000000111111111111000001111111111000000000
0001111111111110000011111111110000000000001111111111100000011111111110
0000000000111111111110000000011111111110000000000111111111100000000011
1111111110000000011111111111000000000011111111110000000011111111111000
0000000111111111110000001111111111100000000000011111111110000001111111
1110000000000000111111111110000111111111110000000000000011111111110000
1111110111100000000000000110111111110011111110011000000000000000010111
1111110011111011111000000000000000110111111010111111110111000000000000
0000111111110101111010111100000000000000000011111111000101000000100000
0000000000000000000000