P1
# CREATOR: GIMP PNM Filter Version 1.1
92 164
0000000000000000000000000000000000000000000000000000000000000000000000
0000000000000000000000000000000000000000000000000000000000000000000000
0000000000000000000000000000000000000000000000000000101101101101010101
0101010101001000100010001000001000000000000000000000000000000000000000
0000110111101111111111110110110110111011101110111110111111111111111111
1111111111111010000000001111111111110111011011111111111111111111111110
1111101110110110101010101010101101111101000000101110111111111111111111
1111111111111111111111111111111111111111111111111111111110111000000101
1111111111111111111111111111111111111111111111111111111111111111111111
1111111111110100000011011111111111111111111111111111111111111111111111
1111111111111111111111111111111111110000011111111111111111111111111111
1111111111111111111111111111111111111111111111111111111110000000111111
1111111111111111111111111111111111111111111111111111111111111111111111
1111111111000001110111111111111111111111111111111111111111111111111111
1111111111111111111111111111111000000011111111111111111111111111111111
1111111111111111111111111111111111111111111111111111110000011111111111
1111111111111111111111111111111111111111111111111111111111111111111111
1111100000001101111111111111111111111111111111111111111111111111111111
1111111111111111111111111110000001111111111111111111111111111111111111
1111111111111111111111111111111111111111111111111100000011111111111111
1111111111111111111111111111111111111111111111111111111111111111111111
1000000111111111111111111111111111111111111111111111111111111111111111
1111111111111111111111110000010111111111111111111111111111111111111111
1111111111111111111111111111111111111111111110000001111111111111111111
1111111111111111111111111111111111111111111111111111111111111111111100
0000111111111111111111111111111111111111111111111111111111111111111111
1111111111111111111000000111011111111111111111111111111111111111111111
1111111111111111111111111111111111111111110000001111111111111111111111
1111111111111111111111111111111111111111111111111111111111111110000011
1111111111111111111111111111111111111111111111111111111111111111111111
1111111111111110000000111111111111111111111111111111111111111111111111
1111111111111111111111111111111111111000000101111111111111111111111111
1111111111111111111111111111111111111111111111111111111111100000010111
1111111111111111111111111111111111111111111111111111111111111111111111
1111111111100000001111111111111111111111111111111111111111111111111111
1111111111111111111111111111111111000000010111111111111111111111111111
1111111111111111111111111111111111111111111111111111111000000000101111
1111111111111111111111111111111111111111111111111111111111111111111111
1111111000000000000000000000000000000001001001001010010101010101010111
1111111111111111111111111111100000000000000000000000000000000000000000
0000000000000000000001111111111111111111111111111110000000000000000000
0000000000000000000000000000000000000000000011111111111111111111111111
1110000000000000000000000000000000000000000000000000000000000000010111
1111111111111111111111110000000000000000000000000000000000000000000000
0000000000000000000111111111111111111111111110100000000000000000000000
0000000000000000000000000000000000000000111111111111111111111111111010
0000000000000000000000000000000000000000000000000000000000000001111111
1111111111111111111100000000000000000000000000000000000000000000000000
0000000000000101111111111111111111111111001000000000000000000000000000
0000000000000000000000000000000000001111111111111111111111111100000000
0000000000000000000000000000000000000000000000000000000010111111111111
1111111111111101000000000000000000000000000000000000000000000000000000
0000000010111111111111111111111111100000000000000000000000000000000000
0000000000000000000000000000000111111111111111111111111110100000000000
0000000000000000000000000000000000000000000000000000011111111111111111
1111111101000000000000000000000000000000000000000000000000000000000000
0001111111111111111111111111111000000000000000000000000000000000000000
0000000000000000000000000001111111111111111111111111010000000000000000
0000000000000000000000000000000000000000000000011111111111111111111111
1110010000000000000000000000000000000000000000000000000000000000000000
1111111111111111111111111100000000000000000000000000000000000000000000
0000000000000000000011111111111111111111111111100100000000000000000000
0000000000000000000000000000000000000000000111111111111111111111111110
0000000000000000000000000000000000000000000000000000000000000001111111
1111111111111111111000100000000000000000000000000000000000000000000000
0000000000000001011111111111111111111111111000000000000000000000000000
0000000000000000000000000000000000000111111111111111111111111110010000
0000000000000000000000000000000000000000000000000000000000011111111111
1111111111111110000000000000000000000000000000000000000000000000000000
0000000000111111111111111111111111110100000000000000000000000000000000
0000000000000000000000000000000000111111111111111111111111001000000000
0000000000000000000000000000000000000000000000000000011111111111111111
1111111110100000000000000000000000000000000000000000000000000000000000
0000001111111111111111111111111010000000000000000000000000000000000000
0000000000000000000000000011111111111111111111111111100000000000000000
0000000000000000000000000000000000000000000000000101111111111111111111
1111101000000000000000000000000000000000000000000000000000000000000000
1111111111111111111111111100000000000000000000000000000000000000000000
0000000000000000000001011111111111111111111111110100000000000000000000
0000000000000000000000000000000000000000000111111111111111111111111110
0000000000000000000000000000000000000000000000000000000000000000001111
1111111111111111111110100000000000000000000000000000000000000000000000
0000000000000000111111111111111111111111110001000000000000000000000000
0000000000000000000000000000000000000010111111111111111111111111100000
0000000000000000000000000000000000000000000000000000000000001111111111
1111111111111111001000000000000000000000000000000000000000000000000000
0000000000010111111111111111111111111100000000000000000000000000000000
0000000000000000000000000000000010111111111111111111111111100100000000
0000000000000000000000000000000000000000000000000000000111111111111111
1111111111100000000000000000000000000000000000000000000000000000000000
0000001101111111111111111111111100100000000000000000000000000000000000
0000000000000000000000000000111111111111111111111111110000000000000000
0000000000000000000000000000000000000000000000000101111111111111111111
1111101000000000000000000000000000000000000000000000000000000000000000
0011111111111111111111111110010000000000000000000000000000000000000000
0000000000000000000000111111111111111111111111111010000000000000000000
0000000000000000000000000000000000000000000001011111111111111111111111
1000000000000000000000000000000000000000000000000000000000000000001111
1111111111111111111110001000000000000000000000000000000000000000000000
0000000000000000000111111111111111111111111110000000000000000000000000
0000000000000000000000000000000000000001111111111111111111111111100000
0000000000000000000000000000000000000000000000000000000000000010111111
1111111111111111101000000000000000000000000000000000000000000000000000
0000000000001111111111111111111111111100000000000000000000000000000000
0000000000000000000000000000000000011111111111111111111111110100000000
0000000000000000000000000000000000000000000000000000000111111111111111
1111111111100000000000000000000000000000000000000000000000000000000000
0000000010111111111111111111111111010000000000000000000000000000000000
0000000000000000000000000000011111111111111111111111111000000000000000
0000000000000000000000000000000000000000000000000010111111111111111111
1111110010000000000000000000000000000000000000000000000000000000000000
0001111111111111111111111111000000000000000000000000000000000000000000
0000000000000000000000001011111111111111111111111101000000000000000000
0000000000000000000000000000000000000000000001111111111111111111111111
1000000000000000000000000000000000000000000000000000000000000000000101
1111111111111111111111110100000000000000000000000000000000000000000000
0000000000000000000111111111111111111111111100000000000000000000000000
0000000000000000000000000000000000000000101111111111111111111111110100
0000000000000000000000000000000000000000000000000000000000000011111111
1111111111111111110000000000000000000000000000000000000000000000000000
0000000000000010111111111111111111111110010000000000000000000000000000
0000000000000000000000000000000000011111111111111111111111111000000000
0000000000000000000000000000000000000000000000000000000000101111111111
1111111111111010000000000000000000000000000000000000000000000000000000
0000000011111111111111111111111111000000000000000000000000000000000000
0000000000000000000000000000000111111111111111111111111101000000000000
0000000000000000000000000000000000000000000000000001101111111111111111
1111111000000000000000000000000000000000000000000000000000000000000000
0000110111111111111111111111110100000000000000000000000000000000000000
0000000000000000000000000111111111111111111111111100000000000000000000
0000000000000000000000000000000000000000000000101111111111111111111111
1100100000000000000000000000000000000000000000000000000000000000000011
1111111111111111111111110000000000000000000000000000000000000000000000
0000000000000000000001011111111111111111111111010000000000000000000000
0000000000000000000000000000000000000000011111111111111111111111111000
0000000000000000000000000000000000000000000000000000000000000001011111
1111111111111111111010000000000000000000000000000000000000000000000000
0000000000000001111111111111111111111111000000000000000000000000000000
0000000000000000000000000000000000001011111111111111111111111101000000
0000000000000000000000000000000000000000000000000000000000111111111111
1111111111111000000000000000000000000000000000000000000000000000000000
0000000000010111111111111111111111110100000000000000000000000000000000
0000000000000000000000000000000111111111111111111111111110000000000000
0000000000000000000000000000000000000000000000000000001111111111111111
1111111101000000000000000000000000000000000000000000000000000000000000
0000111111111111111111111111110000000000000000000000000000000000000000
0000000000000000000000000010111111111111111111111111101000000000000000
0000000000000000000000000000000000000000000000001110111111111111111111
1110000000000000000000000000000000000000000000000000000000000000000000
1111111111111111111111111000000000000000000000000000000000000000000000
0000000000000000000001111111111111111111111111101000000000000000000000
0000000000000000000000000000000000000000001010111111111111111111111100
0000000000000000000000000000000000000000000000000000000000000000011111
1111111111111111111001000000000000000000000000000000000000000000000000
0000000000000000111111111111111111111111100100000000000000000000000000
0000000000000000000000000000000000000111101111111111111111111111000000
0000000000000000000000000000000000000000000000000000000000010111111111
1111111111111110000000000000000000000000000000000000000000000000000000
0000000000011111111111111111111110110100000000000000000000000000000000
0000000000000000000000000000000010111111111111111111111111010000000000
0000000000000000000000000000000000000000000000000000001110111111111111
1111111110000000000000000000000000000000000000000000000000000000000000
0000000111111111111111111111111100000000000000000000000000000000000000
0000000000000000000000000001111111111111111111111111100100000000000000
0000000000000000000000000000000000000000000000001011011111111111111111
1111100000000000000000000000000000000000000000000000000000000000000000
1111111011111111111110111000100000000000000000000000000000000000000000
0000000000000000000000101111111111111111111111110000000000000000000000
0000000000000000000000000000000000000000000011111111111111111111111110
0100000000000000000000000000000000000000000000000000000000000000001101
1111111111111111111110000000000000000000000000000000000000000000000000
0000000000000000111111111111111111111111111010000000000000000000000000
0000000000000000000000000000000000000000110111111111111111111111000000
0000000000000000000000000000000000000000000000000000000000001111111111
1111111111111111000000000000000000000000000000000000000000000000000000
0000000000000111111111111111111101111101000000000000000000000000000000
0000000000000000000000000000000001111011111111111111111111000000000000
0000000000000000000000000000000000000000000000000000000101111111111111
1111111111101000000000000000000000000000000000000000000000000000000000
0000000111111111111111111111011100000000000000000000000000000000000000
0000000000000000000000000000101110111111111111111111110000000000000000
0000000000000000000000000000000000000000000000000011111111111111111111
1111100100000000000000000000000000000000000000000000000000000000000000
0010111111111111111111111110000000000000000000000000000000000000000000
0000000000000000000000011111011111111111111111110001000000000000000000
0000000000000000000000000000000000000000000000111111111111111111111111
1000000000000000000000000000000000000000000000000000000000000000001111
1111111111111111101111000000000000000000000000000000000000000000000000
0000000000000000001010110111111111111111110101000000000000000000000000
0000000000000000000000000000000000000001111111111111111111111111100000
0000000000000000000000000000000000000000000000000000000000000010111111
1111111111111111010000000000000000000000000000000000000000000000000000
0000000000000111101111111111111111111110000000000000000000000000000000
0000000000000000000000000000000000011111111011111111111111110010000000
0000000000000000000000000000000000000000000000000000000011011111111111
1111111111100000000000000000000000000000000000000000000000000000000000
0000000001101111111111111110111110010000000000000000000000000000000000
0000000000000000000000000000011111111111111111111111111000000000000000
0000000000000000000000000000000000000000000000000000111111011111101111
1111101000000000000000000000000000000000000000000000000000000000000000
0011101111111111111111111111001000000000000000000000000000000000000000
0000000000000000000000000111111111111111111101111100000000000000000000
0000000000000000000000000000000000000000000001110111101111111111111111
1000000000000000000000000000000000000000000000000000000000000000000011
1011111011111111111111101000000000000000000000000000000000000000000000
0000000000000000000111111111111111011111101100000000000000000000000000
0000000000000000000000000000000000000000001011111111111111011111111010
0000000000000000000000000000000000000000000000000000000000000011111101
1111011111111111100000000000000000000000000000000000000000000000000000
0000000000000001101111111111111110111111000000000000000000000000000000
0000000000000000000000000000000000001111111101111111111111111001000000
0000000000000000000000000000000000000000000000000000000000011111111111
1111111101111000000000000000000000000000000000000000000000000000000000
0000000000101011111101101111111110010000000000000000000000000000000000
0000000000000000000000000000000000111010111111101111011100000000000000
00000000000000000000000000000000000000