P1
# CREATOR: GIMP PNM Filter Version 1.1
122 161
0000000000000000000000000000000000000000000000000000010010010101010101
0110110110100000000000000000000000000000000000000000000000000000000000
0000000000000000000000000000000111011011111111111111111111111111100100
0000000000000000000000000000000000000000000000000000000000000000000000
0000010000111111111111111111111111111111111111010001000000000000000000
0000000000000000000000000000000000000000000000000000000000000001111111
1111111111111110111111111111101000000000000000000000000000000000000000
0000000000000000000000000000000000000000001111111111111111111111111111
1111111111110001000000000000000000000000000000000000000000000000000000
0000000000000000000010000111111111111111111111111111111111111111100010
0000000000000000000000000000000000000000000000000000000000000000000000
1000101111111111111111111111111111111111111110000000000000000000000000
0000000000000000000000000000000000000000000000000000100001011111111111
1111111111111111111111111111100000000000000000000000000000000000000000
0000000000000000000000000000000000001001111111111111111111111111111111
1111111111100010000000000000000000000000000000000000000000000000000000
0000000000000000000000111111111111111111111111111111111111111111000000
0000000000000000000000000000000000000000000000000000000000000000000001
0001111111111111111111111111111111111111111110010010000000000000000000
0000000000000000000000000000000000000000000000000000100111111111111111
1111111111111111111111111111000000000000000000000000000000000000000000
0000000000000000000000000000000000001111111111111111111111111111111111
1111111111000100000000000000000000000000000000000000000000000000000000
0000000000000001000111111111111111111111111111111111111111111110000000
0000000000000000000000000000000000000000000000000000000000000000000001
1111111111111111111111111111111111111111111100001000000000000000000000
0000000000000000000000000000000000000000000000010000111111111111111111
1111111111111111111111111111000000000000000000000000000000000000000000
0000000000000000000000000000000001111111111111111111111111111111111111
1111111100000100000000000000000000000000000000000000000000000000000000
0000000000001000111111111111111111111111111111111111111111111100000000
0000000000000000000000000000000000000000000000000000000000000000001111
1111111111111111111111111111111111111111111000000000000000000000000000
0000000000000000000000000000000000000000000010000111111111111111111111
1111111111111111111111111101000000000000000000000000000000000000000000
0000000000000000000000000000011111111111111111111111111111111111111111
1111111000000000000000000000000000000000000000000000000000000000000000
0000000010001111111111111111111111111111111111111111111111111000000000
0000000000000000000000000000000000000000000000000000000000000001011111
1111111111111111111111111111111111111111110000100000000000000000000000
0000000000000000000000000000000000000000000001111111111111111111111111
1111111111111111111111111000000000000000000000000000000000000000000000
0000000000000000000000010010111111111111111111111111111111111111111111
1111110000000000000000000000000000000000000000000000000000000000000000
0000000001111111111111111111111111111111111111111111111111110000000000
0000000000000000000000000000000000000000000000000000000000001111111111
1111111111111111111111111111111111111111100000000000000000000000000000
0000000000000000000000000000000000000010000111111111111111111111111111
1111111111111111111111110000000000000000000000000000000000000000000000
0000000000000000000000011111111111111111111111111111111111111111111111
1111100010000000000000000000000000000000000000000000000000000000000000
0010001111111111111111111111111111111111111111111111111111000000000000
0000000000000000000000000000000000000000000000000000000101111111111111
1111111111111111111111111111111111111111000100000000000000000000000000
0000000000000000000000000000000000000010111111111111111111111111111111
1111111111111111111111000010000000000000000000000000000000000000000000
0000000000000000010011111111111111111111111111110111111111111111111111
1111000000000000000000000000000000000000000000000000000000000000000000
0001111111111111111111111110101011111111111111111111111110000000000000
0000000000000000000000000000000000000000000000000000010111111111111111
1111111101011011111111111111111111111100001000000000000000000000000000
0000000000000000000000000000000010001111111111111111111111111010110011
1111111111111111111111000000000000000000000000000000000000000000000000
0000000000000000011111111111111111111111001010101011111111111111111111
1110000000000000000000000000000000000000000000000000000000000000000000
1111111111111111111111010110001011111111111111111111111100000000000000
0000000000000000000000000000000000000000000000001001111111111111111111
1111010100100101111111111111111111111000001000000000000000000000000000
0000000000000000000000000000000001111111111111111111111110010000010111
1111111111111111111100000000000000000000000000000000000000000000000000
0000000000000011111111111111111111111001000000101111111111111111111111
1100000000000000000000000000000000000000000000000000000000000001000111
1111111111111111111100110000000111111111111111111111111000100000000000
0000000000000000000000000000000000000000000000001111111111111111111111
1001001000010101111111111111111111110000001000000000000000000000000000
0000000000000000000000000000001111111111111111111111100010000000011111
1111111111111111111000000000000000000000000000000000000000000000000000
0000000010011111111111111111111111010100000001001111111111111111111111
1000000000000000000000000000000000000000000000000000000000000000111111
1111111111111111100010000001010111111111111111111111110000000000000000
0000000000000000000000000000000000000000001001111111111111111111111000
1000000000010111111111111111111111100000000000000000000000000000000000
0000000000000000000000000001111111111111111111111100101000000101011111
1111111111111111110000100000000000000000000000000000000000000000000000
0000000101111111111111111111111010010000000001011111111111111111111111
0000000000000000000000000000000000000000000000000000000010000111111111
1111111111111010010000000001001111111111111111111111100000000000000000
0000000000000000000000000000000000000000011111111111111111111111010010
0000000000111111111111111111111111000010000000000000000000000000000000
0000000000000000000000001111111111111111111111101000100000000000111111
1111111111111111100000000000000000000000000000000000000000000000000000
0000011111111111111111111110100100000000000101011111111111111111111110
0000000000000000000000000000000000000000000000000000010001111111111111
1111111111010010000000000001011111111111111111111111000100000000000000
0000000000000000000000000000000000000011111111111111111111111001010000
0000000010111111111111111111111110000000000000000000000000000000000000
0000000000000000100001111111111111111111111100000000000000001001111111
1111111111111111000100000000000000000000000000000000000000000000000000
0011111111111111111111110101010000000000000101111111111111111111111100
0000000000000000000000000000000000000000000000000001000111111111111111
1111111001000000000000000010111111111111111111111100000000000000000000
0000000000000000000000000000000000011111111111111111111111010001000000
0000000101111111111111111111111110000100000000000000000000000000000000
0000000000000010001111111111111111111111101000000000000000010011111111
1111111111111101000000000000000000000000000000000000000000000000000011
1111111111111111111101000100000000000000001011111111111111111111111000
0000000000000000000000000000000000000000000000000001111111111111111111
1110100100000000000000001011111111111111111111111000010000000000000000
0000000000000000000000000000000011111111111111111111111000000000000000
0000000011111111111111111111111100000000000000000000000000000000000000
0000000000000001111111111111111111111101010000000000000000100111111111
1111111111111100000000000000000000000000000000000000000000000010001111
1111111111111111110000100000000000000000101011111111111111111111110000
0000000000000000000000000000000000000000000000001111111111111111111111
1000000000000000000000010111111111111111111111111000000000000000000000
0000000000000000000000000001011111111111111111111110001010000000000000
0000001111111111111111111111110000000000000000000000000000000000000000
0000000000001111111111111111111111100000000000000000000001001111111111
1111111111111000000000000000000000000000000000000000000000000011111111
1111111111111110001000000000000000000010111111111111111111111111100000
0000000000000000000000000000000000000001000001111111111111111111111100
1000000000000000000001001111111111111111111111110000000000000000000000
0000000000000000000000000101111111111111111111110000000000000000000000
0010111111111111111111111111100000000000000000000000000000000000000000
0001000011111111111111111111111110100000000000000000000000011111111111
1111111111110000000000000000000000000000000000000000000000011111111111
1111111111110000000000000000000000000111111111111111111111111111000000
0000000000000000000000000000000000000010001111111111111111111111101010
0000000000000000000000011111111111111111111111100000000000000000000000
0000000000000000001000111111111111111111111110000000000000000000000000
0011011111111111111111111110100000000000000000000000000000000000000000
0100001111111111111111111111010100000000000000000000000101111111111111
1111111111100000000000000000000000000000000000000000000101111111111111
1111111111000100000000000000000000000101011111111111111111111100000000
0000000000000000000000000000000000000011111111111111111111111010000000
0000000000000000000001111111111111111111111110000000000000000000000000
0000000000000000100101111111111111111111111000100000000000000000000000
0100111111111111111111111110000100000000001010000000000000000000000000
0111111111111111111111110100100000000000000000000000001001111111111111
1111111111000010100101000001000000000000000000000000011111111111111111
1111110000010000000000000000000000010111111111111111111111111100000001
0000001010000000000000000000000010001111111111111111111111101000000000
0000000000000000010001111111111111111111111110000001001000100100000000
0000000000000000111111111111111111111110000010000000000000000000000001
0101111111111111111111111100000000010000101000000000000000000000100001
1111111111111111111111101000000000000000000000000000101011111111111111
1111111110000010000100101000000000000000000000000111111111111111111111
1110000100000000000000000000000000010111111111111111111111110000000000
0000101000000000000000000000000011111111111111111111111101000000000000
0000000000000000001011111111111111111111111100001000000001011000000000
0000000000000111111111111111111111111000100000000000000000000000010001
0101111111111111111111111000000000000000100000000000000000000000001111
1111111111111111111000100000000000000000000000000000101111111111111111
1111111100000000000100000000000000000000000010011111111111111111111110
0000010000000000000000000000000000001111111111111111111111110001000000
0000000000000000000000000000011111111111111111111111100000000000000000
0000000000000000000111111111111111111111111000000000000000000000000000
0000000001011111111111111111111111000000000000000000000000000000000000
1111111111111111111111110000000000000000000000000000000000000001111111
1111111111111111000000000000000000000000000000000000011111111111111111
1111111100000000000000000000000000000000100111111111111111111111111110
0000000000000000000000000000000001111111111111111111111111100000000000
0000000000000000000000000011111111111111111111111110000000000000000000
0000000000000001111111111111111111111111110000000000000000000000000000
0000010111111111111111111111111111000000000000000000000000000001111111
1111111111111111111111110000000000000000000000000000000000011111111111
1111111111111111111010000011010010101101101111101111111111111111111111
1111110000000000000000000000000000000000101111111111111111111111111111
1111111111111111111111111111111111111111111111111111111111000000100000
0000000000000000000100011111111111111111111111111111111111111111111111
1111111111111111111111111111111111111111000000000000000000000000000000
0001111111111111111111111111111111111111111111111111111111111111111111
1111111111111111111111000000100000000000000000000000000001111111111111
1111111111111111111111111111111111111111111111111111111111111111111111
1111100000000000000000000000000000010111111111111111111111111111111111
1111111111111111111111111111111111111111111111111111111100000010000000
0000000000000000000011111111111111111111111111111111111111111111111111
1111111111111111111111111111111111111111000000000000000000000000000010
1111111111111111111111111111111111111111111111111111111111111111111111
1111111111111111111110000000000000000000000000000000011111111111111111
1111111111111111111111111111111111111111111111111111111111111111111111
1111000100100100000000000000000001011111111111111111111111111111111111
1111111111111111111111111111111111111111111111111111111100000000000000
0000000000001000111111111111111111111111111111111111111111111111111111
1111111111111111111111111111111111111100000010000000000000000000000111
1111111111111111111111111111111111111111111111111111111111111111111111
1111111111111111111100001000000000000000000000000011111111111111111111
1111111111111111111111111111111111111111111111111111111111111111111111
1110000000000000000000000000000111111111111111111111111111111111111111
1111111111111111111111111111111111111111111111111111110000001000000000
0000000000100011111111111111111111111111111111111111111111111111111111
1111111111111111111111111111111111111000000000000000000000000000111111
1111111111111111111111111111111111111111111111111111111111111111111111
1111111111111111111000000100000000000000000000011111111111111111111111
1111111111111111111111111111111111111111111111111111111111111111111111
1100000000000000000000000010111111111111111111111111111111111111111111
1111111111111111111111111111111111111111111111111111110000000000000000
0000000000111111111111111111111111111111111111111111111111111111111111
1111111111111111111111111111111111110000010000000000000000000111111111
1111111111111111111111111111111111111111111111111111111111111111111111
1111111111111111111000000000000000000001000011111111111111111111111111
1111111111111111111111111111111111111111111111111111111111111111111111
1000101000000000000000001011111111111111111111111111111111111111111111
1111111111111111111111111111111111111111111111111111010000001000000000
0000000111111111111111111111111111111111111111111111111111111111111111
1111111111111111111111111111111111100000000000000000000010111111111111
1111111111111111111111111111111111111111111111111111110111011111111111
1111111111111111100000000000000000000000011111111111111111111111111110
1111101011011101010101010101010101011011010111111111111111111111111111
0000000000000000000001111111111111111111111111101011010011010110010111
1101111111101101101010101101111111111111111111111111000000000000000000
0000111111111111111111111111110101011001010010010000010000010110101010
1000100101111111111111111111111111100000000000000000100111111111111111
1111111110101010100000000000000000000001111110010010001001011011111111
1111111111111110100000000000000000000111111111111111111111111010101000
1000000000000100100000001111010001000000001011111111111111111111111110
0000000000000000010111111111111111111111110101010000000000000000000000
0000111100000100010100010101111111111111111111111100000000000000001000
0111111111111111111111110010100000000000001000001010000000011110000000
0000000101111111111111111111111111000000000000000101111111111111111111
1111101001000000000000000000010000001000100000000000000000101111111111
1111111111111110000000000000100000011111111111111111111110101010000000
0000000000000000000000000000000000000000100011111111111111111111111100
0000000000001001111111111111111111111110001000000000000000100000000010
0000000100000000000000010111111111111111111111111000010000000010001011
1111111111111111111111000100000000000000000000000000100100000001001001
0000001011111111111111111111111110000000000000100111111111111111111111
1100010100000000000000001000000000000000001000000000000001011111111111
1111111111111100000100000010010111111111111111111111111001001010000000
0000000010000010000000000101000000010000000111111111111111111111111100
0000000000001111111111111111111111100000100000000010000000000000000000
0000000000000000000001011111111111111111111111110000001000000101011111
1111111111111111110100010010100000000000000000000000000000101000000000
0000000111111111111111111111111100000000000001111111111111111111111110
0001001000001000100000000000000100000010001000000000000010111111111111
1111111111111000000000001000111111111111111111111110100100010100000000
0100010000000001000000100100100000000000011111111111111111111111101000
0000000011111111111111111111111110001000001001000000000000010000000000
0000001000000000000001011111111111111111111111110000000100000111111111
1111111111111101000001000100010010000000000000000001000100000000000000
0000101111111111111111111111111000000001001111111111111111111111110010
1000000001001000100000001000000000000000000000000000000010111111111111
1111111111110000000000000111111111111111111111111000100000100000011001
0000000000000000100000000000000000000010111111111111111111111111100000
0010011111111111111111111111101010000000000101010100001000000000000000
0000000000000000000001011111111111111111111111000000000000111111111111
1111111111110001000000000000001001000000000000000000000000000000000000
0000111111111111111111111111110000000001011111111111111111111100010000
0000000000000010000000000000000000100000000000000000000101111111111111
1111111111100000010001111111111111111111111111000000000000000010000010
0000000000000000000000000010000000000101111111111111111111111110100000
0101111111111111111111111100010100000000000000000000000000000000000000
0000000000100000000010111111111111111111111111000000000111111111111111
1111111110000000000000000000000000000000000000000000000000000000000000
0001111111111111111111111111100000011111111111111111111111110000000000
0000000000000000000000000000000000000000000000000000010111111111111111
1111111111000000000111111111111111111111111001000000000000000000000000
0100000000100100000000000000000000010011111111111111111111111110000001
1111111111111111111111100010000000000000000000000001000000000000000000
0000000000000000000111111111111111111111111100001000111111111111111111
1111111000000000000100000000000000000000000001000000000000000000000001
0001111111111111111111111111000001111111111111111111111110001000000000
0000000000000000001000000000000000000000000000000000111111111111111111
1111111110000100111111111111111111111101000000000000000000000000000000
0000000000000000000000000000000000000111111111111111111111110100001111
1111111111111111111110010000000000000100000000000000000000000000000000
0000000000000001011011111111111111111111111001000111111111111111111111
1101001000000000000000000000000000000000000000000000000000000000000100
0111111111111111111111111100010111111111111111111111101001000000000000
0000000000000000000000000000000000000000000000000001101111111111111111
1111101010001111111111111111111111101000000000000000000000000000000000
0000000010010010000000000000000000010111111111111111110111101001111111
1111111111111111110010000000000000100000000000000000000000000000000000
0000000000000000101111111111111110111010101000111111111111111111111110
1000000000000000000000000000000000000000001010010000000000000000000000
0010110110101011011010101001011111111111111111110101001000000000000000
0000000000000000000000000000000100100000000000000010110101101101101010
1010000001101111111111111111011100100000000000000000000000000000000000
0001000000000000000000000000000000001000100100101010100100000101101111
1111111101100101000000000000000000000000000000000000000000000000000000
100000000000000010000000100100000000000000