P1
# CREATOR: GIMP PNM Filter Version 1.1
109 185
0000000000000000000000000000000000000000000000000000000000000000000000
0000000000000000000000000000000000000000000000000000000000000000000000
0000000000000000000000000000000000000000000000000000000000000000000000
0000000000000000000000000000000000000000000000000000000000000000000000
0000000000000000000000000100000000000001000000000000000000000000000000
0000000000000000000000000000000000000000000000000000001010101010010101
0100010001010000000000000000000000000000000000000000000000000000000000
0000000000000000000010001001010101010101001000100000100000000000000000
0000000000000000000000000000000000000000000000000000000000010100101010
1010101010101010101000000000000000000000000000000000000000000000000000
0000000000000000000000000010010110110110101010101001010101010000000000
0000000000000000000000000000000000000000000000000000000000000000010101
0110110110110101011010101010010000000000000000000000000000000000000000
0000000000000000000000000000000000010111011010101111010101010111010100
0000000000000000000000000000000000000000000000000000000000000000000000
0010110111111111101111111110110110101010000000000000000000000000000000
0000000000000000000000000000000000000000101111111111111111111110111111
1111010100000000000000000000000000000000000000000000000000000000000000
0000000101101011111111111111111111111110101111010000000000000000000000
0000000000000000000000000000000000000000000000010111111111111111111111
1111111111110101000000000000000000000000000000000000000000000000000000
0000000000000010101011111111111111111111111111111111101000000000000000
0000000000000000000000000000000000000000000000000000010111111111111111
1111111111111111111011010000000000000000000000000000000000000000000000
0000000000000000000000111011111111111111111111111111111111111000000000
0000000000000000000000000000000000000000000000000000000000011010111111
1111111111111111111111111110101000000000000000000000000000000000000000
0000000000000000000000000000010111111111111111111111111111111111111010
0000000000000000000000000000000000000000000000000000000000000000010110
1111111111111111111111111111111110110000000000000000000000000000000000
0000000000000000000000000000000000010101111111111111111111111111111111
1110110000000000000000000000000000000000000000000000000000000000000000
0110111111111111111111111111111111111111101000000000000000000000000000
0000000000000000000000000000000000000000010101111111111111111111111111
1111111111010000000000000000000000000000000000000000000000000000000000
0000000010101111111111111111111111111111111111101000000000000000000000
0000000000000000000000000000000000000000000000010101111111111111111111
1111111111111111011000000000000000000000000000000000000000000000000000
0000000000000010101111111111111111111111111111111111011010000000000000
0000000000000000000000000000000000000000000000000000010101111111111111
1111111111111111111111010000000000000000000000000000000000000000000000
0000000000000000000010101111111111111111111111111111111111110101000000
0000000000000000000000000000000000000000000000000000000000010110111111
1111111111111111111111111111101000000000000000000000000000000000000000
0000000000000000000000000000010111111111111111111111111111111111101010
0000000000000000000000000000000000000000000000000000000000000000001010
1011111111111111111111111111111111110100000000000000000000000000000000
0000000000000000000000000000000001010111111111111111111111111111111111
1010100000000000000000000000000000000000000000000000000000000000000000
0010101011111111111111111111111111111111111010000000000000000000000000
0000000000000000000000000000000000000000010111111111111111111111111111
1111111100010000000000000000000000000000000000000000000000000000000000
0000000000101011111111111111111111111111111111111000000000000000000000
0000000000000000000000000000000000000000000000011011111111111111111111
1111111111111110100000000000000000000000000000000000000000000000000000
0000000000000010010111111111111111111111111111111111110100000000000000
0000000000000000000000000000000000000000000000000000001111111111111111
1111111111111111111110010000000000000000000000000000000000000000000000
0000000000000000000000100101111111111111111111111111111111111000000000
0000000000000000000000000000000000000000000000000000000000001011111111
1111111111111111111111111111010100000000000000000000000000000000000000
0000000000000000000000000001010101111111111111111111111111111111110100
0000000000000000000000000000000000000000000000000000000000000000000101
1111111111111111111111111111111111110000000000000000000000000000000000
0000000000000000000000000000000001010101111111111111111111111111111111
1101010000000000000000000000000000000000000000000000000000000000000000
0001011111111111111111111111111111111111110100000000000000000000000000
0000000000000000000000000000000000000000001010111111111111111111111111
1111111110100000000000000000000000000000000000000000000000000000000000
0000000001010111111111111111111111111111111111110100000000000000000000
0000000000000000000000000000000000000000000000001010111111111111111111
1111111111111110110000000000000000000000000000000000000000000000000000
0000000000000001101111111111111111111111111111111111110100000000000000
0000000000000000000000000000000000000000000000000000000101011111111111
1111111111111111111111010000000000000000000000000000000000000000000000
0000000000000000000000101111111111111111111111111111111111110100000000
0000000000000000000000000000000000000000000000000000000000010101011111
1111111111111111111111111111110100000000000000000000000000000000000000
0000000000000000000000000000011111111111111111111111111111111111101010
0000000000000000000000000000000000000000000000000000000000000000000010
1111111111111111111111111111111111110100000000000000000000000000000000
0000000000000000000000000000000000011011111111111111111111111111111111
1101000000000000000000000000000000000000000000000000000000000000000000
0010011111111111111111111111111111111111111010000000000000000000000000
0000000000000000000000000000000000000000001101111111111111111111111111
1111111110001000000000000000000000000000000000000000000000000000000000
0000000000101011111111111111111111111111111111111100000000000000000000
0000000000000000000000000000000000000000000000010111111111111111111111
1111111111111111010000000000000000000000000000000000000000000000000000
0000000000000001010101111111111111111111111111111111110100000000000000
0000000000000000000000000000000000000000000000000000010111111111111111
1111111111111111111111101000000000000000000000000000000000000000000000
0000000000000000000000101011111111111111111111111111111111110100000000
0000000000000000000000000000000000000000000000000000000000011011111111
1111111111111111111111111111110000000000000000000000000000000000000000
0000000000000000000000000000101101111111111111111111111111111111111010
0000000000000000000000000000000000000000000000000000000000000000000101
1111111111111111111111111111111111110000000000000000000000000000000000
0000000000000000000000000000000000101010111111111111111111111111111111
1111100000000000000000000000000000000000000000000000000000000000000000
0000111111111111111111111111111111111111110100000000000000000000000000
0000000000000000000000000000000000000000010010111111111111111111111111
1111111111010000000000000000000000000000000000000000000000000000000000
0000000001011111111111111111111111111111111111111010000000000000000000
0000000000000000000000000000000000000000000000000101011111111111111111
1111111111111111110000000000000000000000000000000000000000000000000000
0000000000000000110111111111111111111111111111111111110000000000000000
0000000000000000000000000000000000000000000000000000010011011111111111
1111111111111111111111101000000000000000000000000000000000000000000000
0000000000000000000000011011111111111111111111111111111111110100000000
0000000000000000000000000000000000000000000000000000000000001001111111
1111111111111111111111111111101000000000000000000000000000000000000000
0000000000000000000000000000011101111111111111111111111111111111111010
0000000000000000000000000000000000000000000000000000000000000000001000
1111111111111111111111111111111111011000000000000000000000000000000000
0000000000000000000000000000000000001111111111111111111111111111111111
1111001000000000000000000000000000000000000000000000000000000000000000
0001010101111111111111111111111111111111101100000000000000000000000000
0000000000000000000000000000000000000000001011111111111111111111111111
1111111111100000000000000000000000000000000000000000000000000000000000
0000000000011011111111111111111111111111111111101100000000000000000000
0000000000000000000000000000000000000000000000001011111111111111111111
1111111111111111010000000000000000000000000000000000000000000000000000
0000000000000000001010111111111111111111111111111111011010000000000000
0000000000000000000000000000000000000000000000000000001101111111111111
1111111111111111111111100000000000000000000001000000000000000000000000
0000000000000000000000001011111111111111111111111111111111111101000000
0000000000000000000000101001010100000101000000000000000000001111111111
1111111111111111111111111111101000000000000000000000000101010100101010
1010100101000000000000000000001010111111111111111111111111111111111110
0000000000000000000000000101010101010101010010001010000000000000001010
1111111111111111111111111111111111100000000000000000000000010100101011
0101010100101010100001000000000000010101011111111111111111111111111111
1111101000000000000000000000000101011011011011110101010010100000000000
0000011111111111111111111111111111111111110100000000000000000000000010
1011111111111010111011010100101000000000000100111111111111111111111111
1111111101101000000000000000000000000010110111111111111111111110101000
0000000000101111111111111111111111111111111111111010000000000000000000
0000001010111111111111111111110111101010000000000000011111111111111111
1111111111111111101000000000000000000000000001011111111111111111111111
1101110000000000010111111111111111111111111111111111111101000000000000
0000000000000101101111111111111111111111111010100000000001011111111111
1111111111111111111111101000000000000000000000000000010111111111111111
1111111111110100000000001011111111111111111111111111111111111010000000
0000000000000000000101011101111111111111111111111111010000000001001111
1111111111111111111111111111110100000000000000000000000000010101111111
1111111111111111111011100000000001111111111111111111111111111111111101
0000000000000000000000000000011111111111111111111111111111101000000000
0101111111111111111111111111111111111010000000000000000000000000000010
1111111111111111111111111111011000000010111111111111111111111111111111
1111011000000000000000000000000000001011111111111111111111111111110100
0000000000111111111111111111111111111111111101110000000000000000000000
0000001011111111111111111111111111111110000010111111111111111111111111
1111111111111101010000000000000000000000000101111111111111111111111111
1110100000000000011111111111111111111111111111111111111010000000000000
0000000000010101111111111111111111111111111110100000010111111111111111
1111111111111111111111011111010101001000000000001011011111111111111111
1111111111110101000000000111111111111111111111111111111111111110101010
1010101101000001011011011111111111111111111111111111010000000011111111
1111111111111111111111111111111011011010110101010111010101101111111111
1111111111111111111110100000000011111111111111111111111111111111111111
1011011101011010101010111011010111111111111111111111111111111000000001
0111111111111111111111111111111111111111110110111101111101111101111111
1111111111111111111111111110101000000010111111111111111111111111111111
1111111111111111011110101110111101011111111111111111111111111111111101
0000000011111111111111111111111111111111111111111111111111111111111111
1111111111111111111111111111111111111010000001001111111111111111111111
1111111111111111111111111111111111111111111111111111111111111111111111
1111111010000001111111111111111111111111111111111111111111111111111111
1111111111111111111111111111111111111111111010100000000011111111111111
1111111111111111111111111111111111111111111111111111111111111111111111
1111111111111010000000101111111111111111111111111111111111111111111111
1111111111111111111111111111111111111111111111111111010100000010111111
1111111111111111111111111111111111111111111111111111111111111111111111
1111111111111111111111000000001011111111111111111111111111111111111111
1111111111111111111111111111111111111111111111111111111111101000000000
1011111111111111111111111111111111111111111111111111111111111111111111
1111111111111111111111111111101000000010111111111111111111111111111111
1111111111111111111111111111111111111111111111111111111111111111111101
0000000101111111111111111111111111111111111111111111111111111111111111
1111111111111111111111111111111111111000000000011111111111111111111111
1111111111111111111111111111111111111111111111111111111111111111111111
1111110100000000011111111111111111111111111111111111111111111111111111
1111111111111111111111111111111111111111111111000000001111111111111111
1111111111111111111111111111111111111111111111111111111111111111111111
1111111111111001000000000111111111111111111111111111111111111111111111
1111111111111111111111111111111111111111111111111111110000000011111111
1111111111111111111111111111111111111111111111111111111111111111111111
1111111111111111111110010000000001111111111111111111111111111111111111
1111111111111111111111111111111111111111111111111111111111111000000000
1011111111111111111111111111111111111111111111111111111111111111111111
1111111111111111111111111111101010000000111111111111111111111111111111
1111111111111111111111111111111111111111111111111111111111111111111111
0000000101011111111111111111111111111111111111111111111111111111111111
1111111111111111111111111111111111111010100000000111111111111111111111
1111111111111111111111111111111111111111111111111111111111111111111111
1111111100000000100111111111111111111111111111111111111111111111111111
1111111111111111111111111111111111111111111101000000000000001111111111
1111111111111111111111111111111111111111111111111111111111111111111111
1111111111111101000000000010101101111111111111111111111111111111111111
1111111111111111111111111111111111111111111111111111010000000000000001
0100000010010101010110111111111111111111111111111111111111111111111111
1111111111111111111110100000000000000000010101001000101010010101010101
0111111101101101111111111111111111111111111111111111111111111000000000
0000000000000000000000010010000001000000000000100101010101010011111111
1111111111111111111111111111011000000000000000000000000000000000000001
0000000101010000010000000000001001111111111111111111111111111111111101
0000000000000000000000000000000000000000000000000000000000000000100000
0000011111111111111111111111111111111100000000000000000000000000000000
0000000000000000000000000000000000000000001101111111111111111111111111
1111101010000000000000000000000000000000000000000000000000000000000000
0000000000000101111111111111111111111111111111000000000000000000000000
0000000000000000000000000000000000000000000000000000011111111111111111
1111111111111010000000000000000000000000000000000000000000000000000000
0000000000000000000000011111111111111111111111111111010000000000000000
0000000000000000000000000000000000000000000000000000000000000111111111
1111111111111111111111000000000000000000000000000000000000000000000000
0000000000000000000000000000000111111111111111111111111111111100000000
0000000000000000000000000000000000000000000000000000000000000000000010
1111111111111111111111111111101000000000000000000000000000000000000000
0000000000000000000000000000000000000101111111111111111111111111111110
0000000000000000000000000000000000000000000000000000000000000000000000
0000000111111111111111111111111111111100000000000000000000000000000000
0000000000000000000000000000000000000000000010011111111111111111111111
1111111100000000000000000000000000000000000000000000000000000000000000
0000000000000001111111111111111111111111111110000000000000000000000000
0000000000000000000000000000000000000000000000000000000111111111111111
1111111111111110000000000000000000000000000000000000000000000000000000
0000000000000000000000111111111111111111111111111111101000000000000000
0000000000000000000000000000000000000000000000000000000000000001111111
1111111111111111111111100000000000000000000000000000000000000000000000
0000000000000000000000000000001011111111111111111111111111111000000000
0000000000000000000000000000000000000000000000000000000000000000000000
1111111111111111111111111111111000000000000000000000000000000000000000
0000000000000000000000000000000000000101111111111111111111111111111110
0000000000000000000000000000000000000000000000000000000000000000000000
0000001011111111111111111111111111111110000000000000000000000000000000
0000000000000000000000000000000000000000000000101111111111111111111111
1111110000000000000000000000000000000000000000000000000000000000000000
0000000000000001111111111111111111111111111111100000000000000000000000
0000000000000000000000000000000000000000000000000000000111111111111111
1111111111111010000000000000000000000000000000000000000000000000000000
0000000000000000000000101111111111111111111111111111111000000000000000
0000000000000000000000000000000000000000000000000000000000000010111111
1111111111111111111110100000000000000000000000000000000000000000000000
0000000000000000000000000000010111111111111111111111111111111010000000
0000000000000000000000000000000000000000000000000000000000000000000001
1111111111111111111111111111111000000000000000000000000000000000000000
0000000000000000000000000000000000000001111111111111111111111111111111
0000000000000000000000000000000000000000000000000000000000000000000000
0000000101111111111111111111111111111001000000000000000000000000000000
0000000000000000000000000000000000000000000000111111111111111111111111
1111111000000000000000000000000000000000000000000000000000000000000000
0000000000000001111111111111111111111111111110100000000000000000000000
0000000000000000000000000000000000000000000000000000000111111111111111
1111111111111101000000000000000000000000000000000000000000000000000000
0000000000000000000001011111111111111111111111111111101000000000000000
0000000000000000000000000000000000000000000000000000000000000001111111
1111111111111111111111100000000000000000000000000000000000000000000000
0000000000000000000000000000010101111111111111111111111111110000000000
0000000000000000000000000000000000000000000000000000000000000000000000
0111111111111111111111111110111000000000000000000000000000000000000000
0000000000000000000000000000000000000000101111111111111111111111111100
0000000000000000000000000000000000000000000000000000000000000000000000
0000000000111111111111111111111111101110000000000000000000000000000000
0000000000000000000000000000000000000000000000000101111111111111111111
1111100000000000000000000000000000000000000000000000000000000000000000
0000000000000000001011111111111111111111110110100000000000000000000000
0000000000000000000000000000000000000000000000000000000000101010101010
1011111010100010000000000000000000000000000000000000000000000000000000
0000000000000000000000000000001010001010100001101010000000000000000000
0000000000000000000000000000000000000000000000000000000000000000010100
0000000000010100100000000000000000000000000000000000000000000000000000
0000000000000000000000000000000000000000000000000000000000000000000000
0000000000000000000000000000000000000000000000000000000000000000000000
0000000000000000000000001000000000000000000000000000000000000000000000
0000000000000000000000000000000000000000000000000000000000000000000000
0000000000000000000000000000000000000000000000000000000000000000000000
0000000000000000000000000000000000000000000000000000000000000000000000
0000000000000000000000000000000000000000000000000000000000000000000000
0000000000000000000000000000000000000000000000000000000000000000000000
0001000000000000000000000000000000000000000000000000000000000000000000
0000000000000000000000000000000000000000000000000000000000000000000000
0000000000000000000000000000010000000000000000000000000000000000000000
0000000000000100000000000000000000000000000000000000000000000000000010
0000000000000000000000000000000000000000000000000000000100000000000000
0000000000000000000000000000000000000001000000000000000000000010001000
0000000000000010000000000000000000000000000000000000000000000000000000
00000