P1
# CREATOR: GIMP PNM Filter Version 1.1
104 202
0000000000000000000000000000000000000000000000000000000000000000000000
0000000000000000000000000000000000000000000000000000000000000000000000
0000000000000000000000000000000000000000000000000000000000000000000000
0000000000000000000000000000000000000000000000000000000000000000000000
0000000000000000000000000000000000000000000000000000000000000000000000
0000000000000000000000000000000000000000000000000000000000000000000000
0000000000000000000000000000000000000000000000000000000000000000000000
0000000000000000000000000000000000000000000000000000000000000000000000
0000000000000000000000000000000000000000000000000001000000000000000000
0000000000000000000000000000000000000000000000000000000000000000000000
0001000000101010010000000000000000000000000000000000000000000000000000
0000000000000000000000000000000101010101111010101100100000000000000000
0000000000000000000000000000000000000000000000000101011110110111110101
1011010111110111000000000000000000000000101010101010110110100100001001
0100010010110101110111111110111111101111111111101010000000000001010101
1011010101101111011101101011110110101101111111111111111011011111111111
1111111111111010000000000000010111111011110110101111111111111111111111
1101111011111111111111111111111111111111111111110100000000001010110111
1111111111111011011111110111111111111111111111111111111111111111111111
1111111110101000000000000101111111111111110101111111111111111111111111
1111111111111111111111111111111111111111111110110000000000110111111111
1111111111111111111111111111111111111111111111111111111111111111111111
1111111111000000000000011011111101111101111111111111111111111111111111
1111111111111111111111111111111111111111110111000000000110111111111111
1111111111111111111111111111111111011111111111111111111111111111111111
1111111001000000000011111111111111111111111111111111111111111111111111
1111111111111111111111111111111111111111110100000000010111111111111111
1111111111111111111111111111111111111111111111111111111111111111111111
1111010100000000011111111111111111111111111111111111111111111111111111
1111111111111111111111111111111111111101010000000000111111111111111111
1111111111111111111111111111111111111111111111111111111111111111111111
1110100000000001011111111111111111111111111111111111111111111111111111
1111111111111111111111111111111111111101000000000011111111111111111111
1111111111111111111111111111111111111111111111111111111111111111111101
0100100000000101111111111111111110111111111111111111111111111111111111
1111111111111111111111111111111111011000000000001101111111111011111111
1111111111011111111110111111111111111111111111111111111111111111111110
0100000000000111111111111110111011111111110110101011001101001010101111
1111111111111111111111111111111110101000000000110111011011010110110101
1010101010101000010000010000010111111111111111111111111111111111111010
0000000000011011010101010010010100101001001000010000000000000000100111
1111111111111111111111111111111101000000000010110101010000100101000101
0010000010000101001000001000010101111111111111111111111111111110001000
0000000010101101000010000001010000100010100001010000010100010001001011
1111111111111111111111110111101010000000001011010101000010000000101001
0100001010001001000000000100100101111111111111111111111111111010100000
0000001010110101010001010100000000000010000000000100001010000000000011
1111111111111111111111111111101000000000110101000000000000000000100001
0000100100010000100000010010101001011111111111111111111011100000000000
0000101101010100000000000000000000000000000000000000000000000000100111
1111111111111111111111111101000000000010101010000000000000000000000000
0000000000000000000100010000001010110111111111111111110100100000000000
0010101010000000000000000000000000000000000000000000001000001000001001
1111111111111111111110101000000000000101000000000000000000000000000000
0000000000000000000001000000000111111111111111111111110110000000000001
0010101000000000000000000000000000000000000000000000000000001000010111
1111111111111111110101000000000000010100000000000000000000000000000000
0000000000000000000000000010101111111111111111110101100000000000000010
0101000000000000000000000000000000000000000000000000001000000010011111
1111111111111101010100000000000001010000000000000000000000000000000000
0000000000000000000000000001110111111111111110101010000000000000001001
0100000000000000000000000000000000000000000000000000000000100011111111
1111111110101000000000000000000101001000000000000000000000000000000000
0000000000000000000000011111111111111111111101010000000000000001001010
0000000000000000000000000000000000000000000000000000000000001111111111
1111101101000000000000000000010010000000000000000000000000000000000000
0000000000000000000111111111111111111111011001000000000000000100100100
0000000000000000000000000000000000000000000000000000000011111111111111
1111101000000000000000000001010000000000000000000000000000000000000000
0000000000000000011111111111111111111010001000000000000000000101010000
0000000000000000000000000000000000000000000000000010011111111111111101
0101000000000000000000001001001000000000000000000000000000000000000000
0000000000000011111111111111111111001001000000000000000000101010000000
0000000000000000000000000000000000000000000000100111111111111111110110
1000000000000000000000010100100000000000000000000000000000000000000000
0000000000011111111111111111011001000000000000000000000000101000000000
0000000000000000000000000000000000000000000100111111111111111110110100
0000000000000000000010010000000000000000000000000000000000000000000000
0000000101111111111111111010000000000000000000000000001010110000000000
0000000000000000000000000000000000000000001111111111111101111101010000
0000000000000000000101000000000000000000000000000000000000000000000000
0001111111111111111111110100000000000000000000000000000101000000000000
0000000000000000000000000000000000000000111111111111111110101000000000
0000000000000000101010000000000000000000000000000000000000000000000000
1011111111111111110100000000000000000000000000000010010100000000000000
0000000000000000000000000000000000101111111111111111111110100000000000
0000000000000001010010000000000000000000000000000000000000000000001011
1111111111111110101001000000000000000000000000000100100000000000000000
0000000000000000000000000000000001111111111111111111100000000000000000
0000000000000101001000000000000000000000000000000000000000000000111111
1111111111111100010000000000000000000000000000001010000000000000000000
0000000000000000000000000000011111111111111111011100100000000000000000
0000000000100100000000000000000000000000000000000000000000011101111111
1111111111110101000000000000000000000000000010101100000000000000000000
0000000000000000000000000101111111111111111110100000000000000000000000
0000000000100000000000000000000000000000000000000000000001111111111111
1111110101000100000000000000000000000000000101101000000000000000000000
0000000000000000000000101111111111111111110010000000000000000000000000
0000001001000000000000000000000000000000000000000000101111111111111111
1111000000000000000000000000000000000000010101000000000000000000000000
0000000000000000000011111111111111111110100000000000000000000000000000
0000010010000000000000000000000000000000000000000101111111111111111111
0101001000000000000000000000000000000001010100000000000000000000000000
0000000000000010111111111111111111010000000000000000000000000000000000
0001010010000000000000000000000000000000000000100111111111111111110101
0100000000000000000000000000000000000100100000000000000000000000000000
0000000000010111111111111111111110000000000000000000000000000000000000
0101001000000000000000000000000000000000000101111111111111111111100000
0000000000000000000000000000000000001010000000000000000000000000000000
0000001011111111111111111110111100000000000000000000000000000000000010
1010000000000000000000000000000000000000011111111111111111111100000000
0000000000000000000000000000000000010100000000000000000000000000000000
0001001111111111111111110110000000000000000000000000000000000000001101
0010000000000000000000000000000000000011111111111111111111101001000000
0000000000000000000000000000000100100000000000000000000000000000000001
0001111111111111111110110000000000000000000000000000000000000000001010
0000000000000000000000000000000000011111111111111111111101000000000000
0000000000000000000000000001010101000000000000000000000000000000000000
1111111111111111111110100000000000000000000000000000000000000000100100
0000000000000000000000000000000101111111111111111111110100000000000000
0000000000000000000000000101010100000000000000000000000000000000000011
1111111111111111111110100000000000000000000000000000000000000101001000
0000000000000000000000000000101111111111111111111111100000000000000000
0000000000000000000000000001010000000000000000000000000000000001011111
1111111111111111111010000000000000000000000000000000000000110101010000
0000000000000000000000000000111111111111111111111111010000000000000000
0000000000000000000000001010100000000000000000000000000000000000111111
1111111111111111100000000000000000000000000000000000000010101010100000
0000000000000000000000001011111111111111111111111001000000000000000000
0000000000000000000001010101010000000000000000000000000000010001111111
1111111111111110100000000000000000000000000000000000000101010100000000
0000000000000000000000001111111111111111111111110100100000000000000000
0000000000000000000010110110100000000000000000000000000010010111111111
1111111111111110000000000000100000000000000000000000010010101010000000
0000000000000000000000111111111111111111111111111010100000000000100000
0000000000000000010010101010000000000000000000000000010010111111111111
1111111111111101000000000100000000000000000000000000010101010100000000
0000000000000000000101111111111111111111111111111101000001000000000000
0000000000000000000101010100000000000000000000000000010101111111111111
1111111111111111101000000100000000000000000000000000101010010000000000
0000000000000010101111111111111111111111111111111101001000000000000000
0000000000000000001011010100000000000000000000100010101111111111111111
1111111111111111101010010100000000000000000000000001010101001000000000
0010010100010101011111111111111111111111111111111111010000000000000000
0000000000000000001010101010101010100100010101010111111111111111111111
1111111111111111011010100000000000000000000000001010101010101010101001
0010101010101101111111111111111111111111111111111111010000000000000000
0000000000000001010101010100101010101010101010111111111111111111111111
1111111111111111111101000000000000000000000000010010101010010100101010
0100101010101111111111111111111111111111111111111111010100000000000000
0000000000000001001001010010100101001010101010111111111111111111111111
1111111111111111110010000000000000000000000000100010010000100001001010
0001010101011111111111111111111111111111111111111111010000000000000000
0000000000010001000100001001000001010000010010011111111111111111111111
1111111111111111111010000000000000000000000000000001000010000000000000
0101000100100101111111111111111111111111111111111111010000000000000000
0000000000000000000000000000000000000010010010010001011111111111111111
1111111111111111101100000000000000000000000000000000000000000000000000
0000000000001010000111111111111111111111111111111101100000000000000000
0000000000000000000000000000000000000000000100001010000010111111111111
1111111111111111111000000000000000000000000000000000000000000000000000
0000000000000000000100010111111111111111111111111100100000000000000000
0000000000000000000000000000000000000000000000000000001000101111111111
1111111111111111101000000000000000000000000000000000000000000000000000
0000000000000000000010010011111111111111111111111011000000000000000000
0000000000000000000000000000000000000000000000000000000000010111111111
1111111111111011110000000000000000000000000000000000000000000000000000
0000000000000000000000000001111111111111111111111100100000000000000000
0000000000000000000000000000000000000000000000000000000000100011111111
1111111111111110100000000000000000000000000000000000000000000000000000
0000000000000000000010001010111111111111111111111001000000000000000000
0000000000000000000000000000000000000000000000000000000000000111111111
1111111111111110000000000000000000000000000000000000000000000000000000
0000000000000000000000010001111111111111111111110101000000000000000000
0000000000000000000000000000000000000000000000000000000000001011111111
1111111111111100000000000000000000000000000000000000000000000000000000
0000000000000000000000000111111111111111111111001000000000000000000000
0000000000000000000000000000000000000000000000000000000010000111111111
1111111111101000000000000000000000000000000000000000000000000000000000
0000000000000000000000010111111111111111111111010000000000000000000000
0000000000000000000000000000000000000000000000000000000000001111111111
1111111111010000000000000000000000000000000000000000000000000000000000
0000000000000000000000001111111111111111111010000000000000000000000000
0000000000000000000000000000000000000000000000000000001000011111111111
1111111110100000000000000000000000000000000000000000000000000000000000
0000000000000000000001011111111111111111010100000000000000000000000000
0000000000000000000000000000000000000000000000000000000000111111111111
1111111010000000000000000000000000000000000000000000000000000000000000
0000000000000000000111111111111111111111010000000000000000000000000000
0000000000000000000000000000000000000000000000000000000011111111111111
1111110100000000000000000000000000000000000000000000000000000000000000
0000000000000000001111111111111111111011000000000000000000000000000000
0000000000000000000000000000000000000000000000000000001111111111111111
1101100000000000000000000000000000000000000000000000000000000000000000
0000000000000001011111111111111111111101000000000000000000000000000000
0000000000000000000000000000000000000000000000000000111111111111111111
1101000000000000000000000000000000000000000000000000000000000000000000
0000000000000101111111111111111111111000000000000000000000000000000000
0000000000000000000000000000000000000000000000000011111111111111111111
0100000000000000000000000000000000000000000000000000000000000000000000
0000000000000111111111111111111111010000000000000000000000000000000000
0000000000000000000000000000000000000000000000001111111111111111111101
0000000000000000000000000000000000000000000000000000000000000000000000
0000000001010111111111111111111110000000000000000000000000000000000000
0000000000000000000000000000000000000000000000111111111111111111111101
0000000000000000000000000000000000000000000000000000000000000000000000
0000000010111111111111111111110010000000000000000000000000000000000000
0000000000000000000000000000000000000000000001111111111111111111100000
0000000000000000000000000000000000000000000000000000000000000000000000
0000001011111111111111111111101000000000000000000000000000000000000000
0000000000000000000000000000000000000000001111111111111111111110000000
0000000000000000000000000000000000000000000000000000000000000000000000
0000101111111111111111111101000000000000000000000000000000000000000000
0000000000000000000000000000000000000000011111111111111111110100000000
0000000000000000000000000000000000000000000000000000000000000000000000
0010111111111111111111111001000000000000000000000000000000000000000000
0000000000000000000000000000000000000001111111111111111111110000000000
0000000000000000000000000000000000000000000000000000000000000000000001
0111111111111111111111000000000000000000000000000000000000000000000000
0000000000000000000000000000000000000111111111111111111110100000000000
0000000000000000000000000000000000000000000000000000000000000000000010
1111111111111111111110000000000000000000000000000000000000000000000000
0000000000000000000000000000000010111111111111111111011100000000000000
0000000000000000000000000000000000000000000000000000000000000000000111
1111111111111111110001000000000000000000000000000000000000000000000000
0000000000000000000000000000000011111111111111111111100000000000000000
0000000000000000000000000000000000000000000000000000000000000001011111
1111111111111101000000000000000000000000000000000000000000000000000000
0000000000000000000000000000011111111111111111111101000000000000000000
0000000000000000000000000000000000000000000000000000000000000101111111
1111111111111010000000000000000000000000000000000000000000000000000000
0000000000000000000000000101111111111111111111111010000000000000000010
0000000000000000000000000000000000000000000000000000000000001111111111
1111111111010100000000000010111001111111100000000000000000000000000000
0000000000000000000000101111111111111111111111101000000010110110111010
1010100000000000000000000000000000000000000000000000000010111111111111
1111111100000000010010011111111111011111110000000000000000000000000000
0000000000000000000011111111111111111111011110100000001011011011111111
1101000000000000000000000000000000000000000000000000010111111111111111
1111110100000000100101111111111111111111010000000000000000000000000000
0000000000000000101111111111111111111111111000000001101111111111111111
1111010000000000000000000000000000000000000000000010111111111111111111
1111100000000000101111111111111111111110100000000000000000000000000000
0000000000000011111111111111111111111111010000001011111111111111111111
1111010000000000000000000000000000000000000000111111111111111111111111
1100000000001000111111111111111111111110100000000000000000000000000000
0000000010001111111111111111111111101000000000011011111111111111111111
1101010000000000000000000000000000000000001111111111111111111111111101
0010000000001011111111111111111111111110100000000000000000000000000000
0000001011111111111111111111111101000000000001010111111111111111111111
1111100000000000000000000000000000001011111111111111111111111110110100
0000000000010111111111111111111111111111010000000000000000000000000000
0100111111111111111111111111110010000000000110111111111111111111111111
1101110100000000000000000000001011111111111111111111111111111100100000
0000000000011111111111111111111111111111101010000000000000000000101101
1111111111111111111111111110000000000000001010111111111111111111111111
1111111110100000000000010111011111111111111111111111111111110100000000
0000000010111111111111111111111111111111111111111110111011011111111111
1111111111111111111111011010000000000000001010111111111111111111111111
1111111111110111111101111111111111111111111111111111111110000000000000
0000000001111111111111111111111111111111111111111011111111111111111111
1111111111111111111110101000000000000010010101111111111111111111111111
1111111111111111111111111111111111111111111111111111010100000000000000
0000000010101111111111111111111111111111111111111111111111111111111111
1111111111111111010000000000000000000000100101111111111111111111111111
1111111111111111111111111111111111111111111111111100100000000000000000
0000000101011111111111111111111111111111111111111111111111111111111111
1111111111111010010000000000000000010010000111111111111111111111111111
1111111111111111111111111111111111111111111110100000000000000000000000
0000100000111111111111111111111111111111111111111111111111111111111111
1111111110100001000000000000000000000000101101111111111111111111111111
1111111111111111111111111111111111111111101000100000000000000000000000
0000000100111111111111111111111111111111111111111111111111111111111111
1111110100001000000000000000000000000010101010111111111111111111111111
1111111111111111111111111111111111111010001000000000000000000000000000
0000000010101111111111111111111111111111111111111111111111111111111111
0101000000000000000000000000000000000000100101011111111111111111111111
1111111111111111111111111111111111010000001000000000000000000000000000
0000000001101111111111111111111111111111111111111111111111111111110100
0010000000000000000000000000000000000001001001101111111111111111111111
1111111111111111111111111111010001000000000000000000000000000000000000
0000000001011111111111111111111111111111111111111111111111111100100000
0000000000000000000000000000000000000000010001011111111111111111111111
1111111111111111111111010010000000000000000000000000000000000000000000
0000001000000111111111111111111111111111111111111111101101000000100000
0000000000000000000000000000000000000000000010101111111111111111111111
1111101011111111011000001000000000000000000000000000000000000000000000
0000000010000010111111111111111111010000000100101010000000000000000000
0000000000000000000000000000000000000000000001010101110110101000000000
0100100010001000000000000000000000000000000000000000000000000000000000
0000000000000010001011010110100101000010101010000101010000000000000000
0000000000000000000000000000000000000000000100000010000010010001000010
1000000000000000000000000000000000000000000000000000000000000000000000
0000000000100001000010001000100010001000000000000000000000000000000000
0000000000000000000000000000000000000000000000000000000000001000000000
0000000001000100000000000000000000000000000000000000000000000000000000
0000000000000000000000000000001000000000000000000000000000000000000000
0000000000000000000000000000000000000000000000000000000000000000000000
0000000000000000000000000000000000000000000000000000000000000000000000
0000000000000000000000000000000000000000000000000000000000000000000000
00000000