P1
# CREATOR: GIMP PNM Filter Version 1.1
113 196
0000000000000000000000000000000000000000000101010101010110101010101000
0000000000000000000000000000000000000000000000000000000000000000000000
0000000000000101010110110111011111110101101010000000000000000000000000
0000000000000000000000000000000000000000000000000000000101011110111110
1110101111110110101101000000000000000000000000000000000000000000000000
0000000000000000000000000010101110111110111111111011011111110110101000
0000000000000000000000000000000000000000000000000000000000000000101110
1111011111011111111111111110110111111110101000000000000000000000000000
0000000000000000000000000000000000000101010101111111111111111111111111
1111111110111110110000000000000000000000000000000000000000000001000000
0000000101011111111111111111111111111111111111111111111101101010000000
0000000000000000000000000000000000000000000000000001011011111111111111
1111111111111111111111111111111111010000000000000000000000000000000000
0000000000000000000010111111111111111111111111111111111111111111111111
1111111111010000000000000000000000000000000000000000000000000001101010
1111111111111111111111111111111111111111111111111111110100000000000000
0000000000000000000000000000000001101011111111111111111111111111111111
1111111111111111111111111111010000000000000000000000000000000000000000
0000100111111111111111111111111111111111111111111111111111111111111111
1111100000000000000000000000000000000000000000101110110111111111111111
1111111111111111111111111111111111111111111111010000000000000000000000
0000000000000000000010111111111111111111111111111111111111111111111111
1111111111111111111111100000000000000000000000000100000000001110111111
1111111111111111111111111111111111111111111111111111111111111111110100
0000000000000000000000000000000100011101111111111111111111111111111111
1111111111111111111111111111111111111111100000000000000000000000000000
0000011111111111111111111111111111111111111111111111111111111111111111
1111111111111110000000000000000000000000000000010110111111111111111111
1111111111111111111111111111111111111111111111111111111111110000000000
0000000000000000001011111111111111111111111111111111111111111111111111
1111111111111111111111111111111101000000000000000010000000001010101111
1111111111111111111111111111111111111111111111111111111111111111111111
1111111000000000000000000000000001011111111111111111111111111111111111
1111111111111111111111111111111111111111111111111110000000000000000000
0000101011111111111111111111111111111111111111111111111111111111111111
1111111111111111111111111000000000000010000000010111111111111111111111
1111111111111111111111111111111111111111111111111111111111111111110110
0000000000000000001010111111111111111111111111111111111111111111111111
1111111111111111111111111111111111111111111000000000001000000011111111
1111111111111111111111111111111111111111111111111111111111111111111111
1111111111111101000000000000000001001011111111111111111111111111111111
1111111111111111111111111111111111111111111111111111111111110000000000
0000000111111111111111111111111111111111111111111111111111111111111111
1111111111111111111111111111111111000000010000001000111111111111111111
1111111111111111111111111111111111111111111111111111111111111111111111
1111111100000000001010111111111111111111111111111111111111111111111011
1111011111111111111111111111111111111111111111111010000000000000010111
1111111111111111111111111111111111111011010010101010111111111111111111
1111111111111111111111111000000000101111111111111111111111111111111111
1111101010101010101010101101111111111111111111111111111111111111111000
0000000100101111111111111111111111111111111111111101010101000101010101
0101111111111111111111111111111111111111100000000001101111111111111111
1111111111111111110100010100010010000001010101101111111111111111111111
1111111111111110000001000111111111111111111111111111111111111011010000
1000000000100001010101011111111111111111111111111111111111100000010110
1111111111111111111111111111111101010000100001000001000101000101110111
1111111111111111111111111111111000000001011111111111111111111111111111
1111101010100010000000000100000100100011011111111111111111111111111111
1111110001010111111111111111111111111111111110101000000000000000000000
0000000010101101111111111111111111111111111111110000010101111111111111
1111111111111111111010101010000000000000001000001000010011011111111111
1111111111111111111111100010111111111111111111111111111111110101000000
0101000000000000000000001001010101111111111111111111111111111111100000
1011111111111111111111111111111111100100000000000000000000000000000000
0101010111111111111111111111111111111110011011111111111111111111111111
1111010010000000101000000000000000000000000001010101111111111111111111
1111111111101000101111111111111111111111111111111010100000000000000000
0000000000000001000101010111111111111111111111111111111001111111111111
1111111111111111111010100000000000100000000000000000000000001010101101
1111111111111111111111111111010010111111111111111111111111111101010100
0000000000000000000000000000000000001010101111111111111111111111111111
1101111111111111111111111111111111010100000000000000000000000000000000
0000001010010111111111111111111111111111111100010111111111111111111111
1111111010101000000000000000000000000000000000000000010100011111111111
1111111111111111110101111111111111111111111111111101010000000000000000
0000000000000000000000010101011111111111111111111111111111111010111111
1111111111111111111111100010100000000000000000000000000000000000000100
1000101111111111111111111111111111101111111111111111111111111111010101
0000000000000000000000000000000000000000010100101111111111111111111111
1111111010111111111111111111111111111010100100000000000000000000000000
0000000000000010010010111111111111111111111111111110111111111111111111
1111111111101001000000000000000000000000000000000000000100100101011111
1111111111111111111111101011111111111111111111111111110100010000000000
0000000000000000000000000000010101001011111111111111111111111111110110
1111111111111111111111111110000000000000000000000000000000000000000000
1001000101011111111111111111111111111110011111111111111111111111111111
1101010000000000000000000000000000000000000010011000010111111111111111
1111111111111111111111111111111111111111110000001000000000000000000000
0000000000000000001000101011111111111111111111111111111000111111111111
1111111111111111101001000000000000000000000000000000000000000101000100
1111111111111111111111111111111111111111111111111111111111101000010000
0000000000000000000000000000000100010010011011111111111111111111111111
1000111111111111111111111111111101010010100000000000000000000000000000
0000010010000001111111111111111111111111111111111111111111111111111111
1111110000000010000000000000000000000000000000000100010010101111111111
1111111111111111100011111111111111111111111111111010010100100000000000
0000000000000000000100100000010111111111111111111111111111111110111111
1111111111111111111111000000010000000000000000000000000000001000100000
0001111111111111111111111111111110011111111111111111111111111111111010
0001010000000000000000000001010000010001000000011111111111111111111111
1111111010111111111111111111111111111100000000000000000000000000001010
0000100000100001011111111111111111111111111111111010111111111111111111
1111111111111000000001000000000001000000001010000010000000000001111111
1111111111111111111111010101111111111111111111111111111010000000000000
0000100001001000100101000000000011111111111111111111111111111111101011
1111111111111111111111111111101000000010000000000000000010000000000000
0000000111111111111111111111111111111100101111111111111111111111111111
1110000000000001000000000100000101001000000000011101111111111111111111
1111111111101010111111111111111111111111111111110000000000000000000001
0000000000000000000001111111111111111111111111111111110101111111111111
1111111111111111111100000000000000000100000010000000000000000101101111
1111111111111111111111111101000101111111111111111111111111111111100000
0000000000000000000010000000000000101111111111111111111111111111111111
0101011111111111111111111111111111111101000000000000000000001000000000
0000001111111111111111111111111111111111110000101011111111111111111111
1111111111111000000000000000000000000000000000010010111111111111111111
1111111111111111010101111111111111111111111111111111111101000000000000
0000000000000000000011111111111111111111111111111111111111000010010111
1111111111111111111111111111110100000000000000000000000000000101011111
1111111111111111111111111111111101001011111111111111111111111111111111
1111110100000000000000000000000111011111111111111111111111111111111111
1110100101010111111111111111111111111111111111111111010000000000000000
0101001111111111111111111111111111111111111111010001010101111111111111
1111111111111111111111101101010000000000010101111110111111111111111111
1111111111111111111100000101101111111111111111111111111111111111111111
1011101101101101110101111111111111111111111111111111111111111111000100
1011111111111111111111111111111111111111111111111011111011111111111111
1111111111111111111111111111111111100000010010011111111111111111111111
1111111111111111111111111011110111111111111111111111111111111111111111
1111111110000001010110111111111111111111111111111111111111111111111111
1111111111111111111111111111111111111111111111111110100000000101111111
1111111111111111111111111111111111111111111111111111111111111111111111
1111111111111111111111111000000101010111111111111111111111111111111111
1111111111111111111111111111111111111111111111111111111111111111110010
0000000100101111111111111111111111111111111111111111111111111111111111
1111111111111111111111111111111111111111100000001010101011111111111111
1111111111111111111111111111111111111111111111111111111111111111111111
1111111111110010000000000101011111111111111111111111111111111111111111
1111111111111111111111111111111111111111111111111111111100000000001010
1010111111111111111111111111111111111111111111111111111111111111111111
1111111111111111111111111110101000000000000101101111111111111111111111
1111111111111111111111111111111111111111111111111111111111111111111111
1010000000000010010110111111111111111111111111111111111111111111111111
1111111111111111111111111111111111111111111010000000000000001001011111
1111111111111111111111111111111111111111111111111111111111111111111111
1111111111111111101000000000000000110110111111111111111111111111111111
1111111111111111111111111111111111111111111111111111111111101010000000
0000000001011011111111111111111111111111111111111111111111111111111111
1111111111111111111111111111111110100000000000000010101011111111111111
1111111111111111111111111111111111111111111111111111111111111111111111
1111010100000000000000000010101011111111111111111111111111111111111111
1111111111111111111111111111111111111111111111101010000000000000000010
1010111111111111111111111111111111111111111111111111111111111111111111
1111111111111111111110000000000000000000000010101011111111111111111111
1111111111111111111111111111111111111111111111111111111111111111101000
0000000000000000100101010111111111111111111111111111111111111111111111
1111111111111111111111111111111111010100000000000000000000000000101010
1111111111111111111111111111111111111111111111111111111111111111111111
1111111110101000000000000000000000000010101111111111111111111111111111
1111111111111111111111111111111111111111111111111101010000000000000000
0000000001000100101111111111111111111111111111111111111111111111111111
1111111111111111111111110101000000000000000000000000000001001010111111
1111111111111111111111111111111111111111111111111111111111111111110101
0000000000000000000000000000001001010101111111111111111111111111111111
1111111111111111111111111111111111111111100100000000000000000000000000
0000000101010110111111111111111111111111111111111111111111111111111111
1111111111101010000000000000000000000000000000000000101001101011111111
1111111111111111111111111111111111111111111111111111111010100000000000
0000000000000000000000000001010010101011111111111111111111111111111111
1111111111111111111111111110101000000000000000000000000000000000000000
0010010101010101011011111111111111111111111111111111111111111111111111
1100100000000000000000000000000000000000000000000101010101011010101010
1111111111111111111111111111111111111111101001000000000000000000000000
0000000000000000000000000001010101010101010101010111111111111111111111
1111111111111111110100000000000000000000000000000000000000000000000100
0000101010101010101010111111111111111111111111111111111110100100000000
0000000000000000000000000000000000000000000010000001000010101011000111
1111111111111111111111111111111101010000000000000000000000000000000000
0000000000000000000010010010001010101011011111111111111111111111111111
1110101000000000000000000000000000000000000000000000000000000000000000
1000001001001011111111111111111111111111111111101010000000000000000000
0000000000000000000000000000000000000000000001010010010101111111111111
1111111111111111110101000000000000000000000000000000000000000000000000
0000000000000000000010001000010111111111111111111111111111111101010000
0000000000000000000000000000000000000000000000000000000000100000101001
0101111111111111111111111111111110110000000000000000000000000000000000
0000000000000000000000000000000000100100000010111111111111111111111111
1111111011100000000000000000000000000000000000000000000000000000000000
0000000010010100101111111111111111111111111111111010000000000000000000
0000000000000000000000000000000000000000000000001000100000010011111111
1111111111111111111111011010000000000000000000000000000000000000000000
0000000000000000000000001001010001111111111111111111111111111110110010
0000000000000000000000000000000000000000000000000000000000000000000010
0001010111111111111111111111111111111101010000000000000000000000000000
0000000000000000000000000000000000000010000100010111111111111111111111
1111111110101000000000000000000000000000000000000000000000000000000000
0000000000000100010010111111111111111111111111111111101010000000000000
0000000000000000000000000000000000000000000000000000100000000010111111
1111111111111111111111110110100000000000000000000000000000000000000000
0000000000000000000000000001001000101011111111111111111111111111111110
1000000000000000000000000000000000000000000000000000000000000000000001
0000010101111111111111111111111111111111010100000000000000000000000000
0000000000000000000000000000000000000000000000000010111111111111111111
1111111111111010100000000000000000000000000000000000000000000000000000
0000000000000010010001011111111111111111111111111111111010000000000000
0000000000000000000000000000000000000000000000000000000000000000100111
1111111111111111111111111111011010000000000000000000000000000000000000
0000000000000000000000000000101000100011111111111111111111111111111111
0100100000000000000000000000000000000000000000000000000000000000000000
0000100001010111111111111111111111111111111111000000000000000000000000
0000000000000000000000000000000000000000000000000101011111111111111111
1111111111111101000100000000000000000000000000000000000000000000000000
0000000000000000010100001001111111111111111111111111111111101010000000
0000000000000000000000000000000000000000000000000000000000000000101011
1111111111111111111111111111110101000000000000000000000000000000000000
0000000000000000000000000000001000000001010111111111111111111111111111
1110101000000000000000000000000000000000000000000000000000000000000000
0000000000010111111111111111111111111111111110101000000000000000000000
0000000000000000000000000000000000000000000000000000001011111111111111
1111111111111111111101000000000000000000000000000000000000000000000000
0000000000000000000000000010111111111111111111111111111111110101000000
0000000000000000000000000000000000000000000000000000000000000000000000
1011111111111111111111111111111111010000000000000000000000000000000000
0000000000000000000000000000000100100000110111111111111111111111111111
1111101010000000000000000000000000000000000000000000000000000000000000
0000000000000011011111111111111111111111111111110101000000000000000000
0000000000000000000000000000000000000000000000100000001010111111111111
1111111111111111111101010000000000000000000000000000000000000000000000
0000000000000000000000000000010111111111111111111111111111111111100100
0000000000000000000000000000000000000000000000000000000000001001000001
0111111111111111111111111111111111010010000000000000000000000000000000
0000000000000000000000000000000000000000000101011111111111111111111111
1111111110100000000000000000000000000000000000000000000000000000000000
0000010000000010111111111111111111111111111111111101000000000000000000
0000000000000000000000000000000000000000000000000000000000101111111111
1111111111111111111111110110000000000000000000000000000000000000000000
0000000000000000000000000001010111111111111111111111111111111111010100
0000000000000000000000000000000000000000000000000000000000000010000000
0101011111111111111111111111111111111110100000000000000000000000000000
0000000000000000000000000000000000000000000010111111111111111111111111
1111111110101000000000000000000000000000000000000000000000000000000000
0000001000000010010111111111111111111111111111111111101010000000000000
0000000000000000000000000000000000000000000000000000000000101111111111
1111111111111111111111110110000000000000000000000000000000000000000000
0000000000000000000100010000001010111111111111111111111111111111111101
1000000000000000000000000000000000000000000000000000000000000000000000
1010111111111111111111111111111111111110100000000000000000000000000000
0000000000000000000000000000000001000000000001010111111111111111111111
1111111111110110100000000000000000000000000000000000000000000000000000
0001000000000000101011111111111111111111111111111111110100000000000000
0000000000000000000000000000000000000000000000000100000000010111111111
1111111111111111111111111111101000000000000000000000000000000000000000
0000000000000000000100000000001011111111111111111111111111111111111010
1010000000000000000000000000000000000000000000000000000000000000000000
0000100111111111111111111111111111111111110100000000000000000000000000
0000000000000000000000000000000000001000000001011111111111111111111111
1111111111111010101000000000000000000000000000000000000000000000000000
0000001000000000001011111111111111111111111111111111111110100000000000
0000000000000010000000000000000000000000000000000000000000011011111111
1111111111111111111111111110101000000000000000000000000000000000000000
0000000000000000000000000000000001101111111111111111111111111111111111
1110100000000000000000000000000000000000000000000000000000000001000000
0001111111111111111111111111111111111111101000100000000000000000000000
0000000000000000000000000000000000000000000010001011111111111111111111
1111111111111101110000000000000000000000000000000000000000000000000000
0000000000000000001111111111111111111111111111111111111111000100000000
0000000000000000000000000000000000000000000000000000000000101010111111
1111111111111111111111111111101110000000000000000000000000000000000000
0000000000000000000000000000001010111111111111111111111111111111111111
1110000000000000000000000000000000000000000000000000000000000010000000
0000011111111111111111111111111111111111111101101000000000000000000000
0000000000000000000000000000000000000000000011111011111111111111111111
1111111111111110101000000000000000000000000000000000000000000000000000
0010010000000000000011111111111111111111111111111111111111110100000000
0000000000000000000000000000000000000000000100000000000000101111111111
1111111111111111111111111111101001000000000000000000000000000000000000
0000000000000000001000000000001010111111111111111111111111111111111111
1101101000000000000000000000000000000000000000000000000001000000000000
0001011111111111111111111111111111111111111111000000000000000000000000
0000000000000000000000000000000000000000000001011011111111111111111111
1111111111111111101101000000000000000000000000000000000000000000000000
0000000000000000110111111111111111111111111111111111111111011001000000
0000000000000000000000000000000000000000000010000000000001001101111111
1111111111111111111111111111111101100000000000000001000000000000000000
0000000000000000000000000000001011111111111111111111111111111111111111
1110100001000000000000000001000000000000000000000000000000000000000000
0101101111111111111111111111111111111111111111011100000000000000000000
0000000000000000000000000000000000000000000101111111111111111111111111
1111111111111111101010000000000000000000000000000000000000000000000000
0000000000000000101011111111111111111111111111111111111111111010000000
0000000000000000000000000000000000000000000000000000000011111111111111
1111111111111111111111111111110101000000000000000000000001000000000000
0000000000000000000000000000000010111111111111111111111111111111111111
1111101010000000000000000000000000000000000000000000010000000000000001
0111111111111111111111111111111111111111111110101000000000000000000000
0000000000000000000000000000000000000000001011111011111111111111111111
1111111111111111111010100000000000000000000000000000000000000000000000
0000000000001011111111111111111111111111111111111111111111010010000000
0000000000000000000000000000000000000000000000000010000101011011111111
1111111111111111111111111111111111101010000000000000000000000000000000
0000000000000000000010000110111111111111111111111111111111111111111111
1101000000000000000000000000000000100000000000000000000000000000010010
1011011111111111111111111111111111111111111111111101000000000000000000
0000000000000000000000000000000000010101010111111110111111111111111111
1111111111111111101000000000000000000000000000000000000000000000000000
0000000000001011011111111111111111111111111111111111111110110110101000
0000000000000000000000100000000000000000000000000001010101111011111111
1111111111111111111111111111111101001000000000000000000000000000000000
0000000000000000000000000010101011110110111111111111111111111111111111
1110110100000000000000000000000000000001000000000000000000000000000010
0101010111111111111111111111111111111111111010100100000000000000000000
0000000000000000000000000000000000000000000001010101010101011011011111
1111111111101101101010000000000000000000000000000000000000000000000000
0000000000000001000101010010101010101010001001010101011010100010010000
0000000000000000000000000000000000000000000000000000000000010000001001
0010001001001100100010101000010010000000000000000000000000000000000000
0000000000000000000000000000