P1
# CREATOR: GIMP PNM Filter Version 1.1
121 163
0000000000000000000000000000000000000000000000000000000000000000000000
0100010000000000000000000000000000000000000000000000010001000100100001
0001001000100000000000000000000010101001010101010100010001000000000000
0000000000000000000000000000000000001000000000001000000000000000100100
1000000000100000001011111111111111000000100000000001001001001001000100
1001001001000000000100100100000010010001000000000000000000100001011111
1011011011101111111000001010000000000000000000000000000000000000000000
0000000000000000000000010000000000000100010101101101110111110111011111
1110000001000000000000000010000000000000000000100100000001001000000010
0000000100000001000001011111111111111111111111111010111110000000000010
0000000000010000000000100000000010010000000001000000000000000000000010
1011101110111111111111111111111111011111000010000000001000000000001000
0000000000000000000000000000000100010000000100100101101111111111111111
1111111111111111110011100000000000000001000000000010000000000000001000
1000000001000000000000000000101111111111111111111111111111111111111111
1110110000000000000000000000000000000000100100000000000100000000000000
0000001010101011111111111111111111111111111111111111111011100000000000
0001000000000000000000000000000001000000000000000000001000111111111111
1111111111111111111111111111111111111101100010000000000000000000001000
0000000000100000000000000000000000001010111111111111111111111111111111
1111111111111111111011100000000000000010000000000000000100100000000001
0000100000000001001111111111111111111111111111111111111111111111111111
1111100001000000000000000000000000000000000000000000000000000001000101
0111111111111111111111111111111111111111111111111111111111000000000000
0000000000000000000000000000000000000000000000101111111111111111111111
1111111111111111111111111111111111111010000000000000000000000000000000
0000000100000000000000000000111111111111111111111111111111111111111111
1111111111111111111111000000000000000000000000000000010000000010000000
0000101111111111111111111111111111111111111111111111111111111111111111
1101000000000000000000000000100000000000000000000000000000101111111111
1111111111111111111111111111111111111111111111111111111100000000010000
0000000000000000000000000000000000100111111111111111111111111111111111
1111111111111111111111111111111111110100000000000000000000000000000000
0000000000000000101111111111111111111111111111111111111111111111111111
1111111111111111111100000000000000000000000000001000000000000000000011
1111111111111111111111111111111111111111111111111111111111111111111110
1100000000000000000000000000000000000000000000010111111111111111111111
1111111111111111111111111111111111111111111111111111100000000000000000
0000010000000000000000000111111111111111111111111111111111111111111111
1111111111111111111111111111111101000000000000000000000000000000000000
0000000011111111111111111111111111111111111111111111111111111011111101
1111111111111111000000000000000000000000000000000000000011111111111111
1111111111111111111111010000000101111111111111111111101111111111111000
0000000000000000000000000000000000000001111111111111111111111111111101
0000010101000000011111111101111111111111111111111000000000000000000000
0000000000000000011111111111111111111111111111110100101001001010100000
1111111111111111111111111111111000000000000000000000000000000000000001
1111111111111111111111111101000100010010000100110100001111111111111111
1111111111111000000000000000000000000000000000001111111111111111111111
1111111001010010000000000000000000001111111101111110111111111110100000
0000000000000000000000000000001111111111111111111111111010100010000000
0000000001011010000111111111111111101111111110000000000000000000000000
0000000011111111111111111111111111110000100000000000000000000000010000
0111111111111111111111111111000000000000000100000000000000001111111111
1111111111111110101000000000000000000000000000010100011111101111111111
1011111110000000000000000000000000000000111111111111110111111111100000
1000000000000000000000000000000000011111111101111111111111110000000000
0000000000000000000101110111111111111111111110101000100000000000000000
0000000000001000011111111111111111111111110000000000000000000000000000
1111111111111111111111110100000000000000000000000000000000000000000000
1111111111111111101111110000000000000000000000000001011111111111111111
1111101010100000000000000000000000000000000001000001110111111111111111
1111100000000000000000000000000111111111111111111111111010000000000000
0000000000000000000000000000000001111111101111111111111110000000000000
0000000000000111111111111111111111110001000000000000000000000000000000
0000000001000001110111111111111111111100000000000000000000000011111111
1111111111111110001000000000000000000000000000000000000000000000000111
1111111111111111111100000000000000000000000011111111111111111111111000
0100000000000000000000000000000000000000000000001111110111011101111111
1000000000000000000000011111111111111111111111000000000000000000000000
0000000000000000000000000100000111111111111111111111100000000000000000
0010111111111111111111110101001000000000000000000000000000000000000000
0000000000011111111111111111111110000000000000000000001111111111111111
1111110000100000000000000000000000000000000000000000000000000011111111
1111111011111110000000000000000000111111111111111111111101000000000000
0000000000000000000000000000000000000000000011110111111111111111110000
0000000000000001111111111111111111111000100000000000000000000000000000
0000000000000000000000000011111101111111110111110000000000000000001111
1110111111111111110000000000000000000000000000000000000000000000000000
0000000111111111111111111111100000000000000001111111111111111111111000
0000000000000000000000000000000000000000000000000000000000011111111011
1111111111000000000000000001101111111111111111111001000000000000000000
0000000000000000000000000000000000000000111111111111111111111100000000
0000000111111111111111111111100000000000000000000000000000000000000000
0000000000000000000000111111111111111111111000000000000000011111111111
1111111110100000000000000000000000000000000000000000000000000000000000
0001101111111111111111110000000000000011111111111111111011110000000000
0000000000000000000000000000000000000000000000000000000111111111111111
1111110000000000000011111111111111111111010000000000000000000000000000
0000000000000000000000000000000000001110111110111111111110000000000000
1111111111111111111110001000000000000000000000000000000000000000000000
0000000000000000011111111111111111111110000000000001111111111111111111
1110000000000000000000000000000000000000000000000000000000000000000001
1111111111111111111000000000000111111111111111111111000000000000000000
0000000000000000000000000000000000000000000000000011111111111011111111
1000000000000111110111111111111111000000000000000000000000000000000000
0000000000000000000000000000000011011111111111111111000000000001111111
1111111111111000000000000000000000000000000000000000000000000000000000
0000000000000111111011111111111111000000000011111111111111111111100000
0000000000000000000000000000000000000000000000000000000000000000111111
1111111111111110000000001111111111111111111110000000000000000000000000
0000000000000000000000000000000000000000000001111111111110111111110000
0000001111111111111111111110000000000000000000000000000000000000000000
0000000000000000000000000001111111111111111111100000000011111111111111
1011110000000000000000000000000000000000000000000000000000000000000000
0000000011111111111111111111100000001111111111111111111110000000000000
0000000000000000000000000000000000000000000000000000000000011110111111
1111111110000000111111111111111111111000000000000000000000000000000000
0000000000000000000000000000000000000001111111111111110111110000000011
1111111111111111110000000000000000000000000000000000000000000000000000
0000000000000000000001111111111111111111100000001111111111111111111100
0000000000000000000000000000000000000000000000000000000000000000000000
0011111111111111111111100000011111111111111111111100000000000000000000
0000000000000000000000000000000000000000000000000000001111101111111111
1111000000111111111111111111110000000000000000000000000000000000000000
0000000000000000000000000000000000111111111111111111111000000111111111
1111111111110000000000000000000000000000000000000000000000000000000000
0000000000000000111111101111111111110000001111111111111111111000000000
0000000000000000000000000000000000000000000000000000000000000000000111
1111111111111111100000011111111111111111111000000000000000000000000000
0000000000000000000000000000000000000000000000001101111111111111111100
0001111111111111111111100000000000000000000000000000000000000000000000
0000000000000000000000000000001111111111111111111100000111111111111111
1111100000000000000000000000000000000000000000000000000000000000000000
0000000000111111110111111111111000011111111111111111111000000000000000
0000000000000000000000000000000000000000000000000000000000000011111111
1111111111100000111111111111111111110000000000000000000000000000000000
0000000000000000000000000000000000000000000111111111111111111110000111
1111111111111111100000000000000000000000000000000000000000000000000000
0000000000000000000000001111111111111011111100001111111111111111111100
0000000000000000000000000000000000000000000000000000000000000000000000
0000011011111111111111111000011111111111111111111000000000000000000000
0000000000000000000000000000000000000000000000000000000011111111111111
1111110000111111111111111111110000000000000000000000000000000000000000
0000000000000000000000000000000000000111111101111111111110000111111111
1111111111100000000000000000000000000000000000000000000000000000000000
0000000000000000001111111111111111111100001111111111111111111000000000
0000000000000000000000000000000000000000000000000000000000000000000001
1111111111111111111000111111111111111111110000000000000000000000000000
0000000000000000000000000000000000000000000000000111111111111111111111
0011111111111111111111100000000000000000000000000000000000000000000000
0000000000000000000000000000000111111111111111111100001111111111111111
1110000000000000000000000000000000000000000000000000000000000000000000
0000000000011110111111111111111000011111111111111111111000000000000000
0000000000000000000000000000000000000000000000000000000000000001111111
1111111111110001111111111111111111110000000000000000000000000000000000
0000000000000000000000000000000000000000000111111111111111111110000111
1111111111111111000000000000000000000000000000000000000000000000000000
0000000000000000000000000111111111111111111100001111111111111111111100
0000000000000000000000000000000000000000000000000000000000000000000000
0000011111111111111111111100011111111111111111111000000000000000000000
0000000000000000000000000000000000000000000000000000000011110111111111
1111110000111111111111111111110000000000000000000000000000000000000000
0000000000000000000000000000000000000111111111111111111110000111111111
1111111111100000000000000000000000000000000000000000000000000000000000
0000000000000000001111111111111111111100001111111111111111111100000000
0000000000000000000000000000000000000000000000000000000000000000000001
1111110111111111111000011111111111111111111000000000000000000000000000
0000000000000000000000000000000000000000000000000011111111111111111111
0000111111111111111111110000000000000000000000000000000000000000000000
0000000000000000000000000000000111111111111111111110000111111111111111
1111100000000000000000000000000000000000000000000000000000000000000000
0000000000001111111111111111111100001111111111111111111100000000000000
0000000000000000000000000000000000000000000000000000000000000001111111
1111111111110000001111111111111111111000000000000000000000000000000000
0000000000000000000000000000000000000000000011111111111111111111000011
1111111111111111111000000000000000000000000000000000000000000000000000
0000000000000000000000000111111111111111111100000011111111111111111111
0000000000000000000000000000000000000000000000000000000000000000000000
0000011111111111111111111000000111111111111111111110000000000000000000
0000000000000000000000000000000000000000000000000000000011111111111111
1111110000011111111111111111111000000000000000000000000000000000000000
0000000000000000000000000000000000000111111111111111111100000011111111
1111111111110000000000000000000000000000000000000000000000000000000000
0000000000000000011111111111111111111000000111111111111111111110000000
0000000000000000000000000000000000000000000000000000000000000000000011
1111011111111111110000000111111111111111111110000000000000000000000000
0000000000000000000000000000000000000000000000001111111111111111111100
0000001111111111111111111100000000000000000000000000000000000000000000
0000000000000000000000000000011111111111111111111000000001111111111111
1111111000000000000000000000000000000000000000000000000000000000000000
0000000000111111111111111111110000000011111111111111111111000000000000
0000000000000000000000000000000000000000000000000000000000000111111111
1111111111100000000011111111111111111111000000000000000000000000000000
0000000000000000000000000000000000000000001111111111111111111000000000
0111111111111111111110000000000000000000000000000000000000000000000000
0000000000000000000000111111111111111111110000000000111111111111111111
1100000000000000000000000000000000000000000000000000000000000000000000
0001111111111111111111110000000001111111111111111111110000000000000000
0000000000000000000000000000000000000000000000000000001111111111111111
1110000000000001111111111111111111100000000000000000000000000000000000
0000000000000000000000000000000000111111111111111111111000000000011111
1111111111111111000000000000000000000000000000000000000000000000000000
0000000000000001111111111111111111100000000000011111111111111111111100
0000000000000000000000000000000000000000000000000000000000000000001111
1111111111111111000000000000111111111111111111111000000000000000000000
0000000000000000000000000000000000000000000000111111111111111111111000
0000000000111111111111111111111000000000000000000000000000000000000000
0000000000000000000000000001111111111111111111100000000000000111111111
1111111111110000000000000000000000000000000000000000000000000000000000
0000000011111111111111111111000000000000000111111111111111111110000000
0000000000000000000000000000000000000000000000000000000000111111111111
1111111110000000000000011111111111111111111110000000000000000000000000
0000000000000000000000000000000000000001111111111111111111100000000000
0000011111111111111111111000000000000000000000000000000000000000000000
0000000000000000001111111111111111111110000000000000000111111111111111
1111111000000000000000000000000000000000000000000000000000000000000001
1111111111111111111100000000000000000111111111111111111111000000000000
0000000000000000000000000000000000000000000000000111111111111111111111
0000000000000000001111111111111111111111000000000000000000000000000000
0000000000000000000000000000001111111111111111111110000000000000000000
1111111111111111111110000000000000000000000000000000000000000000000000
0000000000111111111111111111111000000000000000000001111111111111111111
1110000000000000000000000000000000000000000000000000000000000111111111
1111111111110000000000000000000001111111111111111111110000000000000000
0000000000000000000000000000000000000000011111111111111111111110000000
0000000000000011111111111111111111110000000000000000000000000000000000
0000000000000000000000111111111111111111111000000000000000000000011111
1111111111111111110000000000000000000000000000000000000000000000000000
0011111111111111111111100000000000000000000000011111111111111111111110
0000000000000000000000000000000000000000000000000000011111111111111111
1111000000000000000000000000111111111111111111111110000000000000000000
0000000000000000000000000000000001111111111111111111111000000000000000
0000000000111111111111111111111110000000000000000000000000000000000000
0000000000000111111111111111111111100000000000000000000000000011111111
1111111111111110000000000000000000000000000000000000000000000001111111
1111111111111111000000000000000000000000000111111111111111111111111000
0000000000000000000000000000000000000000000111111111111111111111110000
0000000000000000000000000111111111111111111111111000000000000000000000
0000000000000000000000001111111111111111111111000000000000000000000000
0000001111111111111111111111111000000000000000000000000000000000000000
0001111111111111111111111110000000000000000000000000000000111111111111
1111111111111000000000000000000000000000000000000000001111111111111111
1111111000000000000000000000000000000001111111111111111111111111100000
0000000000000000000000000000000001111111111111111111111111000000000000
0000000000000000000001111111111111111111111111100000000000000000000000
0000000000000111111111111111111111111100000000000000000000000000000000
0011111111111111111111111111000000000000000000000000000000000011111111
1111111111111111100000000000000000000000000000000000001111111111111111
1111111111100000000000000000000000000000011111111111111111111111111100
0000000000000000000000000000000000011111111111111111111111111110000000
0000000000000000000001111111111111111111111111110000000000000000000000
0000000000000000011111111111111111111111111111100000000000000000000000
1111111111111111111111111111000000000000000000000000000000000000000001
1111111111111111111111111111110000000000000000001111111111111111111111
1111111110000000000000000000000000000000000000000001111111111111111111
1111111111111110000000000011111111111111111111111111111111000000000000
0000000000000000000000000000000011111111111111111111111111111111111111
1111111111111111111111111111111111111110000000000000000000000000000000
0000000000000001111111111111111111111111111111111111111111111111111111
1111111111111111111000000000000000000000000000000000000000000000001111
1111111111111111111111111111111111111111111111111111111111111111111111
0000000000000000000000000000000000000000000000001111111111111111111111
1111111111111111111111111111111111111111111111111000000000000000000000
0000000000000000000000000000001111111111111111111111111111111111111111
1111111111111111111111111111100000000000000000000000000000000000000000
0000000000000111111111111111111111111111111111111111111111111111111111
1111111110000000000000000000000000000000000000000000000000000000111111
1111111111111111111111111111111111111111111111111111111111110000000000
0000000000000000000000000000000000000000000000111111111111111111111111
1111111111111111111111111111111111111110000000000000000000000000000000
0000000000000000000000000000011111111111111111111111111111111111111111
1111111111111111110000000000000000000000000000000000000000000000000000
0000000000011111111111111111111111111111111111111111111111111111111110
0000100000000000000000000000000000000000000000000000000000000001111111
1111111111111111111111111111111111111111111111110000000000000000000000
0000000000000000000000000000000000000000000000111111111111111111111111
1111111111111111111111111111000100000000000000000000000000000000000000
0000000000000000000000000000111111111111111111111111111111111111111111
1111111010000000000000000000000000000000000000000000000000000000000000
0000000000111111111111111111111111111111111111111111111100000000000000
0000000000000000000000000000000000000000000000000000000000000011111111
1111111111111111111111111111111111100000000000000000000000000000000000
0000000000000000000000000000000000000000000001111111111111111111111111
1111111111111100000010000000000000000000000000000000000000000000000000
0000000000000000000000000000111111111111111111111111111111111110100100
0000000000000000000000000000000000000000000000000000000000000000000000
0000000000001111111111111111111111111111110000000000000000000000000000
0000000000000000000000000000000000000000000000000000000000000000001111
1111111111111111110100000000000000000000000000000000000000000000000000
0000000000000000000000000000000000000000000000000001111111111111101000
00000010000000000000000000000000000000000000000000000