P1
# CREATOR: GIMP PNM Filter Version 1.1
57 81
0000000000000000000000000000000000000000000010101010100000001111111000
0000000000000000000000000000011111111111110000101111111000000000000000
0000000000000011111111111111100001101111111000000000000000000000000000
1111111111111111000001111110101000000000000000000000000001111111111111
1110000111111111100000000000000000000000001111111111111111000000101111
1111000000000000000000000000011111111111111110000001111111111100000000
0000000000000011111111111111111000000001111111110000000000000000000000
0111111111111111110000000011111111110000000000000000000011111111111111
1110000000001111111111100000000000000000000111111111111111110000000001
1111111111000000000000000000011111111111111111000000000001111111110100
0000000000000000111111111111111100000000000011111111110000000000000000
0011111111111111110000000000000101111110101000000000000000111111111111
1111000000000000001111111111000000000000000011111111111111111000000000
0000011111111010100000000000001111111111111111000000000000000011111111
0100000000000000111111111111111110000000000000000111111110101000000000
0001111111111111111000000000000000010101011101100000000000111111111111
1111100000000000000000010111111010100000000001111111111111111000000000
0000000000010111110110000000000111111111111111110000000000000000000011
1111111010000000011111111111111111000000000000000000000111111101100000
0000111111111111111100000000000000000000011111111010100000001111111111
1111110000000000000000000000011111110110000000111111111111111100000000
0000000000000001111111111001000011111111111111110000000000000000000000
0011111111111000000111111111111111000000000000000000000000001111111111
0000011111111111111100000000000000000000000000111111111111000111111111
1111110100000000000000000000000000111111111111111111111111111100000000
0000000000000000000011111111111111111111111111110000000000000000000000
0000000011111111111111111111111111100000000000000000000000000000011111
1111111111111111111111000000000000000000000000000000111111111111111111
1111111100000000000000000000000000000001011111111111111111111111111000
0000000000000000000000000001101111111111111111111111010000000000000000
0000000000000101101111111111111101111110100000000000000000000000000001
1111111111111111111111111111000000000000000000000000000001111111111111
1111111111111111000000000000000000000000000111111111111111111111111111
1111000000000000000000000000000111111101111011111111111111111000000000
0000000000000000001111111101110111111111111111111100000000000000000000
0000011111111111111111111111111111101100000000000000000000000111111111
1111111111101111111101111000000000000000000000000111111111111111100010
1111111111111000000000000000000000001111111111111100000001111111111111
1000000000000000000000011111111111110000000001111111111111000000000000
0000000001111111111111100010000011111111111111000000000000000000000111
1111111110000000000011111111111110000000000000000000011111111111000000
0000000011111111111110000000000000000000011111110111001000000000011111
1111111100000000000000000000101101111100000000000000011111111111111000
0000000000000001111111011110000000000001011111111111110000000000000000
0011011011010000000000000000111111111111100000000000000000011111111111
0000000000000000111111111111100000000000000001011110110110000000000000
0010111111111111100000000000000101011101111100000000000000000111111111
1111100000000000000111111111011000000000000000010111111111111100000000
0000010101111111110000000000000000000111111111011100000000000000111111
1111000000000000000000011111111111111100000000000000111111111100000000
0000000000000111111111111000000000000011111111100000000000000000000010
1111111111111000000000010010111111100000000000000000000010111111111011
1000000000001111111111100000000000000000000010111111101110100000000101
1111111110000000000000000000000101111111101110000000000011111111010000
0000000000000000000101111111100101000000000111111111100000000000000000
0000000111111111001010000000001111111110100000000000000000000000101111
1111001110000000011111111011000000000000000000000000111111111100111000
0000111111111111000000000000000000000000111111111111111000010011111110
1110000000000000000000000000111111111111110000001111111111110000000000
0000000000000001111111111111110000011011111111100000000000000000000000
0000111111111111110000111111110111000000000000000000000000000111111111
1111100000110111110100000000000000000000000000000111111111111100011111
1111101000000000000000000000000000010111111111101000000110111101000000
0000000000000000000000010111111111110000011111101100000000000000000000
0000000000001111111111000000101111111100000000000000000000000000000000
0101000000000000000010000000000000000000000000000000000000000000000