P1
# CREATOR: GIMP PNM Filter Version 1.1
23 34
0101000000000000000101011111000000000000111111111110000000000001111101
1111000000000001111110111110000000000111111001111100000000011111100011
1110000000011111100001111100000000111110000011111000000011111000000111
1100000011111100000011111000001111110000000111110000111111000000001111
1000011111000000000111110001111100000000001111101111110000000000011111
1111111000000000001111111111100000000000011111111111000000000000111111
1111100000000000011111111111100000000000111111111111100000000001111111
0111110000000000111111000111111000000001111100000111110000000011111000
0001111100000001111100000011111100000011111000000011111100000111110000
0000111111000001111000000000111111000111110000000000111110001111100000
0000001111100111110000000000011111100111100000000000001111101111000000
000000011111