P1
# CREATOR: GIMP PNM Filter Version 1.1
91 158
0000000000000000000000000000000000101111111111111111111111111101000000
0000000000000000000000000000000000000000000000000000010111111111111111
1111111111111110000000000000000000000000000000000000000000000000000000
1011111111111111111111111111111111111100000000000000000000000000000000
0000000000000000000001111111111111111111111111111111111111111100000000
0000000000000000000000000000000000000000111111111111111111111111111111
1111111111111100000000000000000000000000000000000000000000010101111111
1111111111111111111111111111111111111000000000000000000000000000000000
0000000000111111111111111111111111111111111111111111111111100000000000
0000000000000000000000000000101111111111111111111111111111111111111111
1111111111110000000000000000000000000000000000000111111111111111111111
1111111111111111111111111111111110000000000000000000000000000000000001
0111111111111111111111111111111111111111111111111111111100000000000000
0000000000000000000111111111111111111111111111111111111111111111111111
1111111100000000000000000000000000000011111111111111111111111111111111
1111111111111111111111111111110000000000000000000000000000011111111111
1111111111111111111111111111111111111111111111111110000000000000000000
0000000001111111111111111111111111111111111111111111111111111111111111
1111000000000000000000000000111111111111111111111111111111111111111111
1111111111111111111111111000000000000000000000001011111111111111111111
1111111111111111111111111111111111111111111111100000000000000000000001
1111111111111111111111111111111111111111111111111111111111111111111110
0000000000000000000111111111111111111111111111111111111111111111111111
1111111111111111111100000000000000000001011111111111111111111111111111
1111111111111111111111111111111111111111110000010000000000001111111111
1111111111111111111111111111111111111111111111111111111111111111000000
0000000000111111111111111111111111111111111111111111111111111111111111
1111111111111110010100000000001111111111111111111111111111111111111111
1111111111111111111111111111111111111000000000000001111111111111111111
1111111111111101101111111110111111111111111111111111111110100000000000
0011111111111111111111111111111101110110101010111011111111111111111111
1111111110100000000000111111111111111111111111111101011010100100101101
1011111111111111111111111111111000000000000111111111111111111111111110
1111101100100001001101101111111111111111111111111111000000100001111111
1111111111111111111110101010010010000010111011011111111111111111111111
1110000000000011111111111111111111111110101010101010101001000101111011
1111111111111111111111111000001000111111111111111111111111110101100010
1000101000101010101011111111111111111111111110000000000111111111111111
1111111110101101010001010000010001110110101111111111111111111111111000
0100001111111111111111111111111010101000100000101001010101010101111111
1111111111111111110000000001111111111111111111111110010100100000100100
1000001000011001111111111111111111111111000100111111111111111111111111
1001010000010000000010010101000101001111111111111111111111110000000011
1111111111111111111111000101000000000010000001000100001100111111111111
1111111111100001000111111111111111111111110010100000000000001010000010
0001100101111111111111111111111110000001111111111111111111111111000100
0000000000000001000000000101001111111111111111111111100001000111111111
1111111111111100101000000000000001000000000000010101111111111111111111
1111000000011111111111111111111111100001000000000000000000100000000010
0011111111111111111111111100010011111111111111111111111001010000000000
0000000000000000000010011111111111111111111111000010011111111111111111
1111111000100000000000000001000000000000100011111111111111111111111100
0000011111111111111111111110001000000000000000000001000000000010001111
1111111111111111110000100111111111111111111111111000100000000000000000
0000000000000100111111111111111111111111000000111111111111111111111111
0010000000000000000000000000000000001111111111111111111111110000100011
1111111111111111111110001000000000000000000000000000001000111111111111
1111111111110010001111111111111111111111100101000000000000000000000000
0000001001111111111111111111111100001001111111111111111111111110000100
0000000000000000000000000000001111111111111111111111110010001111111111
1111111111111000000000000000000000000000000000100001111111111111111111
1111000010011111111111111111111111100010000000000000000000000000000010
0011111111111111111111111100100101111111111111111111111100000000000000
0000000000000000001000011111111111111111111110000010011111111111111111
1111111000000000000000000000000000000000000111111111111111111111111100
0100111111111111111111111110000000000000000000000000000000000000111111
1111111111111111110010010111111111111111111111111000000000000000000000
0000000000000001111111111111111111111110000100111111111111111111111111
1000000000000000000000000000000000011111111111111111111111110010010111
1111111111111111111110000000000000000000000000000000000011111111111111
1111111111010001001111111111111111111111111000000000000000000000000000
0000011111111111111111111111111000100100111111111111111111111111100000
0000000000000000000000000001111111111111111111111111010000101111111111
1111111111111111000000000000000000000000000000111111111111111111111111
1100010000101111111111111111111111111100000000000000000000000000000111
1111111111111111111111110010001010111111111111111111111111110000000000
0000000000000000011111111111111111111111111001000000101111111111111111
1111111111110000000000000000000000000111111111111111111111111111010110
0101001111111111111111111111111111000000000000000000000011111111111111
1111111111111101010000001101111111111111111111111111111110000000000000
0000011111111111111111111111111111100101100010010111111111111111111111
1111111111000000000000011111111111111111111111111111111010010000000010
1111111111111111111111111111111111101111111111111111111111111111111111
1111111010100000010100111111111111111111111111111111111111111111111111
1111111111111111111111111100100000000000110111111111111111111111111111
1111111111111111111111111111111111111111111111101010000000000010111111
1111111111111111111111111111111111111111111111111111111111111111110101
0100000000001010111111111111111111111111111111111111111111111111111111
1111111111111111101001000000000000101011111111111111111111111111111111
1111111111111111111111111111111111111100100000000000000010101111111111
1111111111111111111111111111111111111111111111111111111111000011000000
0000001010101111111111111111111111111111111111111111111111111111111111
1111111110001001000000000000010101111111111111111111111111111111111111
1111111111111111111111111111110000010010000000000110100111111111111111
1111111111111111111111111111111111111111111111111110000001000000000000
0001001111111111111111111111111111111111111111111111111111111111111111
1100000001000000000001010001111111111111111111111111111111111111111111
1111111111111111111111100000000000000000000000001111111111111111111111
1111111111111111111111111111111111111111111110000000000000000000000011
1111111111111111111111111111111111111111111111111111111111111111111000
0000000000000100010111111111111111111111111111111111111111111111111111
1111111111111111110000000000000000000001111111111111111111111111111111
1111111111111111111111111111111111111110000000000000000000011111111111
1111111111111111111111111111111111111111111111111111111111111000000000
0000000001111111111111111111111111111111111111111111111111111111111111
1111111111111000000000000000000111111111111111111111111111111111111111
1111111111111111111111111111111111100000000000000011111111111111111111
1111111111111111111111111111111111111111111111111111111100000000000000
1111111111111111111111111111111111111111111111111111111111111111111111
1111111100000000100011111111111111111111111111111111111111111111111111
1111111111111111111111111111100000000000011111111111111111111111111111
1111110110111111111111111111111111111111111111111100000000000101111111
1111111111111111111111010101101100101101111111111111111111111111111111
1100000000001111111111111111111111111111110110110101010100110110111111
1111111111111111111111110000000011111111111111111111111111111011010001
0000100010010111011111111111111111111111111110000000001111111111111111
1111111111011011010000000010000010101011111111111111111111111111110000
0011111111111111111111111111111010100000001000000000001011101111111111
1111111111111111110000001111111111111111111111111101010100000000010000
0010001001101111111111111111111111111110000001111111111111111111111111
0101010000000000000000000100110101011111111111111111111111110000001111
1111111111111111111110101000000000100000000000100010101111111111111111
1111111111100001111111111111111111111111010101000000000000000000000000
0001010011111111111111111111111110000111111111111111111111111100010000
0000000000000000000000000011011111111111111111111111110001111111111111
1111111111110010100000000000000000000000000000101011111111111111111111
1111000001111111111111111111111111010100000000000000000000000000000001
0011111111111111111111111100111111111111111111111111100010000000000000
0000000000000000010101011111111111111111111111110011111111111111111111
1110100010000000000000000000000000000000101011111111111111111111111100
1111111111111111111111111001000000000000000000000000000000000001011111
1111111111111111111000111111111111111111111101000100000000000000000000
0000000000000100011111111111111111111111101111111111111111111111110010
1000000000000000000000000000000000010111111111111111111111111001111111
1111111111111111100000000000000000000000000000000000000000011111111111
1111111111111001111111111111111111111100101000000000000000000000000000
0000001010111111111111111111111110011111111111111111111111100000000000
0000000000000000000000000000100111111111111111111111111011111111111111
1111111111000100000000000000000000000000000000000101111111111111111111
1111100111111111111111111111111000000000000000000000000000000000000010
0001111111111111111111111100111111111111111111111110000100000000000000
0000000000000000000010101111111111111111111111100111111111111111111111
1110000000000000000000000000000000000000010011111111111111111111111110
1111111111111111111111110001010000000000000000000000000000000001011111
1111111111111111111001111111111111111111111110000000000000000000000000
0000000000001000011111111111111111111111001111111111111111111111110001
0100000000000000000000000000000000101011111111111111111111111001111111
1111111111111111100010000000000000000000000000000000000100011111111111
1111111111111011111111111111111111111100000000000000010000000000000000
0000001001111111111110111111111110001111111111111111111111100010000000
0000000000000000000000000001001111111111111101011111110011111111111111
1111111111000000000000000100000000000000000000010010111111111110111111
1111100111111111111111111111111000000000000000000000000000000000000000
0111111111111111101011111100111111111111111111111111000001000000000000
0000000000000000000000111111111111111111111110100111111111111111111111
1111000000000000000000000000000000000010000111111111111111111111111100
1111111111111111111111111010000000000000000000000000000000000000111111
1111111111111111110001111111111111111111111111100100000000000000000000
0000000000000011111111111111111111111110100111111111111111111111111100
0000000000000000000000000000000000011111111111111111111111110001111111
1111111111111111111100000000000000000000000000000000000111111111111111
1111111111101001111111111111111111111111100000000000000000000000000000
0000001111111111111111111111110000101111111111111111111111111110000000
0000000000000000000000000011111111111111111111111111110011111111111111
1111111111111100000000000000000000000000000000111111111111111111111111
1100011011111111111111111111111111110000000000000000000000000000001111
1111111111111111111111110100111111111111111111111111111111100000000000
0000000000000000111111111111111111111111111010101101111111111111111111
1111111111000000000000000000000000010111111111111111111111111111010100
0111111111111111111111111111111110000000000000000000000101111111111111
1111111111111110110000101111111111111111111111111111111100000000000000
0000111111111111111111111111111111010101001011111111111111111111111111
1111111110100000000000111111111111111111111111111111111101000000101111
1111111111111111111111111111111110101010111111111111111111111111111111
1111101010100010101111111111111111111111111111111111111111111111111111
1111111111111111111111111110010000001010111111111111111111111111111111
1111111111111111111111111111111111111111111110101010000000111111111111
1111111111111111111111111111111111111111111111111111111111111111111010
1000000000101111111111111111111111111111111111111111111111111111111111
1111111111111111010101000000001010111111111111111111111111111111111111
1111111111111111111111111111111111111100100000000001011011111111111111
1111111111111111111111111111111111111111111111111111111111010100000000
0001011011111111111111111111111111111111111111111111111111111111111111
1111111010100000000001010101011111111111111111111111111111111111111111
1111111111111111111111111110101010000000000001011010111111111111111111
1111111111111111111111111111111111111111111111110101000000000001010010
1111111111111111111111111111111111111111111111111111111111111111111010
1000000000000000010101010111111111111111111111111111111111111111111111
1111111111111111101010000000000000001000010101111111111111111111111111
1111111111111111111111111111111111111110101000000000000000100100101011
1111111111111111111111111111111111111111111111111111111101001010000000
0000000101000101010101111111111111111111111111111111111111111111111111
1111111011010000000000000000000100010101011011111111111111111111111111
1111111111111111111111111111010100000000000000000110101000101001101111
1111111111111111111111111111111111111111111111011010000000000000000000
0010001010010101010111111111111111111111111111111111111111111111101101
0100000000000000000001010100000000001011011111111111111111111111111111
1111111111111011011010000000000000000000000100010100000000010110111111
1111111111111111111111111111111110101100100000000000000000000000101000
0000000000010110111111111111111111111111111111111111011010010000000000
0000000000000000000100000010000001011011111111111111111111111111111111
0101101000000000000000000000000000100100001000000000000001010010111111
1111111111111111110111101010100000000000000000000000000000001000000000
0010010000010010010101111111111111110111010101000000000001000000000000
0000000010000000000000000000010000010101010101101111101011011010100000
0000000010100000000000000000