P1
# CREATOR: GIMP PNM Filter Version 1.1
154 200
0000000000000000000000000000000000000000000000000000000000000000000000
0000000000000000000000000000000000000000000000000000000000000000000000
0000000000000000000000010101010101011010101010101000000000000000000000
0000000000000000000000000000000000000000000000000000000000000000000000
0000000000000000000000000000001011110111111111111101111111101101100000
0000000000000000000000000000000000000000000000000000000000000000000000
0000000000000000001001001011101000000000001001000101010111111011111111
1111111111000000000000000000000000000000000000000000000000000000000000
0000000000000010000000001010111011110110101011111101100000101110111111
1111111111101111101101111000000000000000000000000000000000000000000000
0000000000000000000000000000001000010101010101101011111111010101101010
0010001101111111111111111110111111111111000000000000000000000000000000
0000000000000000000000000000000000000000010000000010111111111111110110
1111111111101000011011111011111111111111111111111111101000000000000000
0000000000000000000000000000000000000000000000000000001000010111011111
1011111111111111101101110101000010010111111111111111111111111111111111
0000000000000000000000000000000000000000000000000000000000000000000001
0000000110111111111111111111111111111111100001010111111111111111111111
1111111111111010000000000000000000000000000000000000000000000000000000
0000000000100000001011111111111111111111111111111111010100000100101011
1111111111111111111111111110100000000000000000000000000000000000000000
0000000000000000000000000100000010101111111111111111111111111101111010
0000101011111111111111111111111111111111111000000000000000000000000000
0000000000000000000000000000000000000100010010101111111111111111111111
1111111111101000000010010101111111111111111111111111111111000000000000
0000000000000000000000000000000000000000000000000000100000001111111111
1111111111111111111111011010000001011011111111111111111111111111111111
1100000000000000000000000000000000000000000000000000000000000000000010
1011011111111111111111111111111111111101010000000010101111111111111111
1111111111111111100000000000000000000000000000000000000000000000000000
0000000001000010010111111111111111111111111111111011010000000010101011
1111111111111111111111111111111000000000000000000000000000000000000000
0000000000000000000001000010011111111111111111111111111111111111101010
0000000101010111111111111111111111111111111111000000000000000000000000
0000000000000000000000000000000000000000010010111111111111111111111111
1111111110100000000000101011111111111111111111111111111111110000000000
0000000000000000000000000000000000000000000000101000000011111111111111
1111111111111111111010101000000000000010101111111111111111111111111111
1111100000000000000000000000000000000000000000000000000000000000100010
1011111111111111111111111111111111110101000000000010101011111111111111
1111111111111111111000000000000000000000000000000000000000000000000000
0000100000100101111111111111111111111111111111101010000000000000000101
0111111111111111111111111111111111000000000000000000000000000000000000
0000000000000000000100000101111111111111111111111111111111111101011000
0000000001001010111111111111111111111111111111111000000000000000000000
0000000000000000000000000000000100000010101111111111111111111111111111
1111010100000000000000000010101111111111111111111111111111111110000000
0000000000000000000000000000000000000000000000000000010111111111111111
1111111111111111111010100000000000000001010111111111111111111111111111
1111111010000000000000000000000000000000000000000000000000100000010111
1111111111111111111111111111101010100000000000000000000101011111111111
1111111111111111111111000000000000000000000000000000000000000000000000
0000100000010111111111111111111111111111111111010100000000000000000010
1011011111111111111111111111111111110000000000000000000000000000000000
0000000000000101000001011111111111111111111111111111111110101000000000
0000000000000001011111111111111111111111111111111111000000000000000000
0000000000000000000000000000000000000101111111111111111111111111111111
1101011000000000000000000001010101111111111111111111111111111111100000
0000000000000000000000000000000000000001001000010110111111111111111111
1111111111111101100000000000000000000000001010101111111111111111111111
1111111111100000000000000000000000000000000000000000000001000000111111
1111111111111111111111111111101101000000000000000000000000101111111111
1111111111111111111111111000000000000000000000000000000000000000010100
0000010110111111111111111111111111111111010100100000000000000000000000
1010010111111111111111111111111111111111000000000000000000000000000000
0000000000001001000101111111111111111111111111111111111010100000000000
0000000000000000101011111111111111111111111111111111100000000000000000
0000000000000000000001010000000010101111111111111111111111111111111101
0101000000000000000000000000001010101111111111111111111111111111111110
0000000000000000000000000000000000000101000000101111111111111111111111
1111111111111010000000000000000000000000000000101011111111111111111111
1111111111111000000000000000000000000000000000000100000000100111111111
1111111111111111111111110101010000000000000000000000000000001010101111
1111111111111111111111111111000000000000000000000000000000000000101010
0001010111111111111111111111111111111101100100000000000000000000000000
0000101011111111111111111111111111111111110000000000000000000000000000
0000000000000001011111111111111111111111111111111111010100000000000000
0000000000000000001001010111111111111111111111111111111110000000000000
0000000000000000000101010000000011111111111111111111111111111110110100
1000000000000000000000000000000001010111111111111111111111111111111111
1000000000000000000000000000000000010000100111011111111111111111111111
1111111110100100000000000000000000000000000000010010011111111111111111
1111111111111111000000000000000000000000000000010000000001011111111111
1111111111111111111110101010000000000000000000000000000000000001011011
1111111111111111111111111111110000000000000000000000000000010001000010
1011111111111111111111111111111111110101001000000000000000000000000000
0000000001011111111111111111111111111111111110000000000000000000000000
0000100010000010111111111111111111111111111111110101010000000000000000
0000000000000000000001010101111111111111111111111111111111110000000000
0000000000000000100100000101111111111111111111111111111111111010100000
0000000000000000000000000000000000000010101111111111111111111111111111
1111000000000000000000000000000001000000010111111111111111111111111111
1111110101010000000000000000000000000000000000000010010111111111111111
1111111111111111110000000000000000000000001010000001011011111111111111
1111111111111111101010100000000000000000000000000000000000000000010100
0111111111111111111111111111111110000000000000000000000000100100000101
1111111111111111111111111111111010100100000000000000000000000000000000
0000000000101101111111111111111111111111111111110000000000000000000100
1000100000101111111111111111111111111111111101010100000000000000000000
0000000000000000000000001000101111111111111111111111111111111100000000
0000000000000000100000100101111111111111111111111111111111100100010000
0000000000000000000000000000000000000001101011111111111111111111111111
1111111000000000001001001010100010100111111111111111111111111111111111
0101001000000000000000000000000000000000000000000000000101011111111111
1111111111111111111111000000000000000000000100000000101111111111111111
1111111111111110101000000000000000000000000000000000000000000000000010
1011111111111111111111111111111111101000000000000101010100000011111111
1111111111111111111111111110101001000000000000000000000000000000000000
0000000000000010101111111111111111111111111111111110000000001000000010
0100000010111111111111111111111111111111110101000000000000000000000000
0000000000000000000000000001001101111111111111111111111111111111010000
0000000101000100010010111111111111111111111111111111110101001000000000
0000000000000000000000000000000000000000001001101111111111111111111111
1111111111000000010000010100100000110111111111111111111111111111111010
1010000000000000000000000000000000000000000000000000000010101011111111
1111111111111111111111110100000000000000100001010111111111111111111111
1111111111101001000000000000000000000000000000000000000000000000000000
0101010111111111111111111111111111111110000000010010100000001011111111
1111111111111111111111111010010100000000000000000000000000000000000000
0000000000000100101011111111111111111111111111111111101000000001000010
0100111111111111111111111111111111111010100000000000000000000000000000
0000000000000000000000000000001010101111111111111111111111111111111110
0000100001000000100101111111111111111111111111111111100101000000000000
0000000000000000000000000000000000000000010001011111111111111111111111
1111111111110100000001000000001011111111111111111111111111111111000100
0000000000000000000000000000000000000000000000000000000010010001011111
1111111111111111111111111111000000000000010010111111111111111111111111
1111111110101100000000000000000000000000000000000000000000000000000010
0000110101111111111111111111111111111111110100000000000001011111111111
1111111111111111111101010100000000000000000000000000000000000000000000
0000000000000000000101010111111111111111111111111111111110000000000000
1011111111111111111111111111111111110100100000000000000000000000000000
0000000000000000000000000010000000101011111111111111111111111111111111
1100000000000101111111111111111111111111111111101010100000000000000000
0000000000000000000000000000000000000000000000001010101111111111111111
1111111111111111110000000101101111111111111111111111111111111101001000
0000000000000000000000000000000000000000000000000000000000000101010111
1111111111111111111111111111111010001001111111111111111111111111111111
1111010010000000000000000000000000000000000000000000000000000000001000
0000000101010111111111111111111111111111111111111011010111111111111111
1111111111111111110101001000000000000000000000000000000000000000000000
0000000000000000000000101011111111111111111111111111111111111111111111
1111111111111111111111111111110101001000000000000000000000000000000000
0000000000000000000000000001000001001010101111111111111111111111111111
1111111111111111111111111111111111111111111110101000000000000000000000
0000000000000000000000000000000000000000000000000100101101111111111111
1111111111111111111111111111111111111111111111111111111110101001000000
0000000000000000000000000000000000000000000000000000000010000000101001
1111111111111111111111111111111111111111111111111111111111111111111111
1110010010000000000000000000000000000000000000000000000000000000000000
0000000001011001111111111111111111111111111111111111111111111111111111
1111111111111100101001000000000000000000000000000000000000000000000000
0000000000000000000000000101101111111111111111111111111111111111111111
1111111111111111111111111111101001000000000000000000000000000000000000
0000000000000000000000000000000000000010100111111111111111111111111111
1111111111111111111111111111111111111111101001000000000000000000000000
0000000000000000000000000000000000000000000000000000001010011111111111
1111111111111111111111111111111111111111111111111111111010101010000000
0000000000000000000000000000000000000000000000000000000000000000000010
1011111111111111111111111111111111111111111111111111111111111111111101
0010100000000000000000000000000000000000000000000000000000000000000000
0000000000000101010111111111111111111111111111111111111111111111111111
1111111111111010001000000000000000000000000000000000000000000000000000
0000000000000000000000000000101011111111111111111111111111111111111111
1111111111111111111111110101010100000000000000000000000000000000000000
0000000000000000000000000000000000000000001010101111111111111111111111
1111111111111111111111111111111111111110100000100000000000000000000000
0000000000000000000000000000000000000000000000000000000001010111111111
1111111111111111111111111111111111111111111111111110101010100000000000
0000000000000000000000000000000000000000000000000000000000000000000000
0001010111111111111111111111111111111111111111111111111111111111110100
1000000000000000000000000000000000000000000000000000000000000000000000
0000000000000001010110111111111111111111111111111111111111111111111111
1111111010101000000000000000000000000000000000000000000000000000000000
0000000000000000000000000000000100101111111111111111111111111111111111
1111111111111111111110101010100000000000000000000000000000000000000000
0000000000000000000000000000000000000000000010110110111111111111111111
1111111111111111111111111111111111110001000000000000000000000000000000
0000000000000000000000000000000000000000000000000000000000001010111111
1111111111111111111111111111111111111111111111111011001000000000000000
0000000000000000000000000000000000000000000000000000000000000000000000
0000101010111111111111111111111111111111111111111111111111111010101000
0000000000000000000000000000000000000000000000000000000000000000000000
0000000000000000000101011111111111111111111111111111111111111111111111
1111111010010000000000000000000000000000000000000000000000000000000000
0000000000000000000000000000000010101011111111111111111111111111111111
1111111111111111110101010000000000000000000000000000000000000000000000
0000000000000000000000000000000000000000000000001010101111111111111111
1111111111111111111111111111111110101010000000000000000000000000000000
0000000000000000000000000000000000000000000000000000000000000101010111
1111111111111111111111111111111111111111111110100101010000000000000000
0000000000000000000000000000000000000000000000000000000000000000000000
0000000010100111111111111111111111111111111111111111111111101100010000
0000000000000000000000000000000000000000000000000000000000000000000000
0000000000000000000010010110111111111111111111111111111111111111111111
1101001010010000000000000000000000000000000000000000000000000000000000
0000000000000000000000000000000000010100101111111111111111111111111111
1111111111111111101010000000000000000000000000000000000000000000000000
0000000000000000000000000000000000000000000000000010101101111111111111
1111111111111111111111111111001010010100000000000000000000000000000000
0000000000000000000000000000000000000000000000000000000000000000101010
1111111111111111111111111111111111111111111101010000000000000000000000
0000000000000000000000000000000000000000000000000000000000000000000000
0000000001010101111111111111111111111111111111111111110100101010100000
0000000000000000000000000000000000000000000000000000000000000000000000
0000000000000000000000000101001111111111111111111111111111111111111101
0100100000000000000000000000000000000000000000000000000000000000000000
0000000000000000000000000000000000001101001010111111111111111111111111
1111111111110100100100000000000000000000000000000000000000000000000000
0000000000000000000000000000000000000000000000000000101001011111111111
1111111111111111111111111101001010100000000000000000000000000000000000
0000000000000000000000000000000000000000000000000000000000000000010100
1001011111111111111111111111111111111100000100010000000000000000000000
0000000000000000000000000000000000000000000000000000000000000000000000
0000000000010000011111111111111111111111111111111111101000010000000000
0000000000000000000000000000000000000000000000000000000000000000000000
0000000000000000000001010001001011111111111111111111111111111111111000
0100010000000000000000000000000000000000000000000000000000000000000000
0000000000000000000000000000000000000010000000111111111111111111111111
1111111111101000010000000000000000000000000000000000000000000000000000
0000000000000000000000000000000000000000000000000101000100110111111111
1111111111111111111111110000100001000000000000000000000000000000000000
0000000000000000000000000000000000000000000000000000000000000000001000
0001111111111111111111111111111111111111001000001000000000000000000000
0000000000000000000000000000000000000000000000000000000000000000000000
0000001010001010110111111111111111111111111111111111000000000000100000
0000000000000000000000000000000000000000000000000000000000000000000000
0000000000000000000000010000100111111111111111111111111111111111111010
1000000000000000000000000000000000000000000000000000000000000000000000
0000000000000000000000000000000101010001000111111111111111111111111111
1111111111110000000010000000000000000000000000000000000000000000000000
0000000000000000000000000000000000000000000000000010000101011111111111
1111111111111111111111111111000000000000000000000000000000000000000000
0000000000000000000000000000000000000000000000000000000000010100000101
0111111111111111111111111111111111111111010000000010000000000000000000
0000000000000000000000000000000000000000000000000000000000000000000000
0000000000000101111111111111111111111111111111111111111100000000000000
0000000000000000000000000000000000000000000000000000000000000000000000
0000000000000000100010001011111111111111111111111111111111111111111111
0000000000000000000000000000000000000000000000000000000000000000000000
0000000000000000000000000000000000000010010111111111111111111111111111
1111111111111110000000010010000000000000000000000000000000000000000000
0000000000000000000000000000000000000000000100000010011111111111111111
1111111111111111111111111111100000000000000000000000000000000000000000
0000000000000000000000000000000000000000000000000000000000010000001001
1111111111111111111111111111111111111111111100000000000101000000000000
0000000000000000000000000000000000000000000000000000000000000000000001
0100000010111111111111111111111111111111111111111111111111000000000000
0010000000000000000000000000000000000000000000000000000000000000000000
0000000000000000000000001011111111111111111111111111111111111111111111
1110000000010010010000000000000000000000000000000000000000000000000000
0000000000000000000000000010100100010111111111111111111111111111111111
1111111111111111100000000000010010000000000000000000000000000000000000
0000000000000000000000000000000000000000000000000100111111111111111111
1111111111111111111111111111111100000000100010000000000000000000000000
0000000000000000000000000000000000000000000000000000001000001001111111
1111111111111111111111111111111111111111111111100000000010010000000000
0000000000000000000000000000000000000000000000000000000000000000010000
1000010010111111111111111111111111111111111111111111111111111000000000
0100100000000000000000000000000000000000000000000000000000000000000000
0000000000000000010011111111111111111111111111111111111111111111111111
1111110000000000010000000000000000000000000000000000000000000000000000
0000000000000000000000000100000010101111111111111111111111111111111111
1111111111111111111110000000100000000000000000000000000000000000000000
0000000000000000000000000000000000001000000000101111111111111111111111
1111111111111111111111111111111111010000000010000000000000000000000000
0000000000000000000000000000000000000000000000000001001000001011111111
1111111111111111111111111111111111111111111111111000000000001000000000
0000000000000000000000000000000000000000000000000000000000000000000000
0101011111111111111111111111111111111111111111111111111111111111000000
0000000000000000000000000000000000000000000000000000000000000000000000
0000000101000000101111111111111111111111111111111111111111111111111111
1111111110000000000000000000000000000000000000000000000000000000000000
0000000000000000000000000000100110111111111111111111111111111111111111
1111111111111111111111100000000001000000000000000000000000000000000000
0000000000000000000000000000000001010000000101111111111111111111111111
1111111111111111111111111111111111111110000000000000000000000000000000
0000000000000000000000000000000000000000000000000000000101011111111111
1111111111111111111111111111111111111111111111111110010000000000000000
0000000000000000000000000000000000000000000000000000000000000100000000
0101111111111111111111111111111111111111111111111111111111111111111000
0000000000000000000000000000000000000000000000000000000000000000000000
0001000100010111111111111111111111111111111111111111111111111111111111
1111111111101000000000000000000000000000000000000000000000000000000000
0000000000000000000000000000101111111111111111111111111111111111111111
1111111111111111111111111100000000000000000000000000000000000000000000
0000000000000000000000000000001000000010110111111111111111111111111111
1111111111111111111111111111111111111111000000000000000000000000000000
0000000000000000000000000000000000000000000001001000000111111111111111
1111111111111111111111111111111111111111111111111111111100000000000000
0000000000000000000000000000000000000000000000000000000000000000010111
1111111111111111111111111111111111111111111111111111111111111111111111
0000000000000000000000000000000000000000000000000000000000000000000000
1010000000100111111111111111111111111111111111111111111111111111111111
1111111111111110000000000000000000000000000000000000000000000000000000
0000000000000000000100010111111111111111111111111111111111110101111111
1111111111111111111111111111010000000000000000000000000000000000000000
0000000000000000000000000000100000000010111111111111111111111111111111
1101110101011111111111111111111111111111111100000000000000000000000000
0000000000000000000000000000000000000001000001001011111111111111111111
1111111111111110101011111101111111111111111111111111111111010000000000
0000000000000000000000000000000000000000000000000000000100000001001111
1111111111111111111111111111111010010101111111111111111111111111111111
1110000000000000000000000000000000000000000000000000000000000000001010
0000010101111111111111111111111111111111010101010101101111111111111111
1111111111111111100000000000000000000000000000000000000000000000000000
0000000000000000000001011111111111111111111111111111111101010010101010
1111111111111111111111111111111100000000000000000000000000000000000000
0000000000000000000000001010000010111111111111111111111111111111111001
0100100010110101111111111111111111111111111111100000000000000000000000
0000000000000000000000000000000000000000001000010101111111111111111111
1111111111111010100100100101101111111111111111111111111111111000000000
0000000000000000000000000000000000000000000000000010100000101011111111
1111111111111111111111101010100100000101010111111111111111111111111111
1111110000000000000000000000000000000000000000000000000000000000000100
0001010111111111111111111111111111111010010100001010010101011111111111
1111111111111111111110000000000000000000000000000000000000000000000000
0000000000000000101111111111111111111111111111111111010100010000001010
1010111111111111111111111111111111100000000000000000000000000000000000
0000000000000000000000100001000010111111111111111111111111111111010100
1000000100000101101111111111111111111111111111111100000000000000000000
0000000000000000000000000000000000100000000111011111111111111111111111
1111111010101000000000010101010101111111111111111111111111111111000000
0000000000000000000000000000000000000000000000000001000000011111111111
1111111111111111111111010101000000000000010101101111111111111111111111
1111111111000000000000000000000000000000000000000000000000001010000101
0111011111111111111111111111111110101010000000000000010010101111111111
1111111111111111111111100000000010000000000000000000000000000000000000
0000000100000100111111111111111111111111111111101010101000000000000000
1010010111111111111111111111111111111110000000010000000000000000000000
0000000000000000101000000000111111111111111111111111111111111010010000
0000000000001001010101111111111111111111111111111111010000000000000000
0000000000000000000000000000000000100100101011111111111111111111111111
1111010100100000000000000000010101101111111111111111111111111111111000
0000000000000000000000000000000000000000000101000000010111111111111111
1111111111111111011010100000000000000000101010100111111111111111111111
1111111111110000000000000000000000000000000000000000000000001010000010
1111111111111111111111111111111010101001000000000000000000101010011111
1111111111111111111111111110000000000000000000000000000000000000000000
1010000010101111111111111111111111111111111011010000000000000000100000
0001010111111111111111111111111111111111101000000000000000000000000000
0000000000000000000000000101111111111111111111111111111110101011000000
0000000000010010001010001111111111111111111111111111111100000000000000
0000000000000000000000000000010100001011111111111111111111111111111111
1101010000000000000000000000000100101101111111111111111111111111111111
1000000001000000000000000000000000000000100000000010101111111111111111
1111111111111011010010000000000000000001000000010101011111111111111111
1111111111111111000000000000000000000000000000000000000000000001011111
1111111111111111111111111111010101000000000000000000000000000010101101
1111111111111111111111111111101000000010000000000000000000000000000101
0010000101011111111111111111111111111110110101000000000000000000000000
0001001010011111111111111111111111111111111111000000000000000000000000
0000000000000000000100111111111111111111111111111111111010001000000000
0000000000000000000001011010111111111111111111111111111111010000000100
0000000000000000000000000001000001010111111111111111111111111111111111
0110000000000000000000000000000000010010111111111111111111111111111111
1111000000000000000000000000000000000010000100001111111111111111111111
1111111111101010001000000000000000000000000000010010101011111111111111
1111111111111111110100000100000000000000000000000000010000101010111111
1111111111111111111111111101010000000000000000000000000000000010010101
0111111111111111111111111111111111010000010000000000000000000000100000
0001011111111111111111111111111111111101010000000000000000000000000000
0000000010101010111111111111111111111111111111101000000000000000000000
0000000001001000010101111111111111111111111111111110101011100000000000
0000000000000000000000000101011111111111111111111111111111111101000000
1000000000000000000010000000010011111111111111111111111111111111101001
0001000000000000000000000000000000001010101011111111111111111111111111
1111111001000000000000000000000000000100000011011111111111111111111111
1111111110101011000000000000000000000000000000000000010101011111111111
1111111111111111111111000000010000000000000000010100001010011111111111
1111111111111111111110101001001000000000000000000000000000000000001010
1010111111111111111111111111111111111000000000000000000000000000000000
0101111111111111111111111111111111111011001001000000000000000000000000
0000000000001010101111111111111111111111111111111111000001000000000000
0000101010001011111111111111111111111111111111101010100000100000000000
0000000000000000000000000101010111111111111111111111111111111111100000
0000100000000000000000010000010111111111111111111111111111111010101010
0000000000000000000000000000000000000000001010011111111111111111111111
1111111111000000000000000000001010000001011111111111111111111111111111
1111110101001000010000000000000000000000000000000000001001011011111111
1111111111111111111111111000000001000000000000001000000101111111111111
1111111111111111101101001000000000000000000000000000000000000000000001
0101010111111111111111111111111111111111000000001000000001010000101011
1111111111111111111111111111111101010100100010000000000000000000000000
0000000000000001010111111111111111111111111111111111111000000000000000
0000100000101011111111111111111111111111111111010101000000000000000000
0000000000000000000000000010000101001111111111111111111111111111111111
0000000001000001000000101011111111111111111111111111111111010100100000
0010000000000000000000000000000000000000001010101101111111111111111111
1111111111110100000010000000001000000011111111111111111111111111111111
1110101010000000010000000000000000000000000000000000000000101010111111
1111111111111111111111111111100000000000000100010101111111111111111111
1111111111111101010100010000000000000000000000000000000000000000000000
1000101010111111111111111111111111111111110100000001000000000001010111
1111111111111111111111111111010101010010000001000000000000000000000000
0000000000000001000101011111111111111111111111111111111111000000000000
0100000011111111111111111111111111111111110101001000001001001000000000
0000000000000000000000000100000101010101111111111111111111111111111111
1010000001000000000010101111111111111111111111111111111110101001010000
0000100000000000000000000000000000000000000000010101011111111111111111
1111111111111111100000000000001001011111111111111111111111111111111100
1001001000000010100000000000000000000000000000000000000010010101011011
1111111111111111111111111111111010000001000001000101111111111111111111
1111111111111101010000000000001010000000000000000000000000000000001000
0000010100101111111111111111111111111111111110100000000000001111111111
1111111111111111111111111001010001001000000000000000000000000000000000
0000000000000000010001010101111111111111111111111111111111110100000000
1010010111111111111111111111111111111111010010000000000000101000000000
0000000000000000000000000000000001001010101111111111111111111111111111
1111101000000000011011111111111111111111111111111110101010001000000000
1000000000000000000000000000000000000000000000000100101111111111111111
1111111111111111111100000010010011111111111111111111111111111111110101
0100000000000000100000000000000000000000000000000001000000100000101001
0111111111111111111111111111111111110000000011011111111111111111111111
1111111101101000000100000000000000000000000000000000000000000000000000
0000000001010111111111111111111111111111111111110010000010010111111111
1111111111111111111111101010100000000000000001000000000000000000000000
0000000000000000000000001010001111111111111111111111111111111111000000
0111110111111111111111111111111111101010010000000000000000000000000000
0000000000000000000000000000000000000100101101111111111111111111111111
1111111010000010001111111111111111111111111111111110100100000100000000
0010000000000000000000000000000000000000000000000000001011011111111111
1111111111111111111111010100011101111111111111111111111111101010010010
0100000100000000000000000000000000000000000000000000000000000000001001
0101011111111111111111111111111111101000000001010101111111111111111111
0111101100100000100000000000000000000000000000000000000000000000000000
0000000000000010101111111111111111111111111011111011010010101011010101
0110110110101110101100100010000000000000000000000000000000000000000000
0000000000000000000000000101010101011111111111111111111111111111000000
0010101010101010110110101010101010100100000000000000000000000000000000
0000000000000000000000000000000000000000000101011010110111111111110110
1101010111010000000101010101010010010101010100010100000000000000000000
0000000000000000000000000000000000000000000000000000000000101001101011
0101011011101110111110010000000000000000000000001010010000100000100000
0000000000000000000000000000000000000000000000000000000000000000000000
0000010010110101010101010100110100110010000000000001000000010000001000
0000000000000000000000000000000000000000000000000000000000000000000000
0000000000000000000010101010101010100101010010100010000000000000000100
0000000000000000000000000000000000000000000000000000000000000000000000
0000000000000000000000000000000000000000101010000100000100000010000100