P1
# CREATOR: GIMP PNM Filter Version 1.1
16 36
1000000000000001100000000011111110000000011111111000000011111111100000
0111111111100000111111111110000111111111111001111111111111101111111111
1111111111110001111111111110000111111111110000011111111110000001111110
0000000001111110000000000111111000000000011111100000000001111110000000
0001111110000000000111111000000000011111100000000001111110000000000111
1110000000000111111000000000011111100000000001111110000000000111111000
0000000111111000000000011111100000000001111110000000000111111000000000
0111111000000000011111100000000001111110000000000111111000000000011111
1000000000000001