P1
# CREATOR: GIMP PNM Filter Version 1.1
44 87
0000000000000000000000000000000000000000000000000000000000000000000000
0000000000000000000000000000000000000000000000000000000000000000000000
0000000000000000000101111101010000000000000000000000000000000001111101
1111100000000000000000000000000000000111111111111100000000000000000000
0000000011111111111111100000000000000000000000000000011111111111111100
0000000000000000000000001111111111111111100000000000000000000000000011
1111111111111110000000000000000000000000111111111111111111100000000000
0000000000000111111111111111111110000000000000000000000111111111111111
1111111000000000000000000000001111111111111111111110000000000000000000
0111111111111111111111111000000000000000000000111111111111111111111110
0000000000000000011111111111111111111111110000000000000000000111111111
1111111111111111100000000000000011111111111111111111111111110000000000
0000000111111111111111111111111111100000000000001111111111111111111111
1111111100000000000000111111111111111111111111111111000000000000111111
1111111111111111111111111100000000001011111111111111111111111111111111
0000000000111111111111111111000011111111111100000000001111111111111111
1110001111111111110000000011111111111111111100000011111111111100000000
0111111111111111110000001111111111110000000001111111111111110000000011
1111111110000000000011111111111111000000001111111111110000000000011111
1111110000000001111111111110000000000000111111110100000000001111111111
1100000000000001111111000000000001111111111110000000000000011111100000
0000000011111111111000000000000000111000000000000001111111111110000000
0000000000100000000000000111111111111000000000000000000000000000000001
1111111111100000000000000000000000000000000111111111111000000000000000
0000000000000000011111111111000000000000000000000000000000000111111111
1110000000000000000000000000000000111111111111000000000000000000000000
0000000001111111111110000000000000000000000000000000011111111111000000
0000000000000000000000000101111111111100000000000000000000000000000000
1111111111110000000000000000000000000000000001111111111100000000000000
0000000000000000001111111111110000000000000000000000000000000011111111
1111000000000000000000000000000000001111111111110000000000000000000000
0000000000111111111111000000000000000000000000000000001111111111100000
0000000000000000000000000000111111111111000000000000000000000000000000
0111111111111000000000000000000000000000000000111111111111000000000000
0000000000000000000111111111111000000000000000000000000000000000111111
1111100000000000000000000000000000000111111111111000000000000000000000
0000000000011111111111100000000000000000000000000000000111111111111000
0000000000000000000000000000001111111111100000000000000000000000000000
0011111111111110000000000000000000000000000000011111111111100000000000
0000000000000000000001111111111100000000000000000000000000000000011111
1111111000000000000000000000000000000011111111111100000000000000000000
0000000000000111111111111000000000000000000000000000000011111111111100
0000000000000000000000000000000111111111110000000000000000000000000000
0000111111111111000000000000000000000000000000001111111111110000000000
0000000000000000000000111111111111000000000000000000000000000000001111
1111111100000000000000000000000000000000111111111111000000000000000000
0000000000000011111111111100000000000000000000000000000001111111111110
0000000000000000000000000000000011111111111100000000000000000000000000
0000011111111111100000000000000000000000000000000011111111111100000000
0000000000000000000000011111111111100000000000000000000000000000000011
1111111110000000000000000000000000000000011111111111100000000000000000
0000000000000001111111111110000000000000000000000000000000001011111111
0100000000000000000000000000000000000000000100000000000000000000000000
0000000000000001000000000000000000000000000000000000000000000000000000
000000000000000000000000000000000000000000000000