P1
# CREATOR: GIMP PNM Filter Version 1.1
132 197
0101010010101010101010101010101010101010101010101010101010101010101010
1010101010101001001001001000100100000100100100100000000000000000010101
0101101010101010010101010101010101001001010100101010010101010010010101
0100101010010010010101001101001001001001010101010110101110111111111111
1010101010101010101001010010010101010101010101010010101010101010101010
1010101010101010010010010010101010101010000001001111111111111111111111
1110111110110101110101010101001001010010100101010100100101010101010101
0101010101010101010101010010001011010011111111111111111111111111111101
1110111101111101010101010100101010100100101010101010101010101010101010
1010101010101010101010100001000111111111111111111111111111111111111111
1110111110111011011010101010101010010101010101010101010010010101010101
0101101010101010110010111111111111111111111111111111111111111111111111
1111111111111111101101010110101010101010010100100100101010101010101011
0101010100101011111111111111111111111111111111111111111111111111111111
1111111111111111111111110110101101011010101010010010101010100101010101
0101011111111111111111111111111111111111111111111111111111111111111111
1111111111110111111111111111011101110110110101010101010010010101010111
1111111111111111111111111111111111111111111111111111111111111111111111
1111111111111111111111111111111111111111011101101101010010101111111111
1111111111111111111111111111111111111111111111111111111111111111111111
1111111111111111111111111111111111111111111111110101111111111111111111
1111111111111111111111111111111111111111111111111111111111111111111111
1111111111111111111111111111111111111111110111111111111111111111111111
1111111111111111111111111111111111111111111111111111111111111111111111
1111111111111111111111111111111111111111111111111111111111111111111111
1111111111111111111111111111111111111111111111111111111111111111111111
1111111111111111111111111111111111111111111111111111111111111111111111
1111111111111111111111111111111111111111111111111111111111111111111111
1111111111111111110111111111111111111111111111111111111111111111111111
1111111111111111111111111111111111111111111111111111111111111111111111
1111111111111111111111111111111111111111111111111111111111111111111111
1111111111111111111111111111111111111111111111111111111111111111111111
1111111111111111111111111111111111111111111111111111111111111111111111
1111111111111111111111111111111111111111111111111111111111111111111111
1111111111111111111111111111111111111111111111111111111111111111111111
1111111111111111111111111111111111111111111111111111111111111111111111
1111111111111111111111111111111111111111111111111111111111111111111111
1111111111111111111111111111111111111111111111111111111111111111111111
1111111111111111111111111111111111111111111111111111111111111111111111
1111111111111111111111111111111111111111111111111111111111111111111111
1111111111111111111111111111111111111111111111111111111111111111111111
1111111111111111111111111111111111111111111111111111111111111111111111
1111111111111111111111111111111111111111111111111111111111111111111111
1111111111111111111111111111111111111111111111111111111111111111111111
1111111111111111111111111111111111111111111111111111111111111111111111
1111111111111111111111111111111111111111111111111111111111111111111111
1111111111111111111111111111111111111111111111111111111111111111111111
1111111111111111111111111111111111111111111111111111111111111111111111
1111111111111111111111111111111111111111111111111111111111111111111111
1111111111111111111111111111111111111111111111111111111111111111111111
1111111111111111111111111111111111111111111111111111111111111111111111
1111111111111111111111111111111111111111111111111111111111111111111111
1111111111111111111111111111111111111111111111111111111101111111111111
1111111111111111111111111111111111111111111111111111111111111111111111
1111111111111111111111111111111111111111111111111011111111111111111111
1111111111111111111111111111111111111111111111111111111111111111111111
1111111111111111111111111111111111111111001011010101111111111111111111
1111111111111111111111111111111111111111111111111111111111111111111111
1111111111111111111111111111111010000100010000000001001010111111111111
1111111111111111111111111111111111111111111111111111111111111111111111
1111111111111111111111110010010100010010100001000000000000000000010101
1111111111111111111111111111111111111111111111111111111111111111111111
1111111111111111000100001001000010100010101010101001010100000000111111
1111111111111111111111111111111111111111111111111111111111111111111111
1111111100000100010010100001000100001000010000100110101001111111111111
1111111111111111111111111111111111111111111111111111111111111111111110
0100000000000001000010010100010100101001001010100011111111111111111111
1111111111010010101010111111111111111111111111111111111111111000000010
0100100000100000000000000100101010010100101111111111111111111111111111
1000000100100100000010010111111111111111111111111111010010000000000000
0000000101010010000000000100001000011111111111111111111111111010010101
0101000001001000000000000101010111111111110100000000010000101000010000
0000000010100000000101010101111111111111111111111111110010100101001010
1001001001010101000000100000001000100100000000100000000000000100001000
0001010100100001000111111111111111111111111110000101000010010010001001
0000010010101000010100010001000000000000000000000100000010000000000000
0100101001011111111111111111111111111000100101000100000100010001010010
0100101010010100010001100100000100001000000100000001001001001000100001
0001111111111111111111111111010001010010000010001000100000100001000100
0100001000100000000010000000000000000000000000000000001001010001011111
1111111111111111111110010001000101000010000000010000100001000100010000
1000000000000000010000010000001001001000100100000000010001111111111111
1111111111111000100101000010000100100000000000000001000000100000010000
1000000000000000001000000000001000000101010100010111111111111111111111
1111001001000001000000000000000010000101010001001000000000000000010010
0001000000000000001000000000000010001000011111111111111111111111111000
0101010000010000100010000100000000100000000010100000000000000000000000
0000000000000000100100000010010011111111111111111111111111001010000001
0000001000000000000000000000010000000000000001000000000000000000100010
0000100000000010100001000111111111111111111111111010000010100001000000
0100000000000010000000000100001001000000000000000000000000000000000000
0000100000100001011111111111111111111111110010100100100000000000000000
0100000001000100000000000000000010010000000100000000000100000001000001
0010100011111111111111111111111111100001001000001000000000100000000000
0010000000000000000000000000000010000000000000000000000000100000001000
1111111111111111111111111100010001001000000010001000000001000000000001
0000000000001000000000000000000100010001001000000000010100010001111111
1111111111111111111000010000010000000000000010000000000000000000000000
0000000000001000000000000000000000000101001000010100001111111111111111
1111111110000100101000010000000000000000000000000000000000000000000000
0000000000000000000000000000000000001000000100111111111111111111111111
1110001000010000010000000000010001000000000000000000000000000000000000
0010000000000100000000001000001010100011111111111111111111111110000001
0100010000001000100000000000000001000000001000000000000000000000000000
1000000000000000010010000001000111111111111111111111111110100100100000
0000000000000000000000000000000000000000000000000000000000000000000000
0000100000000010101010011111111111111111111111111000100100100100000000
0000010000000000000100000000000000000000000000000000000000001000000000
0001000100000001111111111111111111111111110000001000000001000010000000
0010001000000000000000000000000010001000000000000000000000000001000100
0101001111111111111111111111111100010100001000100000000000000000000000
0000001000000000000100000000000000000000000000000000000000000100000001
1111111111111111111111111000010100010000001000000000000000000000000000
0010000000000000000000000000000000000000000100001001000101000111111111
1111111111111111100100000100000000000000000000000000000000000000000000
0000000000000000000000000000000000000000000001000101011111111111111111
1111111110000010000000100000001000001000000000000000000000000000000000
0000000000000000000000000000100010010001000011111111111111111111111111
0010100010100000000100000000000000000000010010000100000000000000000000
0000100000001000000000000000100001000111111111111111111111111100000100
0001000000000000000000100000000000000000000000000001000000000000000000
0000000000001000100000100001011111111111111111111111111000000100000100
1000000010000000000000000000000000000000000000000000000000000000000010
0000000000000010100011111111111111111111111111010010001010000000000000
0000000000000000000000000000000000000000000000000000000000000000000000
0100100000101111111111111111111111111100010010000000000000000000000000
0000000000000100000000000000000001000000000000000000000000010000000101
0000011111111111111111111111101000000100100100000000000000000000000000
0000000100010000000000000000001000000000000000000000000100000001010111
1111111111111111111111000100000000000000000000000000000000000000000000
0000000000000000000000000000000000000000000000000010100000111111111111
1111111111111010000101001000100100000100000000000000000000000000000000
0000000000000000000000000000000000000001000001001011111111111111111111
1111110001000000000000000000000000000000000000000000000000000000000000
0000001000000000000000001000100000100000001111111111111111111111111010
0000101001000000000000000000000000000000000000000000000000000000100000
0001000000000000000000010001010010111111111111111111111111110010100001
0000000000000000000000000000000000000000000000000000000000000000000000
0000000000000000100001000011111111111111111111111111000000100000010000
0000000000000000000000000000000000000000000000000000000000000000000000
0000000000100001001111111111111111111111111001010000000100001000000000
0000000000000000000000000000000000000000000000000000000000000000001000
0000100000111111111111111111111111110000010010000000000000000000000000
0000000000000000000000000000000000000000000000000000000000001001000010
1011111111111111111111111110001000000000000000000000010000000000000000
0000000000000000000000000000000000000000000000100000000010100000111111
1111111111111111111100000100000100000000000000000000000000000000000000
0000000000000000000000000000000000000000000010000000100111111111111111
1111111111100001000010000000000100000000000000100000000100010000000000
0000000000000000000000000000000000000100101000001111111111111111111111
1111000001000000010000000000000000000000001000000000000000000000000000
0000000000000000000000001000000000001001111111111111111111111111000001
0000010000000000000000100000000000000000000001000000000000000000000000
0000000000000000000000001010000011111111111111111111111111000000100010
0000000000000000000000010000000000000000000000000000000000000000000000
0000000000001000000010111111111111111111111111111000100000000010000000
0000000000000000000000000000000000000000000000000000000000000000000000
0000000101000000111111111111111111111111010001001000000010000000000000
0010000000000000000000000000000000000000000000000000000000000000001000
0001000111111111111111111111111110000000001000000001000000000000000000
0000000000000000000000000000000000000000000000000000000000010010001001
1111111111111111111111111001010100010000000000000000000000000000000000
0000000000000000000000000000000000000000000000000000000010001011111111
1111111111111111000000000000010000000000000000000000000000001000000000
0000000000000000000000000000000000000000000000100000011111111111111111
1111111110010001000000100010000000000000000000000000000000000000000000
0000000000000000001000000000010000010001010011111111111111111111111111
0000010001000000000000000000000000000000000000000000000000000000000000
0000000000000000000000000000100000000111111111111111111111111110100000
0010000100000000000000000000000000000000000000000000000000000000000000
0000000000000000000000101000011111111111111111111111110000101000000000
0001000000000000000000000000000000000000000000000000000000000000000000
0000000000000000001001111111111111111111111111010000010001000000000000
0000000000000000000000000000000000000000000000000000000000000000000001
0001001010001111111111111111111111111100000000010000100000000000000000
0000000000000000000000000000000000000000000000000000000000000000000000
1000011111111111111111111111111000101000000000000000000000000000000000
0000000000000000000000000000000000000000000000000000000000100000001111
1111111111111111111110000000000100100000000000000000000000000000000000
0000000000000000000000000000000000000000000000000001010100011111111111
1111111111111110010010000000000000000000000000000000000000000000000000
0000000000000000000000000000000000000001000000000011111111111111111111
1111100000000010000100000000000000000000000000000000000000000000000000
0000000000000000000000000000000000000100001111111111111111111111111110
0010000010000000000000000000000000000000000000000000000000000000000000
0000000000000000000000000010000100011111111111111111111111100000001000
0000000000000000000000000000000000000000000000000000000000000000000000
0000000000000000000010000011111111111111111111111111100100001010010000
0000000000000000000000000000000000000000000000000000000000000000000000
0000000100010000001111111111111111111111111000000100000000000000000000
0000000000000000000000000000000000000000000000000000000000000000000000
0000010100111111111111111111111111101000001010100000000000000000000000
0000000000000000000000000000000000000000000000000000000000000000010000
0011111111111111111111111110001010000000010000000000000000000000000000
0000000000000000000000000000000000000000000000000000000000100000111111
1111111111111111111100000100100000000000000000000000000000000000000000
0000000000000000000000000000000000000000000000000000100111111111111111
1111111111010010001000010000000000000000000000000000000000000000000000
0000000000000000000000000000000000000000010000001111111111111111111111
1101000010000000000000000000000000000000000000000000000000000000000000
0000000000000000000000000000000000100001011111111111111111111111100010
0010000000000000000000000000000000000000000000000000000000000000000000
0000000000000000000000010000100111111111111111111111111101000010001000
0000000000000000000000000000000000000000000000000000000000000000000000
0000000000000000010000001111111111111111111111111000100100000100000000
0000000000000000000000000000000000000000000000000000000000000000000000
0000000000100000111111111111111111111111010001010100000000000000000000
0000000000000000000000000000000000000000000000000000000000000000000100
0100100111111111111111111111111110001000000000000000000000000000000000
0000000000000000000000000000000000000000000000000000000000000000000000
1111111111111111111111111000011010100000000000000000000000000000000000
0000000000000000000000000000000000000000000000000000010010100111111111
1111111111111111010000000000000000000000000000000000000000000000000000
0000000000000000000000000000000000000000000000000000001111111111111111
1111111101001011010000000000000000000000000000000000000000000000000000
0000000000000000000000000000000000000101010000011111111111111111111111
1000001000000000000000000000000000000000000000000000000000000000000000
0000000000000000000000000000000000100011111111111111111111111111000001
0100000000000000000000000000000000000000000000000000000000000000000000
0000000000000000000000101000101111111111111111111111111000010000000000
0000000000000000000000000000000000000000000000000000000000000000000000
0000000000000000010000111111111111111111111111101000101000000000000000
0000000000000000000000000000000000000000000000000000000000000000000000
0000000100000011111111111111111111111110000100000000000000000000000000
0000000000000000000000000000000000000000000000000000000000000000010000
0101001111111111111111111111111000001010000000000000000000000000000000
0000000000000000000000000000000000000000000000000000000000001000000011
1111111111111111111111100001000100000000000000000000000000000000000000
0000000000000000000000000000000000000000000000000000010010001111111111
1111111111111101000010000000000000000000000000000000000000000000000000
0000000000000000000000000000000000000000000000000001111111111111111111
1111111000100100000000000000000000000000000000000000000000000000000000
0000000000000000000000000000000000000101000011111111111111111111111101
0000001000000000000000000000000000000000000000000000000000000000000000
0000000000000000000000000000000000001111111111111111111111110000101000
0000000000000000000000000000000000000000000000000000000000000000000000
0000000000000000000100101001111111111111111111111111110000000100000000
0000000000000000000000000000000000000000000000000000000000000000000000
0000000000000000000011111111111111111111111100001010000000000000000000
0000000000000000000000000000000000000000000000000000000000000000000000
0000000100011111111111111111111111111000000010000000000000000000000000
0000000000000000000000000000000000000000000000000000000000000000001000
0100111111111111111111111111000010100010000000000000000000000000000000
0000000000000000000000000000000000000000000000000000000000001000011111
1111111111111111111101000001000000000000000000000000000000000000000000
0000000000000000000000000000000000000000000000000000000010111111111111
1111111111110001010000000000000000000000000000000000000000000000000000
0000000000000000000000000000000000000000000010000111111111111111111111
1111100000010000000000000000000000000000000000000000000000000000000000
0000000000000000000000000000000001000000111111111111111111111111110010
0100010000000000000000000000000000000000000000000000000000000000000000
0000000000000000000000000001000001111111111111111111111111000000000000
0000000000000000000000000000000000000000000000000000000000000000000000
0000000000000000000001000111111111111111111111111100010100000000000000
0000000000000000000000000000000000000000000000000000000000000000000000
0000000000100000011111111111111111111111110000000010000000000000000000
0000000000000000000000000000000000000000000000000000000000000000000000
0000100001111111111111111111111110000001000000000000000000000000000000
0000000000000000000000000000000000000000000000000000000000000000000000
0111111111111111111111111100100000000000000000000000000000000000000000
0000000000000000000000000000000000000000000000000000000001000010111111
1111111111111111100000101000000000000000000000000000000000000000000000
0000000000000000000000000000000000000000000000000010001111111111111111
1111111111000000010000000000000000000000000000000000000000000000000000
0000000000000000000000000000000000000000000000011111111111111111111111
1000100000000000000000000000000000000000000000000000000000000000000000
0000000000000000000000000000000100100001111111111111111111111111000010
0100000000000000000000000000000000000000000000000000000000000000000000
0000000000000000000000000000010111111111111111111111111000000000000000
0000000000000000000000000000000000000000000000000000000000000000000000
0000000000000001001000111111111111111111111111100001010000000000000000
0000000000000000000000000000000000000000000000000000000000000000000000
0000000010000011111111111111111111111110000000010000000000000000000000
0000000000000000000000000000000000000000000000000000000000000000000000
0010001111111111111111111111111100000000000000000000000000000000000000
0000000000000000000000000000000000000000000000000000000000000010000011
1111111111111111111111000010100100000000000000000000000000000000000000
0000000000000000000000000000000000000000000000000000000100001111111111
1111111111111110000000000000000000000000000000000000000000000000000000
0000000000000000000000000000000000000000000001000000111111111111111111
1111111000001000000000000000000000000000000000000000000000000000000000
0000000000000000000000000000000000000000100011111111111111111111111110
0000001000000000000000000000000000000000000000000000000000000000000000
0000000000000000000000000000010000001111111111111111111111110100010000
0000000000000000000000000000000000000000000000000000000000000000000000
0000000000000000000000100000111111111111111111111111100001010000000000
0000000000000000000000000000000000000000000000000000000000000000000000
0000000000000000100011111111111111111111111100000000000000000000000000
0000000000000000000000000000000000000000000000000000000000000000000000
0000000000001111111111111111111111111100100100000000000000000000000000
0000000000000000000000000000000000000000000000000000000000000000001001
0000111111111111111111111110000000000000000000000000000000000000000000
0000000000000000000000000000000000000000000000000000000000000000001111
1111111111111111111100000010100000000000000000000000000000000000000000
0000000000000000000000000000000000000000000000000010100010111111111111
1111111111110000100000000000000000000000000000000000000000000000000000
0000000000000000000000000000000000000000000001000111111111111111111111
1111100000100000000000000000000000000000000000000000000000000000000000
0000000000000000000000000000000000010000011111111111111111111111110000
0000100000000000000000000000000000000000000000000000000000000000000000
0000000000000000000000000000000000111111111111111111111110100101000000
0000000000000000000000000000000000000000000000000000000000000000000000
0000000000000000000100000111111111111111111111111100000000000000000000
0000000000000000000000000000000000000000000000000000000000000000000000
0000000000001000011111111111111111111111110000001000000000000000000000
0000000000000000000000000000000000000000000000000000000000000000000000
0000000000111111111111111111111111000010000000000000000000000000000000
0000000000000000000000000000000000000000000000000000000000000000000000
0111111111111111111111111010000000000000000000000000000000000000000000
0000000000000000000000000000000000000000000000000000000010000001111111
1111111111111111100000010000000000000000000000000000000000000000000000
0000000000000000000000000000000000000000000000000100000111111111111111
1111111111000000100000000000000000000000000000000000000000000000000000
0000000000000000000000000000000000000000000000011111111111111111111111
1000100000000000000000000000000000000000000000000000000000000000000000
0000000000000000000000000000000000100001111111111111111111111111000001
0000000000000000000000000000000000000000000000000000000000000000000000
0000000000000000000000010000001111111111111111111111110000010000000000
0000000000000000000000000000000000000000000000000000000000000000000000
0000000000000000100000011111111111111111111111101000000000000000000000
0000000000000000000000000000000000000000000000000000000000000000000000
0000000000000000111111111111111111111111000010000000000000000000000000
0000000000000000000000000000000000000000000000000000000000000000000000
0000000111111111111111111111111100000000000000000000000000000000000000
0000000000000000000000000000000000000000000000000000000000000000000000
1111111111111111111111101000001000000000000000000000000000000000000000
0000000000000000000000000000000000000000000000000000000010000111111111
1111111111111111000000000000000000000000000000000000000000000000000000
0000000000000000000000000000000000000000000010000000001111111111111111
1111111000000000000000000000000000000000000000000000000000000000000000
0000000000000000000000000000000000000100100001111111111111111111111111
0010010000000000000000000000000000000000000000000000000000000000000000
0000000000000000000000000000000000001011111111111111111111111100000000
0000000000000000000000000000000000000000000000000000000000000000000000
0000000000000000000000000100011111111111111111111111110000100000000000
0000000000000000000000000000000000000000000000000000000000000000000000
0000000000000001000001111111111111111111111110000000000000000000000000
0000000000000000000000000000000000000000000000000000000000000000000000
0000000000000111111111111111111111111100001000000000000000000000000000
0000000000000000000000000000000000000000000000000000000000000000000000
1000011111111111111111111111100000000000000000000000000000000000000000
0000000000000000000000000000000000000000000000000000000000000000000111
1111111111111111111111000000000000000000000000000000000000000000000000
0000000000000000000000000000000000000000000000000000000100011111111111
1111111111111000010000000000000000000000000000000000000000000000000000
0000000000000000000000000000000000000000001000000001111111111111111111
1111110000000000000000000000000000000000000000000000000000000000000000
0000000000000000000000000000000000000000101111111111111111111111110000
0100000000000000000000000000000000000000000000000000000000000000000000
0000000000000000000000000000000000011111111111111111111111110000000000
0000000000000000000000000000000000000000000000000000000000000000000000
0000000000000000000100000011111111111111111111111110000010000000000000
0000000000000000000000000000000000000000000000000000000000000000000000
0000000000000100000111111111111111111111111100000000000000000000000000
0000000000000000000000000000000000000000000000000000000000000000000000
0000000001011111111111111111111111000000000000000000000000000000000000
0000000000000000000000000000000000000000000000000000000000000000000100
0011111111111111111111111111000100000000000000000000000000000000000000
0000000000000000000000000000000000000000000000000000000000000000111111
1111111111111111110000000000000000000000000000000000000000000000000000
0000000000000000000000000000000000000000000000000000000001111111111111
1111111111100100000000000000000000000000000000000000000000000000000000
0000000000000000000000000000000000000000100000010111111111111111111111
1100000010000000000000000000000000000000000000000000000000000000000000
0000000000000000000000000000000000000000111111111111111111111111100000
0000000000000000000000000000000000000000000000000000000000000000000000
0000000000000000000000000010000000111111111111111111111000000000000000
0000000000000000000000000000000000000000000000000000000000000000000000
0000000000000000000000000001111111111111111111010000000000000000000000
0000000000000000000000000000000000000000000000000000000000000000000000
0000000000000000000000000000000000000000000000000000000000000000000000
0000000000000000000000000000000000