P1
# CREATOR: GIMP PNM Filter Version 1.1
110 149
0001001010010001000000000000000000000000000100010001010101011010110101
0110101010110101101101010110110101011010010110111101111111111111111101
1111111111111111111110111111111111111111111111111111111111111111111111
1111111010011111111111111111111111111111111111111111111111111111111111
1111111111111111111111111111111111111111111111111000111111111111111111
1111111111111111111111111111111111111111111111111111111111111111111111
1111111111111111111011111111111111111111111111111111111111111111111111
1111111111111111111111111111111111111111111111111111111111010011111111
1111111111111111111111111111111111111111111111111111111111111111111111
1111111111111111111111111111100111111111111111111111111111111111111111
1111111111111111111111111111111111111111111111111111111111111111111100
1011111111111111111111111111111111111111111111111111111111111111111111
1111111111111111111111111111111111111110011111111111111111111111111111
1111111111111111111111111111111111111111111111111111111111111111111111
1111111100001111111111111111111111111111111111111111111111111111111111
1111111111111111111111111111111111111111111111111001111111111111111111
1111111111111111111111111111111111111111111111111111111111111111111111
1111111111111111110000111111111111111111111111111111111111111111111111
1111111111111111111111111111111111111111111111111111111111100011111111
1111110111111111111111111111111111111111111111111111111111111111111111
1111111111111111111111110110000011111111111111111111111111111111111111
1111111111111111111111111111111111111111111111111111111111111111111110
0011111111111111111111111111111111111111111111111111111111111111111111
1111111111111111111111111111111111111000000111111111111111111111111111
1111111111111111111111111111111111111111111111111111111010101010101101
0110111100000011110101010101111111111111111111111111111111111111111111
1111111111111101010010000100000001010000100100000100000000100000000000
0000000000010101011111111111111111111111111111111010000000000100000000
0000000100000010100001001000001010101000001001010101010101010111111111
1111111111111111010100101010100000001000100101001010100101010010101010
0010001010100101010101010101011010111111111111111111111100101010100101
0110101010101001010010010010101010101010101011010101101010101010110110
1100111111111111111111110010101010101010101100100101010100101010110101
1101010101010101010100101010111010101011011001111111111111111111001011
1010101010100101010100101010101010000100000000100010000010001000100100
0010100010100000111111111111111110000100010000000000100010000100000000
0000010000001000000000000000000000000000000000000010100011111111111111
1110000110000000000000000000000000000000000000000000000000000000000000
0000000000000000000100000011111111111111111001000000000000000000000000
0000000000000000000000000000000000000000000000000000000000010100000111
1111111111111000101000000000000000000000000000000000000000000000000000
0000000000000000000000000000000001000111111111111111000001000000000000
0000000000000000000000000000000000000000000000000000000000000000000000
0000000111111111111111100000000000000000000000000000000000000000000000
0000000000000000000000000000000000000000100000011111111111111100101010
0000000000000000000000000000000000000000000000000000000000000000000000
0000000000001000011111111111111110000000000000000000000000000000000000
0000000000000000000000000000000000000000000000000010000010111111111111
1100001000000000000000000000000000000000000000000000000000000000000000
0000000000000000000000100001111111111111111000010000000000000000000000
0000000000000000000000000000000000000000000000000000000000000000000111
1111111111110000100100000000000000000000000000000000000000000000000000
0000000000000000000000000000000010100011111111111111100010000000000000
0000000000000000000000000000000000000000000000000000000000000000000000
1000000111111111111110100000100000000000000000000000000000000000000000
0000000000000000000000000000000000000000001000001111111111111010000000
0000000000000000000000000000000000000000000000000000000000000000000000
0000000000000000101111111111111100001010000000000000000000000000000000
0000000000000000000000000000000000000000000000000100010001111111111111
1110000000000000000000000000000000000000000000000000000000000000000000
0000000000000000000000000001111111111111110000101000000000000000000000
0000000000000000000000000000000000000000000000000000000000000100000111
1111111111110000000000000000000000000000000000000000000000000000000000
0000000000000000000000000000000001001111111111111111000010100000000000
0000000000000000000000000000000000000000000000000000000000000000000000
1000000111111111111111100000000000000000000000000000000000000000000000
0000000000000000000000000000000000000000001000011111111111111100000100
0000000000000000000000000000000000000000000000000000000000000000000000
0000000000100000011111111111111100000100000000000000000000000000000000
0000000000000000000000000000000000000000000000000000100010111111111111
1000000000000000000000000000000000000000000000000000000000000000000000
0000000000000000000100000010111111111111111000010000000000000000000000
0000000000000000000000000000000000000000000000000000000000000100000011
1111111111110000000000000000000000000000000000000000000000000000000000
0000000000000000000000000000000010000001111111111111000001000000000000
0000000000000000000000000000000000000000000000000000000000000000000000
0000000111111111111110100000000000000000000000000000000000000000000000
0000000000000000000000000000000000000000100000001111111111111100000100
0000000000000000000000000000000000000000000000000000000000000000000000
0000000000001000010111111111111000010000000000000000000000000000000000
0000000000000000000000000000000000000000000000000000010000111111111111
1100000100000000000000000000000000000000000000000000000000000000000000
0000000000000000000100000011111111111101100000001000000000000000000000
0000000000000000000000000000000000000000000000000000000000001000000010
1111111111111000000000000000000000000000000000000000000000000000000000
0000000000000000000000000000000010000111111101111110000001000000000000
0000000000000000000000000000000000000000000000000000000000000000000000
0000000011011111111111100001000000000000000000000000000000000000000000
0000000000000000000000000000000000000000000000111111111101111000000010
0000000000000000000000000000000000000000000000000000000000000000000000
0000000001001000000111111111111110010000000000000000000000000000000000
0000000000000000000000000000000000000000000000000000000011111011111111
1000000100000000000000000000000000000000000000000000000000000000000000
0000000000000000000100100001111111111111110000001000000000000000000000
0000000000000000000000000000000000000000000000000000000000000000001111
1111111111110000100000000000000000000000000000000000000000000000000000
0000000000000000000000000000000100000111111111111111000001000000000000
0000000000000000000000000000000000000000000000000000000000000000000000
0000000101111111111111000010000000000000000000000000000000000000000000
0000000000000000000000000000000000000000001000011111111111111100000010
0000000000000000000000000000000000000000000000000000000000000000000000
0000000000100000101111111111111100001000000000000000000000000000000000
0000000000000000000000000000000000000000000000000000000001111111111111
1100000100000000000000000000000000000000000000000000000000000000000000
0000000000000000000001000010111111111111110000000000000000000000000000
0000000000000000000000000000000000000000000000000000000000000010001111
1111111111111000010000000000000000000000000000000000000000000000000000
0000000000000000000000000000000000000111111111111110000100100000000000
0000000000000000000000000000000000000000000000000000000000000000000000
0000000011111111111111100000000000000000000000000000000000000000000000
0000000000000000000000000000000000000000100000111111111111111000010100
0000000000000000000000000000000000000000000000000000000000000000000000
0000000000010000001111111111111110000100000000000000000000000000000000
0000000000000000000000000000000000000000000000000000000011111111111111
1100010010000000000000000000000000000000000000000000000000000000000000
0000000000000000000001000001111111111111111000100000000000000000000000
0000000000000000000000000000000000000000000000000000000000010000000111
1111111111100010010000000000000000000000000000000000000000000000000000
0000000000000000000000000000000000000111111111111111001001000000000000
0000000000000000000000000000000000000000000000000000000000000000000000
1000000111111111111111000010000000000000000000000000000000000000000000
0000000000000000000000000000000000000000000000001111111111111101000000
0000000000000000000000000000000000000000000000000000000000000000000000
0000000000100000111111111111111110010100000000000000000000000000000000
0000000000000000000000000000000000000000000000000001000001111111111111
1010000000000000000000000000000000000000000000000000000000000000000000
0000000000000000000000000001111111111111110101010000000000000000000000
0000000000000000000000000000000000000000000000000000000000001000000011
1111111111111001000000000000000000000000000000000000000000000000000000
0000000000000000000000000000000000001111111111111110001001000000000000
0000000000000000000000000000000000000000000000000000000000000000000000
0100000111111111111111000100000000000000000000000000000000000000000000
0000000000000000000000000000000000000000000000101111111111111101001000
0000000000000000000000000000000000000000000000000000000000000000000000
0000000000010000011111111111111100001000000000000000000000000000000000
0000000000000000000000000000000000000000000000000000000011111111111111
1101000100000000000000000000000000000000000000000000000000000000000000
0000000000000000000100100000111111111111110001000000000000000000000000
0000000000000000000000000000000000000000000000000000000000000000000111
1111111111110000100000000000000000000000000000000000000000000000000000
0000000000000000000000000000000000000011111111111111010001000000000000
0000000000000000000000000000000000000000000000000000000000000000000000
0000001111111111111111000100000000000000000000000000000000000000000000
0000000000000000000000000000000000000000100000001111111111111110000100
0000000000000000000000000000000000000000000000000000000000000000000000
0000000000000000011111111111111100010000000000000000000000000000000000
0000000000000000000000000000000000000000000000000001000010111111111111
1100000100000000000000000000000000000000000000000000000000000000000000
0000000000000000000000000001111111111111110010100000000000000000000000
0000000000000000000000000000000000000000000000000000000000000000000011
1111111111110000100000000000000000000000000000000000000000000000000000
0000000000000000000000000000001000001111111111111111010001000000000000
0000000000000000000000000000000000000100000000000000000000000000000000
0000000111111111111111010100000000000000000000000000000000000000000000
0000000000000000000000000000000000000000001000101111111111111100100100
0000000000000000000000000000000000000010000000000000000000000000000000
0000000000000000011111111111111101010000000000000000000000000000000000
0000000000000000000000000000000000000000000000000000000011111111111111
1110101010000000000000000000000000000000000000000000000000000000000000
0000000000000000000010000001111111111111101010000000000000000000000000
0000000000000000000000000000000000000000000000000000000000000000001111
1111111110111010101000000000000000000000000000000000000000000000000000
0000000000000000000000000000001000000111111111111100110100000000000000
0000000000000000000000000000000000000000000000000000000000000000000000
0000001111111111111101101010000000000000000000000000000000000000000000
0000000000000000000000000000000000000000000000011111111111111010110100
0000000000000000000000000000000000000000000000000000000000000000000000
0000000000000000111111110011100101001000000000000000000000000000000000
0000000000000000000000000000000000000000000000000100000001111110100111
0101100000000000000000000000000000000000000000000000000000000000000000
0000000000000000000000000001111001011111101001010000000000000000000000
0000000000000000000000000000000000000000000000000000000000001000000111
1010011111110100000000000000000000000000000000000000000000000000000000
0000000000000000000000000000000000001111101010111101000000000000000000
0000000000000000000000000000000000000000000000000000000000000000000000
0000001011110001111111010100000000000000000000000000000000000000000000
0000000000000000000000000000000000000000000000011111101011110100000100
0000000000000000000000000000000000000000000000000000000000000000000000
0000000000000000011111111101111100000000000000000000000000000000000000
0000000000000000000000000000000000000000000000000001000011011111111111
0000100100000000000000000000000000000000000000000000000000000000000000
0000000000000000000000000001111111111111110000000000000000000000000000
0000000000000000000000000000000000000000000000000000000000000000001111
1111111011100010100000000000000000000000000000000000000000000000000000
0000000000000000000000000000000000000111111111111111000010000000000000
0000000000000000000000000000000000000000000000000000000000000000000000
0000001011111111111110000100000000000000000000000000000000000000000000
0000000000000000000000000000000000000000000000011111111111111100001000
0000000000000000000000000000000000000000000000000000000000000000000000
0000000000100000111111111111111000010000000000000000000000000000000000
0000000000000000000000000000000000000000000000000000000001111111111111
1100001000000000000000000000000000000000000000000000000000000000000000
0000000000000000000000000001111111111111100000000000000000000000000000
0000000000000000010000000000000000000000000000000000000000010000001011
1111111111110010100000000000000000000000000000000000000000000000000000
0000000000000000000000000000000000000111111111111110000010000000000000
0000000000000000000000000000000000000000000000000000000000000000000000
0000000111111111111111000001000000000000000000000000000000000000000000
0000000000000000000000000000000000000000000000111111111111111000010000
0000000000000000000000000000000000000000000000000000000000000000000000
0000000000100000001011111111111100001000000000000000000000000000000000
0000000000000000000000000000000000000000000000000000000011111111111111
1000010100000000000000000000000000000000000000100000000000000000000000
0000000000000000000001000001111011111111110000000000000000000000000000
0000000000000000000000000000000000000000000000000000000000000000000111
1111111111100010100000000000000000000000000000000000001010000000000000
0000000000000000000000000000101000000011111111111111000001000000000000
0000000000000000000000000000000000000000000000000000000000000000000000
0000001111110111101110000100000000000000000000000000000000000000000000
0000000000000000000000000000000000000000100000001111111111111100010100
0000000000000000000000000000000000101000000000000000000000000000000000
0000000001000000011111111111111000001000000000000000000000000000000000
0000000000000000000000000000000000000000000000000000000010111111111111
1100001000000000000000000000000000000000000000010000000000000000000000
0000000000000000000010000001111111111111100000000000000000000000000000
0000000000000000000000000000000000000000000000000000000000000000001011
1111111111110010100000000000000000000000000000000000001000000000000000
0000000000000000000000000000000100000111111111111110000010000000000000
0000000000000000000000000000000000000000000000000000000000000000000000
0000000011111111111111000010000000000000000000000000000000000000000000
0000000000000000000000000000000000000000001000111101111111111100100000
0000000000000000000000000000000000000000000000000000000000000000000000
0000000000000000001111111111111100101000000000000000000000000000000000
0000000000000000000000000000000000000000000000000010000011111111111111
1000001000000000000000000000000000000000000010000000000000000000000000
0000000000000000000001000000101111111111110000000000000000000000000000
0000000000000000000000000000000000000000000000000000000000010001000111
1010010101000101000000000000000000000000000000000000000000000000000000
0000000000000000000000000000001000000001001010010010000100000000000000
0000000000000000000000000000000000000000000000000000000000000000000000
0010100010010001001001000000000000000000000000000000000000000000000000
0000000000000000000000000000000000000000001001010101010101010101010000
0000000000000000000000000000000000000000000000000000000000000000000000
0000000000000101001010101010101010000000000000000000000000000000000000
0000000000