P1
# CREATOR: GIMP PNM Filter Version 1.1
42 56
0001011110100000000000000000000001011111100011111111100000000000000000
0000001011111100101111111000000000000000000000011111111000111111111000
0000000000000000000111111111001111111110000000000000000000000111111111
0001111111100000000000000000000001111111110011111111100000000000000000
0000011111111100111111111000000000000000000000011111111100111111111000
0000000000000000001111111111001111111110000000000000000000000111111111
0011111111100000000000000000000001111111100011111111100000000000000000
0000011111111100111111111100000000000000000000011111111000011111111000
0000000000000000000111111111001111111110000000000000000000000111111110
0011111111100000000000000000000001111111110011111111100000000000000000
0000011111111100111111111000000000000000000000011111111100111111111000
0000000000000000000111111110001111111110000000000000000000000111111111
0011111111100000000000000000000001111111100011111111100000000000000000
0001011111111100111111111100000000000000000000111111111000111111111101
0000000000000100011111111110001111111111111111111111111111111111111111
0011111111111111111111111111111111111111100011111111111111111111111111
1111111111111110111111111111111111111111111111111111110001111111111111
1111111111111111111111111110011111111111111111111111111111111111111100
0111111111111111111111111111111111111111100111111111111111111111111111
1111111111111001111111111111111111111111111111111111110001111111111110
0000000000000000011111111110011111111110000000000000000000011111111100
0111111111000000000000000000000011111111000111111111000000000000000000
0000111111111001111111110000000000000000000000111111110001111111110000
0000000000000000011111111110011111111100000000000000000000001111111100
0111111111000000000000000000000111111111100111111111000000000000000000
0000111111110001111111110000000000000000000001111111110001111111110000
0000000000000000001111111100111111111100000000000000000000011111111110
0111111111000000000000000000000011111111001111111111000000000000000000
0001111111111011111111110000000000000000000000111111110001111111110000
0000000000000000011111111100111111111100000000000000000000011111111100
0111111110000000000000000000000011111111101111111111000000000000000000
0001111111110011111111110000000000000000000001111111110001111111100000
0000000000000000011111111100111111111100000000000000000000001111111100
001111111100000000000000000000000101101100